<?xml version="1.0" standalone="no"?>
<!DOCTYPE svg PUBLIC "-//W3C//DTD SVG 1.1//EN" "http://www.w3.org/Graphics/SVG/1.1/DTD/svg11.dtd" >
<svg xmlns="http://www.w3.org/2000/svg">
<metadata></metadata>
<defs>
<font id="comfortaaregular" horiz-adv-x="1280" >
<font-face units-per-em="2048" ascent="1638" descent="-410" />
<missing-glyph horiz-adv-x="560" />
<glyph horiz-adv-x="2048" />
<glyph horiz-adv-x="2048" />
<glyph unicode="&#xd;" horiz-adv-x="560" />
<glyph unicode=" "  horiz-adv-x="560" />
<glyph unicode="&#x09;" horiz-adv-x="560" />
<glyph unicode="&#xa0;" horiz-adv-x="560" />
<glyph unicode="!" horiz-adv-x="400" d="M80 120q0 50 35 85t85 35t85 -35t35 -85t-35 -85t-85 -35t-85 35t-35 85zM120 399v1121q0 33 23.5 56.5t56.5 23.5t56.5 -23.5t23.5 -56.5v-1121q0 -32 -23 -55q-24 -24 -57 -24t-56 24q-24 23 -24 55z" />
<glyph unicode="&#x22;" horiz-adv-x="560" d="M80 1512v8q0 33 23.5 56.5t56.5 23.5t56.5 -23.5t23.5 -56.5v-8l-20 -292q0 -25 -17.5 -42.5t-42.5 -17.5t-42.5 17.5t-17.5 42.5zM320 1512v8q0 33 23.5 56.5t56.5 23.5t56.5 -23.5t23.5 -56.5v-8l-20 -292q0 -25 -17.5 -42.5t-42.5 -17.5t-42.5 17.5t-17.5 42.5z" />
<glyph unicode="#" d="M73 545q0 7 1 15q6 33 33.5 56.5t60.5 23.5h160l56 320h-160q-33 0 -52 23.5t-14 56.5q6 33 34 56.5t61 23.5h160l70 400q6 33 33.5 56.5t60.5 23.5t52.5 -23.5t13.5 -56.5l-70 -400h240l70 400q6 33 33.5 56.5t60.5 23.5t52.5 -23.5t13.5 -56.5l-70 -400h160 q33 0 52 -23q14 -18 14 -42q0 -7 -1 -15q-5 -33 -33 -56.5t-61 -23.5h-160l-56 -320h160q33 0 52.5 -23.5t13.5 -56.5t-33.5 -56.5t-60.5 -23.5h-160l-71 -400q-6 -33 -33.5 -56.5t-60.5 -23.5t-52.5 23.5t-13.5 56.5l71 400h-240l-71 -400q-6 -33 -33.5 -56.5t-60.5 -23.5 t-52.5 23.5t-13.5 56.5l71 400h-160q-33 0 -52 24q-15 17 -15 41zM488 640h240l56 320h-240z" />
<glyph unicode="$" horiz-adv-x="1060" d="M80 267q0 33 23.5 56.5t56.5 23.5q43 0 68 -37q12 -19 28 -36q85 -102 224 -113v644q-134 26 -226 134q-107 126 -94 292q14 165 140 272q82 69 180 88v89q0 33 23.5 56.5t56.5 23.5t56.5 -23.5t23.5 -56.5v-90q133 -26 224 -133q22 -26 39 -54q12 -19 12 -43 q0 -33 -23.5 -56.5t-56.5 -23.5t-56 24q-9 8 -14 17q-10 16 -23 32q-44 51 -102 71v-484q132 -38 227 -149q113 -134 113 -304q0 -23 -2 -46q-16 -198 -167 -326q-79 -67 -171 -95v-100q0 -33 -23.5 -56.5t-56.5 -23.5t-56.5 23.5t-23.5 56.5v81q-10 0 -20 1 q-198 16 -326 168q-21 23 -38 49q-16 21 -16 48zM320 1218q-8 -99 57 -175q43 -52 103 -72v454q-41 -14 -76 -44q-76 -65 -84 -163zM640 192q35 17 67 45q101 85 112 217q11 133 -74 234q-46 53 -105 81v-577z" />
<glyph unicode="%" horiz-adv-x="1760" d="M80 1200q0 166 117 283t283 117t283 -117t117 -283t-117 -283t-283 -117t-283 117t-117 283zM240 80q0 31 20 54l1115 1433q28 33 65 33q33 0 56.5 -23.5t23.5 -56.5q0 -27 -16 -48l-1123 -1445q-28 -27 -61 -27t-56.5 23.5t-23.5 56.5zM240 1200q0 -99 70.5 -169.5 t169.5 -70.5t169.5 70.5t70.5 169.5t-70.5 169.5t-169.5 70.5t-169.5 -70.5t-70.5 -169.5zM880 400q0 166 117 283t283 117t283 -117t117 -283t-117 -283t-283 -117t-283 117t-117 283zM1040 400q0 -99 70.5 -169.5t169.5 -70.5t169.5 70.5t70.5 169.5t-70.5 169.5 t-169.5 70.5t-169.5 -70.5t-70.5 -169.5z" />
<glyph unicode="&#x26;" horiz-adv-x="1440" d="M80 460q0 182 189 331l106 83l-110 111q-105 106 -105 255t105.5 254.5t254.5 105.5t254.5 -105.5t105.5 -254.5q0 -159 -146 -285l-121 -92l354 -355l177 189q23 23 56 23t56.5 -23.5t23.5 -56.5q0 -31 -20 -54l-180 -191l258 -261q22 -22 22 -54q0 -33 -23.5 -56.5 t-56.5 -23.5q-32 0 -56 22l-254 255l-139 -148q-129 -129 -311 -129t-311 129t-129 331zM240 460q0 -136 82 -218t198 -82t198 82l139 149l-372 373l-113 -86q-132 -102 -132 -218zM320 1240q0 -83 58 -141l124 -125l119 94q99 79 99 172q0 83 -58.5 141.5t-141.5 58.5 t-141.5 -58.5t-58.5 -141.5z" />
<glyph unicode="'" horiz-adv-x="320" d="M80 1512v8q0 33 23.5 56.5t56.5 23.5t56.5 -23.5t23.5 -56.5v-8l-20 -292q0 -25 -17.5 -42.5t-42.5 -17.5t-42.5 17.5t-17.5 42.5z" />
<glyph unicode="(" horiz-adv-x="560" d="M80 562q0 493 243 985q6 16 19 30q24 23 57 23t56.5 -23.5t23.5 -56.5q-2 -24 -13 -43q-228 -458 -228 -916q0 -460 230 -920q11 -18 11 -41q0 -33 -23.5 -56.5t-56.5 -23.5t-57 24q-12 14 -19 30q-243 495 -243 988z" />
<glyph unicode=")" horiz-adv-x="560" d="M80 -400q0 23 11 41q230 460 230 920q0 458 -228 916q-11 19 -13 43q0 33 23.5 56.5t56.5 23.5t57 -23q13 -14 19 -30q244 -492 244 -985t-244 -988q-8 -16 -19 -30q-24 -24 -57 -24t-56.5 23.5t-23.5 56.5z" />
<glyph unicode="*" horiz-adv-x="780" d="M85 1360q0 13 5 26q11 32 41 46t61 3q14 -5 24 -13l157 -117l-58 188q-4 13 -4 27q0 33 23.5 56.5t56.5 23.5t56.5 -23.5t23.5 -56.5q0 -14 -4 -27l-58 -189l158 118q11 8 24 13q31 11 61 -3t41 -46q5 -14 5 -27q0 -17 -8 -34q-14 -30 -45 -41q-14 -4 -27 -5l-196 -8 l161 -112q11 -7 20 -19q20 -26 16 -59t-30 -53q-22 -17 -59 -16q-33 4 -53 30q-9 11 -13 24l-72 181l-73 -181q-4 -13 -13 -24q-20 -31 -64 -31q-26 0 -48 17q-26 20 -30 53t16 59q9 12 20 19l161 112l-195 8q-14 1 -27 5q-31 11 -45 41q-9 17 -9 35z" />
<glyph unicode="+" horiz-adv-x="1120" d="M80 800q0 33 23.5 56.5t56.5 23.5h320v320q0 33 23.5 56.5t56.5 23.5t56.5 -23.5t23.5 -56.5v-320h320q33 0 56.5 -23.5t23.5 -56.5t-23.5 -56.5t-56.5 -23.5h-320v-320q0 -33 -23.5 -56.5t-56.5 -23.5t-56.5 23.5t-23.5 56.5v320h-320q-33 0 -56.5 23.5t-23.5 56.5z" />
<glyph unicode="," horiz-adv-x="400" d="M80 120q0 50 35 85t85 35t85 -35t35 -85q0 -196 -87 -328q-18 -32 -53 -32q-25 0 -42.5 17.5t-17.5 42.5t17 42q70 78 -22 173q-35 35 -35 85z" />
<glyph unicode="-" horiz-adv-x="800" d="M80 560q0 33 23.5 56.5t56.5 23.5h480q33 0 56.5 -23.5t23.5 -56.5t-23.5 -56.5t-56.5 -23.5h-480q-33 0 -56.5 23.5t-23.5 56.5z" />
<glyph unicode="." horiz-adv-x="400" d="M80 120q0 50 35 85t85 35t85 -35t35 -85t-35 -85t-85 -35t-85 35t-35 85z" />
<glyph unicode="/" horiz-adv-x="960" d="M80 -80q0 18 7 34l640 1600q6 12 17 23q23 23 56 23t56.5 -23.5t23.5 -56.5q0 -18 -7 -34l-640 -1600q-6 -12 -16 -22q-24 -24 -57 -24t-56.5 23.5t-23.5 56.5z" />
<glyph unicode="0" horiz-adv-x="1120" d="M80 800q0 480 197 683q117 117 283 117t283 -117q197 -203 197 -683t-197 -683q-117 -117 -283 -117t-283 117q-197 203 -197 683zM240 800q0 -400 150 -569q71 -71 170 -71t170 71q150 169 150 569t-150 569q-71 71 -170 71t-170 -71q-150 -169 -150 -569z" />
<glyph unicode="1" horiz-adv-x="560" d="M80 1440q0 33 24 57q12 12 27 18l240 80q13 5 29 5q33 0 56.5 -23.5t23.5 -56.5v-1440q0 -33 -23.5 -56.5t-56.5 -23.5t-56.5 23.5t-23.5 56.5v1329l-129 -43q-15 -6 -31 -6q-33 0 -56.5 23.5t-23.5 56.5z" />
<glyph unicode="2" horiz-adv-x="1120" d="M80 80q0 33 23 57l683 756q94 94 94 227t-93.5 226.5t-226.5 93.5t-226.5 -93.5t-93.5 -226.5q0 -33 -23.5 -56.5t-56.5 -23.5t-56.5 23.5t-23.5 56.5q0 199 140.5 339.5t339.5 140.5t339.5 -140.5t140.5 -339.5t-141 -340l-558 -620h619q33 0 56.5 -23.5t23.5 -56.5 t-23.5 -56.5t-56.5 -23.5h-800q-33 0 -56.5 23.5t-23.5 56.5z" />
<glyph unicode="3" horiz-adv-x="1120" d="M80 480q0 33 23.5 56.5t56.5 23.5t56.5 -23.5t23.5 -56.5q0 -133 93.5 -226.5t226.5 -93.5t226.5 93.5t93.5 226.5t-93.5 226.5t-226.5 93.5q-33 0 -56.5 23.5t-23.5 56.5t23.5 56.5t56.5 23.5q99 0 169.5 70.5t70.5 169.5t-70.5 169.5t-169.5 70.5t-169.5 -70.5 t-70.5 -169.5q0 -33 -23.5 -56.5t-56.5 -23.5t-56.5 23.5t-23.5 56.5q0 166 117 283t283 117t283 -117t117 -283q0 -176 -147 -311q46 -29 87 -69q140 -141 140 -340t-140.5 -339.5t-339.5 -140.5t-339.5 140.5t-140.5 339.5z" />
<glyph unicode="4" d="M80 480q0 26 15 47l720 1040q22 33 65 33q33 0 56.5 -23.5t23.5 -56.5v-960h160q33 0 56.5 -23.5t23.5 -56.5t-23.5 -56.5t-56.5 -23.5h-160v-320q0 -33 -23.5 -56.5t-56.5 -23.5t-56.5 23.5t-23.5 56.5v320h-640q-33 0 -56.5 23.5t-23.5 56.5zM313 560h487v704z" />
<glyph unicode="5" horiz-adv-x="1200" d="M80 520q0 33 23.5 56.5t56.5 23.5t56.5 -23.5t23.5 -56.5q0 -149 105.5 -254.5t254.5 -105.5t254.5 105.5t105.5 254.5t-105.5 254.5t-254.5 105.5h-360q-33 0 -56.5 23.5t-23.5 56.5v560q0 33 23.5 56.5t56.5 23.5h720q33 0 56.5 -23.5t23.5 -56.5t-23.5 -56.5 t-56.5 -23.5h-640v-400h280q215 0 367.5 -152.5t152.5 -367.5t-152.5 -367.5t-367.5 -152.5t-367.5 152.5t-152.5 367.5z" />
<glyph unicode="6" horiz-adv-x="1120" d="M80 480q0 147 77 262l491 814q6 11 16 21q23 23 56 23t56.5 -23.5t23.5 -56.5q0 -23 -11 -41l-318 -527q43 8 89 8q199 0 339.5 -140.5t140.5 -339.5t-140.5 -339.5t-339.5 -140.5t-339.5 140.5t-140.5 339.5zM240 480q0 -133 93.5 -226.5t226.5 -93.5t226.5 93.5 t93.5 226.5t-93.5 226.5t-226.5 93.5t-226.5 -93.5t-93.5 -226.5z" />
<glyph unicode="7" horiz-adv-x="1120" d="M80 80q0 24 16 48l729 1312h-665q-33 0 -56.5 23.5t-23.5 56.5t23.5 56.5t56.5 23.5h800q33 0 56.5 -23.5t23.5 -56.5q0 -24 -12 -43l-796 -1432q-7 -13 -15 -21q-24 -24 -57 -24t-56.5 23.5t-23.5 56.5z" />
<glyph unicode="8" horiz-adv-x="1120" d="M80 480q0 199 141 340q40 40 86 69q-15 13 -30 28q-117 117 -117 283t117 283t283 117t283 -117t117 -283t-117 -283q-15 -15 -30 -28q46 -29 87 -69q140 -141 140 -340t-140.5 -339.5t-339.5 -140.5t-339.5 140.5t-140.5 339.5zM240 480q0 -133 93.5 -226.5t226.5 -93.5 t226.5 93.5t93.5 226.5t-93.5 226.5t-226.5 93.5t-226.5 -93.5t-93.5 -226.5zM320 1200q0 -99 70.5 -169.5t169.5 -70.5t169.5 70.5t70.5 169.5t-70.5 169.5t-169.5 70.5t-169.5 -70.5t-70.5 -169.5z" />
<glyph unicode="9" horiz-adv-x="1120" d="M80 1120q0 199 140.5 339.5t339.5 140.5t339.5 -140.5t140.5 -339.5q0 -147 -77 -262l-491 -814q-6 -11 -15 -20q-24 -24 -57 -24t-56.5 23.5t-23.5 56.5q0 23 11 41l318 527q-43 -8 -89 -8q-199 0 -339.5 140.5t-140.5 339.5zM240 1120q0 -133 93.5 -226.5t226.5 -93.5 t226.5 93.5t93.5 226.5t-93.5 226.5t-226.5 93.5t-226.5 -93.5t-93.5 -226.5z" />
<glyph unicode=":" horiz-adv-x="400" d="M80 120q0 50 35 85t85 35t85 -35t35 -85t-35 -85t-85 -35t-85 35t-35 85zM80 1001q0 50 35 85t85 35t85 -35t35 -85t-35 -85t-85 -35t-85 35t-35 85z" />
<glyph unicode=";" horiz-adv-x="400" d="M80 120q0 50 35 85t85 35t85 -35t35 -85q0 -196 -87 -328q-22 -32 -53 -32q-25 0 -42.5 17.5t-17.5 42.5t17 42q70 78 -22 173q-35 35 -35 85zM80 1001q0 50 35 85t85 35t85 -35t35 -85t-35 -85t-85 -35t-85 35t-35 85z" />
<glyph unicode="&#x3c;" horiz-adv-x="1120" d="M80 720q0 44 44 72l796 478q18 10 40 10q33 0 56.5 -23.5t23.5 -56.5q0 -43 -41 -70l-684 -410l684 -410q41 -27 41 -70q0 -33 -23.5 -56.5t-56.5 -23.5q-22 0 -40 10l-796 478q-44 28 -44 72z" />
<glyph unicode="=" horiz-adv-x="1040" d="M80 480q0 33 23.5 56.5t56.5 23.5h720q33 0 56.5 -23.5t23.5 -56.5t-23.5 -56.5t-56.5 -24.5h-720q-33 1 -56.5 24.5t-23.5 56.5zM80 960q0 33 23.5 56.5t56.5 23.5h720q33 0 56.5 -23.5t23.5 -56.5t-23.5 -56.5t-56.5 -23.5h-720q-33 0 -56.5 23.5t-23.5 56.5z" />
<glyph unicode="&#x3e;" horiz-adv-x="1120" d="M80 240q0 43 41 70l684 410l-684 410q-41 27 -41 70q0 33 23.5 56.5t56.5 23.5q22 0 40 -10l796 -478q44 -28 44 -72t-44 -72l-796 -478q-18 -10 -40 -10q-33 0 -56.5 23.5t-23.5 56.5z" />
<glyph unicode="?" horiz-adv-x="1120" d="M80 1120q0 199 140.5 339.5t339.5 140.5t339.5 -140.5t140.5 -339.5t-141 -340l-165 -153q-94 -94 -94 -227q0 -33 -23.5 -56.5t-56.5 -23.5t-56.5 23.5t-23.5 56.5q0 199 141 340l165 153q94 94 94 227t-93.5 226.5t-226.5 93.5t-226.5 -93.5t-93.5 -226.5 q0 -33 -23.5 -56.5t-56.5 -23.5t-56.5 23.5t-23.5 56.5zM440 120q0 50 35 85t85 35t85 -35t35 -85t-35 -85t-85 -35t-85 35t-35 85z" />
<glyph unicode="@" horiz-adv-x="2240" d="M80 560q0 431 304.5 735.5t735.5 304.5t735.5 -304.5t304.5 -735.5q0 -640 -400 -640q-240 0 -240 247q-168 -167 -400 -167t-396 164t-164 396t164 396t396 164t396 -164t164 -396v-400q0 -80 80 -80q240 0 240 480q0 365 -257.5 622.5t-622.5 257.5t-622.5 -257.5 t-257.5 -622.5t257.5 -622.5t622.5 -257.5q196 0 362 74q18 11 40 11q33 0 56.5 -23.5t23.5 -56.5t-23 -56q-13 -13 -28 -19q-197 -90 -431 -90q-431 0 -735.5 304.5t-304.5 735.5zM720 560q0 -166 117 -283t283 -117t283 117t117 283t-117 283t-283 117t-283 -117 t-117 -283z" />
<glyph unicode="A" horiz-adv-x="1440" d="M80 80q0 19 7 34l556 1430q6 18 21 33q23 23 56 23t57 -23q14 -15 20 -33l556 -1430q7 -15 7 -34q0 -33 -23.5 -56.5t-56.5 -23.5t-56 23q-12 12 -18 26l-199 511h-574l-199 -511q-6 -14 -17 -26q-24 -23 -57 -23t-56.5 23.5t-23.5 56.5zM495 720h450l-225 579z" />
<glyph unicode="B" horiz-adv-x="1120" d="M80 80v1440q0 33 23.5 56.5t56.5 23.5h320q166 0 283 -117t117 -283t-117 -283q74 -35 137 -97q140 -141 140 -340t-140.5 -339.5t-339.5 -140.5h-400q-33 0 -56.5 23.5t-23.5 56.5zM240 160h320q133 0 226.5 93.5t93.5 226.5t-93.5 226.5t-226.5 93.5h-320v-640z M240 960h240q99 0 169.5 70.5t70.5 169.5t-70.5 169.5t-169.5 70.5h-240v-480z" />
<glyph unicode="C" horiz-adv-x="1480" d="M80 800q0 331 234.5 565.5t565.5 234.5q286 0 509 -183q23 -24 23 -57t-23.5 -56.5t-56.5 -23.5t-57 24q-169 136 -395 136q-265 0 -452.5 -187.5t-187.5 -452.5t187.5 -452.5t452.5 -187.5q229 0 400 140q20 14 46 14q33 0 56.5 -23.5t23.5 -56.5t-23 -56 q-223 -178 -503 -178q-331 0 -565.5 234.5t-234.5 565.5z" />
<glyph unicode="D" horiz-adv-x="1360" d="M80 80v1440q0 33 23.5 56.5t56.5 23.5h320q331 0 565.5 -234.5t234.5 -565.5t-234.5 -565.5t-565.5 -234.5h-320q-33 0 -56.5 23.5t-23.5 56.5zM240 160h240q265 0 452.5 187.5t187.5 452.5t-187.5 452.5t-452.5 187.5h-240v-1280z" />
<glyph unicode="E" d="M80 80v1440q0 33 23.5 56.5t56.5 23.5h960q33 0 56.5 -23.5t23.5 -56.5t-23.5 -56.5t-56.5 -23.5h-880v-560h640q33 0 56.5 -23.5t23.5 -56.5t-23.5 -56.5t-56.5 -23.5h-640v-560h880q33 0 56.5 -23.5t23.5 -56.5t-23.5 -56.5t-56.5 -23.5h-960q-33 0 -56.5 23.5 t-23.5 56.5z" />
<glyph unicode="F" d="M80 80v1440q0 33 23.5 56.5t56.5 23.5h960q33 0 56.5 -23.5t23.5 -56.5t-23.5 -56.5t-56.5 -23.5h-880v-560h640q33 0 56.5 -23.5t23.5 -56.5t-23.5 -56.5t-56.5 -23.5h-640v-640q0 -33 -23.5 -56.5t-56.5 -23.5t-56.5 23.5t-23.5 56.5z" />
<glyph unicode="G" horiz-adv-x="1500" d="M80 800q0 331 234.5 565.5t565.5 234.5q286 0 509 -183q23 -24 23 -57t-23.5 -56.5t-56.5 -23.5t-57 24q-169 136 -395 136q-265 0 -452.5 -187.5t-187.5 -452.5t187.5 -452.5t452.5 -187.5q207 0 366 114v366h-316q-33 0 -56.5 23.5t-23.5 56.5t23.5 56.5t56.5 23.5h397 q32 0 56 -23q23 -24 23 -57v-486q0 -33 -23 -56q-223 -178 -503 -178q-331 0 -565.5 234.5t-234.5 565.5z" />
<glyph unicode="H" d="M80 80v1440q0 33 23.5 56.5t56.5 23.5t56.5 -23.5t23.5 -56.5v-640h800v640q0 33 23.5 56.5t56.5 23.5t56.5 -23.5t23.5 -56.5v-1440q0 -33 -23.5 -56.5t-56.5 -23.5t-56.5 23.5t-23.5 56.5v640h-800v-640q0 -33 -23.5 -56.5t-56.5 -23.5t-56.5 23.5t-23.5 56.5z" />
<glyph unicode="I" horiz-adv-x="480" d="M160 80v1440q0 33 23.5 56.5t56.5 23.5t56.5 -23.5t23.5 -56.5v-1440q0 -33 -23.5 -56.5t-56.5 -23.5t-56.5 23.5t-23.5 56.5z" />
<glyph unicode="J" horiz-adv-x="1120" d="M80 480q0 33 23.5 56.5t56.5 23.5t56.5 -23.5t23.5 -56.5q0 -133 93.5 -226.5t226.5 -93.5t226.5 93.5t93.5 226.5v1040q0 33 23.5 56.5t56.5 23.5t56.5 -23.5t23.5 -56.5v-1040q0 -199 -140.5 -339.5t-339.5 -140.5t-339.5 140.5t-140.5 339.5z" />
<glyph unicode="K" horiz-adv-x="1200" d="M80 80v1440q0 33 23.5 56.5t56.5 23.5t56.5 -23.5t23.5 -56.5v-686l741 741q26 25 59 25t56.5 -23.5t23.5 -56.5t-23 -57l-562 -562l570 -773q15 -21 15 -45q0 -42 -32 -67q-22 -16 -46 -16q-44 0 -68 34l-554 752l-180 -180v-526q0 -33 -23.5 -56.5t-56.5 -23.5 t-56.5 23.5t-23.5 56.5z" />
<glyph unicode="L" horiz-adv-x="1200" d="M80 80v1440q0 33 23.5 56.5t56.5 23.5t56.5 -23.5t23.5 -56.5v-1360h800q33 0 56.5 -23.5t23.5 -56.5t-23.5 -56.5t-56.5 -23.5h-880q-33 0 -56.5 23.5t-23.5 56.5z" />
<glyph unicode="M" horiz-adv-x="1760" d="M80 80v1440q0 33 23.5 56.5t56.5 23.5q48 0 71 -42l649 -1299l649 1299q23 42 71 42q33 0 56.5 -23.5t23.5 -56.5v-1440q0 -33 -23.5 -56.5t-56.5 -23.5t-56.5 23.5t-23.5 56.5v1101l-571 -1142q-21 -39 -69 -39q-50 0 -74 49l-566 1132v-1101q0 -33 -23.5 -56.5 t-56.5 -23.5t-56.5 23.5t-23.5 56.5z" />
<glyph unicode="N" horiz-adv-x="1440" d="M80 80v1440q0 33 23.5 56.5t56.5 23.5q36 0 62 -29l978 -1258v1207q0 33 23.5 56.5t56.5 23.5t56.5 -23.5t23.5 -56.5v-1440q0 -33 -23.5 -56.5t-56.5 -23.5q-35 0 -60 26l-980 1260v-1206q0 -33 -23.5 -56.5t-56.5 -23.5t-56.5 23.5t-23.5 56.5z" />
<glyph unicode="O" horiz-adv-x="1760" d="M80 800q0 331 234.5 565.5t565.5 234.5t565.5 -234.5t234.5 -565.5t-234.5 -565.5t-565.5 -234.5t-565.5 234.5t-234.5 565.5zM240 800q0 -265 187.5 -452.5t452.5 -187.5t452.5 187.5t187.5 452.5t-187.5 452.5t-452.5 187.5t-452.5 -187.5t-187.5 -452.5z" />
<glyph unicode="P" horiz-adv-x="1080" d="M80 80v1440q0 33 23.5 56.5t56.5 23.5h320q215 0 367.5 -152.5t152.5 -367.5t-152.5 -367.5t-367.5 -152.5h-240v-480q0 -33 -23.5 -56.5t-56.5 -23.5t-56.5 23.5t-23.5 56.5zM240 720h240q149 0 254.5 105.5t105.5 254.5t-105.5 254.5t-254.5 105.5h-240v-720z" />
<glyph unicode="Q" horiz-adv-x="1760" d="M80 800q0 331 234.5 565.5t565.5 234.5t565.5 -234.5t234.5 -565.5q0 -290 -180 -506l158 -158q22 -24 22 -56q0 -33 -23.5 -56.5t-56.5 -23.5t-58 24l-156 156q-216 -180 -506 -180q-331 0 -565.5 234.5t-234.5 565.5zM240 800q0 -265 187.5 -452.5t452.5 -187.5 q224 0 392 134l-169 169q-23 24 -23 57t23.5 56.5t56.5 23.5t57 -23l169 -169q134 168 134 392q0 265 -187.5 452.5t-452.5 187.5t-452.5 -187.5t-187.5 -452.5z" />
<glyph unicode="R" horiz-adv-x="1200" d="M80 80v1440q0 33 23.5 56.5t56.5 23.5h400q199 0 339.5 -140.5t140.5 -339.5t-140 -339q-65 -65 -141 -99l348 -558q13 -19 13 -44q0 -33 -23.5 -56.5t-56.5 -23.5q-43 0 -70 41l-375 600q-17 -1 -35 -1h-320v-560q0 -33 -23.5 -56.5t-56.5 -23.5t-56.5 23.5t-23.5 56.5z M240 800h320q133 0 226.5 93.5t93.5 226.5t-93.5 226.5t-226.5 93.5h-320v-640z" />
<glyph unicode="S" horiz-adv-x="1060" d="M80 267q0 33 23.5 56.5t56.5 23.5q43 0 68 -37q12 -19 28 -36q85 -102 218 -113q14 -1 27 -1q115 0 206 76q101 86 112 218q1 15 1 30q0 116 -76 204q-86 100 -218 111q-165 14 -272 140q-95 112 -95 257q0 18 1 35q14 165 140 272q113 97 260 97q174 0 304 -143 q22 -26 39 -54q12 -19 12 -43q0 -33 -23.5 -56.5t-56.5 -23.5q-38 0 -56 24t-37 49q-65 76 -163 84q-11 1 -22 1q-86 0 -153 -58q-76 -64 -84 -162q-1 -11 0 -22q0 -86 56 -153q64 -76 163 -84q199 -17 328 -168q113 -134 113 -304q0 -23 -2 -46q-16 -198 -167 -326 q-135 -115 -307 -115q-215 0 -370 170q-21 23 -38 49q-16 21 -16 48z" />
<glyph unicode="T" horiz-adv-x="1360" d="M80 1520q0 33 23.5 56.5t56.5 23.5h1040q33 0 56.5 -23.5t23.5 -56.5t-23.5 -56.5t-56.5 -23.5h-440v-1360q0 -33 -23.5 -56.5t-56.5 -23.5t-56.5 23.5t-23.5 56.5v1360h-440q-33 0 -56.5 23.5t-23.5 56.5z" />
<glyph unicode="U" d="M80 560v960q0 33 23.5 56.5t56.5 23.5t56.5 -23.5t23.5 -56.5v-960q0 -166 117 -283t283 -117t283 117t117 283v960q0 33 23.5 56.5t56.5 23.5t56.5 -23.5t23.5 -56.5v-960q0 -232 -164 -396t-396 -164t-396 164t-164 396z" />
<glyph unicode="V" horiz-adv-x="1440" d="M80 1520q0 33 23.5 56.5t56.5 23.5q53 0 73 -46l487 -1253l487 1253q20 46 73 46q33 0 56.5 -23.5t23.5 -56.5q0 -22 -10 -45l-557 -1425q-6 -16 -16 -26q-24 -24 -57 -24t-56 24q-11 10 -17 26l-557 1425q-10 23 -10 45z" />
<glyph unicode="W" horiz-adv-x="1920" d="M80 1520q0 33 23.5 56.5t56.5 23.5t57 -23q13 -14 19 -30l324 -1168l324 1168q4 15 20 30q23 23 56 23t57 -23q13 -14 19 -30l324 -1168l324 1168q6 16 20 30q23 23 56 23t56.5 -23.5t23.5 -56.5q0 -17 -6 -35l-392 -1418q-8 -25 -25 -43q-24 -24 -57 -24t-56 24 q-18 18 -25 42l-319 1152l-318 -1151q-8 -25 -25 -43q-24 -24 -57 -24t-56 24q-18 18 -25 42l-393 1419q-6 18 -6 35z" />
<glyph unicode="X" horiz-adv-x="1440" d="M80 80q0 28 17 50l521 670l-524 674q-14 20 -14 46q0 33 23.5 56.5t56.5 23.5q38 0 66 -34l494 -635l494 635q28 34 66 34q33 0 56.5 -23.5t23.5 -56.5q0 -26 -14 -46l-524 -674l521 -670q17 -22 17 -50q0 -33 -23.5 -56.5t-56.5 -23.5q-38 0 -61 28l-499 641l-499 -641 q-23 -28 -61 -28q-33 0 -56.5 23.5t-23.5 56.5z" />
<glyph unicode="Y" d="M80 1520q0 33 23.5 56.5t56.5 23.5q41 0 65 -33l415 -622l415 622q24 33 65 33q33 0 56.5 -23.5t23.5 -56.5q0 -25 -13 -45l-467 -699v-696q0 -33 -23.5 -56.5t-56.5 -23.5t-56.5 23.5t-23.5 56.5v696l-467 699q-13 20 -13 45z" />
<glyph unicode="Z" horiz-adv-x="1440" d="M80 80q0 28 17 50l1019 1310h-956q-33 0 -56.5 23.5t-23.5 56.5t23.5 56.5t56.5 23.5h1120q33 0 56.5 -23.5t23.5 -56.5q0 -26 -14 -46l-1022 -1314h956q33 0 56.5 -23.5t23.5 -56.5t-23.5 -56.5t-56.5 -23.5h-1120q-33 0 -56.5 23.5t-23.5 56.5z" />
<glyph unicode="[" horiz-adv-x="640" d="M80 -400v1920q0 33 23.5 56.5t56.5 23.5h320q33 0 56.5 -23.5t23.5 -56.5t-23.5 -56.5t-56.5 -23.5h-240v-1760h240q33 0 56.5 -23.5t23.5 -56.5t-23.5 -56.5t-56.5 -23.5h-320q-33 0 -56.5 23.5t-23.5 56.5z" />
<glyph unicode="\" horiz-adv-x="960" d="M80 1520q0 33 23.5 56.5t56.5 23.5t57 -23q10 -11 16 -23l640 -1600q7 -16 7 -34q0 -33 -23.5 -56.5t-56.5 -23.5t-57 24q-10 10 -16 22l-640 1600q-7 16 -7 34z" />
<glyph unicode="]" horiz-adv-x="640" d="M80 -400q0 33 23.5 56.5t56.5 23.5h240v1760h-240q-33 0 -56.5 23.5t-23.5 56.5t23.5 56.5t56.5 23.5h320q33 0 56.5 -23.5t23.5 -56.5v-1920q0 -33 -23.5 -56.5t-56.5 -23.5h-320q-33 0 -56.5 23.5t-23.5 56.5z" />
<glyph unicode="^" horiz-adv-x="960" d="M80 1040q0 23 11 41l324 486q22 33 65 33t65 -33l324 -486q11 -18 11 -41q0 -33 -23.5 -56.5t-56.5 -23.5q-40 0 -64 31l-256 384l-256 -384q-24 -31 -64 -31q-33 0 -56.5 23.5t-23.5 56.5z" />
<glyph unicode="_" horiz-adv-x="960" d="M-80 -80q0 33 23.5 56.5t56.5 23.5h960q33 0 56.5 -23.5t23.5 -56.5t-23.5 -56.5t-56.5 -23.5h-960q-33 0 -56.5 23.5t-23.5 56.5z" />
<glyph unicode="`" horiz-adv-x="560" d="M80 1520q0 33 23.5 56.5t56.5 23.5t57 -23l243 -243q20 -23 20 -54q0 -33 -23.5 -56.5t-56.5 -23.5q-32 0 -55 21l-243 243q-22 24 -22 56z" />
<glyph unicode="a" d="M80 560q0 232 164 396t396 164t396 -164t164 -396v-480q0 -33 -23.5 -56.5t-56.5 -23.5t-56.5 23.5t-23.5 56.5v88q-168 -168 -400 -168t-396 164t-164 396zM240 560q0 -166 117 -283t283 -117t283 117t117 283t-117 283t-283 117t-283 -117t-117 -283z" />
<glyph unicode="b" d="M80 560v962q0 33 23.5 56.5t56.5 23.5t56.5 -23.5t23.5 -56.5v-570l4 4q164 164 396 164t396 -164t164 -396t-164 -396t-396 -164t-396 164t-164 396zM240 560q0 -166 117 -283t283 -117t283 117t117 283t-117 283t-283 117t-283 -117t-117 -283z" />
<glyph unicode="c" horiz-adv-x="1120" d="M80 560q0 232 164 396t396 164q210 0 365 -135q28 -25 28 -62q0 -33 -23.5 -56.5t-56.5 -23.5q-29 0 -51 18q-112 99 -262 99q-166 0 -283 -117t-117 -283t117 -283t283 -117q150 0 261 98q21 16 49 16q33 0 56.5 -23.5t23.5 -56.5t-25 -59q-155 -135 -365 -135 q-232 0 -396 164t-164 396z" />
<glyph unicode="d" d="M80 560q0 232 164 396t396 164t396 -164l4 -4v570q0 33 23.5 56.5t56.5 23.5t56.5 -23.5t23.5 -56.5v-962q0 -232 -164 -396t-396 -164t-396 164t-164 396zM240 560q0 -166 117 -283t283 -117t283 117t117 283t-117 283t-283 117t-283 -117t-117 -283z" />
<glyph unicode="e" d="M80 560q0 232 164 396t396 164t396 -164t164 -396q0 -33 -23.5 -56.5t-56.5 -23.5h-873q22 -115 110 -203q117 -117 283 -117q150 0 258 95q22 17 50 17q33 0 56.5 -23.5t23.5 -56.5t-23 -57q-155 -135 -365 -135q-232 0 -396 164t-164 396zM247 640h786 q-22 115 -110 203q-117 117 -283 117t-283 -117q-88 -88 -110 -203z" />
<glyph unicode="f" horiz-adv-x="800" d="M80 980q0 33 23.5 56.5t56.5 23.5h80v60q0 480 480 480q33 0 56.5 -23.5t23.5 -56.5t-23.5 -56.5t-56.5 -23.5q-320 0 -320 -320v-60h241q33 0 56.5 -23.5t23.5 -56.5t-23.5 -56.5t-56.5 -23.5h-241v-820q0 -33 -23.5 -56.5t-56.5 -23.5t-56.5 23.5t-23.5 56.5v820h-80 q-33 0 -56.5 23.5t-23.5 56.5z" />
<glyph unicode="g" d="M80 560q0 232 164 396t396 164t396 -164t164 -396v-560q0 -175 -126 -304q-176 -176 -425 -176t-424 176q-65 64 -106 139q-12 18 -12 42q0 33 23.5 56.5t56.5 23.5t57 -23q10 -11 17 -24q30 -54 77 -101q129 -129 311 -129t311 129q80 96 80 191v168l-4 -4 q-164 -164 -396 -164t-396 164t-164 396zM240 560q0 -166 117 -283t283 -117t283 117t117 283t-117 283t-283 117t-283 -117t-117 -283z" />
<glyph unicode="h" horiz-adv-x="1200" d="M80 80v1440q0 33 23.5 56.5t56.5 23.5t56.5 -23.5t23.5 -56.5v-545q150 145 360 145q215 0 367.5 -152.5t152.5 -367.5v-520q0 -33 -23.5 -56.5t-56.5 -23.5t-56.5 23.5t-23.5 56.5v520q0 149 -105.5 254.5t-254.5 105.5t-254.5 -105.5t-105.5 -254.5v-520 q0 -33 -23.5 -56.5t-56.5 -23.5t-56.5 23.5t-23.5 56.5z" />
<glyph unicode="i" horiz-adv-x="480" d="M140 1360q0 41 29.5 70.5t70.5 29.5t70.5 -29.5t29.5 -70.5t-29.5 -70.5t-70.5 -29.5t-70.5 29.5t-29.5 70.5zM160 80v960q0 33 23.5 56.5t56.5 23.5t56.5 -23.5t23.5 -56.5v-960q0 -33 -23.5 -56.5t-56.5 -23.5t-56.5 23.5t-23.5 56.5z" />
<glyph unicode="j" horiz-adv-x="656" d="M0 -400q0 33 23.5 56.5t56.5 23.5q133 0 226.5 93.5t93.5 226.5v1040q0 33 23.5 56.5t56.5 23.5t56.5 -23.5t23.5 -56.5v-1040q0 -199 -140.5 -339.5t-339.5 -140.5q-33 0 -56.5 23.5t-23.5 56.5zM380 1360q0 41 29.5 70.5t70.5 29.5t70.5 -29.5t29.5 -70.5t-29.5 -70.5 t-70.5 -29.5t-70.5 29.5t-29.5 70.5z" />
<glyph unicode="k" horiz-adv-x="1120" d="M80 80v1440q0 33 23.5 56.5t56.5 23.5t56.5 -23.5t23.5 -56.5v-852l677 440q19 12 43 12q33 0 56.5 -23.5t23.5 -56.5t-23 -56q-6 -6 -11 -10l-464 -302l476 -536q22 -24 22 -56q0 -33 -23.5 -56.5t-56.5 -23.5t-58 24l-497 560l-165 -107v-397q0 -33 -23.5 -56.5 t-56.5 -23.5t-56.5 23.5t-23.5 56.5z" />
<glyph unicode="l" horiz-adv-x="480" d="M80 80v1440q0 33 23.5 56.5t56.5 23.5t56.5 -23.5t23.5 -56.5v-1360h80q33 0 56.5 -23.5t23.5 -56.5t-23.5 -56.5t-56.5 -23.5h-160q-33 0 -56.5 23.5t-23.5 56.5z" />
<glyph unicode="m" horiz-adv-x="1760" d="M80 80v960q0 33 23.5 56.5t56.5 23.5t56.5 -23.5t23.5 -56.5v-21q119 101 280 101q182 0 311 -129q27 -27 49 -57q22 30 49 57q129 129 311 129t311 -129t129 -311v-600q0 -33 -23.5 -56.5t-56.5 -23.5t-56.5 23.5t-23.5 56.5v600q0 116 -82 198t-198 82t-198 -82 t-82 -198v-600q0 -33 -23.5 -56.5t-56.5 -23.5t-56.5 23.5t-23.5 56.5v600q0 116 -82 198t-198 82t-198 -82t-82 -198v-600q0 -33 -23.5 -56.5t-56.5 -23.5t-56.5 23.5t-23.5 56.5z" />
<glyph unicode="n" horiz-adv-x="1200" d="M80 80v960q0 33 23.5 56.5t56.5 23.5t56.5 -23.5t23.5 -56.5v-65q150 145 360 145q215 0 367.5 -152.5t152.5 -367.5v-520q0 -33 -23.5 -56.5t-56.5 -23.5t-56.5 23.5t-23.5 56.5v520q0 149 -105.5 254.5t-254.5 105.5t-254.5 -105.5t-105.5 -254.5v-520 q0 -33 -23.5 -56.5t-56.5 -23.5t-56.5 23.5t-23.5 56.5z" />
<glyph unicode="o" d="M80 560q0 232 164 396t396 164t396 -164t164 -396t-164 -396t-396 -164t-396 164t-164 396zM240 560q0 -166 117 -283t283 -117t283 117t117 283t-117 283t-283 117t-283 -117t-117 -283z" />
<glyph unicode="p" d="M80 -400v960q0 232 164 396t396 164t396 -164t164 -396t-164 -396t-396 -164t-396 164l-4 4v-568q0 -33 -23.5 -56.5t-56.5 -23.5t-56.5 23.5t-23.5 56.5zM240 560q0 -166 117 -283t283 -117t283 117t117 283t-117 283t-283 117t-283 -117t-117 -283z" />
<glyph unicode="q" d="M80 560q0 232 164 396t396 164t396 -164t164 -396v-960q0 -33 -23.5 -56.5t-56.5 -23.5t-56.5 23.5t-23.5 56.5v568l-4 -4q-164 -164 -396 -164t-396 164t-164 396zM240 560q0 -166 117 -283t283 -117t283 117t117 283t-117 283t-283 117t-283 -117t-117 -283z" />
<glyph unicode="r" horiz-adv-x="960" d="M80 80v960q0 33 23.5 56.5t56.5 23.5t56.5 -23.5t23.5 -56.5v-88q168 168 400 168q117 0 215 -40q18 -7 33 -21q23 -24 23 -57t-23.5 -56.5t-56.5 -23.5q-19 0 -35 8q-71 30 -156 30q-166 0 -283 -117t-117 -283v-480q0 -33 -23.5 -56.5t-56.5 -23.5t-56.5 23.5 t-23.5 56.5z" />
<glyph unicode="s" horiz-adv-x="1060" d="M80 800q0 99 74 173q144 147 376 147q251 0 430 -201q16 -19 15 -47q0 -33 -23.5 -56.5t-56.5 -23.5t-53 21t-29 30q-117 117 -283 117t-265 -104q-24 -29 -24 -69q3 -47 49 -64l492 -163q91 -34 127 -71q71 -70 71 -169t-74 -173q-144 -147 -376 -147q-252 0 -430 201 q-15 21 -15 47q0 33 23.5 56.5t56.5 23.5t53 -21t29 -30q117 -117 283 -117t265 104q24 29 24 69q-3 47 -49 64l-492 163q-91 34 -127 71q-71 70 -71 169z" />
<glyph unicode="t" horiz-adv-x="800" d="M80 1040q0 33 23.5 56.5t56.5 23.5h80v400q0 33 23.5 56.5t56.5 23.5t56.5 -23.5t23.5 -56.5v-400h161q33 0 56.5 -23.5t23.5 -56.5t-23.5 -56.5t-56.5 -23.5h-161v-560q0 -240 240 -240q33 0 56.5 -23.5t23.5 -56.5t-23.5 -56.5t-56.5 -23.5q-400 0 -400 400v560h-80 q-33 0 -56.5 23.5t-23.5 56.5z" />
<glyph unicode="u" horiz-adv-x="1200" d="M80 520v520q0 33 23.5 56.5t56.5 23.5t56.5 -23.5t23.5 -56.5v-520q0 -149 105.5 -254.5t254.5 -105.5t254.5 105.5t105.5 254.5v520q0 33 23.5 56.5t56.5 23.5t56.5 -23.5t23.5 -56.5v-960q0 -33 -23.5 -56.5t-56.5 -23.5t-56.5 23.5t-23.5 56.5v65q-150 -145 -360 -145 q-215 0 -367.5 152.5t-152.5 367.5z" />
<glyph unicode="v" horiz-adv-x="1200" d="M80 1040q0 33 23.5 56.5t56.5 23.5t57 -23q8 -8 15 -21l368 -804l368 804q7 13 16 21q23 23 56 23t56.5 -23.5t23.5 -56.5q0 -17 -6 -31l-444 -967q-6 -13 -13 -20q-22 -22 -57 -22t-57 23q-7 6 -13 19l-444 967q-6 14 -6 31z" />
<glyph unicode="w" horiz-adv-x="1600" d="M80 1040q0 33 23.5 56.5t56.5 23.5t57 -23q10 -11 16 -23l247 -741l242 727q7 21 22 37q23 23 56 23t57 -23q15 -16 21 -37l242 -727l247 741q6 12 17 23q23 23 56 23t56.5 -23.5t23.5 -56.5q0 -16 -6 -31l-319 -958q-6 -15 -18 -29q-24 -22 -57 -22t-56 22 q-13 14 -19 29l-245 736l-245 -736q-6 -15 -18 -29q-24 -22 -57 -22t-56 22q-13 14 -19 29l-319 958q-6 15 -6 31z" />
<glyph unicode="x" horiz-adv-x="1120" d="M80 80q0 28 16 49l360 432l-357 427q-19 22 -19 52q0 33 23.5 56.5t56.5 23.5t59 -25l341 -409l341 409q26 25 59 25t56.5 -23.5t23.5 -56.5q0 -30 -19 -52l-357 -427l360 -432q16 -21 16 -49q0 -33 -23.5 -56.5t-56.5 -23.5t-56 24l-344 412l-344 -412q-23 -24 -56 -24 t-56.5 23.5t-23.5 56.5z" />
<glyph unicode="y" horiz-adv-x="1120" d="M80 1040q0 33 23.5 56.5t56.5 23.5t57 -23q13 -14 19 -30l324 -777l324 777q6 16 20 30q23 23 56 23t56.5 -23.5t23.5 -56.5q0 -20 -9 -37l-596 -1430q-6 -16 -19 -29q-24 -24 -57 -24t-56.5 23.5t-23.5 56.5q0 20 9 37l185 444l-384 922q-9 17 -9 37z" />
<glyph unicode="z" horiz-adv-x="1120" d="M80 80q0 28 16 49l693 831h-629q-33 0 -56.5 23.5t-23.5 56.5t23.5 56.5t56.5 23.5h800q33 0 56.5 -23.5t23.5 -56.5q0 -30 -19 -52l-691 -828h630q33 0 56.5 -23.5t23.5 -56.5t-23.5 -56.5t-56.5 -23.5h-800q-33 0 -56.5 23.5t-23.5 56.5z" />
<glyph unicode="{" horiz-adv-x="800" d="M80 560q0 33 23.5 56.5t56.5 23.5q160 0 160 160v480q0 320 320 320q33 0 56.5 -23.5t23.5 -56.5t-23.5 -56.5t-56.5 -23.5q-160 0 -160 -160v-480q0 -160 -80 -240q80 -80 80 -240v-480q0 -160 160 -160q33 0 56.5 -23.5t23.5 -56.5t-23.5 -56.5t-56.5 -23.5 q-320 0 -320 320v480q0 160 -160 160q-33 0 -56.5 23.5t-23.5 56.5z" />
<glyph unicode="|" horiz-adv-x="800" d="M320 -400v1920q0 33 23.5 56.5t56.5 23.5t56.5 -23.5t23.5 -56.5v-1920q0 -33 -23.5 -56.5t-56.5 -23.5t-56.5 23.5t-23.5 56.5z" />
<glyph unicode="}" horiz-adv-x="800" d="M80 -400q0 33 23.5 56.5t56.5 23.5q160 0 160 160v480q0 160 80 240q-80 80 -80 240v480q0 160 -160 160q-33 0 -56.5 23.5t-23.5 56.5t23.5 56.5t56.5 23.5q320 0 320 -320v-480q0 -160 160 -160q33 0 56.5 -23.5t23.5 -56.5t-23.5 -56.5t-56.5 -23.5q-160 0 -160 -160 v-480q0 -320 -320 -320q-33 0 -56.5 23.5t-23.5 56.5z" />
<glyph unicode="~" horiz-adv-x="960" d="M71 757q0 33 23.5 56.5t56.5 23.5q32 0 56 -22q47 -48 113 -48q56 0 100 35q89 80 212 80q133 0 227 -94q22 -24 22 -56q0 -33 -23.5 -56.5t-56.5 -23.5q-32 0 -56 22q-47 48 -113 48q-57 0 -100 -35q-90 -80 -212 -80q-133 0 -227 94q-22 24 -22 56z" />
<glyph unicode="&#xa1;" horiz-adv-x="400" d="M80 999q0 50 35 85t85 35t85 -35t35 -85t-35 -85t-85 -35t-85 35t-35 85zM120 -400v1120q0 32 24 55q23 24 56 24t57 -24q23 -23 23 -55v-1120q0 -33 -23.5 -56.5t-56.5 -23.5t-56.5 23.5t-23.5 56.5z" />
<glyph unicode="&#xa2;" horiz-adv-x="1120" d="M87 560q0 232 164 396t396 164q25 0 49 -2l109 272q13 31 44 44q13 6 31 6q15 0 29 -5q31 -12 44 -42.5t1 -61.5l-99 -249q84 -34 157 -97q28 -25 28 -62q0 -33 -23.5 -56.5t-56.5 -23.5q-29 0 -51 18q-53 47 -114 71l-298 -744q69 -28 150 -28q150 0 261 98q21 16 49 16 q33 0 56.5 -23.5t23.5 -56.5t-25 -59q-155 -135 -365 -135q-113 0 -209 39l-123 -308q-12 -31 -42 -44q-16 -7 -32 -7q-15 0 -30 6q-31 12 -44 42.5t-1 61.5l132 331q-24 20 -47 43q-164 164 -164 396zM247 560q0 -164 114 -280l272 680q-157 -5 -269 -117 q-117 -117 -117 -283z" />
<glyph unicode="&#xa3;" horiz-adv-x="1040" d="M80 720q0 33 23.5 56.5t56.5 23.5h105q-22 127 -75 250h1q-31 75 -31 150q0 166 117 283t283 117t283 -117q29 -29 51 -61q16 -22 16 -50q0 -33 -23.5 -56.5t-56.5 -23.5q-37 0 -56 24q-17 25 -44 54q-71 70 -170 70t-169.5 -70.5t-70.5 -169.5q0 -45 19 -90 q65 -151 88 -310h293q33 0 56.5 -23.5t23.5 -56.5t-23.5 -56.5t-56.5 -23.5h-281q2 -232 -83 -480h394l60 120q21 40 70 40q33 0 56.5 -23.5t23.5 -56.5q0 -21 -9 -38l-77 -154q-6 -13 -17 -24q-24 -24 -57 -24h-560q-33 0 -56.5 23.5t-23.5 56.5q0 17 6 32q117 273 113 528 h-119q-33 0 -56.5 23.5t-23.5 56.5z" />
<glyph unicode="&#xa4;" horiz-adv-x="960" d="M110 460q0 33 24 57l72 67q-46 73 -46 166q0 89 42 161l-68 73q-24 23 -24 56t23.5 56.5t56.5 23.5q32 0 55 -21l69 -74q74 45 166 45q89 0 161 -42l73 69q23 23 56 23t56.5 -23.5t23.5 -56.5t-24 -58l-71 -66q45 -74 45 -166q0 -89 -42 -161l69 -72q23 -24 23 -57 t-23.5 -56.5t-56.5 -23.5q-32 0 -54 22l-1 -1l-69 74q-74 -45 -166 -45q-89 0 -160 42l-77 -72q-22 -20 -53 -20q-33 0 -56.5 23.5t-23.5 56.5zM320 750q0 -66 47 -113t113 -47t113 47t47 113t-47 113t-113 47t-113 -47t-47 -113z" />
<glyph unicode="&#xa5;" d="M80 560q0 33 23.5 56.5t56.5 23.5h400v136l-69 104h-331q-33 0 -56.5 23.5t-23.5 56.5t23.5 56.5t56.5 23.5h224l-291 435q-13 20 -13 45q0 33 23.5 56.5t56.5 23.5q41 0 65 -33l415 -622l415 622q24 33 65 33q33 0 56.5 -23.5t23.5 -56.5q0 -25 -13 -45l-291 -435h225 q32 0 56 -23q23 -24 23 -57t-23 -56q-24 -24 -56 -24h-332l-69 -104v-136h400q33 0 56.5 -23.5t23.5 -56.5t-23.5 -56.5t-56.5 -23.5h-400v-400q0 -33 -23.5 -56.5t-56.5 -23.5t-56.5 23.5t-23.5 56.5v400h-400q-33 0 -56.5 23.5t-23.5 56.5z" />
<glyph unicode="&#xa6;" horiz-adv-x="480" d="M160 320q0 33 23.5 56.5t56.5 23.5t56.5 -23.5t23.5 -56.5v-720q0 -33 -23.5 -56.5t-56.5 -23.5t-56.5 23.5t-23.5 56.5v720zM160 960v720q0 33 23.5 56.5t56.5 23.5t56.5 -23.5t23.5 -56.5v-720q0 -33 -23.5 -56.5t-56.5 -23.5t-56.5 23.5t-23.5 56.5z" />
<glyph unicode="&#xa7;" horiz-adv-x="960" d="M80 -80q0 33 23.5 56.5t56.5 23.5t56.5 -23.5t23.5 -56.5q0 -99 70.5 -169.5t169.5 -70.5t169.5 70.5t70.5 169.5t-70.5 169.5t-169.5 70.5q-166 0 -283 117t-117 283t117 283q20 20 42 37q-22 17 -42 37q-117 117 -117 283t117 283t283 117t283 -117t117 -283 q0 -33 -23.5 -56.5t-56.5 -23.5t-56.5 23.5t-23.5 56.5q0 99 -70.5 169.5t-169.5 70.5t-169.5 -70.5t-70.5 -169.5t70.5 -169.5t169.5 -70.5q166 0 283 -117t117 -283t-117 -283q-20 -20 -42 -37q22 -17 42 -37q117 -117 117 -283t-117 -283t-283 -117t-283 117t-117 283z M240 560q0 -99 70.5 -169.5t169.5 -70.5t169.5 70.5t70.5 169.5t-70.5 169.5t-169.5 70.5t-169.5 -70.5t-70.5 -169.5z" />
<glyph unicode="&#xa8;" horiz-adv-x="960" d="M139 1360q0 41 29.5 70.5t70.5 29.5t70.5 -29.5t29.5 -70.5t-29.5 -70.5t-70.5 -29.5t-70.5 29.5t-29.5 70.5zM619 1360q0 41 29.5 70.5t70.5 29.5t70.5 -29.5t29.5 -70.5t-29.5 -70.5t-70.5 -29.5t-70.5 29.5t-29.5 70.5z" />
<glyph unicode="&#xa9;" horiz-adv-x="1760" d="M80 798q0 330 233.5 563.5t564.5 233.5q330 0 563.5 -233.5t233.5 -563.5q0 -331 -233.5 -564.5t-563.5 -233.5q-331 0 -564.5 233.5t-233.5 564.5zM203 798q0 -280 197.5 -477.5t477.5 -197.5q279 0 476.5 197.5t197.5 477.5q0 279 -197.5 476.5t-476.5 197.5 q-280 0 -477.5 -197.5t-197.5 -476.5zM320 800q0 232 164 396t396 164q210 0 365 -135q28 -25 28 -62q0 -33 -23.5 -56.5t-56.5 -23.5q-29 0 -51 18q-112 99 -262 99q-166 0 -283 -117t-117 -283t117 -283t283 -117q150 0 261 98q21 16 49 16q33 0 56.5 -23.5t23.5 -56.5 t-25 -59q-155 -135 -365 -135q-232 0 -396 164t-164 396z" />
<glyph unicode="&#xaa;" horiz-adv-x="960" d="M80 1200q0 166 117 283t283 117t283 -117t117 -283v-320q0 -33 -23.5 -56.5t-56.5 -23.5t-56 24q-24 23 -24 55q-103 -79 -240 -79q-166 0 -283 117t-117 283zM240 1200q0 -99 70.5 -169.5t169.5 -70.5t169.5 70.5t70.5 169.5t-70.5 169.5t-169.5 70.5t-169.5 -70.5 t-70.5 -169.5z" />
<glyph unicode="&#xab;" horiz-adv-x="960" d="M80 559q0 20 10 39l236 472q6 14 18 26q23 23 56 23t56.5 -23.5t23.5 -56.5q0 -18 -7 -34l-223 -445l223 -446q7 -16 7 -34q0 -33 -23.5 -56.5t-56.5 -23.5t-56 24q-12 11 -18 25l-234 467q-12 22 -12 43zM480 559q0 20 10 39l236 472q6 14 18 26q23 23 56 23t56.5 -23.5 t23.5 -56.5q0 -18 -7 -34l-223 -445l223 -446q7 -16 7 -34q0 -33 -23.5 -56.5t-56.5 -23.5t-56 24q-12 11 -18 25l-234 467q-12 22 -12 43z" />
<glyph unicode="&#xac;" horiz-adv-x="1120" d="M80 1040q0 33 23.5 56.5t56.5 23.5h800q33 0 56.5 -23.5t23.5 -56.5v-320q0 -33 -23.5 -56.5t-56.5 -23.5t-56.5 23.5t-23.5 56.5v240h-720q-33 0 -56.5 23.5t-23.5 56.5z" />
<glyph unicode="&#xad;" horiz-adv-x="800" d="M80 560q0 33 23.5 56.5t56.5 23.5h480q33 0 56.5 -23.5t23.5 -56.5t-23.5 -56.5t-56.5 -23.5h-480q-33 0 -56.5 23.5t-23.5 56.5z" />
<glyph unicode="&#xae;" horiz-adv-x="1760" d="M80 798q0 330 233.5 563.5t564.5 233.5q330 0 563.5 -233.5t233.5 -563.5q0 -331 -233.5 -564.5t-563.5 -233.5q-331 0 -564.5 233.5t-233.5 564.5zM203 798q0 -280 197.5 -477.5t477.5 -197.5q279 0 476.5 197.5t197.5 477.5q0 279 -197.5 476.5t-476.5 197.5 q-280 0 -477.5 -197.5t-197.5 -476.5zM560 326v944q0 22 15.5 37t36.5 15h263q130 0 222.5 -92t92.5 -222q0 -131 -93 -223q-42 -42 -92 -65l228 -366q9 -12 9 -28q0 -22 -15.5 -37.5t-36.5 -15.5q-29 0 -46 27l-246 394q-12 -1 -23 -1h-210v-367q0 -22 -15.5 -37.5 t-37.5 -15.5q-21 0 -36.5 15.5t-15.5 37.5zM665 798h210q87 0 148.5 61t61.5 149q0 87 -61.5 148t-148.5 61h-210v-419z" />
<glyph unicode="&#xaf;" horiz-adv-x="1120" d="M80 1840q0 33 23.5 56.5t56.5 23.5h800q33 0 56.5 -23.5t23.5 -56.5t-23.5 -56.5t-56.5 -23.5h-800q-33 0 -56.5 23.5t-23.5 56.5z" />
<glyph unicode="&#xb0;" horiz-adv-x="960" d="M80 1200q0 166 117 283t283 117t283 -117t117 -283t-117 -283t-283 -117t-283 117t-117 283zM240 1200q0 -99 70.5 -169.5t169.5 -70.5t169.5 70.5t70.5 169.5t-70.5 169.5t-169.5 70.5t-169.5 -70.5t-70.5 -169.5z" />
<glyph unicode="&#xb1;" horiz-adv-x="1120" d="M80 80q0 33 23.5 56.5t56.5 23.5h800q33 0 56.5 -23.5t23.5 -56.5t-23.5 -56.5t-56.5 -23.5h-800q-33 0 -56.5 23.5t-23.5 56.5zM80 800q0 33 23.5 56.5t56.5 23.5h320v320q0 33 23.5 56.5t56.5 23.5t56.5 -23.5t23.5 -56.5v-320h320q33 0 56.5 -23.5t23.5 -56.5 t-23.5 -56.5t-56.5 -23.5h-320v-320q0 -33 -23.5 -56.5t-56.5 -23.5t-56.5 23.5t-23.5 56.5v320h-320q-33 0 -56.5 23.5t-23.5 56.5z" />
<glyph unicode="&#xb2;" horiz-adv-x="640" d="M80 848q0 16 11 28l338 374q47 47 47 112q0 66 -46.5 112.5t-111.5 46.5q-66 0 -112.5 -46.5t-46.5 -112.5q0 -16 -11.5 -27.5t-27.5 -11.5q-17 0 -28.5 11.5t-11.5 27.5q0 99 69.5 168.5t168.5 69.5q98 0 167.5 -69.5t69.5 -168.5q0 -98 -70 -168l-276 -307h307 q16 0 27.5 -11.5t11.5 -27.5q0 -17 -11.5 -28.5t-27.5 -11.5h-396q-17 0 -28.5 11.5t-11.5 28.5z" />
<glyph unicode="&#xb3;" horiz-adv-x="640" d="M80 1041q0 17 11.5 28.5t28.5 11.5q16 0 28 -11.5t12 -28.5q0 -66 46.5 -112.5t113.5 -46.5q66 0 112.5 46.5t46.5 112.5q0 67 -46.5 113.5t-112.5 46.5q-17 0 -28.5 11.5t-11.5 28.5q0 16 11.5 28t28.5 12q49 0 84 35t35 84q0 50 -35 85t-84 35q-50 0 -85 -35t-35 -85 q0 -16 -12 -27.5t-28 -11.5q-17 0 -28.5 11.5t-11.5 27.5q0 83 58.5 141.5t141.5 58.5q82 0 140.5 -58.5t58.5 -141.5q0 -92 -73 -155q23 -14 43 -34q70 -71 70 -170t-70 -169t-169 -70q-100 0 -170 70t-70 169z" />
<glyph unicode="&#xb4;" horiz-adv-x="560" d="M80 1280q0 31 20 54l243 243q24 23 57 23t56.5 -23.5t23.5 -56.5q0 -32 -22 -56l-243 -243q-23 -21 -55 -21q-33 0 -56.5 23.5t-23.5 56.5z" />
<glyph unicode="&#xb5;" horiz-adv-x="1200" d="M80 -400v1440q0 33 23.5 56.5t56.5 23.5t56.5 -23.5t23.5 -56.5v-520q0 -149 105.5 -254.5t254.5 -105.5t254.5 105.5t105.5 254.5v520q0 33 23.5 56.5t56.5 23.5t56.5 -23.5t23.5 -56.5v-960q0 -33 -23.5 -56.5t-56.5 -23.5t-56.5 23.5t-23.5 56.5v65 q-150 -145 -360 -145t-360 145v-545q0 -33 -23.5 -56.5t-56.5 -23.5t-56.5 23.5t-23.5 56.5z" />
<glyph unicode="&#xb6;" horiz-adv-x="1120" d="M80 1200q0 166 117 283t283 117h480q33 0 56.5 -23.5t23.5 -56.5t-23.5 -56.5t-56.5 -23.5v-1360q0 -33 -23.5 -56.5t-56.5 -23.5t-56.5 23.5t-23.5 56.5v1360h-160v-1360q0 -33 -23.5 -56.5t-56.5 -23.5t-56.5 23.5t-23.5 56.5v720q-166 0 -283 117t-117 283z" />
<glyph unicode="&#xb7;" horiz-adv-x="400" d="M80 760q0 50 35 85t85 35t85 -35t35 -85t-35 -85t-85 -35t-85 35t-35 85z" />
<glyph unicode="&#xb8;" horiz-adv-x="640" d="M80 -330q0 33 23.5 56.5t56.5 23.5q24 0 43 -12l78 -48q19 -10 39 -10q33 0 56.5 13.5t23.5 36.5t-23.5 36.5t-56.5 13.5t-56.5 23.5t-23.5 56.5q0 14 4 26l39 137q6 19 21 34q23 23 56 23t56.5 -23.5t23.5 -56.5q0 -10 -2 -19l-17 -60q37 -15 69 -41q70 -61 70 -150 t-70.5 -149.5t-169.5 -60.5q-59 0 -114 29l-91 54q-35 29 -35 67z" />
<glyph unicode="&#xb9;" horiz-adv-x="480" d="M120 1521q0 16 12 28q6 6 13 9l120 40q6 2 14 2q16 0 28 -11.5t12 -28.5v-715q0 -17 -12 -28.5t-28 -11.5t-28 11.5t-12 28.5v660l-64 -21q-7 -3 -15 -3q-17 0 -28.5 11.5t-11.5 28.5z" />
<glyph unicode="&#xba;" horiz-adv-x="640" d="M80 1203q0 238 98 339q58 58 141 58q82 0 140 -58q98 -101 98 -339q0 -239 -98 -340q-58 -58 -140 -58q-83 0 -141 58q-98 101 -98 340zM160 1203q0 -199 74 -283q35 -35 85 -35q49 0 84 35q75 84 75 283q0 198 -75 282q-35 36 -84 36q-50 0 -85 -36q-74 -84 -74 -282z " />
<glyph unicode="&#xbb;" horiz-adv-x="960" d="M80 80q0 18 7 34l223 446l-223 445q-7 16 -7 34q0 33 23.5 56.5t56.5 23.5t56 -23q12 -12 18 -26l236 -472q10 -19 10 -39q0 -21 -12 -43l-234 -467q-6 -14 -18 -25q-23 -24 -56 -24t-56.5 23.5t-23.5 56.5zM480 80q0 18 7 34l223 446l-223 445q-7 16 -7 34 q0 33 23.5 56.5t56.5 23.5t56 -23q12 -12 18 -26l236 -472q10 -19 10 -39q0 -21 -12 -43l-234 -467q-6 -14 -18 -25q-23 -24 -56 -24t-56.5 23.5t-23.5 56.5z" />
<glyph unicode="&#xbc;" horiz-adv-x="1440" d="M80 1505q0 20 14 34q8 7 17 11l144 48q8 3 17 3q20 0 34 -14t14 -34v-865q0 -20 -14 -34t-34 -14t-34 14t-14 34v798l-77 -26q-9 -3 -19 -3q-20 0 -34 14t-14 34zM160 80q0 24 12 43l964 1446q21 31 64 31q33 0 56.5 -23.5t23.5 -56.5q0 -24 -12 -43l-958 -1436 q-27 -41 -70 -41q-33 0 -56.5 23.5t-23.5 56.5zM688 288q0 16 9 28l432 624q2 3 5 6q14 14 34 14t34 -14t14 -34v-576h96q20 0 34 -14t14 -34t-14 -34t-34 -14h-96v-192q0 -20 -14 -34t-34 -14t-34 14t-14 34v192h-384q-20 0 -34 14t-14 34zM828 336h292v422z" />
<glyph unicode="&#xbd;" horiz-adv-x="1600" d="M80 1505q0 20 14 34q8 7 17 11l144 48q8 3 17 3q20 0 34 -14t14 -34v-865q0 -20 -14 -34t-34 -14t-34 14t-14 34v798l-77 -26q-9 -3 -19 -3q-20 0 -34 14t-14 34zM160 80q0 24 12 43l964 1446q21 31 64 31q33 0 56.5 -23.5t23.5 -56.5q0 -24 -12 -43l-958 -1436 q-27 -41 -70 -41q-33 0 -56.5 23.5t-23.5 56.5zM943 48q0 20 14 34l410 454q57 57 57 137t-56.5 136t-136.5 56t-136 -56t-56 -136q0 -20 -14 -34t-34 -14t-34 14t-14 34q0 119 84.5 203.5t203.5 84.5q120 0 204.5 -84.5t84.5 -203.5q0 -120 -85 -205l-335 -372h372 q19 0 33.5 -14t14.5 -34t-14.5 -34t-33.5 -14h-481q-20 0 -34 14t-14 34z" />
<glyph unicode="&#xbe;" horiz-adv-x="1600" d="M80 927q0 20 14 34t34 14t34 -14t14 -34q0 -79 55.5 -135t135.5 -56t135.5 56t55.5 135q0 80 -55.5 136t-135.5 56q-20 0 -34 14t-14 34q0 19 14 33t34 14q59 0 101.5 42.5t42.5 101.5t-42.5 101t-101.5 42t-101 -42t-42 -101q0 -20 -14.5 -34t-33.5 -14q-20 0 -34 14 t-14 34q0 99 70 169t169 70t169 -70t70 -169t-70 -169q-9 -9 -18 -17q28 -17 52 -41q84 -85 84 -204t-84 -203t-203 -84t-203 84t-84 203zM320 80q0 24 12 43l964 1446q21 31 64 31q33 0 56.5 -23.5t23.5 -56.5q0 -24 -12 -43l-958 -1436q-27 -41 -70 -41q-33 0 -56.5 23.5 t-23.5 56.5zM848 288q0 16 9 28l432 624q2 3 5 6q14 14 34 14t34 -14t14 -34v-576h96q20 0 34 -14t14 -34t-14 -34t-34 -14h-96v-192q0 -20 -14 -34t-34 -14t-34 14t-14 34v192h-384q-20 0 -34 14t-14 34zM988 336h292v422z" />
<glyph unicode="&#xbf;" horiz-adv-x="1120" d="M80 0q0 33 23.5 56.5t56.5 23.5t56.5 -23.5t23.5 -56.5q0 -133 93.5 -226.5t226.5 -93.5t226.5 93.5t93.5 226.5t-94 227l-165 153q-141 141 -141 340q0 33 23.5 56.5t56.5 23.5t56.5 -23.5t23.5 -56.5q0 -133 94 -227l165 -153q141 -141 141 -340t-140.5 -339.5 t-339.5 -140.5t-339.5 140.5t-140.5 339.5zM440 999q0 50 35 85t85 35t85 -35t35 -85t-35 -85t-85 -35t-85 35t-35 85z" />
<glyph unicode="&#xc0;" horiz-adv-x="1440" d="M80 80q0 19 7 34l556 1430q6 18 21 33q23 23 56 23t57 -23q14 -15 20 -33l556 -1430q7 -15 7 -34q0 -33 -23.5 -56.5t-56.5 -23.5t-56 23q-12 12 -18 26l-199 511h-574l-199 -511q-6 -14 -17 -26q-24 -23 -57 -23t-56.5 23.5t-23.5 56.5zM453 2000q0 33 23.5 56.5 t56.5 23.5t57 -23l243 -243q20 -23 20 -54q0 -33 -23.5 -56.5t-56.5 -23.5q-32 0 -55 21l-243 243q-22 24 -22 56zM495 720h450l-225 579z" />
<glyph unicode="&#xc1;" horiz-adv-x="1440" d="M80 80q0 19 7 34l556 1430q6 18 21 33q23 23 56 23t57 -23q14 -15 20 -33l556 -1430q7 -15 7 -34q0 -33 -23.5 -56.5t-56.5 -23.5t-56 23q-12 12 -18 26l-199 511h-574l-199 -511q-6 -14 -17 -26q-24 -23 -57 -23t-56.5 23.5t-23.5 56.5zM495 720h450l-225 579zM587 1760 q0 31 20 54l243 243q24 23 57 23t56.5 -23.5t23.5 -56.5q0 -32 -22 -56l-243 -243q-23 -21 -55 -21q-33 0 -56.5 23.5t-23.5 56.5z" />
<glyph unicode="&#xc2;" horiz-adv-x="1440" d="M80 80q0 19 7 34l556 1430q6 18 21 33q23 23 56 23t57 -23q14 -15 20 -33l556 -1430q7 -15 7 -34q0 -33 -23.5 -56.5t-56.5 -23.5t-56 23q-12 12 -18 26l-199 511h-574l-199 -511q-6 -14 -17 -26q-24 -23 -57 -23t-56.5 23.5t-23.5 56.5zM400 1800q0 40 40 70l239 159 q18 11 41 11t41 -11l239 -159q40 -30 40 -70q0 -33 -23.5 -56.5t-56.5 -23.5q-29 0 -50 17l-190 126l-190 -126q-21 -17 -50 -17q-33 0 -56.5 23.5t-23.5 56.5zM495 720h450l-225 579z" />
<glyph unicode="&#xc3;" horiz-adv-x="1440" d="M80 80q0 19 7 34l556 1430q6 18 21 33q23 23 56 23t57 -23q14 -15 20 -33l556 -1430q7 -15 7 -34q0 -33 -23.5 -56.5t-56.5 -23.5t-56 23q-12 12 -18 26l-199 511h-574l-199 -511q-6 -14 -17 -26q-24 -23 -57 -23t-56.5 23.5t-23.5 56.5zM308 1871q0 33 23.5 56.5 t56.5 23.5q32 0 56 -22q47 -48 113 -48q56 0 100 35q89 80 212 80q133 0 227 -94q22 -24 22 -56q0 -33 -23.5 -56.5t-56.5 -23.5q-32 0 -56 22q-47 48 -113 48q-57 0 -100 -35q-90 -80 -212 -80q-133 0 -227 94q-22 24 -22 56zM495 720h450l-225 579z" />
<glyph unicode="&#xc4;" horiz-adv-x="1440" d="M80 80q0 19 7 34l556 1430q6 18 21 33q23 23 56 23t57 -23q14 -15 20 -33l556 -1430q7 -15 7 -34q0 -33 -23.5 -56.5t-56.5 -23.5t-56 23q-12 12 -18 26l-199 511h-574l-199 -511q-6 -14 -17 -26q-24 -23 -57 -23t-56.5 23.5t-23.5 56.5zM380 1840q0 41 29.5 70.5 t70.5 29.5t70.5 -29.5t29.5 -70.5t-29.5 -70.5t-70.5 -29.5t-70.5 29.5t-29.5 70.5zM495 720h450l-225 579zM860 1840q0 41 29.5 70.5t70.5 29.5t70.5 -29.5t29.5 -70.5t-29.5 -70.5t-70.5 -29.5t-70.5 29.5t-29.5 70.5z" />
<glyph unicode="&#xc5;" horiz-adv-x="1440" d="M80 80q0 19 7 34l556 1430q6 18 21 33q23 23 56 23t57 -23q14 -15 20 -33l556 -1430q7 -15 7 -34q0 -33 -23.5 -56.5t-56.5 -23.5t-56 23q-12 12 -18 26l-199 511h-574l-199 -511q-6 -14 -17 -26q-24 -23 -57 -23t-56.5 23.5t-23.5 56.5zM495 720h450l-225 579zM518 1879 q0 83 59 142t143 59q83 0 142 -59t59 -142q0 -84 -59 -143t-142 -59q-84 0 -143 59t-59 143zM619 1879q0 -42 29.5 -71.5t71.5 -29.5q41 0 70.5 29.5t29.5 71.5q0 41 -29.5 70.5t-70.5 29.5q-42 0 -71.5 -29.5t-29.5 -70.5z" />
<glyph unicode="&#xc6;" horiz-adv-x="1760" d="M80 80q0 22 10 39l802 1444q23 37 68 37h640q33 0 56.5 -23.5t23.5 -56.5t-23.5 -56.5t-56.5 -23.5h-560v-640h400q33 0 56.5 -23.5t23.5 -56.5t-23.5 -56.5t-56.5 -23.5h-400v-480h560q33 0 56.5 -23.5t23.5 -56.5t-23.5 -56.5t-56.5 -23.5h-640q-33 0 -56.5 23.5 t-23.5 56.5v560h-317l-335 -603q-25 -37 -68 -37q-33 0 -56.5 23.5t-23.5 56.5zM652 800h228v410z" />
<glyph unicode="&#xc7;" horiz-adv-x="1480" d="M80 800q0 331 234.5 565.5t565.5 234.5q286 0 509 -183q23 -24 23 -57t-23.5 -56.5t-56.5 -23.5t-57 24q-169 136 -395 136q-265 0 -452.5 -187.5t-187.5 -452.5t187.5 -452.5t452.5 -187.5q229 0 400 140q20 14 46 14q33 0 56.5 -23.5t23.5 -56.5t-23 -56 q-223 -178 -503 -178q-331 0 -565.5 234.5t-234.5 565.5zM506 -330q0 33 23.5 56.5t56.5 23.5q24 0 43 -12l78 -48q19 -10 39 -10q33 0 56.5 13.5t23.5 36.5t-23.5 36.5t-56.5 13.5t-56.5 23.5t-23.5 56.5q0 14 4 26l39 137q6 19 21 34q23 23 56 23t56.5 -23.5t23.5 -56.5 q0 -10 -2 -19l-17 -60q37 -15 69 -41q70 -61 70 -150t-70.5 -149.5t-169.5 -60.5q-59 0 -114 29l-91 54q-35 29 -35 67z" />
<glyph unicode="&#xc8;" d="M81 80v1440q0 33 23.5 56.5t56.5 23.5h960q33 0 56.5 -23.5t23.5 -56.5t-23.5 -56.5t-56.5 -23.5h-880v-560h640q33 0 56.5 -23.5t23.5 -56.5t-23.5 -56.5t-56.5 -23.5h-640v-560h880q33 0 56.5 -23.5t23.5 -56.5t-23.5 -56.5t-56.5 -23.5h-960q-33 0 -56.5 23.5 t-23.5 56.5zM375 2000q0 33 23.5 56.5t56.5 23.5t57 -23l243 -243q20 -23 20 -54q0 -33 -23.5 -56.5t-56.5 -23.5q-32 0 -55 21l-243 243q-22 24 -22 56z" />
<glyph unicode="&#xc9;" d="M81 80v1440q0 33 23.5 56.5t56.5 23.5h960q33 0 56.5 -23.5t23.5 -56.5t-23.5 -56.5t-56.5 -23.5h-880v-560h640q33 0 56.5 -23.5t23.5 -56.5t-23.5 -56.5t-56.5 -23.5h-640v-560h880q33 0 56.5 -23.5t23.5 -56.5t-23.5 -56.5t-56.5 -23.5h-960q-33 0 -56.5 23.5 t-23.5 56.5zM509 1760q0 31 20 54l243 243q24 23 57 23t56.5 -23.5t23.5 -56.5q0 -32 -22 -56l-243 -243q-23 -21 -55 -21q-33 0 -56.5 23.5t-23.5 56.5z" />
<glyph unicode="&#xca;" d="M81 80v1440q0 33 23.5 56.5t56.5 23.5h960q33 0 56.5 -23.5t23.5 -56.5t-23.5 -56.5t-56.5 -23.5h-880v-560h640q33 0 56.5 -23.5t23.5 -56.5t-23.5 -56.5t-56.5 -23.5h-640v-560h880q33 0 56.5 -23.5t23.5 -56.5t-23.5 -56.5t-56.5 -23.5h-960q-33 0 -56.5 23.5 t-23.5 56.5zM320 1800q0 40 40 70l239 159q18 11 41 11t41 -11l239 -159q40 -30 40 -70q0 -33 -23.5 -56.5t-56.5 -23.5q-29 0 -50 17l-190 126l-190 -126q-21 -17 -50 -17q-33 0 -56.5 23.5t-23.5 56.5z" />
<glyph unicode="&#xcb;" d="M81 80v1440q0 33 23.5 56.5t56.5 23.5h960q33 0 56.5 -23.5t23.5 -56.5t-23.5 -56.5t-56.5 -23.5h-880v-560h640q33 0 56.5 -23.5t23.5 -56.5t-23.5 -56.5t-56.5 -23.5h-640v-560h880q33 0 56.5 -23.5t23.5 -56.5t-23.5 -56.5t-56.5 -23.5h-960q-33 0 -56.5 23.5 t-23.5 56.5zM302 1840q0 41 29.5 70.5t70.5 29.5t70.5 -29.5t29.5 -70.5t-29.5 -70.5t-70.5 -29.5t-70.5 29.5t-29.5 70.5zM782 1840q0 41 29.5 70.5t70.5 29.5t70.5 -29.5t29.5 -70.5t-29.5 -70.5t-70.5 -29.5t-70.5 29.5t-29.5 70.5z" />
<glyph unicode="&#xcc;" horiz-adv-x="480" d="M-26 2000q0 33 23.5 56.5t56.5 23.5t57 -23l243 -243q20 -23 20 -54q0 -33 -23.5 -56.5t-56.5 -23.5q-32 0 -55 21l-243 243q-22 24 -22 56zM160 80v1440q0 33 23.5 56.5t56.5 23.5t56.5 -23.5t23.5 -56.5v-1440q0 -33 -23.5 -56.5t-56.5 -23.5t-56.5 23.5t-23.5 56.5z " />
<glyph unicode="&#xcd;" horiz-adv-x="480" d="M107 1760q0 31 20 54l243 243q24 23 57 23t56.5 -23.5t23.5 -56.5q0 -32 -22 -56l-243 -243q-23 -21 -55 -21q-33 0 -56.5 23.5t-23.5 56.5zM160 80v1440q0 33 23.5 56.5t56.5 23.5t56.5 -23.5t23.5 -56.5v-1440q0 -33 -23.5 -56.5t-56.5 -23.5t-56.5 23.5t-23.5 56.5z " />
<glyph unicode="&#xce;" horiz-adv-x="480" d="M-79 1800q0 40 40 70l239 159q18 11 41 11t41 -11l239 -159q40 -30 40 -70q0 -33 -23.5 -56.5t-56.5 -23.5q-29 0 -50 17l-190 126l-190 -126q-21 -17 -50 -17q-33 0 -56.5 23.5t-23.5 56.5zM160 80v1440q0 33 23.5 56.5t56.5 23.5t56.5 -23.5t23.5 -56.5v-1440 q0 -33 -23.5 -56.5t-56.5 -23.5t-56.5 23.5t-23.5 56.5z" />
<glyph unicode="&#xcf;" horiz-adv-x="480" d="M-99 1840q0 41 29.5 70.5t70.5 29.5t70.5 -29.5t29.5 -70.5t-29.5 -70.5t-70.5 -29.5t-70.5 29.5t-29.5 70.5zM160 80v1440q0 33 23.5 56.5t56.5 23.5t56.5 -23.5t23.5 -56.5v-1440q0 -33 -23.5 -56.5t-56.5 -23.5t-56.5 23.5t-23.5 56.5zM381 1840q0 41 29.5 70.5 t70.5 29.5t70.5 -29.5t29.5 -70.5t-29.5 -70.5t-70.5 -29.5t-70.5 29.5t-29.5 70.5z" />
<glyph unicode="&#xd0;" horiz-adv-x="1520" d="M0 800q0 33 23.5 56.5t56.5 23.5h159v640q0 33 23.5 56.5t56.5 23.5h320q331 0 565.5 -234.5t234.5 -565.5t-234.5 -565.5t-565.5 -234.5h-320q-33 0 -56.5 23.5t-23.5 56.5v640h-159q-33 0 -56.5 23.5t-23.5 56.5zM399 160h240q265 0 452.5 187.5t187.5 452.5 t-187.5 452.5t-452.5 187.5h-240v-560h320q33 0 56.5 -23.5t23.5 -56.5t-23.5 -56.5t-56.5 -23.5h-320v-560z" />
<glyph unicode="&#xd1;" horiz-adv-x="1440" d="M80 80v1440q0 33 23.5 56.5t56.5 23.5q36 0 62 -29l978 -1258v1207q0 33 23.5 56.5t56.5 23.5t56.5 -23.5t23.5 -56.5v-1440q0 -33 -23.5 -56.5t-56.5 -23.5q-35 0 -60 26l-980 1260v-1206q0 -33 -23.5 -56.5t-56.5 -23.5t-56.5 23.5t-23.5 56.5zM308 1871 q0 33 23.5 56.5t56.5 23.5q32 0 56 -22q47 -48 113 -48q56 0 100 35q89 80 212 80q133 0 227 -94q22 -24 22 -56q0 -33 -23.5 -56.5t-56.5 -23.5q-32 0 -56 22q-47 48 -113 48q-57 0 -100 -35q-90 -80 -212 -80q-133 0 -227 94q-22 24 -22 56z" />
<glyph unicode="&#xd2;" horiz-adv-x="1760" d="M80 800q0 331 234.5 565.5t565.5 234.5t565.5 -234.5t234.5 -565.5t-234.5 -565.5t-565.5 -234.5t-565.5 234.5t-234.5 565.5zM240 800q0 -265 187.5 -452.5t452.5 -187.5t452.5 187.5t187.5 452.5t-187.5 452.5t-452.5 187.5t-452.5 -187.5t-187.5 -452.5zM693 2000 q0 33 23.5 56.5t56.5 23.5t57 -23l243 -243q20 -23 20 -54q0 -33 -23.5 -56.5t-56.5 -23.5q-32 0 -55 21l-243 243q-22 24 -22 56z" />
<glyph unicode="&#xd3;" horiz-adv-x="1760" d="M80 800q0 331 234.5 565.5t565.5 234.5t565.5 -234.5t234.5 -565.5t-234.5 -565.5t-565.5 -234.5t-565.5 234.5t-234.5 565.5zM240 800q0 -265 187.5 -452.5t452.5 -187.5t452.5 187.5t187.5 452.5t-187.5 452.5t-452.5 187.5t-452.5 -187.5t-187.5 -452.5zM677 1760 q0 31 20 54l243 243q24 23 57 23t56.5 -23.5t23.5 -56.5q0 -32 -22 -56l-243 -243q-23 -21 -55 -21q-33 0 -56.5 23.5t-23.5 56.5z" />
<glyph unicode="&#xd4;" horiz-adv-x="1760" d="M80 800q0 331 234.5 565.5t565.5 234.5t565.5 -234.5t234.5 -565.5t-234.5 -565.5t-565.5 -234.5t-565.5 234.5t-234.5 565.5zM240 800q0 -265 187.5 -452.5t452.5 -187.5t452.5 187.5t187.5 452.5t-187.5 452.5t-452.5 187.5t-452.5 -187.5t-187.5 -452.5zM560 1800 q0 40 40 70l239 159q18 11 41 11t41 -11l239 -159q40 -30 40 -70q0 -33 -23.5 -56.5t-56.5 -23.5q-29 0 -50 17l-190 126l-190 -126q-21 -17 -50 -17q-33 0 -56.5 23.5t-23.5 56.5z" />
<glyph unicode="&#xd5;" horiz-adv-x="1760" d="M80 800q0 331 234.5 565.5t565.5 234.5t565.5 -234.5t234.5 -565.5t-234.5 -565.5t-565.5 -234.5t-565.5 234.5t-234.5 565.5zM240 800q0 -265 187.5 -452.5t452.5 -187.5t452.5 187.5t187.5 452.5t-187.5 452.5t-452.5 187.5t-452.5 -187.5t-187.5 -452.5zM468 1871 q0 33 23.5 56.5t56.5 23.5q32 0 56 -22q47 -48 113 -48q56 0 100 35q89 80 212 80q133 0 227 -94q22 -24 22 -56q0 -33 -23.5 -56.5t-56.5 -23.5q-32 0 -56 22q-47 48 -113 48q-57 0 -100 -35q-90 -80 -212 -80q-133 0 -227 94q-22 24 -22 56z" />
<glyph unicode="&#xd6;" horiz-adv-x="1760" d="M80 800q0 331 234.5 565.5t565.5 234.5t565.5 -234.5t234.5 -565.5t-234.5 -565.5t-565.5 -234.5t-565.5 234.5t-234.5 565.5zM240 800q0 -265 187.5 -452.5t452.5 -187.5t452.5 187.5t187.5 452.5t-187.5 452.5t-452.5 187.5t-452.5 -187.5t-187.5 -452.5zM540 1840 q0 41 29.5 70.5t70.5 29.5t70.5 -29.5t29.5 -70.5t-29.5 -70.5t-70.5 -29.5t-70.5 29.5t-29.5 70.5zM1020 1840q0 41 29.5 70.5t70.5 29.5t70.5 -29.5t29.5 -70.5t-29.5 -70.5t-70.5 -29.5t-70.5 29.5t-29.5 70.5z" />
<glyph unicode="&#xd7;" horiz-adv-x="960" d="M80 400q0 32 22 56l264 264l-264 264q-22 24 -22 56q0 33 23.5 56.5t56.5 23.5t58 -24l262 -262l262 262q25 24 58 24t56.5 -23.5t23.5 -56.5q0 -32 -22 -56l-264 -264l264 -264q22 -24 22 -56q0 -33 -23.5 -56.5t-56.5 -23.5q-32 0 -55 21l-265 265l-265 -265 q-23 -21 -55 -21q-33 0 -56.5 23.5t-23.5 56.5z" />
<glyph unicode="&#xd8;" horiz-adv-x="1760" d="M80 80q0 32 21 55l159 159q-180 216 -180 506q0 331 234.5 565.5t565.5 234.5q290 0 506 -180l157 157q24 23 57 23t56.5 -23.5t23.5 -56.5q0 -29 -18 -51l-162 -163q180 -216 180 -506q0 -331 -234.5 -565.5t-565.5 -234.5q-290 0 -506 180l-157 -157q-24 -23 -57 -23 t-56.5 23.5t-23.5 56.5zM240 800q0 -224 134 -392l898 898q-168 134 -392 134q-265 0 -452.5 -187.5t-187.5 -452.5zM488 294q168 -134 392 -134q265 0 452.5 187.5t187.5 452.5q0 224 -134 393z" />
<glyph unicode="&#xd9;" d="M80 560v960q0 33 23.5 56.5t56.5 23.5t56.5 -23.5t23.5 -56.5v-960q0 -166 117 -283t283 -117t283 117t117 283v960q0 33 23.5 56.5t56.5 23.5t56.5 -23.5t23.5 -56.5v-960q0 -232 -164 -396t-396 -164t-396 164t-164 396zM373 2000q0 33 23.5 56.5t56.5 23.5t57 -23 l243 -243q20 -23 20 -54q0 -33 -23.5 -56.5t-56.5 -23.5q-32 0 -55 21l-243 243q-22 24 -22 56z" />
<glyph unicode="&#xda;" d="M80 560v960q0 33 23.5 56.5t56.5 23.5t56.5 -23.5t23.5 -56.5v-960q0 -166 117 -283t283 -117t283 117t117 283v960q0 33 23.5 56.5t56.5 23.5t56.5 -23.5t23.5 -56.5v-960q0 -232 -164 -396t-396 -164t-396 164t-164 396zM507 1760q0 31 20 54l243 243q24 23 57 23 t56.5 -23.5t23.5 -56.5q0 -32 -22 -56l-243 -243q-23 -21 -55 -21q-33 0 -56.5 23.5t-23.5 56.5z" />
<glyph unicode="&#xdb;" d="M80 560v960q0 33 23.5 56.5t56.5 23.5t56.5 -23.5t23.5 -56.5v-960q0 -166 117 -283t283 -117t283 117t117 283v960q0 33 23.5 56.5t56.5 23.5t56.5 -23.5t23.5 -56.5v-960q0 -232 -164 -396t-396 -164t-396 164t-164 396zM320 1800q0 40 40 70l239 159q18 11 41 11 t41 -11l239 -159q40 -30 40 -70q0 -33 -23.5 -56.5t-56.5 -23.5q-29 0 -50 17l-190 126l-190 -126q-21 -17 -50 -17q-33 0 -56.5 23.5t-23.5 56.5z" />
<glyph unicode="&#xdc;" d="M80 560v960q0 33 23.5 56.5t56.5 23.5t56.5 -23.5t23.5 -56.5v-960q0 -166 117 -283t283 -117t283 117t117 283v960q0 33 23.5 56.5t56.5 23.5t56.5 -23.5t23.5 -56.5v-960q0 -232 -164 -396t-396 -164t-396 164t-164 396zM300 1840q0 41 29.5 70.5t70.5 29.5t70.5 -29.5 t29.5 -70.5t-29.5 -70.5t-70.5 -29.5t-70.5 29.5t-29.5 70.5zM780 1840q0 41 29.5 70.5t70.5 29.5t70.5 -29.5t29.5 -70.5t-29.5 -70.5t-70.5 -29.5t-70.5 29.5t-29.5 70.5z" />
<glyph unicode="&#xdd;" d="M80 1520q0 33 23.5 56.5t56.5 23.5q41 0 65 -33l415 -622l415 622q24 33 65 33q33 0 56.5 -23.5t23.5 -56.5q0 -25 -13 -45l-467 -699v-696q0 -33 -23.5 -56.5t-56.5 -23.5t-56.5 23.5t-23.5 56.5v696l-467 699q-13 20 -13 45zM507 1760q0 31 20 54l243 243q24 23 57 23 t56.5 -23.5t23.5 -56.5q0 -32 -22 -56l-243 -243q-23 -21 -55 -21q-33 0 -56.5 23.5t-23.5 56.5z" />
<glyph unicode="&#xde;" d="M80 80v1440q0 33 23.5 56.5t56.5 23.5t56.5 -23.5t23.5 -56.5v-240h480q199 0 339.5 -140.5t140.5 -339.5t-140.5 -339.5t-339.5 -140.5h-480v-240q0 -33 -23.5 -56.5t-56.5 -23.5t-56.5 23.5t-23.5 56.5zM240 480h480q133 0 226.5 93.5t93.5 226.5t-93.5 226.5 t-226.5 93.5h-480v-640z" />
<glyph unicode="&#xdf;" horiz-adv-x="1120" d="M80 80v1120q0 166 117 283t283 117t283 -117t117 -283q0 -147 -92 -255q-25 -34 -25 -78q0 -77 56 -108q56 -28 104 -76q117 -117 117 -283t-117 -283t-283 -117t-283 117q-26 26 -26 59t23.5 56.5t56.5 23.5t60 -25q70 -71 169 -71t169.5 70.5t70.5 169.5t-70 170 q-29 28 -62.5 47t-63.5 50q-84 83 -84 201q0 107 72 188q48 62 48 144q0 99 -70.5 169.5t-169.5 70.5t-169 -70q-71 -71 -71 -170v-1120q0 -33 -23.5 -56.5t-56.5 -23.5t-56.5 23.5t-23.5 56.5z" />
<glyph unicode="&#xe0;" d="M80 560q0 232 164 396t396 164t396 -164t164 -396v-480q0 -33 -23.5 -56.5t-56.5 -23.5t-56.5 23.5t-23.5 56.5v88q-168 -168 -400 -168t-396 164t-164 396zM240 560q0 -166 117 -283t283 -117t283 117t117 283t-117 283t-283 117t-283 -117t-117 -283zM400 1520 q0 33 23.5 56.5t56.5 23.5t57 -23l243 -243q20 -23 20 -54q0 -33 -23.5 -56.5t-56.5 -23.5q-32 0 -55 21l-243 243q-22 24 -22 56z" />
<glyph unicode="&#xe1;" d="M80 560q0 232 164 396t396 164t396 -164t164 -396v-480q0 -33 -23.5 -56.5t-56.5 -23.5t-56.5 23.5t-23.5 56.5v88q-168 -168 -400 -168t-396 164t-164 396zM240 560q0 -166 117 -283t283 -117t283 117t117 283t-117 283t-283 117t-283 -117t-117 -283zM480 1280 q0 31 20 54l243 243q24 23 57 23t56.5 -23.5t23.5 -56.5q0 -32 -22 -56l-243 -243q-23 -21 -55 -21q-33 0 -56.5 23.5t-23.5 56.5z" />
<glyph unicode="&#xe2;" d="M80 560q0 232 164 396t396 164t396 -164t164 -396v-480q0 -33 -23.5 -56.5t-56.5 -23.5t-56.5 23.5t-23.5 56.5v88q-168 -168 -400 -168t-396 164t-164 396zM240 560q0 -166 117 -283t283 -117t283 117t117 283t-117 283t-283 117t-283 -117t-117 -283zM320 1320 q0 40 40 70l239 159q18 11 41 11t41 -11l239 -159q40 -30 40 -70q0 -33 -23.5 -56.5t-56.5 -23.5q-29 0 -50 17l-190 126l-190 -126q-21 -17 -50 -17q-33 0 -56.5 23.5t-23.5 56.5z" />
<glyph unicode="&#xe3;" d="M80 560q0 232 164 396t396 164t396 -164t164 -396v-480q0 -33 -23.5 -56.5t-56.5 -23.5t-56.5 23.5t-23.5 56.5v88q-168 -168 -400 -168t-396 164t-164 396zM235 1391q0 33 23.5 56.5t56.5 23.5q32 0 56 -22q47 -48 113 -48q56 0 100 35q89 80 212 80q133 0 227 -94 q22 -24 22 -56q0 -33 -23.5 -56.5t-56.5 -23.5q-32 0 -56 22q-47 48 -113 48q-57 0 -100 -35q-90 -80 -212 -80q-133 0 -227 94q-22 24 -22 56zM240 560q0 -166 117 -283t283 -117t283 117t117 283t-117 283t-283 117t-283 -117t-117 -283z" />
<glyph unicode="&#xe4;" d="M80 560q0 232 164 396t396 164t396 -164t164 -396v-480q0 -33 -23.5 -56.5t-56.5 -23.5t-56.5 23.5t-23.5 56.5v88q-168 -168 -400 -168t-396 164t-164 396zM240 560q0 -166 117 -283t283 -117t283 117t117 283t-117 283t-283 117t-283 -117t-117 -283zM300 1360 q0 41 29.5 70.5t70.5 29.5t70.5 -29.5t29.5 -70.5t-29.5 -70.5t-70.5 -29.5t-70.5 29.5t-29.5 70.5zM780 1360q0 41 29.5 70.5t70.5 29.5t70.5 -29.5t29.5 -70.5t-29.5 -70.5t-70.5 -29.5t-70.5 29.5t-29.5 70.5z" />
<glyph unicode="&#xe5;" d="M80 560q0 232 164 396t396 164t396 -164t164 -396v-480q0 -33 -23.5 -56.5t-56.5 -23.5t-56.5 23.5t-23.5 56.5v88q-168 -168 -400 -168t-396 164t-164 396zM240 560q0 -166 117 -283t283 -117t283 117t117 283t-117 283t-283 117t-283 -117t-117 -283zM439 1399 q0 83 59 142t143 59q83 0 142 -59t59 -142q0 -84 -59 -143t-142 -59q-84 0 -143 59t-59 143zM540 1399q0 -42 29.5 -71.5t71.5 -29.5q41 0 70.5 29.5t29.5 71.5q0 41 -29.5 70.5t-70.5 29.5q-42 0 -71.5 -29.5t-29.5 -70.5z" />
<glyph unicode="&#xe6;" horiz-adv-x="2240" d="M80 560q0 232 164 396t396 164t396 -164q49 -49 84 -105q35 56 84 105q164 164 396 164t396 -164t164 -396q0 -33 -23.5 -56.5t-56.5 -23.5h-873q22 -115 110 -203q117 -117 283 -117q150 0 258 95q22 17 50 17q33 0 56.5 -23.5t23.5 -56.5t-23 -57q-155 -135 -365 -135 q-232 0 -400 168v-88q0 -33 -23.5 -56.5t-56.5 -23.5t-56.5 23.5t-23.5 56.5v88q-168 -168 -400 -168t-396 164t-164 396zM240 560q0 -166 117 -283t283 -117t283 117t117 283t-117 283t-283 117t-283 -117t-117 -283zM1207 640h786q-22 115 -110 203q-117 117 -283 117 t-283 -117q-88 -88 -110 -203z" />
<glyph unicode="&#xe7;" horiz-adv-x="1120" d="M80 560q0 232 164 396t396 164q210 0 365 -135q28 -25 28 -62q0 -33 -23.5 -56.5t-56.5 -23.5q-29 0 -51 18q-112 99 -262 99q-166 0 -283 -117t-117 -283t117 -283t283 -117q150 0 261 98q21 16 49 16q33 0 56.5 -23.5t23.5 -56.5t-25 -59q-155 -135 -365 -135 q-232 0 -396 164t-164 396zM317 -330q0 33 23.5 56.5t56.5 23.5q24 0 43 -12l78 -48q19 -10 39 -10q33 0 56.5 13.5t23.5 36.5t-23.5 36.5t-56.5 13.5t-56.5 23.5t-23.5 56.5q0 14 4 26l39 137q6 19 21 34q23 23 56 23t56.5 -23.5t23.5 -56.5q0 -10 -2 -19l-17 -60 q37 -15 69 -41q70 -61 70 -150t-70.5 -149.5t-169.5 -60.5q-59 0 -114 29l-91 54q-35 29 -35 67z" />
<glyph unicode="&#xe8;" d="M80 560q0 232 164 396t396 164t396 -164t164 -396q0 -33 -23.5 -56.5t-56.5 -23.5h-873q22 -115 110 -203q117 -117 283 -117q150 0 258 95q22 17 50 17q33 0 56.5 -23.5t23.5 -56.5t-23 -57q-155 -135 -365 -135q-232 0 -396 164t-164 396zM247 640h786 q-22 115 -110 203q-117 117 -283 117t-283 -117q-88 -88 -110 -203zM400 1520q0 33 23.5 56.5t56.5 23.5t57 -23l243 -243q20 -23 20 -54q0 -33 -23.5 -56.5t-56.5 -23.5q-32 0 -55 21l-243 243q-22 24 -22 56z" />
<glyph unicode="&#xe9;" d="M80 560q0 232 164 396t396 164t396 -164t164 -396q0 -33 -23.5 -56.5t-56.5 -23.5h-873q22 -115 110 -203q117 -117 283 -117q150 0 258 95q22 17 50 17q33 0 56.5 -23.5t23.5 -56.5t-23 -57q-155 -135 -365 -135q-232 0 -396 164t-164 396zM247 640h786 q-22 115 -110 203q-117 117 -283 117t-283 -117q-88 -88 -110 -203zM480 1280q0 31 20 54l243 243q24 23 57 23t56.5 -23.5t23.5 -56.5q0 -32 -22 -56l-243 -243q-23 -21 -55 -21q-33 0 -56.5 23.5t-23.5 56.5z" />
<glyph unicode="&#xea;" d="M80 560q0 232 164 396t396 164t396 -164t164 -396q0 -33 -23.5 -56.5t-56.5 -23.5h-873q22 -115 110 -203q117 -117 283 -117q150 0 258 95q22 17 50 17q33 0 56.5 -23.5t23.5 -56.5t-23 -57q-155 -135 -365 -135q-232 0 -396 164t-164 396zM247 640h786 q-22 115 -110 203q-117 117 -283 117t-283 -117q-88 -88 -110 -203zM320 1320q0 40 40 70l239 159q18 11 41 11t41 -11l239 -159q40 -30 40 -70q0 -33 -23.5 -56.5t-56.5 -23.5q-29 0 -50 17l-190 126l-190 -126q-21 -17 -50 -17q-33 0 -56.5 23.5t-23.5 56.5z" />
<glyph unicode="&#xeb;" d="M80 560q0 232 164 396t396 164t396 -164t164 -396q0 -33 -23.5 -56.5t-56.5 -23.5h-873q22 -115 110 -203q117 -117 283 -117q150 0 258 95q22 17 50 17q33 0 56.5 -23.5t23.5 -56.5t-23 -57q-155 -135 -365 -135q-232 0 -396 164t-164 396zM247 640h786 q-22 115 -110 203q-117 117 -283 117t-283 -117q-88 -88 -110 -203zM300 1360q0 41 29.5 70.5t70.5 29.5t70.5 -29.5t29.5 -70.5t-29.5 -70.5t-70.5 -29.5t-70.5 29.5t-29.5 70.5zM780 1360q0 41 29.5 70.5t70.5 29.5t70.5 -29.5t29.5 -70.5t-29.5 -70.5t-70.5 -29.5 t-70.5 29.5t-29.5 70.5z" />
<glyph unicode="&#xec;" horiz-adv-x="480" d="M1 1520q0 33 23.5 56.5t56.5 23.5t57 -23l243 -243q20 -23 20 -54q0 -33 -23.5 -56.5t-56.5 -23.5q-32 0 -55 21l-243 243q-22 24 -22 56zM160 80v960q0 33 23.5 56.5t56.5 23.5t56.5 -23.5t23.5 -56.5v-960q0 -33 -23.5 -56.5t-56.5 -23.5t-56.5 23.5t-23.5 56.5z" />
<glyph unicode="&#xed;" horiz-adv-x="480" d="M82 1280q0 31 20 54l243 243q24 23 57 23t56.5 -23.5t23.5 -56.5q0 -32 -22 -56l-243 -243q-23 -21 -55 -21q-33 0 -56.5 23.5t-23.5 56.5zM160 80v960q0 33 23.5 56.5t56.5 23.5t56.5 -23.5t23.5 -56.5v-960q0 -33 -23.5 -56.5t-56.5 -23.5t-56.5 23.5t-23.5 56.5z" />
<glyph unicode="&#xee;" horiz-adv-x="560" d="M-39 1320q0 40 40 70l239 159q18 11 41 11t41 -11l239 -159q40 -30 40 -70q0 -33 -23.5 -56.5t-56.5 -23.5q-29 0 -50 17l-190 126l-190 -126q-21 -17 -50 -17q-33 0 -56.5 23.5t-23.5 56.5zM201 80v960q0 33 23.5 56.5t56.5 23.5t56.5 -23.5t23.5 -56.5v-960 q0 -33 -23.5 -56.5t-56.5 -23.5t-56.5 23.5t-23.5 56.5z" />
<glyph unicode="&#xef;" horiz-adv-x="600" d="M-38 1360q0 41 29.5 70.5t70.5 29.5t70.5 -29.5t29.5 -70.5t-29.5 -70.5t-70.5 -29.5t-70.5 29.5t-29.5 70.5zM220 80v960q0 33 23.5 56.5t56.5 23.5t56.5 -23.5t23.5 -56.5v-960q0 -33 -23.5 -56.5t-56.5 -23.5t-56.5 23.5t-23.5 56.5zM442 1360q0 41 29.5 70.5 t70.5 29.5t70.5 -29.5t29.5 -70.5t-29.5 -70.5t-70.5 -29.5t-70.5 29.5t-29.5 70.5z" />
<glyph unicode="&#xf0;" d="M80 560q0 232 164 396t396 164q79 0 150 -19l-104 179l-139 -81q-28 -17 -60.5 -8.5t-48.5 36.5q-17 29 -8.5 61t36.5 49l140 81l-34 58q-12 22 -12 44q0 33 23.5 56.5t56.5 23.5q46 0 68 -37l37 -63l136 79q28 17 60.5 8.5t48.5 -36.5q17 -29 8.5 -61t-36.5 -49 l-137 -80l308 -532q67 -121 67 -269q0 -232 -164 -396t-396 -164t-396 164t-164 396zM240 560q0 -166 117 -283t283 -117t283 117t117 283t-117 283t-283 117t-283 -117t-117 -283z" />
<glyph unicode="&#xf1;" horiz-adv-x="1200" d="M80 80v960q0 33 23.5 56.5t56.5 23.5t56.5 -23.5t23.5 -56.5v-65q150 145 360 145q215 0 367.5 -152.5t152.5 -367.5v-520q0 -33 -23.5 -56.5t-56.5 -23.5t-56.5 23.5t-23.5 56.5v520q0 149 -105.5 254.5t-254.5 105.5t-254.5 -105.5t-105.5 -254.5v-520 q0 -33 -23.5 -56.5t-56.5 -23.5t-56.5 23.5t-23.5 56.5zM200 1391q0 33 23.5 56.5t56.5 23.5q32 0 56 -22q47 -48 113 -48q56 0 100 35q89 80 212 80q133 0 227 -94q22 -24 22 -56q0 -33 -23.5 -56.5t-56.5 -23.5q-32 0 -56 22q-47 48 -113 48q-57 0 -100 -35 q-90 -80 -212 -80q-133 0 -227 94q-22 24 -22 56z" />
<glyph unicode="&#xf2;" d="M80 560q0 232 164 396t396 164t396 -164t164 -396t-164 -396t-396 -164t-396 164t-164 396zM240 560q0 -166 117 -283t283 -117t283 117t117 283t-117 283t-283 117t-283 -117t-117 -283zM400 1520q0 33 23.5 56.5t56.5 23.5t57 -23l243 -243q20 -23 20 -54 q0 -33 -23.5 -56.5t-56.5 -23.5q-32 0 -55 21l-243 243q-22 24 -22 56z" />
<glyph unicode="&#xf3;" d="M80 560q0 232 164 396t396 164t396 -164t164 -396t-164 -396t-396 -164t-396 164t-164 396zM240 560q0 -166 117 -283t283 -117t283 117t117 283t-117 283t-283 117t-283 -117t-117 -283zM480 1280q0 31 20 54l243 243q24 23 57 23t56.5 -23.5t23.5 -56.5q0 -32 -22 -56 l-243 -243q-23 -21 -55 -21q-33 0 -56.5 23.5t-23.5 56.5z" />
<glyph unicode="&#xf4;" d="M80 560q0 232 164 396t396 164t396 -164t164 -396t-164 -396t-396 -164t-396 164t-164 396zM240 560q0 -166 117 -283t283 -117t283 117t117 283t-117 283t-283 117t-283 -117t-117 -283zM320 1320q0 40 40 70l239 159q18 11 41 11t41 -11l239 -159q40 -30 40 -70 q0 -33 -23.5 -56.5t-56.5 -23.5q-29 0 -50 17l-190 126l-190 -126q-21 -17 -50 -17q-33 0 -56.5 23.5t-23.5 56.5z" />
<glyph unicode="&#xf5;" d="M80 560q0 232 164 396t396 164t396 -164t164 -396t-164 -396t-396 -164t-396 164t-164 396zM235 1391q0 33 23.5 56.5t56.5 23.5q32 0 56 -22q47 -48 113 -48q56 0 100 35q89 80 212 80q133 0 227 -94q22 -24 22 -56q0 -33 -23.5 -56.5t-56.5 -23.5q-32 0 -56 22 q-47 48 -113 48q-57 0 -100 -35q-90 -80 -212 -80q-133 0 -227 94q-22 24 -22 56zM240 560q0 -166 117 -283t283 -117t283 117t117 283t-117 283t-283 117t-283 -117t-117 -283z" />
<glyph unicode="&#xf6;" d="M80 560q0 232 164 396t396 164t396 -164t164 -396t-164 -396t-396 -164t-396 164t-164 396zM240 560q0 -166 117 -283t283 -117t283 117t117 283t-117 283t-283 117t-283 -117t-117 -283zM300 1360q0 41 29.5 70.5t70.5 29.5t70.5 -29.5t29.5 -70.5t-29.5 -70.5 t-70.5 -29.5t-70.5 29.5t-29.5 70.5zM780 1360q0 41 29.5 70.5t70.5 29.5t70.5 -29.5t29.5 -70.5t-29.5 -70.5t-70.5 -29.5t-70.5 29.5t-29.5 70.5z" />
<glyph unicode="&#xf7;" horiz-adv-x="960" d="M80 720q0 33 23.5 56.5t56.5 23.5h640q33 0 56.5 -23.5t23.5 -56.5t-23.5 -56.5t-56.5 -23.5h-640q-33 0 -56.5 23.5t-23.5 56.5zM380 420q0 41 29.5 70.5t70.5 29.5t70.5 -29.5t29.5 -70.5t-29.5 -70.5t-70.5 -29.5t-70.5 29.5t-29.5 70.5zM380 1020q0 41 29.5 70.5 t70.5 29.5t70.5 -29.5t29.5 -70.5t-29.5 -70.5t-70.5 -29.5t-70.5 29.5t-29.5 70.5z" />
<glyph unicode="&#xf8;" d="M80 80q0 32 22 56l89 89q-111 144 -111 335q0 232 164 396t396 164q191 0 336 -111l85 85q26 26 59 26t56.5 -23.5t23.5 -56.5q0 -32 -22 -56l-89 -89q111 -144 111 -335q0 -232 -164 -396t-396 -164q-191 0 -335 111l-88 -88q-24 -23 -57 -23t-56.5 23.5t-23.5 56.5z M240 560q0 -124 65 -221l556 555q-97 66 -221 66q-166 0 -283 -117t-117 -283zM419 225q97 -65 221 -65q166 0 283 117t117 283q0 124 -65 221z" />
<glyph unicode="&#xf9;" horiz-adv-x="1200" d="M80 520v520q0 33 23.5 56.5t56.5 23.5t56.5 -23.5t23.5 -56.5v-520q0 -149 105.5 -254.5t254.5 -105.5t254.5 105.5t105.5 254.5v520q0 33 23.5 56.5t56.5 23.5t56.5 -23.5t23.5 -56.5v-960q0 -33 -23.5 -56.5t-56.5 -23.5t-56.5 23.5t-23.5 56.5v65q-150 -145 -360 -145 q-215 0 -367.5 152.5t-152.5 367.5zM400 1520q0 33 23.5 56.5t56.5 23.5t57 -23l243 -243q20 -23 20 -54q0 -33 -23.5 -56.5t-56.5 -23.5q-32 0 -55 21l-243 243q-22 24 -22 56z" />
<glyph unicode="&#xfa;" horiz-adv-x="1200" d="M80 520v520q0 33 23.5 56.5t56.5 23.5t56.5 -23.5t23.5 -56.5v-520q0 -149 105.5 -254.5t254.5 -105.5t254.5 105.5t105.5 254.5v520q0 33 23.5 56.5t56.5 23.5t56.5 -23.5t23.5 -56.5v-960q0 -33 -23.5 -56.5t-56.5 -23.5t-56.5 23.5t-23.5 56.5v65q-150 -145 -360 -145 q-215 0 -367.5 152.5t-152.5 367.5zM400 1280q0 31 20 54l243 243q24 23 57 23t56.5 -23.5t23.5 -56.5q0 -32 -22 -56l-243 -243q-23 -21 -55 -21q-33 0 -56.5 23.5t-23.5 56.5z" />
<glyph unicode="&#xfb;" horiz-adv-x="1200" d="M80 520v520q0 33 23.5 56.5t56.5 23.5t56.5 -23.5t23.5 -56.5v-520q0 -149 105.5 -254.5t254.5 -105.5t254.5 105.5t105.5 254.5v520q0 33 23.5 56.5t56.5 23.5t56.5 -23.5t23.5 -56.5v-960q0 -33 -23.5 -56.5t-56.5 -23.5t-56.5 23.5t-23.5 56.5v65q-150 -145 -360 -145 q-215 0 -367.5 152.5t-152.5 367.5zM280 1320q0 40 40 70l239 159q18 11 41 11t41 -11l239 -159q40 -30 40 -70q0 -33 -23.5 -56.5t-56.5 -23.5q-29 0 -50 17l-190 126l-190 -126q-21 -17 -50 -17q-33 0 -56.5 23.5t-23.5 56.5z" />
<glyph unicode="&#xfc;" horiz-adv-x="1200" d="M80 520v520q0 33 23.5 56.5t56.5 23.5t56.5 -23.5t23.5 -56.5v-520q0 -149 105.5 -254.5t254.5 -105.5t254.5 105.5t105.5 254.5v520q0 33 23.5 56.5t56.5 23.5t56.5 -23.5t23.5 -56.5v-960q0 -33 -23.5 -56.5t-56.5 -23.5t-56.5 23.5t-23.5 56.5v65q-150 -145 -360 -145 q-215 0 -367.5 152.5t-152.5 367.5zM260 1360q0 41 29.5 70.5t70.5 29.5t70.5 -29.5t29.5 -70.5t-29.5 -70.5t-70.5 -29.5t-70.5 29.5t-29.5 70.5zM740 1360q0 41 29.5 70.5t70.5 29.5t70.5 -29.5t29.5 -70.5t-29.5 -70.5t-70.5 -29.5t-70.5 29.5t-29.5 70.5z" />
<glyph unicode="&#xfd;" horiz-adv-x="1120" d="M80 1040q0 33 23.5 56.5t56.5 23.5t57 -23q13 -14 19 -30l324 -777l324 777q6 16 20 30q23 23 56 23t56.5 -23.5t23.5 -56.5q0 -20 -9 -37l-596 -1430q-6 -16 -19 -29q-24 -24 -57 -24t-56.5 23.5t-23.5 56.5q0 20 9 37l185 444l-384 922q-9 17 -9 37zM427 1280 q0 31 20 54l243 243q24 23 57 23t56.5 -23.5t23.5 -56.5q0 -32 -22 -56l-243 -243q-23 -21 -55 -21q-33 0 -56.5 23.5t-23.5 56.5z" />
<glyph unicode="&#xfe;" d="M80 -400v1922q0 33 23.5 56.5t56.5 23.5t56.5 -23.5t23.5 -56.5v-568q168 168 400 168t396 -164t164 -396t-164 -396t-396 -164t-400 168v-570q0 -33 -23.5 -56.5t-56.5 -23.5t-56.5 23.5t-23.5 56.5zM240 562q0 -166 117 -283t283 -117t283 117t117 283t-117 283 t-283 117t-283 -117t-117 -283z" />
<glyph unicode="&#xff;" horiz-adv-x="1120" d="M80 1040q0 33 23.5 56.5t56.5 23.5t57 -23q13 -14 19 -30l324 -777l324 777q6 16 20 30q23 23 56 23t56.5 -23.5t23.5 -56.5q0 -20 -9 -37l-596 -1430q-6 -16 -19 -29q-24 -24 -57 -24t-56.5 23.5t-23.5 56.5q0 20 9 37l185 444l-384 922q-9 17 -9 37zM220 1360 q0 41 29.5 70.5t70.5 29.5t70.5 -29.5t29.5 -70.5t-29.5 -70.5t-70.5 -29.5t-70.5 29.5t-29.5 70.5zM700 1360q0 41 29.5 70.5t70.5 29.5t70.5 -29.5t29.5 -70.5t-29.5 -70.5t-70.5 -29.5t-70.5 29.5t-29.5 70.5z" />
<glyph unicode="&#x100;" horiz-adv-x="1440" d="M80 80q0 19 7 34l556 1430q6 18 21 33q23 23 56 23t57 -23q14 -15 20 -33l556 -1430q7 -15 7 -34q0 -33 -23.5 -56.5t-56.5 -23.5t-56 23q-12 12 -18 26l-199 511h-574l-199 -511q-6 -14 -17 -26q-24 -23 -57 -23t-56.5 23.5t-23.5 56.5zM400 1840q0 33 23.5 56.5 t56.5 23.5h480q33 0 56.5 -23.5t23.5 -56.5t-23.5 -56.5t-56.5 -23.5h-480q-33 0 -56.5 23.5t-23.5 56.5zM495 720h450l-225 579z" />
<glyph unicode="&#x101;" d="M80 560q0 232 164 396t396 164t396 -164t164 -396v-480q0 -33 -23.5 -56.5t-56.5 -23.5t-56.5 23.5t-23.5 56.5v88q-168 -168 -400 -168t-396 164t-164 396zM240 560q0 -166 117 -283t283 -117t283 117t117 283t-117 283t-283 117t-283 -117t-117 -283zM320 1360 q0 33 23.5 56.5t56.5 23.5h480q33 0 56.5 -23.5t23.5 -56.5t-23.5 -56.5t-56.5 -23.5h-480q-33 0 -56.5 23.5t-23.5 56.5z" />
<glyph unicode="&#x102;" horiz-adv-x="1440" d="M80 80q0 19 7 34l556 1430q6 18 21 33q23 23 56 23t57 -23q14 -15 20 -33l556 -1430q7 -15 7 -34q0 -33 -23.5 -56.5t-56.5 -23.5t-56 23q-12 12 -18 26l-199 511h-574l-199 -511q-6 -14 -17 -26q-24 -23 -57 -23t-56.5 23.5t-23.5 56.5zM406 1960q0 33 23.5 56.5 t56.5 23.5t56.5 -23.5t23.5 -56.5t47 -56.5t113 -23.5t113.5 23.5t47.5 56.5t23.5 56.5t56.5 23.5t56.5 -23.5t23.5 -56.5q-5 -105 -94 -169q-94 -71 -227 -71t-226.5 70.5t-93.5 169.5zM495 720h450l-225 579z" />
<glyph unicode="&#x103;" d="M80 560q0 232 164 396t396 164t396 -164t164 -396v-480q0 -33 -23.5 -56.5t-56.5 -23.5t-56.5 23.5t-23.5 56.5v88q-168 -168 -400 -168t-396 164t-164 396zM240 560q0 -166 117 -283t283 -117t283 117t117 283t-117 283t-283 117t-283 -117t-117 -283zM326 1480 q0 33 23.5 56.5t56.5 23.5t56.5 -23.5t23.5 -56.5t47 -56.5t113 -23.5t113.5 23.5t47.5 56.5t23.5 56.5t56.5 23.5t56.5 -23.5t23.5 -56.5q-5 -105 -94 -169q-94 -71 -227 -71t-226.5 70.5t-93.5 169.5z" />
<glyph unicode="&#x104;" horiz-adv-x="1520" d="M80 80q0 19 7 34l556 1430q6 18 21 33q23 23 56 23t57 -23q14 -15 20 -33l556 -1430q7 -15 7 -34q0 -33 -23.5 -56.5t-56.5 -23.5t-56 23q-12 12 -18 26l-199 511h-574l-199 -511q-6 -14 -17 -26q-24 -23 -57 -23t-56.5 23.5t-23.5 56.5zM495 720h450l-225 579z M1041 -160q0 116 102 196q53 44 68 80q20 40 70 41q33 0 57 -23q22 -23 23 -54q0 -13 -2 -23q-15 -73 -123 -151q-35 -28 -35 -66q0 -33 23.5 -56.5t56.5 -23.5q24 0 43 13l69 51q21 16 48 16q33 0 56.5 -23.5t23.5 -56.5q0 -40 -28 -62l-80 -56q-61 -42 -132 -42 q-99 0 -169.5 70.5t-70.5 169.5z" />
<glyph unicode="&#x105;" horiz-adv-x="1360" d="M80 560q0 232 164 396t396 164t396 -164t164 -396v-480q0 -33 -23.5 -56.5t-56.5 -23.5t-56.5 23.5t-23.5 56.5v88q-168 -168 -400 -168t-396 164t-164 396zM240 560q0 -166 117 -283t283 -117t283 117t117 283t-117 283t-283 117t-283 -117t-117 -283zM880 -160 q0 116 102 196q53 44 68 80q20 40 70 41q33 0 57 -23q22 -23 23 -54q0 -13 -2 -23q-15 -73 -123 -151q-35 -28 -35 -66q0 -33 23.5 -56.5t56.5 -23.5q24 0 43 13l69 51q21 16 48 16q33 0 56.5 -23.5t23.5 -56.5q0 -40 -28 -62l-80 -56q-61 -42 -132 -42q-99 0 -169.5 70.5 t-70.5 169.5z" />
<glyph unicode="&#x106;" horiz-adv-x="1480" d="M80 800q0 331 234.5 565.5t565.5 234.5q286 0 509 -183q23 -24 23 -57t-23.5 -56.5t-56.5 -23.5t-57 24q-169 136 -395 136q-265 0 -452.5 -187.5t-187.5 -452.5t187.5 -452.5t452.5 -187.5q229 0 400 140q20 14 46 14q33 0 56.5 -23.5t23.5 -56.5t-23 -56 q-223 -178 -503 -178q-331 0 -565.5 234.5t-234.5 565.5zM721 1760q0 31 20 54l243 243q24 23 57 23t56.5 -23.5t23.5 -56.5q0 -32 -22 -56l-243 -243q-23 -21 -55 -21q-33 0 -56.5 23.5t-23.5 56.5z" />
<glyph unicode="&#x107;" horiz-adv-x="1120" d="M80 560q0 232 164 396t396 164q210 0 365 -135q28 -25 28 -62q0 -33 -23.5 -56.5t-56.5 -23.5q-29 0 -51 18q-112 99 -262 99q-166 0 -283 -117t-117 -283t117 -283t283 -117q150 0 261 98q21 16 49 16q33 0 56.5 -23.5t23.5 -56.5t-25 -59q-155 -135 -365 -135 q-232 0 -396 164t-164 396zM479 1280q0 31 20 54l243 243q24 23 57 23t56.5 -23.5t23.5 -56.5q0 -32 -22 -56l-243 -243q-23 -21 -55 -21q-33 0 -56.5 23.5t-23.5 56.5z" />
<glyph unicode="&#x108;" horiz-adv-x="1480" d="M80 800q0 331 234.5 565.5t565.5 234.5q286 0 509 -183q23 -24 23 -57t-23.5 -56.5t-56.5 -23.5t-57 24q-169 136 -395 136q-265 0 -452.5 -187.5t-187.5 -452.5t187.5 -452.5t452.5 -187.5q229 0 400 140q20 14 46 14q33 0 56.5 -23.5t23.5 -56.5t-23 -56 q-223 -178 -503 -178q-331 0 -565.5 234.5t-234.5 565.5zM561 1800q0 40 40 70l239 159q18 11 41 11t41 -11l239 -159q40 -30 40 -70q0 -33 -23.5 -56.5t-56.5 -23.5q-29 0 -50 17l-190 126l-190 -126q-21 -17 -50 -17q-33 0 -56.5 23.5t-23.5 56.5z" />
<glyph unicode="&#x109;" horiz-adv-x="1120" d="M80 560q0 232 164 396t396 164q210 0 365 -135q28 -25 28 -62q0 -33 -23.5 -56.5t-56.5 -23.5q-29 0 -51 18q-112 99 -262 99q-166 0 -283 -117t-117 -283t117 -283t283 -117q150 0 261 98q21 16 49 16q33 0 56.5 -23.5t23.5 -56.5t-25 -59q-155 -135 -365 -135 q-232 0 -396 164t-164 396zM321 1320q0 40 40 70l239 159q18 11 41 11t41 -11l239 -159q40 -30 40 -70q0 -33 -23.5 -56.5t-56.5 -23.5q-29 0 -50 17l-190 126l-190 -126q-21 -17 -50 -17q-33 0 -56.5 23.5t-23.5 56.5z" />
<glyph unicode="&#x10a;" horiz-adv-x="1480" d="M80 800q0 331 234.5 565.5t565.5 234.5q286 0 509 -183q23 -24 23 -57t-23.5 -56.5t-56.5 -23.5t-57 24q-169 136 -395 136q-265 0 -452.5 -187.5t-187.5 -452.5t187.5 -452.5t452.5 -187.5q229 0 400 140q20 14 46 14q33 0 56.5 -23.5t23.5 -56.5t-23 -56 q-223 -178 -503 -178q-331 0 -565.5 234.5t-234.5 565.5zM759 1841q0 50 35 85t85 35t85 -35t35 -85t-35 -85t-85 -35t-85 35t-35 85z" />
<glyph unicode="&#x10b;" horiz-adv-x="1120" d="M80 560q0 232 164 396t396 164q210 0 365 -135q28 -25 28 -62q0 -33 -23.5 -56.5t-56.5 -23.5q-29 0 -51 18q-112 99 -262 99q-166 0 -283 -117t-117 -283t117 -283t283 -117q150 0 261 98q21 16 49 16q33 0 56.5 -23.5t23.5 -56.5t-25 -59q-155 -135 -365 -135 q-232 0 -396 164t-164 396zM520 1361q0 50 35 85t85 35t85 -35t35 -85t-35 -85t-85 -35t-85 35t-35 85z" />
<glyph unicode="&#x10c;" horiz-adv-x="1480" d="M80 800q0 331 234.5 565.5t565.5 234.5q286 0 509 -183q23 -24 23 -57t-23.5 -56.5t-56.5 -23.5t-57 24q-169 136 -395 136q-265 0 -452.5 -187.5t-187.5 -452.5t187.5 -452.5t452.5 -187.5q229 0 400 140q20 14 46 14q33 0 56.5 -23.5t23.5 -56.5t-23 -56 q-223 -178 -503 -178q-331 0 -565.5 234.5t-234.5 565.5zM559 1960q0 33 23.5 56.5t56.5 23.5q29 0 50 -17l190 -126l190 126q21 17 50 17q33 0 56.5 -23.5t23.5 -56.5q0 -40 -40 -70l-239 -159q-18 -11 -41 -11t-41 11l-239 159q-40 30 -40 70z" />
<glyph unicode="&#x10d;" horiz-adv-x="1120" d="M80 560q0 232 164 396t396 164q210 0 365 -135q28 -25 28 -62q0 -33 -23.5 -56.5t-56.5 -23.5q-29 0 -51 18q-112 99 -262 99q-166 0 -283 -117t-117 -283t117 -283t283 -117q150 0 261 98q21 16 49 16q33 0 56.5 -23.5t23.5 -56.5t-25 -59q-155 -135 -365 -135 q-232 0 -396 164t-164 396zM317 1480q0 33 23.5 56.5t56.5 23.5q29 0 50 -17l190 -126l190 126q21 17 50 17q33 0 56.5 -23.5t23.5 -56.5q0 -40 -40 -70l-239 -159q-18 -11 -41 -11t-41 11l-239 159q-40 30 -40 70z" />
<glyph unicode="&#x10e;" horiz-adv-x="1360" d="M80 80v1440q0 33 23.5 56.5t56.5 23.5h320q331 0 565.5 -234.5t234.5 -565.5t-234.5 -565.5t-565.5 -234.5h-320q-33 0 -56.5 23.5t-23.5 56.5zM240 160h240q265 0 452.5 187.5t187.5 452.5t-187.5 452.5t-452.5 187.5h-240v-1280zM240 1960q0 33 23.5 56.5t56.5 23.5 q29 0 50 -17l190 -126l190 126q21 17 50 17q33 0 56.5 -23.5t23.5 -56.5q0 -40 -40 -70l-239 -159q-18 -11 -41 -11t-41 11l-239 159q-40 30 -40 70z" />
<glyph unicode="&#x10f;" horiz-adv-x="1600" d="M80 560q0 232 164 396t396 164t396 -164l4 -4v570q0 33 23.5 56.5t56.5 23.5t56.5 -23.5t23.5 -56.5v-962q0 -232 -164 -396t-396 -164t-396 164t-164 396zM240 560q0 -166 117 -283t283 -117t283 117t117 283t-117 283t-283 117t-283 -117t-117 -283zM1280 999 q0 14 5 26q98 237 3 435q-8 18 -8 40q0 41 29.5 70.5t70.5 29.5q62 0 90 -58q63 -112 63 -227q0 -175 -152 -358q-17 -17 -42 -17q-24 0 -41.5 17.5t-17.5 41.5z" />
<glyph unicode="&#x110;" horiz-adv-x="1520" d="M0 800q0 33 23.5 56.5t56.5 23.5h159v640q0 33 23.5 56.5t56.5 23.5h320q331 0 565.5 -234.5t234.5 -565.5t-234.5 -565.5t-565.5 -234.5h-320q-33 0 -56.5 23.5t-23.5 56.5v640h-159q-33 0 -56.5 23.5t-23.5 56.5zM399 160h240q265 0 452.5 187.5t187.5 452.5 t-187.5 452.5t-452.5 187.5h-240v-560h320q33 0 56.5 -23.5t23.5 -56.5t-23.5 -56.5t-56.5 -23.5h-320v-560z" />
<glyph unicode="&#x111;" horiz-adv-x="1440" d="M80 560q0 232 164 396t396 164t396 -164l4 -4v328h-320q-33 0 -56.5 23.5t-23.5 56.5t23.5 56.5t56.5 23.5h320v82q0 33 23.5 56.5t56.5 23.5t56.5 -23.5t23.5 -56.5v-82h80q33 0 56.5 -23.5t23.5 -56.5t-23.5 -56.5t-56.5 -23.5h-80v-720q0 -232 -164 -396t-396 -164 t-396 164t-164 396zM240 560q0 -166 117 -283t283 -117t283 117t117 283t-117 283t-283 117t-283 -117t-117 -283z" />
<glyph unicode="&#x112;" d="M80 80v1440q0 33 23.5 56.5t56.5 23.5h960q33 0 56.5 -23.5t23.5 -56.5t-23.5 -56.5t-56.5 -23.5h-880v-560h640q33 0 56.5 -23.5t23.5 -56.5t-23.5 -56.5t-56.5 -23.5h-640v-560h880q33 0 56.5 -23.5t23.5 -56.5t-23.5 -56.5t-56.5 -23.5h-960q-33 0 -56.5 23.5 t-23.5 56.5zM321 1840q0 33 23.5 56.5t56.5 23.5h480q33 0 56.5 -23.5t23.5 -56.5t-23.5 -56.5t-56.5 -23.5h-480q-33 0 -56.5 23.5t-23.5 56.5z" />
<glyph unicode="&#x113;" d="M80 560q0 232 164 396t396 164t396 -164t164 -396q0 -33 -23.5 -56.5t-56.5 -23.5h-873q22 -115 110 -203q117 -117 283 -117q150 0 258 95q22 17 50 17q33 0 56.5 -23.5t23.5 -56.5t-23 -57q-155 -135 -365 -135q-232 0 -396 164t-164 396zM247 640h786 q-22 115 -110 203q-117 117 -283 117t-283 -117q-88 -88 -110 -203zM320 1360q0 33 23.5 56.5t56.5 23.5h480q33 0 56.5 -23.5t23.5 -56.5t-23.5 -56.5t-56.5 -23.5h-480q-33 0 -56.5 23.5t-23.5 56.5z" />
<glyph unicode="&#x114;" d="M80 80v1440q0 33 23.5 56.5t56.5 23.5h960q33 0 56.5 -23.5t23.5 -56.5t-23.5 -56.5t-56.5 -23.5h-880v-560h640q33 0 56.5 -23.5t23.5 -56.5t-23.5 -56.5t-56.5 -23.5h-640v-560h880q33 0 56.5 -23.5t23.5 -56.5t-23.5 -56.5t-56.5 -23.5h-960q-33 0 -56.5 23.5 t-23.5 56.5zM326 1960q0 33 23.5 56.5t56.5 23.5t56.5 -23.5t23.5 -56.5t47 -56.5t113 -23.5t113.5 23.5t47.5 56.5t23.5 56.5t56.5 23.5t56.5 -23.5t23.5 -56.5q-5 -105 -94 -169q-94 -71 -227 -71t-226.5 70.5t-93.5 169.5z" />
<glyph unicode="&#x115;" d="M80 560q0 232 164 396t396 164t396 -164t164 -396q0 -33 -23.5 -56.5t-56.5 -23.5h-873q22 -115 110 -203q117 -117 283 -117q150 0 258 95q22 17 50 17q33 0 56.5 -23.5t23.5 -56.5t-23 -57q-155 -135 -365 -135q-232 0 -396 164t-164 396zM247 640h786 q-22 115 -110 203q-117 117 -283 117t-283 -117q-88 -88 -110 -203zM326 1480q0 33 23.5 56.5t56.5 23.5t56.5 -23.5t23.5 -56.5t47 -56.5t113 -23.5t113.5 23.5t47.5 56.5t23.5 56.5t56.5 23.5t56.5 -23.5t23.5 -56.5q-5 -105 -94 -169q-94 -71 -227 -71t-226.5 70.5 t-93.5 169.5z" />
<glyph unicode="&#x116;" d="M80 80v1440q0 33 23.5 56.5t56.5 23.5h960q33 0 56.5 -23.5t23.5 -56.5t-23.5 -56.5t-56.5 -23.5h-880v-560h640q33 0 56.5 -23.5t23.5 -56.5t-23.5 -56.5t-56.5 -23.5h-640v-560h880q33 0 56.5 -23.5t23.5 -56.5t-23.5 -56.5t-56.5 -23.5h-960q-33 0 -56.5 23.5 t-23.5 56.5zM521 1841q0 50 35 85t85 35t85 -35t35 -85t-35 -85t-85 -35t-85 35t-35 85z" />
<glyph unicode="&#x117;" d="M80 560q0 232 164 396t396 164t396 -164t164 -396q0 -33 -23.5 -56.5t-56.5 -23.5h-873q22 -115 110 -203q117 -117 283 -117q150 0 258 95q22 17 50 17q33 0 56.5 -23.5t23.5 -56.5t-23 -57q-155 -135 -365 -135q-232 0 -396 164t-164 396zM247 640h786 q-22 115 -110 203q-117 117 -283 117t-283 -117q-88 -88 -110 -203zM520 1361q0 50 35 85t85 35t85 -35t35 -85t-35 -85t-85 -35t-85 35t-35 85z" />
<glyph unicode="&#x118;" d="M80 80v1440q0 33 23.5 56.5t56.5 23.5h960q33 0 56.5 -23.5t23.5 -56.5t-23.5 -56.5t-56.5 -23.5h-880v-560h640q33 0 56.5 -23.5t23.5 -56.5t-23.5 -56.5t-56.5 -23.5h-640v-560h880q33 0 56.5 -23.5t23.5 -56.5t-23.5 -56.5t-56.5 -23.5h-960q-33 0 -56.5 23.5 t-23.5 56.5zM721 -240q0 116 102 196q53 44 68 80q20 40 70 41q33 0 57 -23q22 -23 23 -54q0 -13 -2 -23q-15 -73 -123 -151q-35 -28 -35 -66q0 -33 23.5 -56.5t56.5 -23.5q24 0 43 13l69 51q21 16 48 16q33 0 56.5 -23.5t23.5 -56.5q0 -40 -28 -62l-80 -56 q-61 -42 -132 -42q-99 0 -169.5 70.5t-70.5 169.5z" />
<glyph unicode="&#x119;" d="M80 560q0 232 164 396t396 164t396 -164t164 -396q0 -33 -23.5 -56.5t-56.5 -23.5h-873q22 -115 110 -203q117 -117 283 -117q150 0 258 95q22 17 50 17q33 0 56.5 -23.5t23.5 -56.5t-23 -57q-155 -135 -365 -135q-232 0 -396 164t-164 396zM247 640h786 q-22 115 -110 203q-117 117 -283 117t-283 -117q-88 -88 -110 -203zM400 -240q0 116 102 196q53 44 68 80q20 40 70 41q33 0 57 -23q22 -23 23 -54q0 -13 -2 -23q-15 -73 -123 -151q-35 -28 -35 -66q0 -33 23.5 -56.5t56.5 -23.5q24 0 43 13l69 51q21 16 48 16 q33 0 56.5 -23.5t23.5 -56.5q0 -40 -28 -62l-80 -56q-61 -42 -132 -42q-99 0 -169.5 70.5t-70.5 169.5z" />
<glyph unicode="&#x11a;" d="M80 80v1440q0 33 23.5 56.5t56.5 23.5h960q33 0 56.5 -23.5t23.5 -56.5t-23.5 -56.5t-56.5 -23.5h-880v-560h640q33 0 56.5 -23.5t23.5 -56.5t-23.5 -56.5t-56.5 -23.5h-640v-560h880q33 0 56.5 -23.5t23.5 -56.5t-23.5 -56.5t-56.5 -23.5h-960q-33 0 -56.5 23.5 t-23.5 56.5zM321 1960q0 33 23.5 56.5t56.5 23.5q29 0 50 -17l190 -126l190 126q21 17 50 17q33 0 56.5 -23.5t23.5 -56.5q0 -40 -40 -70l-239 -159q-18 -11 -41 -11t-41 11l-239 159q-40 30 -40 70z" />
<glyph unicode="&#x11b;" d="M80 560q0 232 164 396t396 164t396 -164t164 -396q0 -33 -23.5 -56.5t-56.5 -23.5h-873q22 -115 110 -203q117 -117 283 -117q150 0 258 95q22 17 50 17q33 0 56.5 -23.5t23.5 -56.5t-23 -57q-155 -135 -365 -135q-232 0 -396 164t-164 396zM247 640h786 q-22 115 -110 203q-117 117 -283 117t-283 -117q-88 -88 -110 -203zM320 1480q0 33 23.5 56.5t56.5 23.5q29 0 50 -17l190 -126l190 126q21 17 50 17q33 0 56.5 -23.5t23.5 -56.5q0 -40 -40 -70l-239 -159q-18 -11 -41 -11t-41 11l-239 159q-40 30 -40 70z" />
<glyph unicode="&#x11c;" horiz-adv-x="1500" d="M80 800q0 331 234.5 565.5t565.5 234.5q286 0 509 -183q23 -24 23 -57t-23.5 -56.5t-56.5 -23.5t-57 24q-169 136 -395 136q-265 0 -452.5 -187.5t-187.5 -452.5t187.5 -452.5t452.5 -187.5q207 0 366 114v366h-316q-33 0 -56.5 23.5t-23.5 56.5t23.5 56.5t56.5 23.5h397 q32 0 56 -23q23 -24 23 -57v-486q0 -33 -23 -56q-223 -178 -503 -178q-331 0 -565.5 234.5t-234.5 565.5zM560 1800q0 40 40 70l239 159q18 11 41 11t41 -11l239 -159q40 -30 40 -70q0 -33 -23.5 -56.5t-56.5 -23.5q-29 0 -50 17l-190 126l-190 -126q-21 -17 -50 -17 q-33 0 -56.5 23.5t-23.5 56.5z" />
<glyph unicode="&#x11d;" d="M80 560q0 232 164 396t396 164t396 -164t164 -396v-560q0 -175 -126 -304q-176 -176 -425 -176t-424 176q-65 64 -106 139q-12 18 -12 42q0 33 23.5 56.5t56.5 23.5t57 -23q10 -11 17 -24q30 -54 77 -101q129 -129 311 -129t311 129q80 96 80 191v168l-4 -4 q-164 -164 -396 -164t-396 164t-164 396zM240 560q0 -166 117 -283t283 -117t283 117t117 283t-117 283t-283 117t-283 -117t-117 -283zM320 1320q0 40 40 70l239 159q18 11 41 11t41 -11l239 -159q40 -30 40 -70q0 -33 -23.5 -56.5t-56.5 -23.5q-29 0 -50 17l-190 126 l-190 -126q-21 -17 -50 -17q-33 0 -56.5 23.5t-23.5 56.5z" />
<glyph unicode="&#x11e;" horiz-adv-x="1500" d="M80 800q0 331 234.5 565.5t565.5 234.5q286 0 509 -183q23 -24 23 -57t-23.5 -56.5t-56.5 -23.5t-57 24q-169 136 -395 136q-265 0 -452.5 -187.5t-187.5 -452.5t187.5 -452.5t452.5 -187.5q207 0 366 114v366h-316q-33 0 -56.5 23.5t-23.5 56.5t23.5 56.5t56.5 23.5h397 q32 0 56 -23q23 -24 23 -57v-486q0 -33 -23 -56q-223 -178 -503 -178q-331 0 -565.5 234.5t-234.5 565.5zM565 1960q0 33 23.5 56.5t56.5 23.5t56.5 -23.5t23.5 -56.5t47 -56.5t113 -23.5t113.5 23.5t47.5 56.5t23.5 56.5t56.5 23.5t56.5 -23.5t23.5 -56.5q-5 -105 -94 -169 q-94 -71 -227 -71t-226.5 70.5t-93.5 169.5z" />
<glyph unicode="&#x11f;" d="M80 560q0 232 164 396t396 164t396 -164t164 -396v-560q0 -175 -126 -304q-176 -176 -425 -176t-424 176q-65 64 -106 139q-12 18 -12 42q0 33 23.5 56.5t56.5 23.5t57 -23q10 -11 17 -24q30 -54 77 -101q129 -129 311 -129t311 129q80 96 80 191v168l-4 -4 q-164 -164 -396 -164t-396 164t-164 396zM240 560q0 -166 117 -283t283 -117t283 117t117 283t-117 283t-283 117t-283 -117t-117 -283zM326 1480q0 33 23.5 56.5t56.5 23.5t56.5 -23.5t23.5 -56.5t47 -56.5t113 -23.5t113.5 23.5t47.5 56.5t23.5 56.5t56.5 23.5t56.5 -23.5 t23.5 -56.5q-5 -105 -94 -169q-94 -71 -227 -71t-226.5 70.5t-93.5 169.5z" />
<glyph unicode="&#x120;" horiz-adv-x="1500" d="M80 800q0 331 234.5 565.5t565.5 234.5q286 0 509 -183q23 -24 23 -57t-23.5 -56.5t-56.5 -23.5t-57 24q-169 136 -395 136q-265 0 -452.5 -187.5t-187.5 -452.5t187.5 -452.5t452.5 -187.5q207 0 366 114v366h-316q-33 0 -56.5 23.5t-23.5 56.5t23.5 56.5t56.5 23.5h397 q32 0 56 -23q23 -24 23 -57v-486q0 -33 -23 -56q-223 -178 -503 -178q-331 0 -565.5 234.5t-234.5 565.5zM760 1841q0 50 35 85t85 35t85 -35t35 -85t-35 -85t-85 -35t-85 35t-35 85z" />
<glyph unicode="&#x121;" d="M80 560q0 232 164 396t396 164t396 -164t164 -396v-560q0 -175 -126 -304q-176 -176 -425 -176t-424 176q-65 64 -106 139q-12 18 -12 42q0 33 23.5 56.5t56.5 23.5t57 -23q10 -11 17 -24q30 -54 77 -101q129 -129 311 -129t311 129q80 96 80 191v168l-4 -4 q-164 -164 -396 -164t-396 164t-164 396zM240 560q0 -166 117 -283t283 -117t283 117t117 283t-117 283t-283 117t-283 -117t-117 -283zM520 1361q0 50 35 85t85 35t85 -35t35 -85t-35 -85t-85 -35t-85 35t-35 85z" />
<glyph unicode="&#x122;" horiz-adv-x="1500" d="M80 800q0 331 234.5 565.5t565.5 234.5q286 0 509 -183q23 -24 23 -57t-23.5 -56.5t-56.5 -23.5t-57 24q-169 136 -395 136q-265 0 -452.5 -187.5t-187.5 -452.5t187.5 -452.5t452.5 -187.5q207 0 366 114v366h-316q-33 0 -56.5 23.5t-23.5 56.5t23.5 56.5t56.5 23.5h397 q32 0 56 -23q23 -24 23 -57v-486q0 -33 -23 -56q-223 -178 -503 -178q-331 0 -565.5 234.5t-234.5 565.5zM640 -329q0 33 23.5 56.5t56.5 23.5q24 0 43 -12l78 -48q19 -10 39 -10q33 0 56.5 13.5t23.5 36.5t-23.5 36.5t-56.5 13.5t-56.5 23.5t-23.5 56.5q0 20 19 39 q29 25 96 25q74 -4 136 -49q69 -56 69 -145t-70.5 -149.5t-169.5 -60.5q-59 0 -114 29l-91 54q-35 29 -35 67z" />
<glyph unicode="&#x123;" d="M80 560q0 232 164 396t396 164t396 -164t164 -396v-560q0 -175 -126 -304q-176 -176 -425 -176t-424 176q-65 64 -106 139q-12 18 -12 42q0 33 23.5 56.5t56.5 23.5t57 -23q10 -11 17 -24q30 -54 77 -101q129 -129 311 -129t311 129q80 96 80 191v168l-4 -4 q-164 -164 -396 -164t-396 164t-164 396zM240 560q0 -166 117 -283t283 -117t283 117t117 283t-117 283t-283 117t-283 -117t-117 -283zM520 1485q0 175 152 358q17 17 42 17q24 0 41.5 -17.5t17.5 -41.5q0 -14 -5 -26q-98 -237 -3 -435q8 -18 8 -40q0 -41 -29.5 -70.5 t-70.5 -29.5q-62 0 -90 58q-63 112 -63 227z" />
<glyph unicode="&#x124;" d="M80 80v1440q0 33 23.5 56.5t56.5 23.5t56.5 -23.5t23.5 -56.5v-640h800v640q0 33 23.5 56.5t56.5 23.5t56.5 -23.5t23.5 -56.5v-1440q0 -33 -23.5 -56.5t-56.5 -23.5t-56.5 23.5t-23.5 56.5v640h-800v-640q0 -33 -23.5 -56.5t-56.5 -23.5t-56.5 23.5t-23.5 56.5z M320 1800q0 40 40 70l239 159q18 11 41 11t41 -11l239 -159q40 -30 40 -70q0 -33 -23.5 -56.5t-56.5 -23.5q-29 0 -50 17l-190 126l-190 -126q-21 -17 -50 -17q-33 0 -56.5 23.5t-23.5 56.5z" />
<glyph unicode="&#x125;" horiz-adv-x="1200" d="M80 80v1440q0 33 23.5 56.5t56.5 23.5t56.5 -23.5t23.5 -56.5v-545q150 145 360 145q215 0 367.5 -152.5t152.5 -367.5v-520q0 -33 -23.5 -56.5t-56.5 -23.5t-56.5 23.5t-23.5 56.5v520q0 149 -105.5 254.5t-254.5 105.5t-254.5 -105.5t-105.5 -254.5v-520 q0 -33 -23.5 -56.5t-56.5 -23.5t-56.5 23.5t-23.5 56.5zM280 1800q0 40 40 70l239 159q18 11 41 11t41 -11l239 -159q40 -30 40 -70q0 -33 -23.5 -56.5t-56.5 -23.5q-29 0 -50 17l-190 126l-190 -126q-21 -17 -50 -17q-33 0 -56.5 23.5t-23.5 56.5z" />
<glyph unicode="&#x126;" horiz-adv-x="1600" d="M80 1240q0 33 23.5 56.5t56.5 23.5h80v200q0 33 23.5 56.5t56.5 23.5t56.5 -23.5t23.5 -56.5v-200h800v200q0 33 23.5 56.5t56.5 23.5t56.5 -23.5t23.5 -56.5v-200h80q33 0 56.5 -23.5t23.5 -56.5t-23.5 -56.5t-56.5 -23.5h-80v-1080q0 -33 -23.5 -56.5t-56.5 -23.5 t-56.5 23.5t-23.5 56.5v640h-800v-640q0 -33 -23.5 -56.5t-56.5 -23.5t-56.5 23.5t-23.5 56.5v1080h-80q-33 0 -56.5 23.5t-23.5 56.5zM400 880h800v280h-800v-280z" />
<glyph unicode="&#x127;" horiz-adv-x="1320" d="M40 1360q0 33 23.5 56.5t56.5 23.5h80v80q0 33 23.5 56.5t56.5 23.5t56.5 -23.5t23.5 -56.5v-80h320q33 0 56.5 -23.5t23.5 -56.5t-23.5 -56.5t-56.5 -23.5h-320v-305q150 145 360 145q215 0 367.5 -152.5t152.5 -367.5v-520q0 -33 -23.5 -56.5t-56.5 -23.5t-56.5 23.5 t-23.5 56.5v520q0 149 -105.5 254.5t-254.5 105.5t-254.5 -105.5t-105.5 -254.5v-520q0 -33 -23.5 -56.5t-56.5 -23.5t-56.5 23.5t-23.5 56.5v1200h-80q-33 0 -56.5 23.5t-23.5 56.5z" />
<glyph unicode="&#x128;" horiz-adv-x="640" d="M-84 1871q0 33 23.5 56.5t56.5 23.5q32 0 56 -22q47 -48 113 -48q56 0 100 35q89 80 212 80q133 0 227 -94q22 -24 22 -56q0 -33 -23.5 -56.5t-56.5 -23.5q-32 0 -56 22q-47 48 -113 48q-57 0 -100 -35q-90 -80 -212 -80q-133 0 -227 94q-22 24 -22 56zM240 80v1440 q0 33 23.5 56.5t56.5 23.5t56.5 -23.5t23.5 -56.5v-1440q0 -33 -23.5 -56.5t-56.5 -23.5t-56.5 23.5t-23.5 56.5z" />
<glyph unicode="&#x129;" horiz-adv-x="720" d="M-44 1391q0 33 23.5 56.5t56.5 23.5q32 0 56 -22q47 -48 113 -48q56 0 100 35q89 80 212 80q133 0 227 -94q22 -24 22 -56q0 -33 -23.5 -56.5t-56.5 -23.5q-32 0 -56 22q-47 48 -113 48q-57 0 -100 -35q-90 -80 -212 -80q-133 0 -227 94q-22 24 -22 56zM280 80v960 q0 33 23.5 56.5t56.5 23.5t56.5 -23.5t23.5 -56.5v-960q0 -33 -23.5 -56.5t-56.5 -23.5t-56.5 23.5t-23.5 56.5z" />
<glyph unicode="&#x12a;" horiz-adv-x="480" d="M-79 1840q0 33 23.5 56.5t56.5 23.5h480q33 0 56.5 -23.5t23.5 -56.5t-23.5 -56.5t-56.5 -23.5h-480q-33 0 -56.5 23.5t-23.5 56.5zM160 80v1440q0 33 23.5 56.5t56.5 23.5t56.5 -23.5t23.5 -56.5v-1440q0 -33 -23.5 -56.5t-56.5 -23.5t-56.5 23.5t-23.5 56.5z" />
<glyph unicode="&#x12b;" horiz-adv-x="560" d="M-39 1360q0 33 23.5 56.5t56.5 23.5h480q33 0 56.5 -23.5t23.5 -56.5t-23.5 -56.5t-56.5 -23.5h-480q-33 0 -56.5 23.5t-23.5 56.5zM200 80v960q0 33 23.5 56.5t56.5 23.5t56.5 -23.5t23.5 -56.5v-960q0 -33 -23.5 -56.5t-56.5 -23.5t-56.5 23.5t-23.5 56.5z" />
<glyph unicode="&#x12c;" horiz-adv-x="480" d="M-79 1960q0 33 23.5 56.5t56.5 23.5t56.5 -23.5t23.5 -56.5t47 -56.5t113 -23.5t113.5 23.5t47.5 56.5t23.5 56.5t56.5 23.5t56.5 -23.5t23.5 -56.5q-5 -105 -94 -169q-94 -71 -227 -71t-226.5 70.5t-93.5 169.5zM156 80v1440q0 33 23.5 56.5t56.5 23.5t56.5 -23.5 t23.5 -56.5v-1440q0 -33 -23.5 -56.5t-56.5 -23.5t-56.5 23.5t-23.5 56.5z" />
<glyph unicode="&#x12d;" horiz-adv-x="560" d="M-39 1480q0 33 23.5 56.5t56.5 23.5t56.5 -23.5t23.5 -56.5t47 -56.5t113 -23.5t113.5 23.5t47.5 56.5t23.5 56.5t56.5 23.5t56.5 -23.5t23.5 -56.5q-5 -105 -94 -169q-94 -71 -227 -71t-226.5 70.5t-93.5 169.5zM195 80v960q0 33 23.5 56.5t56.5 23.5t56.5 -23.5 t23.5 -56.5v-960q0 -33 -23.5 -56.5t-56.5 -23.5t-56.5 23.5t-23.5 56.5z" />
<glyph unicode="&#x12e;" horiz-adv-x="480" d="M1 -160q0 116 102 196q53 44 68 80q20 40 70 41q33 0 57 -23q22 -23 23 -54q0 -13 -2 -23q-15 -73 -123 -151q-35 -28 -35 -66q0 -33 23.5 -56.5t56.5 -23.5q24 0 43 13l69 51q21 16 48 16q33 0 56.5 -23.5t23.5 -56.5q0 -40 -28 -62l-80 -56q-61 -42 -132 -42 q-99 0 -169.5 70.5t-70.5 169.5zM160 80v1440q0 33 23.5 56.5t56.5 23.5t56.5 -23.5t23.5 -56.5v-1440q0 -33 -23.5 -56.5t-56.5 -23.5t-56.5 23.5t-23.5 56.5z" />
<glyph unicode="&#x12f;" horiz-adv-x="480" d="M1 -160q0 116 102 196q53 44 68 80q20 40 70 41q33 0 57 -23q22 -23 23 -54q0 -13 -2 -23q-15 -73 -123 -151q-35 -28 -35 -66q0 -33 23.5 -56.5t56.5 -23.5q24 0 43 13l69 51q21 16 48 16q33 0 56.5 -23.5t23.5 -56.5q0 -40 -28 -62l-80 -56q-61 -42 -132 -42 q-99 0 -169.5 70.5t-70.5 169.5zM140 1360q0 41 29.5 70.5t70.5 29.5t70.5 -29.5t29.5 -70.5t-29.5 -70.5t-70.5 -29.5t-70.5 29.5t-29.5 70.5zM160 80v960q0 33 23.5 56.5t56.5 23.5t56.5 -23.5t23.5 -56.5v-960q0 -33 -23.5 -56.5t-56.5 -23.5t-56.5 23.5t-23.5 56.5z" />
<glyph unicode="&#x130;" horiz-adv-x="480" d="M120 1841q0 50 35 85t85 35t85 -35t35 -85t-35 -85t-85 -35t-85 35t-35 85zM160 80v1440q0 33 23.5 56.5t56.5 23.5t56.5 -23.5t23.5 -56.5v-1440q0 -33 -23.5 -56.5t-56.5 -23.5t-56.5 23.5t-23.5 56.5z" />
<glyph unicode="&#x131;" horiz-adv-x="480" d="M160 80v960q0 33 23.5 56.5t56.5 23.5t56.5 -23.5t23.5 -56.5v-960q0 -33 -23.5 -56.5t-56.5 -23.5t-56.5 23.5t-23.5 56.5z" />
<glyph unicode="&#x132;" horiz-adv-x="1520" d="M160 80v1440q0 33 23.5 56.5t56.5 23.5t56.5 -23.5t23.5 -56.5v-1440q0 -33 -23.5 -56.5t-56.5 -23.5t-56.5 23.5t-23.5 56.5zM480 480q0 33 23.5 56.5t56.5 23.5t56.5 -23.5t23.5 -56.5q0 -133 93.5 -226.5t226.5 -93.5t226.5 93.5t93.5 226.5v1040q0 33 23.5 56.5 t56.5 23.5t56.5 -23.5t23.5 -56.5v-1040q0 -199 -140.5 -339.5t-339.5 -140.5t-339.5 140.5t-140.5 339.5z" />
<glyph unicode="&#x133;" horiz-adv-x="880" d="M140 1360q0 41 29.5 70.5t70.5 29.5t70.5 -29.5t29.5 -70.5t-29.5 -70.5t-70.5 -29.5t-70.5 29.5t-29.5 70.5zM160 80v960q0 33 23.5 56.5t56.5 23.5t56.5 -23.5t23.5 -56.5v-960q0 -33 -23.5 -56.5t-56.5 -23.5t-56.5 23.5t-23.5 56.5zM160 -400q0 33 23.5 56.5 t56.5 23.5q133 0 226.5 93.5t93.5 226.5v1040q0 33 23.5 56.5t56.5 23.5t56.5 -23.5t23.5 -56.5v-1040q0 -199 -140.5 -339.5t-339.5 -140.5q-33 0 -56.5 23.5t-23.5 56.5zM540 1360q0 41 29.5 70.5t70.5 29.5t70.5 -29.5t29.5 -70.5t-29.5 -70.5t-70.5 -29.5t-70.5 29.5 t-29.5 70.5z" />
<glyph unicode="&#x134;" horiz-adv-x="1200" d="M80 480q0 33 23.5 56.5t56.5 23.5t56.5 -23.5t23.5 -56.5q0 -133 93.5 -226.5t226.5 -93.5t226.5 93.5t93.5 226.5v1040q0 33 23.5 56.5t56.5 23.5t56.5 -23.5t23.5 -56.5v-1040q0 -199 -140.5 -339.5t-339.5 -140.5t-339.5 140.5t-140.5 339.5zM640 1800q0 40 40 70 l239 159q18 11 41 11t41 -11l239 -159q40 -30 40 -70q0 -33 -23.5 -56.5t-56.5 -23.5q-29 0 -50 17l-190 126l-190 -126q-21 -17 -50 -17q-33 0 -56.5 23.5t-23.5 56.5z" />
<glyph unicode="&#x135;" horiz-adv-x="760" d="M0 -400q0 33 23.5 56.5t56.5 23.5q133 0 226.5 93.5t93.5 226.5v1040q0 33 23.5 56.5t56.5 23.5t56.5 -23.5t23.5 -56.5v-1040q0 -199 -140.5 -339.5t-339.5 -140.5q-33 0 -56.5 23.5t-23.5 56.5zM161 1310q0 33 24 57q8 8 16 13l239 159q18 11 41 11t41 -11l239 -159 q8 -5 17 -13q23 -24 23 -57t-23.5 -56.5t-56.5 -23.5q-29 0 -50 17l-190 126l-190 -126q-21 -17 -50 -17q-33 0 -56.5 23.5t-23.5 56.5z" />
<glyph unicode="&#x136;" horiz-adv-x="1200" d="M80 80v1440q0 33 23.5 56.5t56.5 23.5t56.5 -23.5t23.5 -56.5v-686l741 741q26 25 59 25t56.5 -23.5t23.5 -56.5t-23 -57l-562 -562l570 -773q15 -21 15 -45q0 -42 -32 -67q-22 -16 -46 -16q-44 0 -68 34l-554 752l-180 -180v-526q0 -33 -23.5 -56.5t-56.5 -23.5 t-56.5 23.5t-23.5 56.5zM322 -290q0 33 23.5 56.5t56.5 23.5q24 0 43 -12l78 -48q19 -10 39 -10q33 0 56.5 13.5t23.5 36.5t-23.5 36.5t-56.5 13.5t-56.5 23.5t-23.5 56.5q0 20 19 39q29 25 96 25q74 -4 136 -49q69 -56 69 -145t-70.5 -149.5t-169.5 -60.5q-59 0 -114 29 l-91 54q-35 29 -35 67z" />
<glyph unicode="&#x137;" horiz-adv-x="1120" d="M80 80v1440q0 33 23.5 56.5t56.5 23.5t56.5 -23.5t23.5 -56.5v-852l677 440q19 12 43 12q33 0 56.5 -23.5t23.5 -56.5t-23 -56q-6 -6 -11 -10l-464 -302l476 -536q22 -24 22 -56q0 -33 -23.5 -56.5t-56.5 -23.5t-58 24l-497 560l-165 -107v-397q0 -33 -23.5 -56.5 t-56.5 -23.5t-56.5 23.5t-23.5 56.5zM321 -290q0 33 23.5 56.5t56.5 23.5q24 0 43 -12l78 -48q19 -10 39 -10q33 0 56.5 13.5t23.5 36.5t-23.5 36.5t-56.5 13.5t-56.5 23.5t-23.5 56.5q0 20 19 39q29 25 96 25q74 -4 136 -49q69 -56 69 -145t-70.5 -149.5t-169.5 -60.5 q-59 0 -114 29l-91 54q-35 29 -35 67z" />
<glyph unicode="&#x138;" horiz-adv-x="1120" d="M80 80v959q0 33 23.5 56.5t56.5 23.5t56.5 -23.5t23.5 -56.5v-371l677 440q19 12 43 12q33 0 56.5 -23.5t23.5 -56.5t-23 -56q-6 -6 -11 -10l-464 -302l476 -536q22 -24 22 -56q0 -33 -23.5 -56.5t-56.5 -23.5t-58 24l-497 560l-165 -107v-397q0 -33 -23.5 -56.5 t-56.5 -23.5t-56.5 23.5t-23.5 56.5z" />
<glyph unicode="&#x139;" horiz-adv-x="1200" d="M80 80v1440q0 33 23.5 56.5t56.5 23.5t56.5 -23.5t23.5 -56.5v-1360h800q33 0 56.5 -23.5t23.5 -56.5t-23.5 -56.5t-56.5 -23.5h-880q-33 0 -56.5 23.5t-23.5 56.5zM241 1760q0 31 20 54l243 243q24 23 57 23t56.5 -23.5t23.5 -56.5q0 -32 -22 -56l-243 -243 q-23 -21 -55 -21q-33 0 -56.5 23.5t-23.5 56.5z" />
<glyph unicode="&#x13a;" horiz-adv-x="480" d="M41 1760q0 31 20 54l243 243q24 23 57 23t56.5 -23.5t23.5 -56.5q0 -32 -22 -56l-243 -243q-23 -21 -55 -21q-33 0 -56.5 23.5t-23.5 56.5zM80 80v1440q0 33 23.5 56.5t56.5 23.5t56.5 -23.5t23.5 -56.5v-1360h80q33 0 56.5 -23.5t23.5 -56.5t-23.5 -56.5t-56.5 -23.5 h-160q-33 0 -56.5 23.5t-23.5 56.5z" />
<glyph unicode="&#x13b;" horiz-adv-x="1200" d="M80 80v1440q0 33 23.5 56.5t56.5 23.5t56.5 -23.5t23.5 -56.5v-1360h800q33 0 56.5 -23.5t23.5 -56.5t-23.5 -56.5t-56.5 -23.5h-880q-33 0 -56.5 23.5t-23.5 56.5zM361 -290q0 33 23.5 56.5t56.5 23.5q24 0 43 -12l78 -48q19 -10 39 -10q33 0 56.5 13.5t23.5 36.5 t-23.5 36.5t-56.5 13.5t-56.5 23.5t-23.5 56.5q0 20 19 39q29 25 96 25q74 -4 136 -49q69 -56 69 -145t-70.5 -149.5t-169.5 -60.5q-59 0 -114 29l-91 54q-35 29 -35 67z" />
<glyph unicode="&#x13c;" horiz-adv-x="480" d="M1 -290q0 33 23.5 56.5t56.5 23.5q24 0 43 -12l78 -48q19 -10 39 -10q33 0 56.5 13.5t23.5 36.5t-23.5 36.5t-56.5 13.5t-56.5 23.5t-23.5 56.5q0 20 19 39q29 25 96 25q74 -4 136 -49q69 -56 69 -145t-70.5 -149.5t-169.5 -60.5q-59 0 -114 29l-91 54q-35 29 -35 67z M80 80v1440q0 33 23.5 56.5t56.5 23.5t56.5 -23.5t23.5 -56.5v-1360h80q33 0 56.5 -23.5t23.5 -56.5t-23.5 -56.5t-56.5 -23.5h-160q-33 0 -56.5 23.5t-23.5 56.5z" />
<glyph unicode="&#x13d;" horiz-adv-x="1200" d="M80 80v1440q0 33 23.5 56.5t56.5 23.5t56.5 -23.5t23.5 -56.5v-1360h800q33 0 56.5 -23.5t23.5 -56.5t-23.5 -56.5t-56.5 -23.5h-880q-33 0 -56.5 23.5t-23.5 56.5zM479 999q0 14 5 26q98 237 3 435q-8 18 -8 40q0 41 29.5 70.5t70.5 29.5q62 0 90 -58q63 -112 63 -227 q0 -175 -152 -358q-17 -17 -42 -17q-24 0 -41.5 17.5t-17.5 41.5z" />
<glyph unicode="&#x13e;" horiz-adv-x="680" d="M80 80v1440q0 33 23.5 56.5t56.5 23.5t56.5 -23.5t23.5 -56.5v-1360h80q33 0 56.5 -23.5t23.5 -56.5t-23.5 -56.5t-56.5 -23.5h-160q-33 0 -56.5 23.5t-23.5 56.5zM347 999q0 14 5 26q98 237 3 435q-8 18 -8 40q0 41 29.5 70.5t70.5 29.5q62 0 90 -58q63 -112 63 -227 q0 -175 -152 -358q-17 -17 -42 -17q-24 0 -41.5 17.5t-17.5 41.5z" />
<glyph unicode="&#x13f;" horiz-adv-x="1200" d="M80 80v1440q0 33 23.5 56.5t56.5 23.5t56.5 -23.5t23.5 -56.5v-1360h800q33 0 56.5 -23.5t23.5 -56.5t-23.5 -56.5t-56.5 -23.5h-880q-33 0 -56.5 23.5t-23.5 56.5zM561 800q0 50 35 85t85 35t85 -35t35 -85t-35 -85t-85 -35t-85 35t-35 85z" />
<glyph unicode="&#x140;" horiz-adv-x="640" d="M80 80v1440q0 33 23.5 56.5t56.5 23.5t56.5 -23.5t23.5 -56.5v-1360h80q33 0 56.5 -23.5t23.5 -56.5t-23.5 -56.5t-56.5 -23.5h-160q-33 0 -56.5 23.5t-23.5 56.5zM319 800q0 50 35 85t85 35t85 -35t35 -85t-35 -85t-85 -35t-85 35t-35 85z" />
<glyph unicode="&#x141;" horiz-adv-x="1360" d="M25 590q0 33 23 56l192 190v684q0 33 23.5 56.5t56.5 23.5t56.5 -23.5t23.5 -56.5v-526l104 103q23 24 56.5 23.5t56.5 -23.5q23 -24 23 -57t-23 -56l-217 -215v-609h800q33 0 56.5 -23.5t23.5 -56.5t-23.5 -56.5t-56.5 -23.5h-880q-33 0 -56.5 23.5t-23.5 56.5v531 l-79 -78q-23 -24 -56.5 -23.5t-56.5 23.5q-23 24 -23 57z" />
<glyph unicode="&#x142;" horiz-adv-x="720" d="M25 590q0 33 23 56l192 190v684q0 33 23.5 56.5t56.5 23.5t56.5 -23.5t23.5 -56.5v-526l104 103q23 24 56.5 23.5t56.5 -23.5q23 -24 23 -57t-23 -56l-217 -215v-609h80q33 0 56.5 -23.5t23.5 -56.5t-23.5 -56.5t-56.5 -23.5h-160q-33 0 -56.5 23.5t-23.5 56.5v531 l-79 -78q-23 -24 -56.5 -23.5t-56.5 23.5q-23 24 -23 57z" />
<glyph unicode="&#x143;" horiz-adv-x="1440" d="M80 80v1440q0 33 23.5 56.5t56.5 23.5q36 0 62 -29l978 -1258v1207q0 33 23.5 56.5t56.5 23.5t56.5 -23.5t23.5 -56.5v-1440q0 -33 -23.5 -56.5t-56.5 -23.5q-35 0 -60 26l-980 1260v-1206q0 -33 -23.5 -56.5t-56.5 -23.5t-56.5 23.5t-23.5 56.5zM587 1760q0 31 20 54 l243 243q24 23 57 23t56.5 -23.5t23.5 -56.5q0 -32 -22 -56l-243 -243q-23 -21 -55 -21q-33 0 -56.5 23.5t-23.5 56.5z" />
<glyph unicode="&#x144;" horiz-adv-x="1200" d="M80 80v960q0 33 23.5 56.5t56.5 23.5t56.5 -23.5t23.5 -56.5v-65q150 145 360 145q215 0 367.5 -152.5t152.5 -367.5v-520q0 -33 -23.5 -56.5t-56.5 -23.5t-56.5 23.5t-23.5 56.5v520q0 149 -105.5 254.5t-254.5 105.5t-254.5 -105.5t-105.5 -254.5v-520 q0 -33 -23.5 -56.5t-56.5 -23.5t-56.5 23.5t-23.5 56.5zM467 1280q0 31 20 54l243 243q24 23 57 23t56.5 -23.5t23.5 -56.5q0 -32 -22 -56l-243 -243q-23 -21 -55 -21q-33 0 -56.5 23.5t-23.5 56.5z" />
<glyph unicode="&#x145;" horiz-adv-x="1440" d="M80 80v1440q0 33 23.5 56.5t56.5 23.5q36 0 62 -29l978 -1258v1207q0 33 23.5 56.5t56.5 23.5t56.5 -23.5t23.5 -56.5v-1440q0 -33 -23.5 -56.5t-56.5 -23.5q-35 0 -60 26l-980 1260v-1206q0 -33 -23.5 -56.5t-56.5 -23.5t-56.5 23.5t-23.5 56.5zM481 -290 q0 33 23.5 56.5t56.5 23.5q24 0 43 -12l78 -48q19 -10 39 -10q33 0 56.5 13.5t23.5 36.5t-23.5 36.5t-56.5 13.5t-56.5 23.5t-23.5 56.5q0 20 19 39q29 25 96 25q74 -4 136 -49q69 -56 69 -145t-70.5 -149.5t-169.5 -60.5q-59 0 -114 29l-91 54q-35 29 -35 67z" />
<glyph unicode="&#x146;" horiz-adv-x="1200" d="M80 80v960q0 33 23.5 56.5t56.5 23.5t56.5 -23.5t23.5 -56.5v-65q150 145 360 145q215 0 367.5 -152.5t152.5 -367.5v-520q0 -33 -23.5 -56.5t-56.5 -23.5t-56.5 23.5t-23.5 56.5v520q0 149 -105.5 254.5t-254.5 105.5t-254.5 -105.5t-105.5 -254.5v-520 q0 -33 -23.5 -56.5t-56.5 -23.5t-56.5 23.5t-23.5 56.5zM362 -290q0 33 23.5 56.5t56.5 23.5q24 0 43 -12l78 -48q19 -10 39 -10q33 0 56.5 13.5t23.5 36.5t-23.5 36.5t-56.5 13.5t-56.5 23.5t-23.5 56.5q0 20 19 39q29 25 96 25q74 -4 136 -49q69 -56 69 -145t-70.5 -149.5 t-169.5 -60.5q-59 0 -114 29l-91 54q-35 29 -35 67z" />
<glyph unicode="&#x147;" horiz-adv-x="1440" d="M80 80v1440q0 33 23.5 56.5t56.5 23.5q36 0 62 -29l978 -1258v1207q0 33 23.5 56.5t56.5 23.5t56.5 -23.5t23.5 -56.5v-1440q0 -33 -23.5 -56.5t-56.5 -23.5q-35 0 -60 26l-980 1260v-1206q0 -33 -23.5 -56.5t-56.5 -23.5t-56.5 23.5t-23.5 56.5zM400 1960 q0 33 23.5 56.5t56.5 23.5q29 0 50 -17l190 -126l190 126q21 17 50 17q33 0 56.5 -23.5t23.5 -56.5q0 -40 -40 -70l-239 -159q-18 -11 -41 -11t-41 11l-239 159q-40 30 -40 70z" />
<glyph unicode="&#x148;" horiz-adv-x="1200" d="M80 80v960q0 33 23.5 56.5t56.5 23.5t56.5 -23.5t23.5 -56.5v-65q150 145 360 145q215 0 367.5 -152.5t152.5 -367.5v-520q0 -33 -23.5 -56.5t-56.5 -23.5t-56.5 23.5t-23.5 56.5v520q0 149 -105.5 254.5t-254.5 105.5t-254.5 -105.5t-105.5 -254.5v-520 q0 -33 -23.5 -56.5t-56.5 -23.5t-56.5 23.5t-23.5 56.5zM280 1480q0 33 23.5 56.5t56.5 23.5q29 0 50 -17l190 -126l190 126q21 17 50 17q33 0 56.5 -23.5t23.5 -56.5q0 -40 -40 -70l-239 -159q-18 -11 -41 -11t-41 11l-239 159q-40 30 -40 70z" />
<glyph unicode="&#x149;" horiz-adv-x="1440" d="M83 999q0 14 5 26q98 237 3 435q-8 18 -8 40q0 41 29.5 70.5t70.5 29.5q62 0 90 -58q63 -112 63 -227q0 -175 -152 -358q-17 -17 -42 -17q-24 0 -41.5 17.5t-17.5 41.5zM321 80v960q0 33 23.5 56.5t56.5 23.5t56.5 -23.5t23.5 -56.5v-65q150 145 360 145 q215 0 367.5 -152.5t152.5 -367.5v-520q0 -33 -23.5 -56.5t-56.5 -23.5t-56.5 23.5t-23.5 56.5v520q0 149 -105.5 254.5t-254.5 105.5t-254.5 -105.5t-105.5 -254.5v-520q0 -33 -23.5 -56.5t-56.5 -23.5t-56.5 23.5t-23.5 56.5z" />
<glyph unicode="&#x14a;" horiz-adv-x="1440" d="M80 80v1440q0 33 23.5 56.5t56.5 23.5t56.5 -23.5t23.5 -56.5v-137q13 15 28 30q187 187 452 187t452.5 -187.5t187.5 -452.5v-480q0 -199 -140.5 -339.5t-339.5 -140.5t-339 142q-24 23 -24 56t23.5 56.5t56.5 23.5t57 -23q93 -95 226 -95t226.5 93.5t93.5 226.5v480 q0 199 -140.5 339.5t-339.5 140.5t-339.5 -140.5t-140.5 -339.5v-880q0 -33 -23.5 -56.5t-56.5 -23.5t-56.5 23.5t-23.5 56.5z" />
<glyph unicode="&#x14b;" horiz-adv-x="1200" d="M80 80v960q0 33 23.5 56.5t56.5 23.5t56.5 -23.5t23.5 -56.5v-65q150 145 360 145q215 0 367.5 -152.5t152.5 -367.5v-760q0 -133 -93.5 -226.5t-226.5 -93.5q-79 0 -144 34q-37 23 -38 68q0 33 23.5 56.5t56.5 23.5q16 0 30 -6q33 -16 72 -16q66 0 113 47t47 113v760 q0 149 -105.5 254.5t-254.5 105.5t-254.5 -105.5t-105.5 -254.5v-520q0 -33 -23.5 -56.5t-56.5 -23.5t-56.5 23.5t-23.5 56.5z" />
<glyph unicode="&#x14c;" horiz-adv-x="1760" d="M80 800q0 331 234.5 565.5t565.5 234.5t565.5 -234.5t234.5 -565.5t-234.5 -565.5t-565.5 -234.5t-565.5 234.5t-234.5 565.5zM240 800q0 -265 187.5 -452.5t452.5 -187.5t452.5 187.5t187.5 452.5t-187.5 452.5t-452.5 187.5t-452.5 -187.5t-187.5 -452.5zM560 1840 q0 33 23.5 56.5t56.5 23.5h480q33 0 56.5 -23.5t23.5 -56.5t-23.5 -56.5t-56.5 -23.5h-480q-33 0 -56.5 23.5t-23.5 56.5z" />
<glyph unicode="&#x14d;" d="M80 560q0 232 164 396t396 164t396 -164t164 -396t-164 -396t-396 -164t-396 164t-164 396zM240 560q0 -166 117 -283t283 -117t283 117t117 283t-117 283t-283 117t-283 -117t-117 -283zM320 1360q0 33 23.5 56.5t56.5 23.5h480q33 0 56.5 -23.5t23.5 -56.5t-23.5 -56.5 t-56.5 -23.5h-480q-33 0 -56.5 23.5t-23.5 56.5z" />
<glyph unicode="&#x14e;" horiz-adv-x="1760" d="M80 800q0 331 234.5 565.5t565.5 234.5t565.5 -234.5t234.5 -565.5t-234.5 -565.5t-565.5 -234.5t-565.5 234.5t-234.5 565.5zM240 800q0 -265 187.5 -452.5t452.5 -187.5t452.5 187.5t187.5 452.5t-187.5 452.5t-452.5 187.5t-452.5 -187.5t-187.5 -452.5zM566 1960 q0 33 23.5 56.5t56.5 23.5t56.5 -23.5t23.5 -56.5t47 -56.5t113 -23.5t113.5 23.5t47.5 56.5t23.5 56.5t56.5 23.5t56.5 -23.5t23.5 -56.5q-5 -105 -94 -169q-94 -71 -227 -71t-226.5 70.5t-93.5 169.5z" />
<glyph unicode="&#x14f;" d="M80 560q0 232 164 396t396 164t396 -164t164 -396t-164 -396t-396 -164t-396 164t-164 396zM240 560q0 -166 117 -283t283 -117t283 117t117 283t-117 283t-283 117t-283 -117t-117 -283zM326 1480q0 33 23.5 56.5t56.5 23.5t56.5 -23.5t23.5 -56.5t47 -56.5t113 -23.5 t113.5 23.5t47.5 56.5t23.5 56.5t56.5 23.5t56.5 -23.5t23.5 -56.5q-5 -105 -94 -169q-94 -71 -227 -71t-226.5 70.5t-93.5 169.5z" />
<glyph unicode="&#x150;" horiz-adv-x="1760" d="M80 800q0 331 234.5 565.5t565.5 234.5t565.5 -234.5t234.5 -565.5t-234.5 -565.5t-565.5 -234.5t-565.5 234.5t-234.5 565.5zM240 800q0 -265 187.5 -452.5t452.5 -187.5t452.5 187.5t187.5 452.5t-187.5 452.5t-452.5 187.5t-452.5 -187.5t-187.5 -452.5zM600 1720 q0 11 4 22l91 287q12 30 43 44q16 6 31 6t30 -5q31 -12 44 -42.5t1 -61.5l-128 -272q-17 -36 -56 -38q-37 0 -55 36q-5 12 -5 24zM910 1720q0 11 4 22l91 287q12 30 43 44q16 6 31 6t30 -5q31 -12 44 -42.5t1 -61.5l-128 -272q-17 -36 -56 -38q-37 0 -55 36q-5 12 -5 24z " />
<glyph unicode="&#x151;" d="M80 560q0 232 164 396t396 164t396 -164t164 -396t-164 -396t-396 -164t-396 164t-164 396zM240 560q0 -166 117 -283t283 -117t283 117t117 283t-117 283t-283 117t-283 -117t-117 -283zM360 1281q0 11 4 22l91 287q12 30 43 44q16 6 31 6t30 -5q31 -12 44 -42.5 t1 -61.5l-128 -272q-17 -36 -56 -38q-37 0 -55 36q-5 12 -5 24zM670 1281q0 11 4 22l91 287q12 30 43 44q16 6 31 6t30 -5q31 -12 44 -42.5t1 -61.5l-128 -272q-17 -36 -56 -38q-37 0 -55 36q-5 12 -5 24z" />
<glyph unicode="&#x152;" horiz-adv-x="2160" d="M80 800q0 331 234.5 565.5t565.5 234.5h1121q33 0 56.5 -23.5t23.5 -56.5t-23.5 -56.5t-56.5 -23.5h-881v-560h641q33 0 56.5 -23.5t23.5 -56.5q0 -34 -23.5 -57.5t-56.5 -23.5h-641v-559h880q33 0 56.5 -23.5t23.5 -56.5t-23.5 -56.5t-56.5 -23.5h-1120 q-331 0 -565.5 234.5t-234.5 565.5zM240 800q0 -265 187.5 -452.5t452.5 -187.5h80v1280h-80q-265 0 -452.5 -187.5t-187.5 -452.5z" />
<glyph unicode="&#x153;" horiz-adv-x="2240" d="M80 560q0 232 164 396t396 164t396 -164q49 -49 84 -105q35 56 84 105q164 164 396 164t396 -164t164 -396q0 -33 -23.5 -56.5t-56.5 -23.5h-873q22 -115 110 -203q117 -117 283 -117q150 0 258 95q22 17 50 17q33 0 56.5 -23.5t23.5 -56.5t-23 -57q-155 -135 -365 -135 q-232 0 -396 164q-49 49 -84 105q-35 -56 -84 -105q-164 -164 -396 -164t-396 164t-164 396zM240 560q0 -166 117 -283t283 -117t283 117t117 283t-117 283t-283 117t-283 -117t-117 -283zM1207 640h786q-22 115 -110 203q-117 117 -283 117t-283 -117q-88 -88 -110 -203z " />
<glyph unicode="&#x154;" horiz-adv-x="1200" d="M80 80v1440q0 33 23.5 56.5t56.5 23.5h400q199 0 339.5 -140.5t140.5 -339.5t-140 -339q-65 -65 -141 -99l348 -558q13 -19 13 -44q0 -33 -23.5 -56.5t-56.5 -23.5q-43 0 -70 41l-375 600q-17 -1 -35 -1h-320v-560q0 -33 -23.5 -56.5t-56.5 -23.5t-56.5 23.5t-23.5 56.5z M240 800h320q133 0 226.5 93.5t93.5 226.5t-93.5 226.5t-226.5 93.5h-320v-640zM320 1760q0 31 20 54l243 243q24 23 57 23t56.5 -23.5t23.5 -56.5q0 -32 -22 -56l-243 -243q-23 -21 -55 -21q-33 0 -56.5 23.5t-23.5 56.5z" />
<glyph unicode="&#x155;" horiz-adv-x="960" d="M80 80v960q0 33 23.5 56.5t56.5 23.5t56.5 -23.5t23.5 -56.5v-88q168 168 400 168q117 0 215 -40q18 -7 33 -21q23 -24 23 -57t-23.5 -56.5t-56.5 -23.5q-19 0 -35 8q-71 30 -156 30q-166 0 -283 -117t-117 -283v-480q0 -33 -23.5 -56.5t-56.5 -23.5t-56.5 23.5 t-23.5 56.5zM318 1280q0 31 20 54l243 243q24 23 57 23t56.5 -23.5t23.5 -56.5q0 -32 -22 -56l-243 -243q-23 -21 -55 -21q-33 0 -56.5 23.5t-23.5 56.5z" />
<glyph unicode="&#x156;" horiz-adv-x="1200" d="M80 80v1440q0 33 23.5 56.5t56.5 23.5h400q199 0 339.5 -140.5t140.5 -339.5t-140 -339q-65 -65 -141 -99l348 -558q13 -19 13 -44q0 -33 -23.5 -56.5t-56.5 -23.5q-43 0 -70 41l-375 600q-17 -1 -35 -1h-320v-560q0 -33 -23.5 -56.5t-56.5 -23.5t-56.5 23.5t-23.5 56.5z M240 800h320q133 0 226.5 93.5t93.5 226.5t-93.5 226.5t-226.5 93.5h-320v-640zM361 -290q0 33 23.5 56.5t56.5 23.5q24 0 43 -12l78 -48q19 -10 39 -10q33 0 56.5 13.5t23.5 36.5t-23.5 36.5t-56.5 13.5t-56.5 23.5t-23.5 56.5q0 20 19 39q29 25 96 25q74 -4 136 -49 q69 -56 69 -145t-70.5 -149.5t-169.5 -60.5q-59 0 -114 29l-91 54q-35 29 -35 67z" />
<glyph unicode="&#x157;" horiz-adv-x="960" d="M80 80v960q0 33 23.5 56.5t56.5 23.5t56.5 -23.5t23.5 -56.5v-88q168 168 400 168q117 0 215 -40q18 -7 33 -21q23 -24 23 -57t-23.5 -56.5t-56.5 -23.5q-19 0 -35 8q-71 30 -156 30q-166 0 -283 -117t-117 -283v-480q0 -33 -23.5 -56.5t-56.5 -23.5t-56.5 23.5 t-23.5 56.5zM159 -290q0 33 23.5 56.5t56.5 23.5q24 0 43 -12l78 -48q19 -10 39 -10q33 0 56.5 13.5t23.5 36.5t-23.5 36.5t-56.5 13.5t-56.5 23.5t-23.5 56.5q0 20 19 39q29 25 96 25q74 -4 136 -49q69 -56 69 -145t-70.5 -149.5t-169.5 -60.5q-59 0 -114 29l-91 54 q-35 29 -35 67z" />
<glyph unicode="&#x158;" horiz-adv-x="1200" d="M80 80v1440q0 33 23.5 56.5t56.5 23.5h400q199 0 339.5 -140.5t140.5 -339.5t-140 -339q-65 -65 -141 -99l348 -558q13 -19 13 -44q0 -33 -23.5 -56.5t-56.5 -23.5q-43 0 -70 41l-375 600q-17 -1 -35 -1h-320v-560q0 -33 -23.5 -56.5t-56.5 -23.5t-56.5 23.5t-23.5 56.5z M161 1960q0 33 23.5 56.5t56.5 23.5q29 0 50 -17l190 -126l190 126q21 17 50 17q33 0 56.5 -23.5t23.5 -56.5q0 -40 -40 -70l-239 -159q-18 -11 -41 -11t-41 11l-239 159q-40 30 -40 70zM240 800h320q133 0 226.5 93.5t93.5 226.5t-93.5 226.5t-226.5 93.5h-320v-640z" />
<glyph unicode="&#x159;" horiz-adv-x="960" d="M80 80v960q0 33 23.5 56.5t56.5 23.5t56.5 -23.5t23.5 -56.5v-88q168 168 400 168q117 0 215 -40q18 -7 33 -21q23 -24 23 -57t-23.5 -56.5t-56.5 -23.5q-19 0 -35 8q-71 30 -156 30q-166 0 -283 -117t-117 -283v-480q0 -33 -23.5 -56.5t-56.5 -23.5t-56.5 23.5 t-23.5 56.5zM159 1480q0 33 23.5 56.5t56.5 23.5q29 0 50 -17l190 -126l190 126q21 17 50 17q33 0 56.5 -23.5t23.5 -56.5q0 -40 -40 -70l-239 -159q-18 -11 -41 -11t-41 11l-239 159q-40 30 -40 70z" />
<glyph unicode="&#x15a;" horiz-adv-x="1060" d="M80 267q0 33 23.5 56.5t56.5 23.5q43 0 68 -37q12 -19 28 -36q85 -102 218 -113q132 -10 233 75.5t112 217.5q11 133 -74.5 233.5t-218.5 111.5q-165 14 -272 140t-94 292q14 165 140 272q113 97 260 97q174 0 304 -143q22 -26 39 -54q12 -19 12 -43q0 -33 -23.5 -56.5 t-56.5 -23.5q-38 0 -56 24t-37 49q-65 76 -163 84q-99 8 -175 -56.5t-84 -162.5q-8 -99 56.5 -175t162.5 -84q199 -17 328 -168q113 -134 113 -304q0 -23 -2 -46q-16 -198 -167 -326q-135 -115 -307 -115q-215 0 -370 170q-21 23 -38 49q-16 21 -16 48zM397 1760q0 31 20 54 l243 243q24 23 57 23t56.5 -23.5t23.5 -56.5q0 -32 -22 -56l-243 -243q-23 -21 -55 -21q-33 0 -56.5 23.5t-23.5 56.5z" />
<glyph unicode="&#x15b;" horiz-adv-x="1060" d="M80 800q0 99 74 173q144 147 376 147q251 0 430 -201q16 -19 15 -47q0 -33 -23.5 -56.5t-56.5 -23.5t-53 21t-29 30q-117 117 -283 117t-265 -104q-24 -29 -24 -69q3 -47 49 -64l492 -163q91 -34 127 -71q71 -70 71 -169t-74 -173q-144 -147 -376 -147q-252 0 -430 201 q-15 21 -15 47q0 33 23.5 56.5t56.5 23.5t53 -21t29 -30q117 -117 283 -117t265 104q24 29 24 69q-3 47 -49 64l-492 163q-91 34 -127 71q-71 70 -71 169zM359 1280q0 31 20 54l243 243q24 23 57 23t56.5 -23.5t23.5 -56.5q0 -32 -22 -56l-243 -243q-23 -21 -55 -21 q-33 0 -56.5 23.5t-23.5 56.5z" />
<glyph unicode="&#x15c;" horiz-adv-x="1060" d="M80 267q0 33 23.5 56.5t56.5 23.5q43 0 68 -37q12 -19 28 -36q85 -102 218 -113q132 -10 233 75.5t112 217.5q11 133 -74.5 233.5t-218.5 111.5q-165 14 -272 140t-94 292q14 165 140 272q113 97 260 97q174 0 304 -143q22 -26 39 -54q12 -19 12 -43q0 -33 -23.5 -56.5 t-56.5 -23.5q-38 0 -56 24t-37 49q-65 76 -163 84q-99 8 -175 -56.5t-84 -162.5q-8 -99 56.5 -175t162.5 -84q199 -17 328 -168q113 -134 113 -304q0 -23 -2 -46q-16 -198 -167 -326q-135 -115 -307 -115q-215 0 -370 170q-21 23 -38 49q-16 21 -16 48zM220 1800q0 40 40 70 l239 159q18 11 41 11t41 -11l239 -159q40 -30 40 -70q0 -33 -23.5 -56.5t-56.5 -23.5q-29 0 -50 17l-190 126l-190 -126q-21 -17 -50 -17q-33 0 -56.5 23.5t-23.5 56.5z" />
<glyph unicode="&#x15d;" horiz-adv-x="1060" d="M80 800q0 99 74 173q144 147 376 147q251 0 430 -201q16 -19 15 -47q0 -33 -23.5 -56.5t-56.5 -23.5t-53 21t-29 30q-117 117 -283 117t-265 -104q-24 -29 -24 -69q3 -47 49 -64l492 -163q91 -34 127 -71q71 -70 71 -169t-74 -173q-144 -147 -376 -147q-252 0 -430 201 q-15 21 -15 47q0 33 23.5 56.5t56.5 23.5t53 -21t29 -30q117 -117 283 -117t265 104q24 29 24 69q-3 47 -49 64l-492 163q-91 34 -127 71q-71 70 -71 169zM210 1320q0 40 40 70l239 159q18 11 41 11t41 -11l239 -159q40 -30 40 -70q0 -33 -23.5 -56.5t-56.5 -23.5 q-29 0 -50 17l-190 126l-190 -126q-21 -17 -50 -17q-33 0 -56.5 23.5t-23.5 56.5z" />
<glyph unicode="&#x15e;" horiz-adv-x="1060" d="M80 267q0 33 23.5 56.5t56.5 23.5q43 0 68 -37q12 -19 28 -36q85 -102 218 -113q132 -10 233 75.5t112 217.5q11 133 -74.5 233.5t-218.5 111.5q-165 14 -272 140t-94 292q14 165 140 272q113 97 260 97q174 0 304 -143q22 -26 39 -54q12 -19 12 -43q0 -33 -23.5 -56.5 t-56.5 -23.5q-38 0 -56 24t-37 49q-65 76 -163 84q-99 8 -175 -56.5t-84 -162.5q-8 -99 56.5 -175t162.5 -84q199 -17 328 -168q113 -134 113 -304q0 -23 -2 -46q-16 -198 -167 -326q-135 -115 -307 -115q-215 0 -370 170q-21 23 -38 49q-16 21 -16 48zM230 -330 q0 33 23.5 56.5t56.5 23.5q24 0 43 -12l78 -48q19 -10 39 -10q33 0 56.5 13.5t23.5 36.5t-23.5 36.5t-56.5 13.5t-56.5 23.5t-23.5 56.5q0 14 4 26l39 137q6 19 21 34q23 23 56 23t56.5 -23.5t23.5 -56.5q0 -10 -2 -19l-17 -60q37 -15 69 -41q70 -61 70 -150t-70.5 -149.5 t-169.5 -60.5q-59 0 -114 29l-91 54q-35 29 -35 67z" />
<glyph unicode="&#x15f;" horiz-adv-x="1060" d="M80 800q0 99 74 173q144 147 376 147q251 0 430 -201q16 -19 15 -47q0 -33 -23.5 -56.5t-56.5 -23.5t-53 21t-29 30q-117 117 -283 117t-265 -104q-24 -29 -24 -69q3 -47 49 -64l492 -163q91 -34 127 -71q71 -70 71 -169t-74 -173q-144 -147 -376 -147q-252 0 -430 201 q-15 21 -15 47q0 33 23.5 56.5t56.5 23.5t53 -21t29 -30q117 -117 283 -117t265 104q24 29 24 69q-3 47 -49 64l-492 163q-91 34 -127 71q-71 70 -71 169zM240 -330q0 33 23.5 56.5t56.5 23.5q24 0 43 -12l78 -48q19 -10 39 -10q33 0 56.5 13.5t23.5 36.5t-23.5 36.5 t-56.5 13.5t-56.5 23.5t-23.5 56.5q0 14 4 26l39 137q6 19 21 34q23 23 56 23t56.5 -23.5t23.5 -56.5q0 -10 -2 -19l-17 -60q37 -15 69 -41q70 -61 70 -150t-70.5 -149.5t-169.5 -60.5q-59 0 -114 29l-91 54q-35 29 -35 67z" />
<glyph unicode="&#x160;" horiz-adv-x="1060" d="M80 267q0 33 23.5 56.5t56.5 23.5q43 0 68 -37q12 -19 28 -36q85 -102 218 -113q132 -10 233 75.5t112 217.5q11 133 -74.5 233.5t-218.5 111.5q-165 14 -272 140t-94 292q14 165 140 272q113 97 260 97q174 0 304 -143q22 -26 39 -54q12 -19 12 -43q0 -33 -23.5 -56.5 t-56.5 -23.5q-38 0 -56 24t-37 49q-65 76 -163 84q-99 8 -175 -56.5t-84 -162.5q-8 -99 56.5 -175t162.5 -84q199 -17 328 -168q113 -134 113 -304q0 -23 -2 -46q-16 -198 -167 -326q-135 -115 -307 -115q-215 0 -370 170q-21 23 -38 49q-16 21 -16 48zM210 1960 q0 33 23.5 56.5t56.5 23.5q29 0 50 -17l190 -126l190 126q21 17 50 17q33 0 56.5 -23.5t23.5 -56.5q0 -40 -40 -70l-239 -159q-18 -11 -41 -11t-41 11l-239 159q-40 30 -40 70z" />
<glyph unicode="&#x161;" horiz-adv-x="1060" d="M80 800q0 99 74 173q144 147 376 147q251 0 430 -201q16 -19 15 -47q0 -33 -23.5 -56.5t-56.5 -23.5t-53 21t-29 30q-117 117 -283 117t-265 -104q-24 -29 -24 -69q3 -47 49 -64l492 -163q91 -34 127 -71q71 -70 71 -169t-74 -173q-144 -147 -376 -147q-252 0 -430 201 q-15 21 -15 47q0 33 23.5 56.5t56.5 23.5t53 -21t29 -30q117 -117 283 -117t265 104q24 29 24 69q-3 47 -49 64l-492 163q-91 34 -127 71q-71 70 -71 169zM210 1480q0 33 23.5 56.5t56.5 23.5q29 0 50 -17l190 -126l190 126q21 17 50 17q33 0 56.5 -23.5t23.5 -56.5 q0 -40 -40 -70l-239 -159q-18 -11 -41 -11t-41 11l-239 159q-40 30 -40 70z" />
<glyph unicode="&#x162;" horiz-adv-x="1360" d="M80 1520q0 33 23.5 56.5t56.5 23.5h1040q33 0 56.5 -23.5t23.5 -56.5t-23.5 -56.5t-56.5 -23.5h-440v-1360q0 -33 -23.5 -56.5t-56.5 -23.5t-56.5 23.5t-23.5 56.5v1360h-440q-33 0 -56.5 23.5t-23.5 56.5zM400 -251q0 33 23.5 56.5t56.5 23.5q24 0 43 -12l78 -48 q19 -10 39 -10q33 0 56.5 13.5t23.5 36.5t-23.5 36.5t-56.5 13.5t-56.5 23.5t-23.5 56.5q0 14 4 26l39 137q6 19 21 34q23 23 56 23t56.5 -23.5t23.5 -56.5q0 -10 -2 -19l-17 -60q37 -15 69 -41q70 -61 70 -150t-70.5 -149.5t-169.5 -60.5q-59 0 -114 29l-91 54 q-35 29 -35 67z" />
<glyph unicode="&#x163;" horiz-adv-x="800" d="M80 1040q0 33 23.5 56.5t56.5 23.5h80v400q0 33 23.5 56.5t56.5 23.5t56.5 -23.5t23.5 -56.5v-400h161q33 0 56.5 -23.5t23.5 -56.5t-23.5 -56.5t-56.5 -23.5h-161v-560q0 -240 240 -240q33 0 56.5 -23.5t23.5 -56.5t-23.5 -56.5t-56.5 -23.5q-400 0 -400 400v560h-80 q-33 0 -56.5 23.5t-23.5 56.5zM240 -310q0 33 23.5 56.5t56.5 23.5q24 0 43 -12l78 -48q19 -10 39 -10q33 0 56.5 13.5t23.5 36.5t-23.5 36.5t-56.5 13.5t-56.5 23.5t-23.5 56.5q0 14 4 26l39 137q6 19 21 34q23 23 56 23t56.5 -23.5t23.5 -56.5q0 -10 -2 -19l-17 -60 q37 -15 69 -41q70 -61 70 -150t-70.5 -149.5t-169.5 -60.5q-59 0 -114 29l-91 54q-35 29 -35 67z" />
<glyph unicode="&#x164;" horiz-adv-x="1360" d="M80 1520q0 33 23.5 56.5t56.5 23.5h1040q33 0 56.5 -23.5t23.5 -56.5t-23.5 -56.5t-56.5 -23.5h-440v-1360q0 -33 -23.5 -56.5t-56.5 -23.5t-56.5 23.5t-23.5 56.5v1360h-440q-33 0 -56.5 23.5t-23.5 56.5zM360 1960q0 33 23.5 56.5t56.5 23.5q29 0 50 -17l190 -126 l190 126q21 17 50 17q33 0 56.5 -23.5t23.5 -56.5q0 -40 -40 -70l-239 -159q-18 -11 -41 -11t-41 11l-239 159q-40 30 -40 70z" />
<glyph unicode="&#x165;" horiz-adv-x="1040" d="M80 1040q0 33 23.5 56.5t56.5 23.5h80v400q0 33 23.5 56.5t56.5 23.5t56.5 -23.5t23.5 -56.5v-400h161q33 0 56.5 -23.5t23.5 -56.5t-23.5 -56.5t-56.5 -23.5h-161v-560q0 -240 240 -240q33 0 56.5 -23.5t23.5 -56.5t-23.5 -56.5t-56.5 -23.5q-400 0 -400 400v560h-80 q-33 0 -56.5 23.5t-23.5 56.5zM719 999q0 14 5 26q98 237 3 435q-8 18 -8 40q0 41 29.5 70.5t70.5 29.5q62 0 90 -58q63 -112 63 -227q0 -175 -152 -358q-17 -17 -42 -17q-24 0 -41.5 17.5t-17.5 41.5z" />
<glyph unicode="&#x166;" horiz-adv-x="1360" d="M80 1520q0 33 23.5 56.5t56.5 23.5h1040q33 0 56.5 -23.5t23.5 -56.5t-23.5 -56.5t-56.5 -23.5h-440v-640h320q33 0 56.5 -23.5t23.5 -56.5t-23.5 -56.5t-56.5 -23.5h-320v-560q0 -33 -23.5 -56.5t-56.5 -23.5t-56.5 23.5t-23.5 56.5v560h-320q-33 0 -56.5 23.5 t-23.5 56.5t23.5 56.5t56.5 23.5h320v640h-440q-33 0 -56.5 23.5t-23.5 56.5z" />
<glyph unicode="&#x167;" horiz-adv-x="800" d="M79 640q0 33 23.5 56.5t56.5 23.5h81v240h-80q-33 0 -56.5 23.5t-23.5 56.5t23.5 56.5t56.5 23.5h80v400q0 33 23.5 56.5t56.5 23.5t56.5 -23.5t23.5 -56.5v-400h161q33 0 56.5 -23.5t23.5 -56.5t-23.5 -56.5t-56.5 -23.5h-161v-240h160q33 0 56.5 -23.5t23.5 -56.5 t-23.5 -56.5t-56.5 -23.5h-160v-160q0 -240 240 -240q33 0 56.5 -23.5t23.5 -56.5t-23.5 -56.5t-56.5 -23.5q-400 0 -400 400v160h-81q-33 0 -56.5 23.5t-23.5 56.5z" />
<glyph unicode="&#x168;" d="M80 560v960q0 33 23.5 56.5t56.5 23.5t56.5 -23.5t23.5 -56.5v-960q0 -166 117 -283t283 -117t283 117t117 283v960q0 33 23.5 56.5t56.5 23.5t56.5 -23.5t23.5 -56.5v-960q0 -232 -164 -396t-396 -164t-396 164t-164 396zM235 1871q0 33 23.5 56.5t56.5 23.5 q32 0 56 -22q47 -48 113 -48q56 0 100 35q89 80 212 80q133 0 227 -94q22 -24 22 -56q0 -33 -23.5 -56.5t-56.5 -23.5q-32 0 -56 22q-47 48 -113 48q-57 0 -100 -35q-90 -80 -212 -80q-133 0 -227 94q-22 24 -22 56z" />
<glyph unicode="&#x169;" horiz-adv-x="1200" d="M80 520v520q0 33 23.5 56.5t56.5 23.5t56.5 -23.5t23.5 -56.5v-520q0 -149 105.5 -254.5t254.5 -105.5t254.5 105.5t105.5 254.5v520q0 33 23.5 56.5t56.5 23.5t56.5 -23.5t23.5 -56.5v-960q0 -33 -23.5 -56.5t-56.5 -23.5t-56.5 23.5t-23.5 56.5v65q-150 -145 -360 -145 q-215 0 -367.5 152.5t-152.5 367.5zM195 1391q0 33 23.5 56.5t56.5 23.5q32 0 56 -22q47 -48 113 -48q56 0 100 35q89 80 212 80q133 0 227 -94q22 -24 22 -56q0 -33 -23.5 -56.5t-56.5 -23.5q-32 0 -56 22q-47 48 -113 48q-57 0 -100 -35q-90 -80 -212 -80q-133 0 -227 94 q-22 24 -22 56z" />
<glyph unicode="&#x16a;" d="M80 560v960q0 33 23.5 56.5t56.5 23.5t56.5 -23.5t23.5 -56.5v-960q0 -166 117 -283t283 -117t283 117t117 283v960q0 33 23.5 56.5t56.5 23.5t56.5 -23.5t23.5 -56.5v-960q0 -232 -164 -396t-396 -164t-396 164t-164 396zM320 1840q0 33 23.5 56.5t56.5 23.5h480 q33 0 56.5 -23.5t23.5 -56.5t-23.5 -56.5t-56.5 -23.5h-480q-33 0 -56.5 23.5t-23.5 56.5z" />
<glyph unicode="&#x16b;" horiz-adv-x="1200" d="M80 520v520q0 33 23.5 56.5t56.5 23.5t56.5 -23.5t23.5 -56.5v-520q0 -149 105.5 -254.5t254.5 -105.5t254.5 105.5t105.5 254.5v520q0 33 23.5 56.5t56.5 23.5t56.5 -23.5t23.5 -56.5v-960q0 -33 -23.5 -56.5t-56.5 -23.5t-56.5 23.5t-23.5 56.5v65q-150 -145 -360 -145 q-215 0 -367.5 152.5t-152.5 367.5zM280 1360q0 33 23.5 56.5t56.5 23.5h480q33 0 56.5 -23.5t23.5 -56.5t-23.5 -56.5t-56.5 -23.5h-480q-33 0 -56.5 23.5t-23.5 56.5z" />
<glyph unicode="&#x16c;" d="M80 560v960q0 33 23.5 56.5t56.5 23.5t56.5 -23.5t23.5 -56.5v-960q0 -166 117 -283t283 -117t283 117t117 283v960q0 33 23.5 56.5t56.5 23.5t56.5 -23.5t23.5 -56.5v-960q0 -232 -164 -396t-396 -164t-396 164t-164 396zM326 1960q0 33 23.5 56.5t56.5 23.5t56.5 -23.5 t23.5 -56.5t47 -56.5t113 -23.5t113.5 23.5t47.5 56.5t23.5 56.5t56.5 23.5t56.5 -23.5t23.5 -56.5q-5 -105 -94 -169q-94 -71 -227 -71t-226.5 70.5t-93.5 169.5z" />
<glyph unicode="&#x16d;" horiz-adv-x="1200" d="M80 520v520q0 33 23.5 56.5t56.5 23.5t56.5 -23.5t23.5 -56.5v-520q0 -149 105.5 -254.5t254.5 -105.5t254.5 105.5t105.5 254.5v520q0 33 23.5 56.5t56.5 23.5t56.5 -23.5t23.5 -56.5v-960q0 -33 -23.5 -56.5t-56.5 -23.5t-56.5 23.5t-23.5 56.5v65q-150 -145 -360 -145 q-215 0 -367.5 152.5t-152.5 367.5zM286 1480q0 33 23.5 56.5t56.5 23.5t56.5 -23.5t23.5 -56.5t47 -56.5t113 -23.5t113.5 23.5t47.5 56.5t23.5 56.5t56.5 23.5t56.5 -23.5t23.5 -56.5q-5 -105 -94 -169q-94 -71 -227 -71t-226.5 70.5t-93.5 169.5z" />
<glyph unicode="&#x16e;" d="M80 560v960q0 33 23.5 56.5t56.5 23.5t56.5 -23.5t23.5 -56.5v-960q0 -166 117 -283t283 -117t283 117t117 283v960q0 33 23.5 56.5t56.5 23.5t56.5 -23.5t23.5 -56.5v-960q0 -232 -164 -396t-396 -164t-396 164t-164 396zM439 1879q0 83 59 142t143 59q83 0 142 -59 t59 -142q0 -84 -59 -143t-142 -59q-84 0 -143 59t-59 143zM540 1879q0 -42 29.5 -71.5t71.5 -29.5q41 0 70.5 29.5t29.5 71.5q0 41 -29.5 70.5t-70.5 29.5q-42 0 -71.5 -29.5t-29.5 -70.5z" />
<glyph unicode="&#x16f;" horiz-adv-x="1200" d="M80 520v520q0 33 23.5 56.5t56.5 23.5t56.5 -23.5t23.5 -56.5v-520q0 -149 105.5 -254.5t254.5 -105.5t254.5 105.5t105.5 254.5v520q0 33 23.5 56.5t56.5 23.5t56.5 -23.5t23.5 -56.5v-960q0 -33 -23.5 -56.5t-56.5 -23.5t-56.5 23.5t-23.5 56.5v65q-150 -145 -360 -145 q-215 0 -367.5 152.5t-152.5 367.5zM399 1399q0 83 59 142t143 59q83 0 142 -59t59 -142q0 -84 -59 -143t-142 -59q-84 0 -143 59t-59 143zM500 1399q0 -42 29.5 -71.5t71.5 -29.5q41 0 70.5 29.5t29.5 71.5q0 41 -29.5 70.5t-70.5 29.5q-42 0 -71.5 -29.5t-29.5 -70.5z" />
<glyph unicode="&#x170;" d="M80 560v960q0 33 23.5 56.5t56.5 23.5t56.5 -23.5t23.5 -56.5v-960q0 -166 117 -283t283 -117t283 117t117 283v960q0 33 23.5 56.5t56.5 23.5t56.5 -23.5t23.5 -56.5v-960q0 -232 -164 -396t-396 -164t-396 164t-164 396zM360 1721q0 11 4 22l91 287q12 30 43 44 q16 6 31 6t30 -5q31 -12 44 -42.5t1 -61.5l-128 -272q-17 -36 -56 -38q-37 0 -55 36q-5 12 -5 24zM670 1721q0 11 4 22l91 287q12 30 43 44q16 6 31 6t30 -5q31 -12 44 -42.5t1 -61.5l-128 -272q-17 -36 -56 -38q-37 0 -55 36q-5 12 -5 24z" />
<glyph unicode="&#x171;" horiz-adv-x="1200" d="M80 520v520q0 33 23.5 56.5t56.5 23.5t56.5 -23.5t23.5 -56.5v-520q0 -149 105.5 -254.5t254.5 -105.5t254.5 105.5t105.5 254.5v520q0 33 23.5 56.5t56.5 23.5t56.5 -23.5t23.5 -56.5v-960q0 -33 -23.5 -56.5t-56.5 -23.5t-56.5 23.5t-23.5 56.5v65q-150 -145 -360 -145 q-215 0 -367.5 152.5t-152.5 367.5zM320 1241q0 11 4 22l91 287q12 30 43 44q16 6 31 6t30 -5q31 -12 44 -42.5t1 -61.5l-128 -272q-17 -36 -56 -38q-37 0 -55 36q-5 12 -5 24zM630 1241q0 11 4 22l91 287q12 30 43 44q16 6 31 6t30 -5q31 -12 44 -42.5t1 -61.5l-128 -272 q-17 -36 -56 -38q-37 0 -55 36q-5 12 -5 24z" />
<glyph unicode="&#x172;" d="M80 560v960q0 33 23.5 56.5t56.5 23.5t56.5 -23.5t23.5 -56.5v-960q0 -166 117 -283t283 -117t283 117t117 283v960q0 33 23.5 56.5t56.5 23.5t56.5 -23.5t23.5 -56.5v-960q0 -232 -164 -396t-396 -164t-396 164t-164 396zM400 -237q0 116 102 196q53 44 68 80 q20 40 70 41q33 0 57 -23q22 -23 23 -54q0 -13 -2 -23q-15 -73 -123 -151q-35 -28 -35 -66q0 -33 23.5 -56.5t56.5 -23.5q24 0 43 13l69 51q21 16 48 16q33 0 56.5 -23.5t23.5 -56.5q0 -40 -28 -62l-80 -56q-61 -42 -132 -42q-99 0 -169.5 70.5t-70.5 169.5z" />
<glyph unicode="&#x173;" d="M80 520v520q0 33 23.5 56.5t56.5 23.5t56.5 -23.5t23.5 -56.5v-520q0 -149 105.5 -254.5t254.5 -105.5t254.5 105.5t105.5 254.5v520q0 33 23.5 56.5t56.5 23.5t56.5 -23.5t23.5 -56.5v-960q0 -33 -23.5 -56.5t-56.5 -23.5t-56.5 23.5t-23.5 56.5v65q-150 -145 -360 -145 q-215 0 -367.5 152.5t-152.5 367.5zM800 -160q0 116 102 196q53 44 68 80q20 40 70 41q33 0 57 -23q22 -23 23 -54q0 -13 -2 -23q-15 -73 -123 -151q-35 -28 -35 -66q0 -33 23.5 -56.5t56.5 -23.5q24 0 43 13l69 51q21 16 48 16q33 0 56.5 -23.5t23.5 -56.5q0 -40 -28 -62 l-80 -56q-61 -42 -132 -42q-99 0 -169.5 70.5t-70.5 169.5z" />
<glyph unicode="&#x174;" horiz-adv-x="1920" d="M80 1520q0 33 23.5 56.5t56.5 23.5t57 -23q13 -14 19 -30l324 -1168l324 1168q4 15 20 30q23 23 56 23t57 -23q13 -14 19 -30l324 -1168l324 1168q6 16 20 30q23 23 56 23t56.5 -23.5t23.5 -56.5q0 -17 -6 -35l-392 -1418q-8 -25 -25 -43q-24 -24 -57 -24t-56 24 q-18 18 -25 42l-319 1152l-318 -1151q-8 -25 -25 -43q-24 -24 -57 -24t-56 24q-18 18 -25 42l-393 1419q-6 18 -6 35zM640 1800q0 40 40 70l239 159q18 11 41 11t41 -11l239 -159q40 -30 40 -70q0 -33 -23.5 -56.5t-56.5 -23.5q-29 0 -50 17l-190 126l-190 -126 q-21 -17 -50 -17q-33 0 -56.5 23.5t-23.5 56.5z" />
<glyph unicode="&#x175;" horiz-adv-x="1600" d="M80 1040q0 33 23.5 56.5t56.5 23.5t57 -23q10 -11 16 -23l247 -741l242 727q7 21 22 37q23 23 56 23t57 -23q15 -16 21 -37l242 -727l247 741q6 12 17 23q23 23 56 23t56.5 -23.5t23.5 -56.5q0 -16 -6 -31l-319 -958q-6 -15 -18 -29q-24 -22 -57 -22t-56 22 q-13 14 -19 29l-245 736l-245 -736q-6 -15 -18 -29q-24 -22 -57 -22t-56 22q-13 14 -19 29l-319 958q-6 15 -6 31zM480 1320q0 40 40 70l239 159q18 11 41 11t41 -11l239 -159q40 -30 40 -70q0 -33 -23.5 -56.5t-56.5 -23.5q-29 0 -50 17l-190 126l-190 -126 q-21 -17 -50 -17q-33 0 -56.5 23.5t-23.5 56.5z" />
<glyph unicode="&#x176;" d="M80 1520q0 33 23.5 56.5t56.5 23.5q41 0 65 -33l415 -622l415 622q24 33 65 33q33 0 56.5 -23.5t23.5 -56.5q0 -25 -13 -45l-467 -699v-696q0 -33 -23.5 -56.5t-56.5 -23.5t-56.5 23.5t-23.5 56.5v696l-467 699q-13 20 -13 45zM320 1800q0 40 40 70l239 159q18 11 41 11 t41 -11l239 -159q40 -30 40 -70q0 -33 -23.5 -56.5t-56.5 -23.5q-29 0 -50 17l-190 126l-190 -126q-21 -17 -50 -17q-33 0 -56.5 23.5t-23.5 56.5z" />
<glyph unicode="&#x177;" horiz-adv-x="1120" d="M80 1040q0 33 23.5 56.5t56.5 23.5t57 -23q13 -14 19 -30l324 -777l324 777q6 16 20 30q23 23 56 23t56.5 -23.5t23.5 -56.5q0 -20 -9 -37l-596 -1430q-6 -16 -19 -29q-24 -24 -57 -24t-56.5 23.5t-23.5 56.5q0 20 9 37l185 444l-384 922q-9 17 -9 37zM240 1320 q0 40 40 70l239 159q18 11 41 11t41 -11l239 -159q40 -30 40 -70q0 -33 -23.5 -56.5t-56.5 -23.5q-29 0 -50 17l-190 126l-190 -126q-21 -17 -50 -17q-33 0 -56.5 23.5t-23.5 56.5z" />
<glyph unicode="&#x178;" d="M80 1520q0 33 23.5 56.5t56.5 23.5q41 0 65 -33l415 -622l415 622q24 33 65 33q33 0 56.5 -23.5t23.5 -56.5q0 -25 -13 -45l-467 -699v-696q0 -33 -23.5 -56.5t-56.5 -23.5t-56.5 23.5t-23.5 56.5v696l-467 699q-13 20 -13 45zM300 1840q0 41 29.5 70.5t70.5 29.5 t70.5 -29.5t29.5 -70.5t-29.5 -70.5t-70.5 -29.5t-70.5 29.5t-29.5 70.5zM780 1840q0 41 29.5 70.5t70.5 29.5t70.5 -29.5t29.5 -70.5t-29.5 -70.5t-70.5 -29.5t-70.5 29.5t-29.5 70.5z" />
<glyph unicode="&#x179;" horiz-adv-x="1440" d="M80 80q0 28 17 50l1019 1310h-956q-33 0 -56.5 23.5t-23.5 56.5t23.5 56.5t56.5 23.5h1120q33 0 56.5 -23.5t23.5 -56.5q0 -26 -14 -46l-1022 -1314h956q33 0 56.5 -23.5t23.5 -56.5t-23.5 -56.5t-56.5 -23.5h-1120q-33 0 -56.5 23.5t-23.5 56.5zM587 1760q0 31 20 54 l243 243q24 23 57 23t56.5 -23.5t23.5 -56.5q0 -32 -22 -56l-243 -243q-23 -21 -55 -21q-33 0 -56.5 23.5t-23.5 56.5z" />
<glyph unicode="&#x17a;" horiz-adv-x="1120" d="M80 80q0 28 16 49l693 831h-629q-33 0 -56.5 23.5t-23.5 56.5t23.5 56.5t56.5 23.5h800q33 0 56.5 -23.5t23.5 -56.5q0 -30 -19 -52l-691 -828h630q33 0 56.5 -23.5t23.5 -56.5t-23.5 -56.5t-56.5 -23.5h-800q-33 0 -56.5 23.5t-23.5 56.5zM427 1280q0 31 20 54l243 243 q24 23 57 23t56.5 -23.5t23.5 -56.5q0 -32 -22 -56l-243 -243q-23 -21 -55 -21q-33 0 -56.5 23.5t-23.5 56.5z" />
<glyph unicode="&#x17b;" horiz-adv-x="1440" d="M80 80q0 28 17 50l1019 1310h-956q-33 0 -56.5 23.5t-23.5 56.5t23.5 56.5t56.5 23.5h1120q33 0 56.5 -23.5t23.5 -56.5q0 -26 -14 -46l-1022 -1314h956q33 0 56.5 -23.5t23.5 -56.5t-23.5 -56.5t-56.5 -23.5h-1120q-33 0 -56.5 23.5t-23.5 56.5zM600 1841q0 50 35 85 t85 35t85 -35t35 -85t-35 -85t-85 -35t-85 35t-35 85z" />
<glyph unicode="&#x17c;" horiz-adv-x="1120" d="M80 80q0 28 16 49l693 831h-629q-33 0 -56.5 23.5t-23.5 56.5t23.5 56.5t56.5 23.5h800q33 0 56.5 -23.5t23.5 -56.5q0 -30 -19 -52l-691 -828h630q33 0 56.5 -23.5t23.5 -56.5t-23.5 -56.5t-56.5 -23.5h-800q-33 0 -56.5 23.5t-23.5 56.5zM440 1361q0 50 35 85t85 35 t85 -35t35 -85t-35 -85t-85 -35t-85 35t-35 85z" />
<glyph unicode="&#x17d;" horiz-adv-x="1440" d="M80 80q0 28 17 50l1019 1310h-956q-33 0 -56.5 23.5t-23.5 56.5t23.5 56.5t56.5 23.5h1120q33 0 56.5 -23.5t23.5 -56.5q0 -26 -14 -46l-1022 -1314h956q33 0 56.5 -23.5t23.5 -56.5t-23.5 -56.5t-56.5 -23.5h-1120q-33 0 -56.5 23.5t-23.5 56.5zM400 1960 q0 33 23.5 56.5t56.5 23.5q29 0 50 -17l190 -126l190 126q21 17 50 17q33 0 56.5 -23.5t23.5 -56.5q0 -40 -40 -70l-239 -159q-18 -11 -41 -11t-41 11l-239 159q-40 30 -40 70z" />
<glyph unicode="&#x17e;" horiz-adv-x="1120" d="M80 80q0 28 16 49l693 831h-629q-33 0 -56.5 23.5t-23.5 56.5t23.5 56.5t56.5 23.5h800q33 0 56.5 -23.5t23.5 -56.5q0 -30 -19 -52l-691 -828h630q33 0 56.5 -23.5t23.5 -56.5t-23.5 -56.5t-56.5 -23.5h-800q-33 0 -56.5 23.5t-23.5 56.5zM240 1480q0 33 23.5 56.5 t56.5 23.5q29 0 50 -17l190 -126l190 126q21 17 50 17q33 0 56.5 -23.5t23.5 -56.5q0 -40 -40 -70l-239 -159q-18 -11 -41 -11t-41 11l-239 159q-40 30 -40 70z" />
<glyph unicode="&#x17f;" horiz-adv-x="640" d="M80 80v1040q0 480 480 480q33 0 56.5 -23.5t23.5 -56.5t-23.5 -56.5t-56.5 -23.5q-320 0 -320 -320v-1040q0 -33 -23.5 -56.5t-56.5 -23.5t-56.5 23.5t-23.5 56.5z" />
<glyph unicode="&#x192;" horiz-adv-x="960" d="M0 -400q0 33 23.5 56.5t56.5 23.5q320 0 320 320h1l-1 900h-80q-33 0 -56.5 23.5t-23.5 56.5t23.5 56.5t56.5 23.5h80v60q0 480 480 480q33 0 56.5 -23.5t23.5 -56.5t-23.5 -56.5t-56.5 -23.5q-320 0 -320 -320v-60h241q33 0 56.5 -23.5t23.5 -56.5t-23.5 -56.5 t-56.5 -23.5h-241l1 -900h-1q0 -480 -480 -480q-33 0 -56.5 23.5t-23.5 56.5z" />
<glyph unicode="&#x1fa;" horiz-adv-x="1440" d="M80 80q0 19 7 34l546 1404q-31 15 -57 41q-59 59 -59 143q0 87 73 155q-30 30 -30 63q0 31 20 54l83 83q24 23 57 23t56.5 -23.5t23.5 -56.5q0 -32 -22 -56l-42 -42q72 -5 125 -58q59 -59 59 -142q0 -84 -59 -143q-25 -25 -54 -39l546 -1406q7 -15 7 -34 q0 -33 -23.5 -56.5t-56.5 -23.5t-56 24q-12 11 -18 25l-199 511h-574l-199 -511q-6 -14 -17 -25q-24 -24 -57 -24t-56.5 23.5t-23.5 56.5zM495 720h450l-225 579zM618 1702q0 -42 29.5 -71.5t71.5 -29.5q41 0 70.5 29.5t29.5 71.5q0 41 -29.5 70.5t-70.5 29.5 q-42 0 -71.5 -29.5t-29.5 -70.5z" />
<glyph unicode="&#x1fb;" d="M80 560q0 232 164 396t396 164t396 -164t164 -396v-480q0 -33 -23.5 -56.5t-56.5 -23.5t-56.5 23.5t-23.5 56.5v88q-168 -168 -400 -168t-396 164t-164 396zM240 560q0 -166 117 -283t283 -117t283 117t117 283t-117 283t-283 117t-283 -117t-117 -283zM439 1399 q0 83 59 142t143 59q83 0 142 -59t59 -142q0 -84 -59 -143t-142 -59q-84 0 -143 59t-59 143zM480 1699q0 31 20 54l243 243q24 23 57 23t56.5 -23.5t23.5 -56.5q0 -32 -22 -56l-243 -243q-23 -21 -55 -21q-33 0 -56.5 23.5t-23.5 56.5zM540 1399q0 -42 29.5 -71.5 t71.5 -29.5q41 0 70.5 29.5t29.5 71.5q0 41 -29.5 70.5t-70.5 29.5q-42 0 -71.5 -29.5t-29.5 -70.5z" />
<glyph unicode="&#x1fc;" horiz-adv-x="1760" d="M80 80q0 22 10 39l802 1444q23 37 68 37h640q33 0 56.5 -23.5t23.5 -56.5t-23.5 -56.5t-56.5 -23.5h-560v-640h400q33 0 56.5 -23.5t23.5 -56.5t-23.5 -56.5t-56.5 -23.5h-400v-480h560q33 0 56.5 -23.5t23.5 -56.5t-23.5 -56.5t-56.5 -23.5h-640q-33 0 -56.5 23.5 t-23.5 56.5v560h-317l-335 -603q-25 -37 -68 -37q-33 0 -56.5 23.5t-23.5 56.5zM652 800h228v410zM880 1760q0 31 20 54l243 243q24 23 57 23t56.5 -23.5t23.5 -56.5q0 -32 -22 -56l-243 -243q-23 -21 -55 -21q-33 0 -56.5 23.5t-23.5 56.5z" />
<glyph unicode="&#x1fd;" horiz-adv-x="2240" d="M80 560q0 232 164 396t396 164t396 -164q49 -49 84 -105q35 56 84 105q164 164 396 164t396 -164t164 -396q0 -33 -23.5 -56.5t-56.5 -23.5h-873q22 -115 110 -203q117 -117 283 -117q150 0 258 95q22 17 50 17q33 0 56.5 -23.5t23.5 -56.5t-23 -57q-155 -135 -365 -135 q-232 0 -400 168v-88q0 -33 -23.5 -56.5t-56.5 -23.5t-56.5 23.5t-23.5 56.5v88q-168 -168 -400 -168t-396 164t-164 396zM240 560q0 -166 117 -283t283 -117t283 117t117 283t-117 283t-283 117t-283 -117t-117 -283zM987 1280q0 31 20 54l243 243q24 23 57 23t56.5 -23.5 t23.5 -56.5q0 -32 -22 -56l-243 -243q-23 -21 -55 -21q-33 0 -56.5 23.5t-23.5 56.5zM1207 640h786q-22 115 -110 203q-117 117 -283 117t-283 -117q-88 -88 -110 -203z" />
<glyph unicode="&#x1fe;" horiz-adv-x="1760" d="M80 80q0 32 21 55l159 159q-180 216 -180 506q0 331 234.5 565.5t565.5 234.5q290 0 506 -180l157 157q24 23 57 23t56.5 -23.5t23.5 -56.5q0 -29 -18 -51l-162 -163q180 -216 180 -506q0 -331 -234.5 -565.5t-565.5 -234.5q-290 0 -506 180l-157 -157q-24 -23 -57 -23 t-56.5 23.5t-23.5 56.5zM240 800q0 -224 134 -392l898 898q-168 134 -392 134q-265 0 -452.5 -187.5t-187.5 -452.5zM488 294q168 -134 392 -134q265 0 452.5 187.5t187.5 452.5q0 224 -134 393zM720 1760q0 31 20 54l243 243q24 23 57 23t56.5 -23.5t23.5 -56.5 q0 -32 -22 -56l-243 -243q-23 -21 -55 -21q-33 0 -56.5 23.5t-23.5 56.5z" />
<glyph unicode="&#x1ff;" d="M80 80q0 32 22 56l89 89q-111 144 -111 335q0 232 164 396t396 164q191 0 336 -111l85 85q26 26 59 26t56.5 -23.5t23.5 -56.5q0 -32 -22 -56l-89 -89q111 -144 111 -335q0 -232 -164 -396t-396 -164q-191 0 -335 111l-88 -88q-24 -23 -57 -23t-56.5 23.5t-23.5 56.5z M240 560q0 -124 65 -221l556 555q-97 66 -221 66q-166 0 -283 -117t-117 -283zM419 225q97 -65 221 -65q166 0 283 117t117 283q0 124 -65 221zM480 1280q0 31 20 54l243 243q24 23 57 23t56.5 -23.5t23.5 -56.5q0 -32 -22 -56l-243 -243q-23 -21 -55 -21q-33 0 -56.5 23.5 t-23.5 56.5z" />
<glyph unicode="&#x2c6;" horiz-adv-x="800" d="M80 1320q0 40 40 70l239 159q18 11 41 11t41 -11l239 -159q40 -30 40 -70q0 -33 -23.5 -56.5t-56.5 -23.5q-29 0 -50 17l-190 126l-190 -126q-21 -17 -50 -17q-33 0 -56.5 23.5t-23.5 56.5z" />
<glyph unicode="&#x2c7;" horiz-adv-x="800" d="M80 1480q0 33 23.5 56.5t56.5 23.5q29 0 50 -17l190 -126l190 126q21 17 50 17q33 0 56.5 -23.5t23.5 -56.5q0 -40 -40 -70l-239 -159q-18 -11 -41 -11t-41 11l-239 159q-40 30 -40 70z" />
<glyph unicode="&#x2d8;" horiz-adv-x="800" d="M80 1480q0 33 23.5 56.5t56.5 23.5t56.5 -23.5t23.5 -56.5t47 -56.5t113 -23.5t113.5 23.5t47.5 56.5t23.5 56.5t56.5 23.5t56.5 -23.5t23.5 -56.5q-5 -105 -94 -169q-94 -71 -227 -71t-226.5 70.5t-93.5 169.5z" />
<glyph unicode="&#x2d9;" horiz-adv-x="400" d="M80 1361q0 50 35 85t85 35t85 -35t35 -85t-35 -85t-85 -35t-85 35t-35 85z" />
<glyph unicode="&#x2da;" horiz-adv-x="560" d="M80 1399q0 83 59 142t143 59q83 0 142 -59t59 -142q0 -84 -59 -143t-142 -59q-84 0 -143 59t-59 143zM181 1399q0 -42 29.5 -71.5t71.5 -29.5q41 0 70.5 29.5t29.5 71.5q0 41 -29.5 70.5t-70.5 29.5q-42 0 -71.5 -29.5t-29.5 -70.5z" />
<glyph unicode="&#x2db;" horiz-adv-x="640" d="M80 -240q0 116 102 196q53 44 68 80q20 40 70 41q33 0 57 -23q22 -23 23 -54q0 -13 -2 -23q-15 -73 -123 -151q-35 -28 -35 -66q0 -33 23.5 -56.5t56.5 -23.5q24 0 43 13l69 51q21 16 48 16q33 0 56.5 -23.5t23.5 -56.5q0 -40 -28 -62l-80 -56q-61 -42 -132 -42 q-99 0 -169.5 70.5t-70.5 169.5z" />
<glyph unicode="&#x2dc;" horiz-adv-x="960" d="M71 1391q0 33 23.5 56.5t56.5 23.5q32 0 56 -22q47 -48 113 -48q56 0 100 35q89 80 212 80q133 0 227 -94q22 -24 22 -56q0 -33 -23.5 -56.5t-56.5 -23.5q-32 0 -56 22q-47 48 -113 48q-57 0 -100 -35q-90 -80 -212 -80q-133 0 -227 94q-22 24 -22 56z" />
<glyph unicode="&#x2dd;" horiz-adv-x="720" d="M80 1241q0 11 4 22l91 287q12 30 43 44q16 6 31 6t30 -5q31 -12 44 -42.5t1 -61.5l-128 -272q-17 -36 -56 -38q-37 0 -55 36q-5 12 -5 24zM390 1241q0 11 4 22l91 287q12 30 43 44q16 6 31 6t30 -5q31 -12 44 -42.5t1 -61.5l-128 -272q-17 -36 -56 -38q-37 0 -55 36 q-5 12 -5 24z" />
<glyph unicode="&#x3a9;" horiz-adv-x="1760" d="M80 80q0 33 23.5 56.5t56.5 23.5h143q-30 34 -59 75q-164 234 -164 565t234.5 565.5t565.5 234.5t565.5 -234.5t234.5 -565.5t-164 -565q-29 -41 -59 -75h143q33 0 56.5 -23.5t23.5 -56.5t-23.5 -56.5t-56.5 -23.5h-480q-33 0 -56.5 23.5t-23.5 56.5t23.5 56.5t56.5 23.5 q166 0 283 187.5t117 452.5t-187.5 452.5t-452.5 187.5t-452.5 -187.5t-187.5 -452.5t117 -452.5t283 -187.5q33 0 56.5 -23.5t23.5 -56.5t-23.5 -56.5t-56.5 -23.5h-480q-33 0 -56.5 23.5t-23.5 56.5z" />
<glyph unicode="&#x3c0;" d="M80 1040q0 33 23.5 56.5t56.5 23.5h960q33 0 56.5 -23.5t23.5 -56.5t-23.5 -56.5t-56.5 -23.5h-80v-880q0 -33 -23.5 -56.5t-56.5 -23.5t-56.5 23.5t-23.5 56.5v880h-480v-880q0 -33 -23.5 -56.5t-56.5 -23.5t-56.5 23.5t-23.5 56.5v880h-80q-33 0 -56.5 23.5t-23.5 56.5 z" />
<glyph unicode="&#x401;" d="M80 80v1440q0 33 23.5 56.5t56.5 23.5h960q33 0 56.5 -23.5t23.5 -56.5t-23.5 -56.5t-56.5 -23.5h-880v-560h640q33 0 56.5 -23.5t23.5 -56.5t-23.5 -56.5t-56.5 -23.5h-640v-560h880q33 0 56.5 -23.5t23.5 -56.5t-23.5 -56.5t-56.5 -23.5h-960q-33 0 -56.5 23.5 t-23.5 56.5zM301 1840q0 41 29.5 70.5t70.5 29.5t70.5 -29.5t29.5 -70.5t-29.5 -70.5t-70.5 -29.5t-70.5 29.5t-29.5 70.5zM781 1840q0 41 29.5 70.5t70.5 29.5t70.5 -29.5t29.5 -70.5t-29.5 -70.5t-70.5 -29.5t-70.5 29.5t-29.5 70.5z" />
<glyph unicode="&#x402;" horiz-adv-x="1640" d="M80 1520q0 33 23.5 56.5t56.5 23.5h1040q33 0 56.5 -23.5t23.5 -56.5t-23.5 -56.5t-56.5 -23.5h-440v-602q135 122 320 122q199 0 339.5 -140.5t140.5 -339.5t-140.5 -339.5t-339.5 -140.5q-33 0 -56.5 23.5t-23.5 56.5t23.5 56.5t56.5 23.5q133 0 226.5 93.5t93.5 226.5 t-93.5 226.5t-226.5 93.5t-226 -93q-94 -94 -94 -226v-401q0 -33 -23.5 -56.5t-56.5 -23.5t-56.5 23.5t-23.5 56.5v1360h-440q-33 0 -56.5 23.5t-23.5 56.5z" />
<glyph unicode="&#x403;" horiz-adv-x="1200" d="M80 80q0 7 1 13v1427q0 33 23.5 56.5t56.5 23.5h879q33 0 56.5 -23.5t23.5 -56.5t-23.5 -56.5t-56.5 -23.5h-799v-1361h-1q0 -32 -23 -55q-24 -24 -57 -24t-56.5 23.5t-23.5 56.5zM507 1760q0 31 20 54l243 243q24 23 57 23t56.5 -23.5t23.5 -56.5q0 -32 -22 -56 l-243 -243q-23 -21 -55 -21q-33 0 -56.5 23.5t-23.5 56.5z" />
<glyph unicode="&#x404;" horiz-adv-x="1480" d="M80 800q0 331 234.5 565.5t565.5 234.5q286 0 509 -183q23 -24 23 -57t-23.5 -56.5t-56.5 -23.5t-57 24q-169 136 -395 136q-265 0 -452 -187q-159 -159 -184 -373h716q33 0 56.5 -23.5t23.5 -56.5t-23.5 -56.5t-56.5 -23.5h-716q25 -214 184 -372q187 -188 452 -188 q229 0 400 140q20 14 46 14q33 0 56.5 -23.5t23.5 -56.5t-23 -56q-223 -178 -503 -178q-331 0 -565.5 234.5t-234.5 565.5z" />
<glyph unicode="&#x405;" horiz-adv-x="1060" d="M80 267q0 33 23.5 56.5t56.5 23.5q43 0 68 -37q12 -19 28 -36q85 -102 218 -113q132 -10 233 75.5t112 217.5q11 133 -74.5 233.5t-218.5 111.5q-165 14 -272 140t-94 292q14 165 140 272q113 97 260 97q174 0 304 -143q22 -26 39 -54q12 -19 12 -43q0 -33 -23.5 -56.5 t-56.5 -23.5q-38 0 -56 24t-37 49q-65 76 -163 84q-99 8 -175 -56.5t-84 -162.5q-8 -99 56.5 -175t162.5 -84q199 -17 328 -168q113 -134 113 -304q0 -23 -2 -46q-16 -198 -167 -326q-135 -115 -307 -115q-215 0 -370 170q-21 23 -38 49q-16 21 -16 48z" />
<glyph unicode="&#x406;" horiz-adv-x="480" d="M160 80v1440q0 33 23.5 56.5t56.5 23.5t56.5 -23.5t23.5 -56.5v-1440q0 -33 -23.5 -56.5t-56.5 -23.5t-56.5 23.5t-23.5 56.5z" />
<glyph unicode="&#x407;" horiz-adv-x="480" d="M-99 1840q0 41 29.5 70.5t70.5 29.5t70.5 -29.5t29.5 -70.5t-29.5 -70.5t-70.5 -29.5t-70.5 29.5t-29.5 70.5zM160 80v1440q0 33 23.5 56.5t56.5 23.5t56.5 -23.5t23.5 -56.5v-1440q0 -33 -23.5 -56.5t-56.5 -23.5t-56.5 23.5t-23.5 56.5zM381 1840q0 41 29.5 70.5 t70.5 29.5t70.5 -29.5t29.5 -70.5t-29.5 -70.5t-70.5 -29.5t-70.5 29.5t-29.5 70.5z" />
<glyph unicode="&#x408;" horiz-adv-x="1120" d="M80 480q0 33 23.5 56.5t56.5 23.5t56.5 -23.5t23.5 -56.5q0 -133 93.5 -226.5t226.5 -93.5t226.5 93.5t93.5 226.5v1040q0 33 23.5 56.5t56.5 23.5t56.5 -23.5t23.5 -56.5v-1040q0 -199 -140.5 -339.5t-339.5 -140.5t-339.5 140.5t-140.5 339.5z" />
<glyph unicode="&#x409;" horiz-adv-x="2080" d="M80 80q0 19 7 34l556 1430q6 18 21 33q23 23 56 23t57 -23q14 -15 20 -33l258 -664h505q182 0 311 -129t129 -311t-129 -311t-311 -129h-280q-33 0 -57 23q-11 12 -17 26l-486 1250l-486 -1250q-6 -14 -17 -25q-24 -24 -57 -24t-56.5 23.5t-23.5 56.5zM1117 720l218 -560 h225q116 0 198 82t82 198t-82 198t-198 82h-443z" />
<glyph unicode="&#x40a;" horiz-adv-x="1920" d="M80 80v1440q0 33 23.5 56.5t56.5 23.5t56.5 -23.5t23.5 -56.5v-640h640v640q0 33 23.5 56.5t56.5 23.5t56.5 -23.5t23.5 -56.5v-640h360q182 0 311 -129t129 -311t-129 -311t-311 -129h-440q-33 0 -56.5 23.5t-23.5 56.5v640h-640v-640q0 -33 -23.5 -56.5t-56.5 -23.5 t-56.5 23.5t-23.5 56.5zM1040 160h360q116 0 198 82t82 198t-82 198t-198 82h-360v-560z" />
<glyph unicode="&#x40b;" horiz-adv-x="1640" d="M80 1520q0 33 23.5 56.5t56.5 23.5h1040q33 0 56.5 -23.5t23.5 -56.5t-23.5 -56.5t-56.5 -23.5h-440v-602q135 122 320 122q199 0 339.5 -140.5t140.5 -339.5v-400q0 -33 -23.5 -56.5t-56.5 -23.5t-56.5 23.5t-23.5 56.5v400q0 133 -93.5 226.5t-226.5 93.5t-226 -93 q-94 -94 -94 -226v-401q0 -33 -23.5 -56.5t-56.5 -23.5t-56.5 23.5t-23.5 56.5v1360h-440q-33 0 -56.5 23.5t-23.5 56.5z" />
<glyph unicode="&#x40c;" horiz-adv-x="1200" d="M80 80v1440q0 33 23.5 56.5t56.5 23.5t56.5 -23.5t23.5 -56.5v-686l741 741q26 25 59 25t56.5 -23.5t23.5 -56.5t-23 -57l-562 -562l570 -773q15 -21 15 -45q0 -42 -32 -67q-22 -16 -46 -16q-44 0 -68 34l-554 752l-180 -180v-526q0 -33 -23.5 -56.5t-56.5 -23.5 t-56.5 23.5t-23.5 56.5zM406 1760q0 31 20 54l243 243q24 23 57 23t56.5 -23.5t23.5 -56.5q0 -32 -22 -56l-243 -243q-23 -21 -55 -21q-33 0 -56.5 23.5t-23.5 56.5z" />
<glyph unicode="&#x40e;" horiz-adv-x="1437" d="M80 1520q0 33 23.5 56.5t56.5 23.5q46 0 68 -38l492 -912l492 912q20 38 68 38q33 0 56.5 -23.5t23.5 -56.5q0 -23 -11 -41l-707 -1313q-22 -39 -55 -72q-94 -94 -227 -94q-106 0 -185 58q-38 30 -38 68q0 33 23.5 56.5t56.5 23.5q26 0 46 -15q43 -31 97 -31q66 0 113 47 q19 19 30 41l126 233l-538 998q-11 18 -11 41zM406 1960q0 33 23.5 56.5t56.5 23.5t56.5 -23.5t23.5 -56.5t47 -56.5t113 -23.5t113.5 23.5t47.5 56.5t23.5 56.5t56.5 23.5t56.5 -23.5t23.5 -56.5q-5 -105 -94 -169q-94 -71 -227 -71t-226.5 70.5t-93.5 169.5z" />
<glyph unicode="&#x40f;" d="M80 80v1440q0 33 23.5 56.5t56.5 23.5t56.5 -23.5t23.5 -56.5v-1360h800v1360q0 33 23.5 56.5t56.5 23.5t56.5 -23.5t23.5 -56.5v-1440q0 -33 -23.5 -56.5t-56.5 -23.5h-400v-240q0 -33 -23.5 -56.5t-56.5 -23.5t-56.5 23.5t-23.5 56.5v240h-400q-33 0 -56.5 23.5 t-23.5 56.5z" />
<glyph unicode="&#x410;" horiz-adv-x="1440" d="M80 80q0 19 7 34l556 1430q6 18 21 33q23 23 56 23t57 -23q14 -15 20 -33l556 -1430q7 -15 7 -34q0 -33 -23.5 -56.5t-56.5 -23.5t-56 23q-12 12 -18 26l-199 511h-574l-199 -511q-6 -14 -17 -26q-24 -23 -57 -23t-56.5 23.5t-23.5 56.5zM495 720h450l-225 579z" />
<glyph unicode="&#x411;" horiz-adv-x="1120" d="M80 80v1440q0 33 23.5 56.5t56.5 23.5h640q33 0 56.5 -23.5t23.5 -56.5t-23.5 -56.5t-56.5 -23.5h-560v-480h320q199 0 339.5 -140.5t140.5 -339.5t-140.5 -339.5t-339.5 -140.5h-400q-33 0 -56.5 23.5t-23.5 56.5zM240 160h320q133 0 226.5 93.5t93.5 226.5t-93.5 226.5 t-226.5 93.5h-320v-640z" />
<glyph unicode="&#x412;" horiz-adv-x="1120" d="M80 80v1440q0 33 23.5 56.5t56.5 23.5h320q166 0 283 -117t117 -283t-117 -283q74 -35 137 -97q140 -141 140 -340t-140.5 -339.5t-339.5 -140.5h-400q-33 0 -56.5 23.5t-23.5 56.5zM240 160h320q133 0 226.5 93.5t93.5 226.5t-93.5 226.5t-226.5 93.5h-320v-640z M240 960h240q99 0 169.5 70.5t70.5 169.5t-70.5 169.5t-169.5 70.5h-240v-480z" />
<glyph unicode="&#x413;" horiz-adv-x="1200" d="M80 80q0 7 1 13v1427q0 33 23.5 56.5t56.5 23.5h879q33 0 56.5 -23.5t23.5 -56.5t-23.5 -56.5t-56.5 -23.5h-799v-1361h-1q0 -32 -23 -55q-24 -24 -57 -24t-56.5 23.5t-23.5 56.5z" />
<glyph unicode="&#x414;" horiz-adv-x="1600" d="M80 80q0 33 23.5 56.5t56.5 23.5h25l538 1384q6 18 21 33q23 23 56 23t57 -23q14 -15 20 -33l538 -1384h25q33 0 56.5 -23.5t23.5 -56.5v-320q0 -33 -23.5 -56.5t-56.5 -23.5t-56.5 23.5t-23.5 56.5v240h-1120v-240q0 -33 -23.5 -56.5t-56.5 -23.5t-56.5 23.5t-23.5 56.5 v320zM357 160h886l-443 1139z" />
<glyph unicode="&#x415;" d="M80 80v1440q0 33 23.5 56.5t56.5 23.5h960q33 0 56.5 -23.5t23.5 -56.5t-23.5 -56.5t-56.5 -23.5h-880v-560h640q33 0 56.5 -23.5t23.5 -56.5t-23.5 -56.5t-56.5 -23.5h-640v-560h880q33 0 56.5 -23.5t23.5 -56.5t-23.5 -56.5t-56.5 -23.5h-960q-33 0 -56.5 23.5 t-23.5 56.5z" />
<glyph unicode="&#x416;" horiz-adv-x="2080" d="M80 83q0 24 15 45l570 773l-562 562q-23 24 -23 57t23.5 56.5t56.5 23.5t59 -25l741 -741v686q0 33 23.5 56.5t56.5 23.5t56.5 -23.5t23.5 -56.5v-686l741 741q26 25 59 25t56.5 -23.5t23.5 -56.5t-23 -57l-562 -562l570 -773q15 -21 15 -45q0 -7 -1 -15q-5 -33 -31 -52 q-22 -16 -46 -16q-6 0 -13 1q-33 4 -55 33l-554 752l-180 -180v-526q0 -33 -23.5 -56.5t-56.5 -23.5t-56.5 23.5t-23.5 56.5v526l-180 180l-554 -752q-22 -29 -55 -33q-7 -1 -13 -1q-24 0 -45 16q-27 19 -32 52q-1 8 -1 15z" />
<glyph unicode="&#x417;" horiz-adv-x="1080" d="M80 460q0 33 23.5 56.5t56.5 23.5t56.5 -23.5t23.5 -56.5q0 -124 88 -212t212 -88t212 88t88 212t-88 212t-212 88q-33 0 -56.5 23.5t-23.5 56.5t23.5 56.5t56.5 23.5q108 0 184 76t76 184t-76 184t-184 76t-184 -76t-76 -184q0 -33 -23.5 -56.5t-56.5 -23.5t-56.5 23.5 t-23.5 56.5q0 174 123 297t297 123t297 -123t123 -297t-123 -297q-21 -21 -43 -38q37 -25 72 -59q134 -135 134 -326t-134.5 -325.5t-325.5 -134.5t-325.5 134.5t-134.5 325.5z" />
<glyph unicode="&#x418;" horiz-adv-x="1440" d="M80 80q0 -33 23.5 -56.5t56.5 -23.5q35 0 60 26l980 1260v-1206q0 -33 23.5 -56.5t56.5 -23.5t56.5 23.5t23.5 56.5v1440q0 33 -23.5 56.5t-56.5 23.5q-36 0 -62 -29l-978 -1258v1207q0 33 -23.5 56.5t-56.5 23.5t-56.5 -23.5t-23.5 -56.5v-1440z" />
<glyph unicode="&#x419;" horiz-adv-x="1440" d="M80 80v1440q0 33 23.5 56.5t56.5 23.5t56.5 -23.5t23.5 -56.5v-1207l978 1258q26 29 62 29q33 0 56.5 -23.5t23.5 -56.5v-1440q0 -33 -23.5 -56.5t-56.5 -23.5t-56.5 23.5t-23.5 56.5v1206l-980 -1260q-25 -26 -60 -26q-33 0 -56.5 23.5t-23.5 56.5zM406 1960 q0 33 23.5 56.5t56.5 23.5t56.5 -23.5t23.5 -56.5t47 -56.5t113 -23.5t113.5 23.5t47.5 56.5t23.5 56.5t56.5 23.5t56.5 -23.5t23.5 -56.5q-5 -105 -94 -169q-94 -71 -227 -71t-226.5 70.5t-93.5 169.5z" />
<glyph unicode="&#x41a;" horiz-adv-x="1200" d="M80 80v1440q0 33 23.5 56.5t56.5 23.5t56.5 -23.5t23.5 -56.5v-686l741 741q26 25 59 25t56.5 -23.5t23.5 -56.5t-23 -57l-562 -562l570 -773q15 -21 15 -45q0 -42 -32 -67q-22 -16 -46 -16q-44 0 -68 34l-554 752l-180 -180v-526q0 -33 -23.5 -56.5t-56.5 -23.5 t-56.5 23.5t-23.5 56.5z" />
<glyph unicode="&#x41b;" horiz-adv-x="1440" d="M80 80q0 19 7 34l556 1430q6 18 21 33q23 23 56 23t57 -23q14 -15 20 -33l556 -1430q7 -15 7 -34q0 -33 -23.5 -56.5t-56.5 -23.5t-56 24q-12 11 -18 25l-486 1250l-486 -1250q-6 -14 -17 -25q-24 -24 -57 -24t-56.5 23.5t-23.5 56.5z" />
<glyph unicode="&#x41c;" horiz-adv-x="1920" d="M80 80q0 -33 23.5 -56.5t56.5 -23.5t57 23q13 14 19 30l324 1168l324 -1168q4 -15 20 -30q23 -23 56 -23t57 23q13 14 19 30l324 1168l324 -1168q6 -16 20 -30q23 -23 56 -23t56.5 23.5t23.5 56.5q0 17 -6 35l-392 1418q-8 25 -25 43q-24 24 -57 24t-56 -24 q-18 -18 -25 -42l-319 -1152l-318 1151q-8 25 -25 43q-24 24 -57 24t-56 -24q-18 -18 -25 -42l-393 -1419q-6 -18 -6 -35z" />
<glyph unicode="&#x41d;" d="M80 80v1440q0 33 23.5 56.5t56.5 23.5t56.5 -23.5t23.5 -56.5v-640h800v640q0 33 23.5 56.5t56.5 23.5t56.5 -23.5t23.5 -56.5v-1440q0 -33 -23.5 -56.5t-56.5 -23.5t-56.5 23.5t-23.5 56.5v640h-800v-640q0 -33 -23.5 -56.5t-56.5 -23.5t-56.5 23.5t-23.5 56.5z" />
<glyph unicode="&#x41e;" horiz-adv-x="1760" d="M80 800q0 331 234.5 565.5t565.5 234.5t565.5 -234.5t234.5 -565.5t-234.5 -565.5t-565.5 -234.5t-565.5 234.5t-234.5 565.5zM240 800q0 -265 187.5 -452.5t452.5 -187.5t452.5 187.5t187.5 452.5t-187.5 452.5t-452.5 187.5t-452.5 -187.5t-187.5 -452.5z" />
<glyph unicode="&#x41f;" d="M80 80v1440q0 33 23.5 56.5t56.5 23.5h960q33 0 56.5 -23.5t23.5 -56.5v-1440q0 -33 -23.5 -56.5t-56.5 -23.5t-56.5 23.5t-23.5 56.5v1360h-800v-1360q0 -33 -23.5 -56.5t-56.5 -23.5t-56.5 23.5t-23.5 56.5z" />
<glyph unicode="&#x420;" horiz-adv-x="1080" d="M80 80v1440q0 33 23.5 56.5t56.5 23.5h320q215 0 367.5 -152.5t152.5 -367.5t-152.5 -367.5t-367.5 -152.5h-240v-480q0 -33 -23.5 -56.5t-56.5 -23.5t-56.5 23.5t-23.5 56.5zM240 720h240q149 0 254.5 105.5t105.5 254.5t-105.5 254.5t-254.5 105.5h-240v-720z" />
<glyph unicode="&#x421;" horiz-adv-x="1480" d="M80 800q0 331 234.5 565.5t565.5 234.5q286 0 509 -183q23 -24 23 -57t-23.5 -56.5t-56.5 -23.5t-57 24q-169 136 -395 136q-265 0 -452.5 -187.5t-187.5 -452.5t187.5 -452.5t452.5 -187.5q229 0 400 140q20 14 46 14q33 0 56.5 -23.5t23.5 -56.5t-23 -56 q-223 -178 -503 -178q-331 0 -565.5 234.5t-234.5 565.5z" />
<glyph unicode="&#x422;" horiz-adv-x="1360" d="M80 1520q0 33 23.5 56.5t56.5 23.5h1040q33 0 56.5 -23.5t23.5 -56.5t-23.5 -56.5t-56.5 -23.5h-440v-1360q0 -33 -23.5 -56.5t-56.5 -23.5t-56.5 23.5t-23.5 56.5v1360h-440q-33 0 -56.5 23.5t-23.5 56.5z" />
<glyph unicode="&#x423;" horiz-adv-x="1437" d="M80 1520q0 33 23.5 56.5t56.5 23.5q46 0 68 -38l492 -912l492 912q20 38 68 38q33 0 56.5 -23.5t23.5 -56.5q0 -23 -11 -41l-707 -1313q-22 -39 -55 -72q-94 -94 -227 -94q-106 0 -185 58q-38 30 -38 68q0 33 23.5 56.5t56.5 23.5q26 0 46 -15q43 -31 97 -31q66 0 113 47 q19 19 30 41l126 233l-538 998q-11 18 -11 41z" />
<glyph unicode="&#x424;" horiz-adv-x="1760" d="M80 800q0 265 235 453q205 164 485 184v83q0 33 23.5 56.5t56.5 23.5t56.5 -23.5t23.5 -56.5v-83q280 -20 486 -184q234 -188 234 -453t-234 -452q-206 -165 -486 -185v-83q0 -33 -23.5 -56.5t-56.5 -23.5t-56.5 23.5t-23.5 56.5v83q-280 20 -485 185q-235 187 -235 452z M240 800q0 -199 188 -339q158 -119 372 -138v954q-214 -19 -372 -137q-188 -141 -188 -340zM960 323q214 19 373 138q187 140 187 339t-187 340q-159 118 -373 137v-954z" />
<glyph unicode="&#x425;" horiz-adv-x="1440" d="M80 80q0 28 17 50l521 670l-524 674q-14 20 -14 46q0 33 23.5 56.5t56.5 23.5q38 0 66 -34l494 -635l494 635q28 34 66 34q33 0 56.5 -23.5t23.5 -56.5q0 -26 -14 -46l-524 -674l521 -670q17 -22 17 -50q0 -33 -23.5 -56.5t-56.5 -23.5q-38 0 -61 28l-499 641l-499 -641 q-23 -28 -61 -28q-33 0 -56.5 23.5t-23.5 56.5z" />
<glyph unicode="&#x426;" horiz-adv-x="1440" d="M80 80v1440q0 33 23.5 56.5t56.5 23.5t56.5 -23.5t23.5 -56.5v-1360h800v1360q0 33 23.5 56.5t56.5 23.5t56.5 -23.5t23.5 -56.5v-1360h80q33 0 56.5 -23.5t23.5 -56.5q0 -189 -76 -346q-6 -17 -19 -30q-24 -24 -57 -24t-56.5 23.5t-23.5 56.5q0 21 9 38q39 72 54 202 h-1031q-33 0 -56.5 23.5t-23.5 56.5z" />
<glyph unicode="&#x427;" d="M80 1120v400q0 33 23.5 56.5t56.5 23.5t56.5 -23.5t23.5 -56.5v-400q0 -166 117 -283t283 -117t283 117t117 283v400q0 33 23.5 56.5t56.5 23.5t56.5 -23.5t23.5 -56.5v-1440q0 -33 -23.5 -56.5t-56.5 -23.5t-56.5 23.5t-23.5 56.5v648l-4 -4q-164 -164 -396 -164 t-396 164t-164 396z" />
<glyph unicode="&#x428;" horiz-adv-x="1600" d="M80 80v1440q0 33 23.5 56.5t56.5 23.5t56.5 -23.5t23.5 -56.5v-1360h480v1360q0 33 23.5 56.5t56.5 23.5t56.5 -23.5t23.5 -56.5v-1360h480v1360q0 33 23.5 56.5t56.5 23.5t56.5 -23.5t23.5 -56.5v-1440q0 -33 -23.5 -56.5t-56.5 -23.5h-1280q-33 0 -56.5 23.5 t-23.5 56.5z" />
<glyph unicode="&#x429;" horiz-adv-x="1760" d="M80 80v1440q0 33 23.5 56.5t56.5 23.5t56.5 -23.5t23.5 -56.5v-1360h480v1360q0 33 23.5 56.5t56.5 23.5t56.5 -23.5t23.5 -56.5v-1360h480v1360q0 33 23.5 56.5t56.5 23.5t56.5 -23.5t23.5 -56.5v-1360h80q33 0 56.5 -23.5t23.5 -56.5q0 -189 -76 -346q-6 -17 -19 -30 q-24 -24 -57 -24t-56.5 23.5t-23.5 56.5q0 21 9 38q39 72 54 202h-1351q-33 0 -56.5 23.5t-23.5 56.5z" />
<glyph unicode="&#x42a;" horiz-adv-x="1360" d="M0 1520q0 33 23.5 56.5t56.5 23.5h320q33 0 56.5 -23.5t23.5 -56.5v-640h360q182 0 311 -129t129 -311t-129 -311t-311 -129h-440q-33 0 -56.5 23.5t-23.5 56.5v1360h-240q-33 0 -56.5 23.5t-23.5 56.5zM480 160h360q116 0 198 82t82 198t-82 198t-198 82h-360v-560z" />
<glyph unicode="&#x42b;" horiz-adv-x="1440" d="M80 80v1440q0 33 23.5 56.5t56.5 23.5t56.5 -23.5t23.5 -56.5v-640h360q182 0 311 -129t129 -311t-129 -311t-311 -129h-440q-33 0 -56.5 23.5t-23.5 56.5zM240 160h360q116 0 198 82t82 198t-82 198t-198 82h-360v-560zM1200 80v1440q0 33 23.5 56.5t56.5 23.5 t56.5 -23.5t23.5 -56.5v-1440q0 -33 -23.5 -56.5t-56.5 -23.5t-56.5 23.5t-23.5 56.5z" />
<glyph unicode="&#x42c;" horiz-adv-x="1120" d="M80 80v1440q0 33 23.5 56.5t56.5 23.5t56.5 -23.5t23.5 -56.5v-640h360q182 0 311 -129t129 -311t-129 -311t-311 -129h-440q-33 0 -56.5 23.5t-23.5 56.5zM240 160h360q116 0 198 82t82 198t-82 198t-198 82h-360v-560z" />
<glyph unicode="&#x42d;" horiz-adv-x="1480" d="M80 1360q0 -33 23.5 -56.5t56.5 -23.5t57 24q169 136 395 136q265 0 452 -187q159 -159 184 -373h-716q-33 0 -56.5 -23.5t-23.5 -56.5t23.5 -56.5t56.5 -23.5h716q-25 -214 -184 -372q-187 -188 -452 -188q-229 0 -400 140q-20 14 -46 14q-33 0 -56.5 -23.5t-23.5 -56.5 t23 -56q223 -178 503 -178q331 0 565.5 234.5t234.5 565.5t-234.5 565.5t-565.5 234.5q-286 0 -509 -183q-23 -24 -23 -57z" />
<glyph unicode="&#x42e;" horiz-adv-x="2080" d="M80 80v1440q0 33 23.5 56.5t56.5 23.5t56.5 -23.5t23.5 -56.5v-640h164q25 280 231 486q234 234 565 234t565.5 -234.5t234.5 -565.5t-234.5 -565.5t-565.5 -234.5t-565 235q-206 205 -231 485h-164v-640q0 -33 -23.5 -56.5t-56.5 -23.5t-56.5 23.5t-23.5 56.5zM560 800 q0 -265 187.5 -452.5t452.5 -187.5t452.5 187.5t187.5 452.5t-187.5 452.5t-452.5 187.5t-452.5 -187.5t-187.5 -452.5z" />
<glyph unicode="&#x42f;" horiz-adv-x="1200" d="M80 80q0 -33 23.5 -56.5t56.5 -23.5q43 0 70 41l375 600q17 -1 35 -1h320v-560q0 -33 23.5 -56.5t56.5 -23.5t56.5 23.5t23.5 56.5v1440q0 33 -23.5 56.5t-56.5 23.5h-400q-199 0 -339.5 -140.5t-140.5 -339.5t140 -339q65 -65 141 -99l-348 -558q-13 -19 -13 -44z M320 1120q0 133 93.5 226.5t226.5 93.5h320v-640h-320q-133 0 -226.5 93.5t-93.5 226.5z" />
<glyph unicode="&#x430;" d="M80 560q0 232 164 396t396 164t396 -164t164 -396v-480q0 -33 -23.5 -56.5t-56.5 -23.5t-56.5 23.5t-23.5 56.5v88q-168 -168 -400 -168t-396 164t-164 396zM240 560q0 -166 117 -283t283 -117t283 117t117 283t-117 283t-283 117t-283 -117t-117 -283z" />
<glyph unicode="&#x431;" d="M80 560v400q0 232 164 396t396 164h46q174 0 318 72q16 8 36 8q33 0 56.5 -23.5t23.5 -56.5t-23 -56q-10 -10 -21 -16q-176 -88 -390 -88h-46q-166 0 -283 -117t-117 -283v-8l4 4q164 164 396 164t396 -164t164 -396t-164 -396t-396 -164t-396 164t-164 396zM240 560 q0 -166 117 -283t283 -117t283 117t117 283t-117 283t-283 117t-283 -117t-117 -283z" />
<glyph unicode="&#x432;" horiz-adv-x="1040" d="M80 80v960q0 33 23.5 56.5t56.5 23.5h400q133 0 226.5 -93.5t93.5 -226.5q0 -118 -74 -205q32 -20 61 -48q93 -94 93 -227t-93.5 -226.5t-226.5 -93.5h-480q-33 0 -56.5 23.5t-23.5 56.5zM240 160h400q66 0 113 47t47 113t-47 113t-113 47h-400v-320zM240 640h320 q66 0 113 47t47 113t-47 113t-113 47h-320v-320z" />
<glyph unicode="&#x433;" horiz-adv-x="880" d="M80 80v720q0 133 93.5 226.5t226.5 93.5h320q33 0 56.5 -23.5t23.5 -56.5t-23.5 -56.5t-56.5 -23.5h-320q-66 0 -113 -47t-47 -113v-720q0 -33 -23.5 -56.5t-56.5 -23.5t-56.5 23.5t-23.5 56.5z" />
<glyph unicode="&#x434;" d="M80 560q0 232 164 396t396 164t396 -164t164 -396v-560q0 -175 -126 -304q-176 -176 -425 -176t-424 176q-65 64 -106 139q-12 18 -12 42q0 33 23.5 56.5t56.5 23.5t57 -23q10 -11 17 -24q30 -54 77 -101q129 -129 311 -129t311 129q80 96 80 191v168l-4 -4 q-164 -164 -396 -164t-396 164t-164 396zM240 560q0 -166 117 -283t283 -117t283 117t117 283t-117 283t-283 117t-283 -117t-117 -283z" />
<glyph unicode="&#x435;" d="M80 560q0 232 164 396t396 164t396 -164t164 -396q0 -33 -23.5 -56.5t-56.5 -23.5h-873q22 -115 110 -203q117 -117 283 -117q150 0 258 95q22 17 50 17q33 0 56.5 -23.5t23.5 -56.5t-23 -57q-155 -135 -365 -135q-232 0 -396 164t-164 396zM247 640h786 q-22 115 -110 203q-117 117 -283 117t-283 -117q-88 -88 -110 -203z" />
<glyph unicode="&#x436;" horiz-adv-x="1760" d="M80 80q0 33 23 57l497 426l-497 421q-23 23 -23 56t23.5 56.5t56.5 23.5q31 0 53 -20l587 -497v437q0 33 23.5 56.5t56.5 23.5t56.5 -23.5t23.5 -56.5v-437l587 497q22 20 53 20q33 0 56.5 -23.5t23.5 -56.5t-23 -56l-497 -421l497 -426q23 -24 23 -57t-23.5 -56.5 t-56.5 -23.5q-30 0 -52 19l-512 439l-76 -65v-313q0 -33 -23.5 -56.5t-56.5 -23.5t-56.5 23.5t-23.5 56.5v313l-76 65l-512 -439q-22 -19 -52 -19q-33 0 -56.5 23.5t-23.5 56.5z" />
<glyph unicode="&#x437;" horiz-adv-x="960" d="M109 901q0 24 12 43q28 44 76 83q117 93 283 93t283 -88.5t117 -221.5t-135 -210q135 -117 135 -270q0 -133 -117 -231.5t-283 -98.5t-283 94q-43 34 -70 73q-16 21 -16 48q0 33 23.5 56.5t56.5 23.5q41 0 65 -33q33 -41 55 -55q70 -47 169 -47t169.5 52t70.5 118 q0 76 -70.5 133t-169.5 57q-33 0 -56.5 23.5t-23.5 56.5t23.5 56.5t56.5 23.5q99 0 169.5 37t70.5 93q0 66 -70.5 108t-169.5 42t-169 -47q-33 -24 -53 -53q-5 -8 -12 -15q-24 -24 -57 -24t-56.5 23.5t-23.5 56.5z" />
<glyph unicode="&#x438;" horiz-adv-x="1200" d="M80 520v520q0 33 23.5 56.5t56.5 23.5t56.5 -23.5t23.5 -56.5v-520q0 -149 105.5 -254.5t254.5 -105.5t254.5 105.5t105.5 254.5v520q0 33 23.5 56.5t56.5 23.5t56.5 -23.5t23.5 -56.5v-960q0 -33 -23.5 -56.5t-56.5 -23.5t-56.5 23.5t-23.5 56.5v65q-150 -145 -360 -145 q-215 0 -367.5 152.5t-152.5 367.5z" />
<glyph unicode="&#x439;" horiz-adv-x="1200" d="M80 520v520q0 33 23.5 56.5t56.5 23.5t56.5 -23.5t23.5 -56.5v-520q0 -149 105.5 -254.5t254.5 -105.5t254.5 105.5t105.5 254.5v520q0 33 23.5 56.5t56.5 23.5t56.5 -23.5t23.5 -56.5v-960q0 -33 -23.5 -56.5t-56.5 -23.5t-56.5 23.5t-23.5 56.5v65q-150 -145 -360 -145 q-215 0 -367.5 152.5t-152.5 367.5zM286 1480q0 33 23.5 56.5t56.5 23.5t56.5 -23.5t23.5 -56.5t47 -56.5t113 -23.5t113.5 23.5t47.5 56.5t23.5 56.5t56.5 23.5t56.5 -23.5t23.5 -56.5q-5 -105 -94 -169q-94 -71 -227 -71t-226.5 70.5t-93.5 169.5z" />
<glyph unicode="&#x43a;" horiz-adv-x="1040" d="M80 80v960q0 33 23.5 56.5t56.5 23.5t56.5 -23.5t23.5 -56.5v-437l587 497q22 20 53 20q33 0 56.5 -23.5t23.5 -56.5t-23 -56l-497 -421l497 -426q23 -24 23 -57t-23.5 -56.5t-56.5 -23.5q-30 0 -52 19l-512 439l-76 -65v-313q0 -33 -23.5 -56.5t-56.5 -23.5t-56.5 23.5 t-23.5 56.5z" />
<glyph unicode="&#x43b;" horiz-adv-x="1200" d="M80 78q0 -33 23.5 -56.5t56.5 -23.5t57 23q8 8 15 21l368 804l368 -804q7 -13 16 -21q23 -23 56 -23t56.5 23.5t23.5 56.5q0 17 -6 31l-444 967q-6 13 -13 20q-22 22 -57 22t-57 -23q-7 -6 -13 -19l-444 -967q-6 -14 -6 -31z" />
<glyph unicode="&#x43c;" horiz-adv-x="1600" d="M80 79q0 -33 23.5 -56.5t56.5 -23.5t57 23q10 11 16 23l247 741l242 -727q7 -21 22 -37q23 -23 56 -23t57 23q15 16 21 37l242 727l247 -741q6 -12 17 -23q23 -23 56 -23t56.5 23.5t23.5 56.5q0 16 -6 31l-319 958q-6 15 -18 29q-24 22 -57 22t-56 -22q-13 -14 -19 -29 l-245 -736l-245 736q-6 15 -18 29q-24 22 -57 22t-56 -22q-13 -14 -19 -29l-319 -958q-6 -15 -6 -31z" />
<glyph unicode="&#x43d;" horiz-adv-x="1080" d="M80 80v960q0 33 23.5 56.5t56.5 23.5t56.5 -23.5t23.5 -56.5v-400h600v400q0 33 23.5 56.5t56.5 23.5t56.5 -23.5t23.5 -56.5v-960q0 -33 -23.5 -56.5t-56.5 -23.5t-56.5 23.5t-23.5 56.5v400h-600v-400q0 -33 -23.5 -56.5t-56.5 -23.5t-56.5 23.5t-23.5 56.5z" />
<glyph unicode="&#x43e;" d="M80 560q0 232 164 396t396 164t396 -164t164 -396t-164 -396t-396 -164t-396 164t-164 396zM240 560q0 -166 117 -283t283 -117t283 117t117 283t-117 283t-283 117t-283 -117t-117 -283z" />
<glyph unicode="&#x43f;" horiz-adv-x="1200" d="M80 80v960q0 33 23.5 56.5t56.5 23.5t56.5 -23.5t23.5 -56.5v-65q150 145 360 145q215 0 367.5 -152.5t152.5 -367.5v-520q0 -33 -23.5 -56.5t-56.5 -23.5t-56.5 23.5t-23.5 56.5v520q0 149 -105.5 254.5t-254.5 105.5t-254.5 -105.5t-105.5 -254.5v-520 q0 -33 -23.5 -56.5t-56.5 -23.5t-56.5 23.5t-23.5 56.5z" />
<glyph unicode="&#x440;" d="M80 -400v960q0 232 164 396t396 164t396 -164t164 -396t-164 -396t-396 -164t-396 164l-4 4v-568q0 -33 -23.5 -56.5t-56.5 -23.5t-56.5 23.5t-23.5 56.5zM240 560q0 -166 117 -283t283 -117t283 117t117 283t-117 283t-283 117t-283 -117t-117 -283z" />
<glyph unicode="&#x441;" horiz-adv-x="1120" d="M80 560q0 232 164 396t396 164q210 0 365 -135q28 -25 28 -62q0 -33 -23.5 -56.5t-56.5 -23.5q-29 0 -51 18q-112 99 -262 99q-166 0 -283 -117t-117 -283t117 -283t283 -117q150 0 261 98q21 16 49 16q33 0 56.5 -23.5t23.5 -56.5t-25 -59q-155 -135 -365 -135 q-232 0 -396 164t-164 396z" />
<glyph unicode="&#x442;" horiz-adv-x="1760" d="M80 80v960q0 33 23.5 56.5t56.5 23.5t56.5 -23.5t23.5 -56.5v-21q119 101 280 101q182 0 311 -129q27 -27 49 -57q22 30 49 57q129 129 311 129t311 -129t129 -311v-600q0 -33 -23.5 -56.5t-56.5 -23.5t-56.5 23.5t-23.5 56.5v600q0 116 -82 198t-198 82t-198 -82 t-82 -198v-600q0 -33 -23.5 -56.5t-56.5 -23.5t-56.5 23.5t-23.5 56.5v600q0 116 -82 198t-198 82t-198 -82t-82 -198v-600q0 -33 -23.5 -56.5t-56.5 -23.5t-56.5 23.5t-23.5 56.5z" />
<glyph unicode="&#x443;" horiz-adv-x="1120" d="M80 1040q0 33 23.5 56.5t56.5 23.5t57 -23q13 -14 19 -30l324 -777l324 777q6 16 20 30q23 23 56 23t56.5 -23.5t23.5 -56.5q0 -20 -9 -37l-596 -1430q-6 -16 -19 -29q-24 -24 -57 -24t-56.5 23.5t-23.5 56.5q0 20 9 37l185 444l-384 922q-9 17 -9 37z" />
<glyph unicode="&#x444;" horiz-adv-x="1920" d="M80 560q0 232 140.5 396t339.5 164q185 0 320 -142v542q0 33 23.5 56.5t56.5 23.5t56.5 -23.5t23.5 -56.5v-542q135 142 320 142q199 0 339.5 -164t140.5 -396t-140.5 -396t-339.5 -164q-185 0 -320 142v-542q0 -33 -23.5 -56.5t-56.5 -23.5t-56.5 23.5t-23.5 56.5v542 q-135 -142 -320 -142q-199 0 -339.5 164t-140.5 396zM240 560q0 -166 93.5 -283t226.5 -117t226.5 117t93.5 283t-93.5 283t-226.5 117t-226.5 -117t-93.5 -283zM1040 560q0 -166 93.5 -283t226.5 -117t226.5 117t93.5 283t-93.5 283t-226.5 117t-226.5 -117t-93.5 -283z " />
<glyph unicode="&#x445;" horiz-adv-x="1120" d="M80 80q0 28 16 49l360 432l-357 427q-19 22 -19 52q0 33 23.5 56.5t56.5 23.5t59 -25l341 -409l341 409q26 25 59 25t56.5 -23.5t23.5 -56.5q0 -30 -19 -52l-357 -427l360 -432q16 -21 16 -49q0 -33 -23.5 -56.5t-56.5 -23.5t-56 24l-344 412l-344 -412q-23 -24 -56 -24 t-56.5 23.5t-23.5 56.5z" />
<glyph unicode="&#x446;" horiz-adv-x="1360" d="M80 520v520q0 33 23.5 56.5t56.5 23.5t56.5 -23.5t23.5 -56.5v-520q0 -149 105.5 -254.5t254.5 -105.5t254.5 105.5t105.5 254.5v520q0 33 23.5 56.5t56.5 23.5t56.5 -23.5t23.5 -56.5v-880h80q33 0 56.5 -23.5t23.5 -56.5q0 -189 -76 -346q-6 -17 -19 -30 q-24 -24 -57 -24t-56.5 23.5t-23.5 56.5q0 21 9 38q46 94 59 202h-76q-33 0 -56.5 23.5t-23.5 56.5v65q-150 -145 -360 -145q-215 0 -367.5 152.5t-152.5 367.5z" />
<glyph unicode="&#x447;" horiz-adv-x="1040" d="M80 800v240q0 33 23.5 56.5t56.5 23.5t56.5 -23.5t23.5 -56.5v-240q0 -116 82 -198t198 -82t198 82t82 197v241q0 33 23.5 56.5t56.5 23.5t56.5 -23.5t23.5 -56.5v-960q0 -33 -23.5 -56.5t-56.5 -23.5t-56.5 23.5t-23.5 56.5v381q-119 -101 -280 -101q-182 0 -311 129 t-129 311z" />
<glyph unicode="&#x448;" horiz-adv-x="1760" d="M80 440v600q0 33 23.5 56.5t56.5 23.5t56.5 -23.5t23.5 -56.5v-600q0 -116 82 -198t198 -82t198 82t82 198v600q0 33 23.5 56.5t56.5 23.5t56.5 -23.5t23.5 -56.5v-600q0 -116 82 -198t198 -82t198 82t82 198v600q0 33 23.5 56.5t56.5 23.5t56.5 -23.5t23.5 -56.5v-960 q0 -33 -23.5 -56.5t-56.5 -23.5t-56.5 23.5t-23.5 56.5v21q-119 -101 -280 -101q-182 0 -311 129q-27 27 -49 57q-22 -30 -49 -57q-129 -129 -311 -129t-311 129t-129 311z" />
<glyph unicode="&#x449;" horiz-adv-x="1920" d="M80 440v600q0 33 23.5 56.5t56.5 23.5t56.5 -23.5t23.5 -56.5v-600q0 -116 82 -198t198 -82t198 82t82 198v600q0 33 23.5 56.5t56.5 23.5t56.5 -23.5t23.5 -56.5v-600q0 -116 82 -198t198 -82t198 82t82 198v600q0 33 23.5 56.5t56.5 23.5t56.5 -23.5t23.5 -56.5v-880 h80q33 0 56.5 -23.5t23.5 -56.5q0 -189 -76 -346q-6 -17 -19 -30q-24 -24 -57 -24t-56.5 23.5t-23.5 56.5q0 21 9 38q46 94 59 202h-76q-33 0 -56.5 23.5t-23.5 56.5v21q-119 -101 -280 -101q-182 0 -311 129q-27 27 -49 57q-22 -30 -49 -57q-129 -129 -311 -129t-311 129 t-129 311z" />
<glyph unicode="&#x44a;" d="M40 1040q0 33 23.5 56.5t56.5 23.5h320q33 0 56.5 -23.5t23.5 -56.5v-400h360q133 0 226.5 -93.5t93.5 -226.5t-93.5 -226.5t-226.5 -93.5h-440q-33 0 -56.5 23.5t-23.5 56.5v880h-240q-33 0 -56.5 23.5t-23.5 56.5zM520 160h360q66 0 113 47t47 113t-47 113t-113 47 h-360v-320z" />
<glyph unicode="&#x44b;" d="M80 80v962q1 32 24 55t56 23t56.5 -23.5t23.5 -56.5v-400h360q133 0 226.5 -93.5t93.5 -226.5t-93.5 -226.5t-226.5 -93.5h-440q-33 0 -56.5 23.5t-23.5 56.5zM240 160h360q66 0 113 47t47 113t-47 113t-113 47h-360v-320zM1041 80v960q0 33 23.5 56.5t56.5 23.5 t56.5 -23.5t23.5 -56.5v-960q0 -33 -23.5 -56.5t-56.5 -23.5t-56.5 23.5t-23.5 56.5z" />
<glyph unicode="&#x44c;" horiz-adv-x="1000" d="M80 80v962q1 32 24 55t56 23t56.5 -23.5t23.5 -56.5v-400h360q133 0 226.5 -93.5t93.5 -226.5t-93.5 -226.5t-226.5 -93.5h-440q-33 0 -56.5 23.5t-23.5 56.5zM240 160h360q66 0 113 47t47 113t-47 113t-113 47h-360v-320z" />
<glyph unicode="&#x44d;" horiz-adv-x="1120" d="M80 923q0 37 28 62q155 135 365 135q232 0 396 -164t164 -396t-164 -396t-396 -164q-210 0 -365 135q-25 26 -25 59t23.5 56.5t56.5 23.5q28 0 49 -16q111 -98 261 -98q166 0 283 117q88 88 110 203h-466q-33 0 -56.5 23.5t-23.5 56.5t23.5 56.5t56.5 23.5h466 q-22 115 -110 203q-117 117 -283 117q-150 0 -262 -99q-22 -18 -51 -18q-33 0 -56.5 23.5t-23.5 56.5z" />
<glyph unicode="&#x44e;" horiz-adv-x="1600" d="M80 80v960q0 33 23.5 56.5t56.5 23.5t56.5 -23.5t23.5 -56.5v-400h165q24 181 159 316q164 164 396 164t396 -164t164 -396t-164 -396t-396 -164t-396 164q-135 135 -159 316h-165v-400q0 -33 -23.5 -56.5t-56.5 -23.5t-56.5 23.5t-23.5 56.5zM560 560q0 -166 117 -283 t283 -117t283 117t117 283t-117 283t-283 117t-283 -117t-117 -283z" />
<glyph unicode="&#x44f;" horiz-adv-x="1000" d="M40 80q0 25 13 44l182 344q16 30 39 57q-32 20 -60 49q-94 93 -94 226t93.5 226.5t226.5 93.5h400q33 0 56.5 -23.5t23.5 -56.5v-960q0 -33 -23.5 -56.5t-56.5 -23.5t-56.5 23.5t-23.5 56.5v400h-240q-66 0 -113 -47q-19 -19 -30 -41l-183 -342q-6 -15 -17 -26 q-24 -24 -57 -24t-56.5 23.5t-23.5 56.5zM280 800q0 -66 47 -113t113 -47h320v320h-320q-66 0 -113 -47t-47 -113z" />
<glyph unicode="&#x451;" d="M80 560q0 232 164 396t396 164t396 -164t164 -396q0 -33 -23.5 -56.5t-56.5 -23.5h-873q22 -115 110 -203q117 -117 283 -117q150 0 258 95q22 17 50 17q33 0 56.5 -23.5t23.5 -56.5t-23 -57q-155 -135 -365 -135q-232 0 -396 164t-164 396zM247 640h786 q-22 115 -110 203q-117 117 -283 117t-283 -117q-88 -88 -110 -203zM300 1360q0 41 29.5 70.5t70.5 29.5t70.5 -29.5t29.5 -70.5t-29.5 -70.5t-70.5 -29.5t-70.5 29.5t-29.5 70.5zM780 1360q0 41 29.5 70.5t70.5 29.5t70.5 -29.5t29.5 -70.5t-29.5 -70.5t-70.5 -29.5 t-70.5 29.5t-29.5 70.5z" />
<glyph unicode="&#x452;" horiz-adv-x="1320" d="M40 1360q0 33 23.5 56.5t56.5 23.5h80v80q0 33 23.5 56.5t56.5 23.5t56.5 -23.5t23.5 -56.5v-80h320q33 0 56.5 -23.5t23.5 -56.5t-23.5 -56.5t-56.5 -23.5h-320v-305q150 145 360 145q215 0 367.5 -152.5t152.5 -367.5v-760q0 -133 -93.5 -226.5t-226.5 -93.5 q-63 0 -111 19q-14 6 -25 18q-24 23 -24 56t23.5 56.5t56.5 23.5q16 0 30 -6q23 -7 50 -7q66 0 113 47t47 113v760q0 149 -105.5 254.5t-254.5 105.5t-254.5 -105.5t-105.5 -254.5v-520q0 -33 -23.5 -56.5t-56.5 -23.5t-56.5 23.5t-23.5 56.5v1200h-80q-33 0 -56.5 23.5 t-23.5 56.5z" />
<glyph unicode="&#x453;" horiz-adv-x="880" d="M80 80v720q0 133 93.5 226.5t226.5 93.5h320q33 0 56.5 -23.5t23.5 -56.5t-23.5 -56.5t-56.5 -23.5h-320q-66 0 -113 -47t-47 -113v-720q0 -33 -23.5 -56.5t-56.5 -23.5t-56.5 23.5t-23.5 56.5zM307 1280q0 31 20 54l243 243q24 23 57 23t56.5 -23.5t23.5 -56.5 q0 -32 -22 -56l-243 -243q-23 -21 -55 -21q-33 0 -56.5 23.5t-23.5 56.5z" />
<glyph unicode="&#x454;" horiz-adv-x="1120" d="M85 560q0 -232 164 -396t396 -164q210 0 365 135q25 26 25 59t-23.5 56.5t-56.5 23.5q-28 0 -49 -16q-111 -98 -261 -98q-166 0 -283 117q-88 88 -110 203h466q33 0 56.5 23.5t23.5 56.5t-23.5 56.5t-56.5 23.5h-466q22 115 110 203q117 117 283 117q150 0 262 -99 q22 -18 51 -18q33 0 56.5 23.5t23.5 56.5q0 37 -28 62q-155 135 -365 135q-232 0 -396 -164t-164 -396z" />
<glyph unicode="&#x455;" horiz-adv-x="1060" d="M80 800q0 99 74 173q144 147 376 147q251 0 430 -201q16 -19 15 -47q0 -33 -23.5 -56.5t-56.5 -23.5t-53 21t-29 30q-117 117 -283 117t-265 -104q-24 -29 -24 -69q3 -47 49 -64l492 -163q91 -34 127 -71q71 -70 71 -169t-74 -173q-144 -147 -376 -147q-252 0 -430 201 q-15 21 -15 47q0 33 23.5 56.5t56.5 23.5t53 -21t29 -30q117 -117 283 -117t265 104q24 29 24 69q-3 47 -49 64l-492 163q-91 34 -127 71q-71 70 -71 169z" />
<glyph unicode="&#x456;" horiz-adv-x="480" d="M140 1360q0 41 29.5 70.5t70.5 29.5t70.5 -29.5t29.5 -70.5t-29.5 -70.5t-70.5 -29.5t-70.5 29.5t-29.5 70.5zM160 80v960q0 33 23.5 56.5t56.5 23.5t56.5 -23.5t23.5 -56.5v-960q0 -33 -23.5 -56.5t-56.5 -23.5t-56.5 23.5t-23.5 56.5z" />
<glyph unicode="&#x457;" horiz-adv-x="600" d="M-39 1360q0 41 29.5 70.5t70.5 29.5t70.5 -29.5t29.5 -70.5t-29.5 -70.5t-70.5 -29.5t-70.5 29.5t-29.5 70.5zM220 80v960q0 33 23.5 56.5t56.5 23.5t56.5 -23.5t23.5 -56.5v-960q0 -33 -23.5 -56.5t-56.5 -23.5t-56.5 23.5t-23.5 56.5zM441 1360q0 41 29.5 70.5 t70.5 29.5t70.5 -29.5t29.5 -70.5t-29.5 -70.5t-70.5 -29.5t-70.5 29.5t-29.5 70.5z" />
<glyph unicode="&#x458;" horiz-adv-x="656" d="M0 -400q0 33 23.5 56.5t56.5 23.5q133 0 226.5 93.5t93.5 226.5v1040q0 33 23.5 56.5t56.5 23.5t56.5 -23.5t23.5 -56.5v-1040q0 -199 -140.5 -339.5t-339.5 -140.5q-33 0 -56.5 23.5t-23.5 56.5zM380 1360q0 41 29.5 70.5t70.5 29.5t70.5 -29.5t29.5 -70.5t-29.5 -70.5 t-70.5 -29.5t-70.5 29.5t-29.5 70.5z" />
<glyph unicode="&#x459;" horiz-adv-x="1800" d="M80 80q0 17 6 31l444 967q6 13 13 19q22 23 57 23t57 -22q7 -7 13 -20l201 -438h529q133 0 226.5 -93.5t93.5 -226.5t-93.5 -226.5t-226.5 -93.5h-360q-33 0 -56 23q-9 8 -16 21l-368 804l-368 -804q-7 -13 -15 -21q-24 -23 -57 -23t-56.5 23.5t-23.5 56.5zM945 480 l147 -320h308q66 0 113 47t47 113t-47 113t-113 47h-455z" />
<glyph unicode="&#x45a;" horiz-adv-x="1760" d="M80 80v960q0 33 23.5 56.5t56.5 23.5t56.5 -23.5t23.5 -56.5v-400h600v400q0 33 23.5 56.5t56.5 23.5t56.5 -23.5t23.5 -56.5v-400h361q133 0 226.5 -93.5t93.5 -226.5t-93.5 -226.5t-226.5 -93.5h-441q-33 0 -56.5 23.5t-23.5 56.5v400h-600v-400q0 -33 -23.5 -56.5 t-56.5 -23.5t-56.5 23.5t-23.5 56.5zM1000 160h361q66 0 113 47t47 113t-47 113t-113 47h-361v-320z" />
<glyph unicode="&#x45b;" horiz-adv-x="1320" d="M40 1360q0 33 23.5 56.5t56.5 23.5h80v80q0 33 23.5 56.5t56.5 23.5t56.5 -23.5t23.5 -56.5v-80h320q33 0 56.5 -23.5t23.5 -56.5t-23.5 -56.5t-56.5 -23.5h-320v-305q150 145 360 145q215 0 367.5 -152.5t152.5 -367.5v-520q0 -33 -23.5 -56.5t-56.5 -23.5t-56.5 23.5 t-23.5 56.5v520q0 149 -105.5 254.5t-254.5 105.5t-254.5 -105.5t-105.5 -254.5v-520q0 -33 -23.5 -56.5t-56.5 -23.5t-56.5 23.5t-23.5 56.5v1200h-80q-33 0 -56.5 23.5t-23.5 56.5z" />
<glyph unicode="&#x45c;" horiz-adv-x="1040" d="M80 80v960q0 33 23.5 56.5t56.5 23.5t56.5 -23.5t23.5 -56.5v-437l587 497q22 20 53 20q33 0 56.5 -23.5t23.5 -56.5t-23 -56l-497 -421l497 -426q23 -24 23 -57t-23.5 -56.5t-56.5 -23.5q-30 0 -52 19l-512 439l-76 -65v-313q0 -33 -23.5 -56.5t-56.5 -23.5t-56.5 23.5 t-23.5 56.5zM387 1280q0 31 20 54l243 243q24 23 57 23t56.5 -23.5t23.5 -56.5q0 -32 -22 -56l-243 -243q-23 -21 -55 -21q-33 0 -56.5 23.5t-23.5 56.5z" />
<glyph unicode="&#x45e;" horiz-adv-x="1120" d="M80 1040q0 33 23.5 56.5t56.5 23.5t57 -23q13 -14 19 -30l324 -777l324 777q6 16 20 30q23 23 56 23t56.5 -23.5t23.5 -56.5q0 -20 -9 -37l-596 -1430q-6 -16 -19 -29q-24 -24 -57 -24t-56.5 23.5t-23.5 56.5q0 20 9 37l185 444l-384 922q-9 17 -9 37zM246 1480 q0 33 23.5 56.5t56.5 23.5t56.5 -23.5t23.5 -56.5t47 -56.5t113 -23.5t113.5 23.5t47.5 56.5t23.5 56.5t56.5 23.5t56.5 -23.5t23.5 -56.5q-5 -105 -94 -169q-94 -71 -227 -71t-226.5 70.5t-93.5 169.5z" />
<glyph unicode="&#x45f;" horiz-adv-x="1120" d="M80 80v960q0 33 23.5 56.5t56.5 23.5t56.5 -23.5t23.5 -56.5v-880h640v880q0 33 23.5 56.5t56.5 23.5t56.5 -23.5t23.5 -56.5v-960q0 -33 -23.5 -56.5t-56.5 -23.5h-320v-240q0 -33 -23.5 -56.5t-56.5 -23.5t-56.5 23.5t-23.5 56.5v240h-320q-33 0 -56.5 23.5t-23.5 56.5 z" />
<glyph unicode="&#x490;" horiz-adv-x="1200" d="M80 80v1440q1 33 24.5 56.5t56.5 23.5h795q-13 108 -59 202q-9 17 -9 38q0 33 23.5 56.5t56.5 23.5t57 -24q13 -13 19 -30q76 -157 76 -346q0 -33 -23.5 -56.5t-56.5 -23.5h-800v-1360q0 -33 -23 -56q-24 -24 -57 -24t-56.5 23.5t-23.5 56.5z" />
<glyph unicode="&#x491;" horiz-adv-x="880" d="M80 80v720q0 133 93.5 226.5t226.5 93.5h236q-13 108 -59 202q-9 17 -9 38q0 33 23.5 56.5t56.5 23.5t57 -24q13 -13 19 -30q76 -157 76 -346q0 -33 -23.5 -56.5t-56.5 -23.5h-320q-66 0 -113 -47t-47 -113v-720q0 -33 -23.5 -56.5t-56.5 -23.5t-56.5 23.5t-23.5 56.5z " />
<glyph unicode="&#x492;" horiz-adv-x="1360" d="M80 800q0 33 23.5 56.5t56.5 23.5h80v640q1 33 24.5 56.5t56.5 23.5h879q33 0 56.5 -23.5t23.5 -56.5t-23.5 -56.5t-56.5 -23.5h-800v-560h480q33 0 56.5 -23.5t23.5 -56.5t-23.5 -56.5t-56.5 -23.5h-480v-640q0 -33 -23 -56q-24 -24 -57 -24t-56.5 23.5t-23.5 56.5v640 h-80q-33 0 -56.5 23.5t-23.5 56.5z" />
<glyph unicode="&#x493;" horiz-adv-x="1040" d="M80 560q0 33 23.5 56.5t56.5 23.5h80v160q0 133 93.5 226.5t226.5 93.5h320q33 0 56.5 -23.5t23.5 -56.5t-23.5 -56.5t-56.5 -23.5h-320q-66 0 -113 -47t-47 -113v-160h240q33 0 56.5 -23.5t23.5 -56.5t-23.5 -56.5t-56.5 -23.5h-240v-400q0 -33 -23.5 -56.5t-56.5 -23.5 t-56.5 23.5t-23.5 56.5v400h-80q-33 0 -56.5 23.5t-23.5 56.5z" />
<glyph unicode="&#x496;" horiz-adv-x="2080" d="M80 83q0 24 15 45l570 773l-562 562q-23 24 -23 57t23.5 56.5t56.5 23.5t59 -25l741 -741v686q0 33 23.5 56.5t56.5 23.5t56.5 -23.5t23.5 -56.5v-686l741 741q26 25 59 25t56.5 -23.5t23.5 -56.5t-23 -57l-562 -562l570 -773q15 -21 15 -45v-8q-1 -186 -76 -341 q-6 -17 -19 -30q-24 -24 -57 -24t-56.5 23.5t-23.5 56.5q0 21 9 38q56 104 62 257l-539 731l-180 -180v-526q0 -33 -23.5 -56.5t-56.5 -23.5t-56.5 23.5t-23.5 56.5v526l-180 180l-554 -752q-22 -29 -55 -33q-32 -5 -58.5 14.5t-31.5 52.5q-1 8 -1 15z" />
<glyph unicode="&#x497;" horiz-adv-x="1760" d="M80 80q0 33 23 57l497 426l-497 421q-23 23 -23 56t23.5 56.5t56.5 23.5q31 0 53 -20l587 -497v437q0 33 23.5 56.5t56.5 23.5t56.5 -23.5t23.5 -56.5v-437l587 497q22 20 53 20q33 0 56.5 -23.5t23.5 -56.5t-23 -56l-497 -421l497 -426q23 -24 23 -57q0 -189 -76 -346 q-6 -17 -19 -30q-24 -24 -57 -24t-56.5 23.5t-23.5 56.5q0 21 9 38q50 93 61 247l-482 413l-76 -65v-313q0 -33 -23.5 -56.5t-56.5 -23.5t-56.5 23.5t-23.5 56.5v313l-76 65l-512 -439q-22 -19 -52 -19q-33 0 -56.5 23.5t-23.5 56.5z" />
<glyph unicode="&#x49a;" horiz-adv-x="1200" d="M80 80v1440q0 33 23.5 56.5t56.5 23.5t56.5 -23.5t23.5 -56.5v-686l741 741q26 25 59 25t56.5 -23.5t23.5 -56.5t-23 -57l-562 -562l570 -773q15 -19 15 -53q-1 -186 -76 -341q-6 -17 -19 -30q-24 -24 -57 -24t-56.5 23.5t-23.5 56.5q0 21 9 38q52 97 62 257l-539 731 l-180 -180v-526q0 -33 -23.5 -56.5t-56.5 -23.5t-56.5 23.5t-23.5 56.5z" />
<glyph unicode="&#x49b;" horiz-adv-x="1040" d="M80 80v960q0 33 23.5 56.5t56.5 23.5t56.5 -23.5t23.5 -56.5v-437l587 497q22 20 53 20q33 0 56.5 -23.5t23.5 -56.5t-23 -56l-497 -421l497 -426q23 -24 23 -57q0 -189 -76 -346q-6 -17 -19 -30q-24 -24 -57 -24t-56.5 23.5t-23.5 56.5q0 21 9 38q50 93 61 247l-482 413 l-76 -65v-313q0 -33 -23.5 -56.5t-56.5 -23.5t-56.5 23.5t-23.5 56.5z" />
<glyph unicode="&#x49c;" horiz-adv-x="1200" d="M80 80v1440q0 33 23.5 56.5t56.5 23.5t56.5 -23.5t23.5 -56.5v-686l160 160v286q0 33 23.5 56.5t56.5 23.5t56.5 -23.5t23.5 -56.5v-126l421 421q26 25 59 25t56.5 -23.5t23.5 -56.5t-23 -57l-537 -537v-59l545 -739q15 -21 15 -45q0 -7 -1 -15q-5 -33 -31 -52 q-22 -16 -46 -16q-6 0 -13 1q-33 4 -55 33l-414 562v-276q0 -33 -23.5 -56.5t-56.5 -23.5t-56.5 23.5t-23.5 56.5v446l-160 -160v-526q0 -33 -23.5 -56.5t-56.5 -23.5t-56.5 23.5t-23.5 56.5z" />
<glyph unicode="&#x49d;" horiz-adv-x="1040" d="M80 80v960q0 33 23.5 56.5t56.5 23.5t56.5 -23.5t23.5 -56.5v-437l120 102v255q0 33 23.5 56.5t56.5 23.5t56.5 -23.5t23.5 -56.5v-120l307 260q22 20 53 20q33 0 56.5 -23.5t23.5 -56.5t-23 -56l-417 -353v-137l417 -357q23 -24 23 -57t-23.5 -56.5t-56.5 -23.5 q-30 0 -52 19l-308 264v-123q0 -33 -23.5 -56.5t-56.5 -23.5t-56.5 23.5t-23.5 56.5v260l-44 38l-76 -65v-313q0 -33 -23.5 -56.5t-56.5 -23.5t-56.5 23.5t-23.5 56.5z" />
<glyph unicode="&#x4a2;" horiz-adv-x="1440" d="M80 80v1440q0 33 23.5 56.5t56.5 23.5t56.5 -23.5t23.5 -56.5v-640h800v640q0 33 23.5 56.5t56.5 23.5t56.5 -23.5t23.5 -56.5v-1360h80q33 0 56.5 -23.5t23.5 -56.5q0 -189 -76 -346q-6 -17 -19 -30q-24 -24 -57 -24t-56.5 23.5t-23.5 56.5q0 21 9 38q43 79 57 202h-74 q-33 0 -56.5 23.5t-23.5 56.5v640h-800v-640q0 -33 -23.5 -56.5t-56.5 -23.5t-56.5 23.5t-23.5 56.5z" />
<glyph unicode="&#x4a3;" horiz-adv-x="1200" d="M80 80v960q0 33 23.5 56.5t56.5 23.5t56.5 -23.5t23.5 -56.5v-400h600v400q0 33 23.5 56.5t56.5 23.5t56.5 -23.5t23.5 -56.5v-880h80q33 0 56.5 -23.5t23.5 -56.5q0 -189 -76 -346q-6 -17 -19 -30q-24 -24 -57 -24t-56.5 23.5t-23.5 56.5q0 21 9 38q43 79 57 202h-74 q-33 0 -56.5 23.5t-23.5 56.5v400h-600v-400q0 -33 -23.5 -56.5t-56.5 -23.5t-56.5 23.5t-23.5 56.5z" />
<glyph unicode="&#x4ae;" d="M80 1520q0 33 23.5 56.5t56.5 23.5q41 0 65 -33l415 -622l415 622q24 33 65 33q33 0 56.5 -23.5t23.5 -56.5q0 -25 -13 -45l-467 -699v-696q0 -33 -23.5 -56.5t-56.5 -23.5t-56.5 23.5t-23.5 56.5v696l-467 699q-13 20 -13 45z" />
<glyph unicode="&#x4af;" horiz-adv-x="1200" d="M80 1040q0 33 23.5 56.5t56.5 23.5t57 -23q8 -8 15 -21l368 -804l368 804q7 13 16 21q23 23 56 23t56.5 -23.5t23.5 -56.5q0 -17 -6 -31l-434 -945v-464q0 -33 -23.5 -56.5t-56.5 -23.5t-56.5 23.5t-23.5 56.5v464l-434 945q-6 14 -6 31z" />
<glyph unicode="&#x4b0;" d="M80 1520q0 33 23.5 56.5t56.5 23.5q41 0 65 -33l415 -622l415 622q24 33 65 33q33 0 56.5 -23.5t23.5 -56.5q0 -25 -13 -45l-467 -699v-56h321q33 0 56.5 -23.5t23.5 -56.5t-23.5 -56.5t-56.5 -23.5h-321v-480q0 -33 -23.5 -56.5t-56.5 -23.5t-56.5 23.5t-23.5 56.5v480 h-319q-33 0 -56.5 23.5t-23.5 56.5t23.5 56.5t56.5 23.5h319v56l-467 699q-13 20 -13 45z" />
<glyph unicode="&#x4b1;" horiz-adv-x="1200" d="M80 1040q0 33 23.5 56.5t56.5 23.5t57 -22q8 -9 15 -22l368 -804l368 804q7 13 16 23q23 21 56 21t56.5 -23.5t23.5 -56.5q0 -17 -6 -31l-427 -929h273q33 0 56.5 -23.5t23.5 -56.5t-23.5 -56.5t-56.5 -23.5h-280v-320q0 -33 -23.5 -56.5t-56.5 -23.5t-56.5 23.5 t-23.5 56.5v320h-280q-33 0 -56.5 23.5t-23.5 56.5t23.5 56.5t56.5 23.5h273l-427 929q-6 14 -6 31z" />
<glyph unicode="&#x4b2;" horiz-adv-x="1440" d="M80 80q0 28 17 50l521 670l-524 674q-14 20 -14 46q0 33 23.5 56.5t56.5 23.5q38 0 66 -34l494 -635l494 635q28 34 66 34q33 0 56.5 -23.5t23.5 -56.5q0 -26 -14 -46l-524 -674l521 -670q17 -22 17 -50q0 -189 -76 -346q-6 -17 -19 -30q-24 -24 -57 -24t-56.5 23.5 t-23.5 56.5q0 21 9 38q52 96 62 256l-479 615l-499 -641q-23 -28 -61 -28q-33 0 -56.5 23.5t-23.5 56.5z" />
<glyph unicode="&#x4b3;" horiz-adv-x="1120" d="M80 80q0 28 16 49l360 432l-357 427q-19 22 -19 52q0 33 23.5 56.5t56.5 23.5t59 -25l341 -409l341 409q26 25 59 25t56.5 -23.5t23.5 -56.5q0 -30 -19 -52l-357 -427l360 -432q16 -21 16 -49q0 -189 -76 -346q-6 -17 -19 -30q-24 -24 -57 -24t-56.5 23.5t-23.5 56.5 q0 21 9 38q52 96 62 256l-319 382l-344 -412q-23 -24 -56 -24t-56.5 23.5t-23.5 56.5z" />
<glyph unicode="&#x4b8;" d="M80 1120v400q0 33 23.5 56.5t56.5 23.5t56.5 -23.5t23.5 -56.5v-400q0 -166 117 -283q88 -88 203 -110v473q0 33 23.5 56.5t56.5 23.5t56.5 -23.5t23.5 -56.5v-473q115 22 203 110q117 117 117 283v400q0 33 23.5 56.5t56.5 23.5t56.5 -23.5t23.5 -56.5v-1440 q0 -33 -23.5 -56.5t-56.5 -23.5t-56.5 23.5t-23.5 56.5v648l-4 -4q-135 -135 -316 -159v-245q0 -33 -23.5 -56.5t-56.5 -23.5t-56.5 23.5t-23.5 56.5v245q-181 24 -316 159q-164 164 -164 396z" />
<glyph unicode="&#x4b9;" horiz-adv-x="1040" d="M80 800v240q0 33 23.5 56.5t56.5 23.5t56.5 -23.5t23.5 -56.5v-240q0 -116 82 -198q52 -52 118 -71v349q0 33 23.5 56.5t56.5 23.5t56.5 -23.5t23.5 -56.5v-349q66 19 118 71q82 82 82 197v241q0 33 23.5 56.5t56.5 23.5t56.5 -23.5t23.5 -56.5v-960q0 -33 -23.5 -56.5 t-56.5 -23.5t-56.5 23.5t-23.5 56.5v381q-88 -75 -200 -94v-127q0 -33 -23.5 -56.5t-56.5 -23.5t-56.5 23.5t-23.5 56.5v127q-131 22 -231 122q-129 129 -129 311z" />
<glyph unicode="&#x4ba;" d="M80 80v1440q0 33 23.5 56.5t56.5 23.5t56.5 -23.5t23.5 -56.5v-648l4 4q164 164 396 164t396 -164t164 -396v-400q0 -33 -23.5 -56.5t-56.5 -23.5t-56.5 23.5t-23.5 56.5v400q0 166 -117 283t-283 117t-283 -117t-117 -283v-400q0 -33 -23.5 -56.5t-56.5 -23.5 t-56.5 23.5t-23.5 56.5z" />
<glyph unicode="&#x4bb;" horiz-adv-x="1200" d="M80 80v1440q0 33 23.5 56.5t56.5 23.5t56.5 -23.5t23.5 -56.5v-545q150 145 360 145q215 0 367.5 -152.5t152.5 -367.5v-520q0 -33 -23.5 -56.5t-56.5 -23.5t-56.5 23.5t-23.5 56.5v520q0 149 -105.5 254.5t-254.5 105.5t-254.5 -105.5t-105.5 -254.5v-520 q0 -33 -23.5 -56.5t-56.5 -23.5t-56.5 23.5t-23.5 56.5z" />
<glyph unicode="&#x4d8;" horiz-adv-x="1760" d="M80 800q0 33 23.5 56.5t56.5 23.5h1356q-25 214 -183 373q-188 187 -453 187t-476 -212q-24 -24 -57 -24t-56.5 23.5t-23.5 56.5q0 31 21 54q261 262 592 262t565.5 -234.5t234.5 -565.5t-234.5 -565.5t-565.5 -234.5t-565.5 234.5t-234.5 565.5zM244 720 q25 -214 184 -372q187 -188 452 -188t453 188q158 158 183 372h-1272z" />
<glyph unicode="&#x4d9;" d="M80 560q0 33 23.5 56.5t56.5 23.5h873q-22 115 -110 203q-117 117 -283 117q-150 0 -258 -95q-22 -17 -50 -17q-33 0 -56.5 23.5t-23.5 56.5t23 57q155 135 365 135q232 0 396 -164t164 -396t-164 -396t-396 -164t-396 164t-164 396zM247 480q22 -115 110 -203 q117 -117 283 -117t283 117q88 88 110 203h-786z" />
<glyph unicode="&#x4e8;" horiz-adv-x="1760" d="M80 800q0 331 234.5 565.5t565.5 234.5t565.5 -234.5t234.5 -565.5t-234.5 -565.5t-565.5 -234.5t-565.5 234.5t-234.5 565.5zM244 720q25 -214 184 -372q187 -188 452 -188t453 188q158 158 183 372h-1272zM244 880h1272q-25 214 -183 373q-188 187 -453 187t-452 -187 q-159 -159 -184 -373z" />
<glyph unicode="&#x4e9;" d="M80 560q0 232 164 396t396 164t396 -164t164 -396t-164 -396t-396 -164t-396 164t-164 396zM247 480q22 -115 110 -203q117 -117 283 -117t283 117q88 88 110 203h-786zM247 640h786q-22 115 -110 203q-117 117 -283 117t-283 -117q-88 -88 -110 -203z" />
<glyph unicode="&#x1e80;" horiz-adv-x="1920" d="M80 1520q0 33 23.5 56.5t56.5 23.5t57 -23q13 -14 19 -30l324 -1168l324 1168q4 15 20 30q23 23 56 23t57 -23q13 -14 19 -30l324 -1168l324 1168q6 16 20 30q23 23 56 23t56.5 -23.5t23.5 -56.5q0 -17 -6 -35l-392 -1418q-8 -25 -25 -43q-24 -24 -57 -24t-56 24 q-18 18 -25 42l-319 1152l-318 -1151q-8 -25 -25 -43q-24 -24 -57 -24t-56 24q-18 18 -25 42l-393 1419q-6 18 -6 35zM693 2000q0 33 23.5 56.5t56.5 23.5t57 -23l243 -243q20 -23 20 -54q0 -33 -23.5 -56.5t-56.5 -23.5q-32 0 -55 21l-243 243q-22 24 -22 56z" />
<glyph unicode="&#x1e81;" horiz-adv-x="1600" d="M80 1040q0 33 23.5 56.5t56.5 23.5t57 -23q10 -11 16 -23l247 -741l242 727q7 21 22 37q23 23 56 23t57 -23q15 -16 21 -37l242 -727l247 741q6 12 17 23q23 23 56 23t56.5 -23.5t23.5 -56.5q0 -16 -6 -31l-319 -958q-6 -15 -18 -29q-24 -22 -57 -22t-56 22 q-13 14 -19 29l-245 736l-245 -736q-6 -15 -18 -29q-24 -22 -57 -22t-56 22q-13 14 -19 29l-319 958q-6 15 -6 31zM533 1520q0 33 23.5 56.5t56.5 23.5t57 -23l243 -243q20 -23 20 -54q0 -33 -23.5 -56.5t-56.5 -23.5q-32 0 -55 21l-243 243q-22 24 -22 56z" />
<glyph unicode="&#x1e82;" horiz-adv-x="1920" d="M80 1520q0 33 23.5 56.5t56.5 23.5t57 -23q13 -14 19 -30l324 -1168l324 1168q4 15 20 30q23 23 56 23t57 -23q13 -14 19 -30l324 -1168l324 1168q6 16 20 30q23 23 56 23t56.5 -23.5t23.5 -56.5q0 -17 -6 -35l-392 -1418q-8 -25 -25 -43q-24 -24 -57 -24t-56 24 q-18 18 -25 42l-319 1152l-318 -1151q-8 -25 -25 -43q-24 -24 -57 -24t-56 24q-18 18 -25 42l-393 1419q-6 18 -6 35zM827 1760q0 31 20 54l243 243q24 23 57 23t56.5 -23.5t23.5 -56.5q0 -32 -22 -56l-243 -243q-23 -21 -55 -21q-33 0 -56.5 23.5t-23.5 56.5z" />
<glyph unicode="&#x1e83;" horiz-adv-x="1600" d="M80 1040q0 33 23.5 56.5t56.5 23.5t57 -23q10 -11 16 -23l247 -741l242 727q7 21 22 37q23 23 56 23t57 -23q15 -16 21 -37l242 -727l247 741q6 12 17 23q23 23 56 23t56.5 -23.5t23.5 -56.5q0 -16 -6 -31l-319 -958q-6 -15 -18 -29q-24 -22 -57 -22t-56 22 q-13 14 -19 29l-245 736l-245 -736q-6 -15 -18 -29q-24 -22 -57 -22t-56 22q-13 14 -19 29l-319 958q-6 15 -6 31zM667 1280q0 31 20 54l243 243q24 23 57 23t56.5 -23.5t23.5 -56.5q0 -32 -22 -56l-243 -243q-23 -21 -55 -21q-33 0 -56.5 23.5t-23.5 56.5z" />
<glyph unicode="&#x1e84;" horiz-adv-x="1920" d="M80 1520q0 33 23.5 56.5t56.5 23.5t57 -23q13 -14 19 -30l324 -1168l324 1168q4 15 20 30q23 23 56 23t57 -23q13 -14 19 -30l324 -1168l324 1168q6 16 20 30q23 23 56 23t56.5 -23.5t23.5 -56.5q0 -17 -6 -35l-392 -1418q-8 -25 -25 -43q-24 -24 -57 -24t-56 24 q-18 18 -25 42l-319 1152l-318 -1151q-8 -25 -25 -43q-24 -24 -57 -24t-56 24q-18 18 -25 42l-393 1419q-6 18 -6 35zM620 1840q0 41 29.5 70.5t70.5 29.5t70.5 -29.5t29.5 -70.5t-29.5 -70.5t-70.5 -29.5t-70.5 29.5t-29.5 70.5zM1100 1840q0 41 29.5 70.5t70.5 29.5 t70.5 -29.5t29.5 -70.5t-29.5 -70.5t-70.5 -29.5t-70.5 29.5t-29.5 70.5z" />
<glyph unicode="&#x1e85;" horiz-adv-x="1600" d="M80 1040q0 33 23.5 56.5t56.5 23.5t57 -23q10 -11 16 -23l247 -741l242 727q7 21 22 37q23 23 56 23t57 -23q15 -16 21 -37l242 -727l247 741q6 12 17 23q23 23 56 23t56.5 -23.5t23.5 -56.5q0 -16 -6 -31l-319 -958q-6 -15 -18 -29q-24 -22 -57 -22t-56 22 q-13 14 -19 29l-245 736l-245 -736q-6 -15 -18 -29q-24 -22 -57 -22t-56 22q-13 14 -19 29l-319 958q-6 15 -6 31zM460 1360q0 41 29.5 70.5t70.5 29.5t70.5 -29.5t29.5 -70.5t-29.5 -70.5t-70.5 -29.5t-70.5 29.5t-29.5 70.5zM940 1360q0 41 29.5 70.5t70.5 29.5 t70.5 -29.5t29.5 -70.5t-29.5 -70.5t-70.5 -29.5t-70.5 29.5t-29.5 70.5z" />
<glyph unicode="&#x1ef2;" d="M80 1520q0 33 23.5 56.5t56.5 23.5q41 0 65 -33l415 -622l415 622q24 33 65 33q33 0 56.5 -23.5t23.5 -56.5q0 -25 -13 -45l-467 -699v-696q0 -33 -23.5 -56.5t-56.5 -23.5t-56.5 23.5t-23.5 56.5v696l-467 699q-13 20 -13 45zM373 2000q0 33 23.5 56.5t56.5 23.5t57 -23 l243 -243q20 -23 20 -54q0 -33 -23.5 -56.5t-56.5 -23.5q-32 0 -55 21l-243 243q-22 24 -22 56z" />
<glyph unicode="&#x1ef3;" horiz-adv-x="1120" d="M80 1040q0 33 23.5 56.5t56.5 23.5t57 -23q13 -14 19 -30l324 -777l324 777q6 16 20 30q23 23 56 23t56.5 -23.5t23.5 -56.5q0 -20 -9 -37l-596 -1430q-6 -16 -19 -29q-24 -24 -57 -24t-56.5 23.5t-23.5 56.5q0 20 9 37l185 444l-384 922q-9 17 -9 37zM293 1520 q0 33 23.5 56.5t56.5 23.5t57 -23l243 -243q20 -23 20 -54q0 -33 -23.5 -56.5t-56.5 -23.5q-32 0 -55 21l-243 243q-22 24 -22 56z" />
<glyph unicode="&#x2000;" horiz-adv-x="1040" />
<glyph unicode="&#x2001;" horiz-adv-x="2080" />
<glyph unicode="&#x2002;" horiz-adv-x="1040" />
<glyph unicode="&#x2003;" horiz-adv-x="2080" />
<glyph unicode="&#x2004;" horiz-adv-x="693" />
<glyph unicode="&#x2005;" horiz-adv-x="520" />
<glyph unicode="&#x2006;" horiz-adv-x="346" />
<glyph unicode="&#x2007;" horiz-adv-x="346" />
<glyph unicode="&#x2008;" horiz-adv-x="260" />
<glyph unicode="&#x2009;" horiz-adv-x="416" />
<glyph unicode="&#x200a;" horiz-adv-x="115" />
<glyph unicode="&#x2010;" horiz-adv-x="800" d="M80 560q0 33 23.5 56.5t56.5 23.5h480q33 0 56.5 -23.5t23.5 -56.5t-23.5 -56.5t-56.5 -23.5h-480q-33 0 -56.5 23.5t-23.5 56.5z" />
<glyph unicode="&#x2011;" horiz-adv-x="800" d="M80 560q0 33 23.5 56.5t56.5 23.5h480q33 0 56.5 -23.5t23.5 -56.5t-23.5 -56.5t-56.5 -23.5h-480q-33 0 -56.5 23.5t-23.5 56.5z" />
<glyph unicode="&#x2012;" horiz-adv-x="800" d="M80 560q0 33 23.5 56.5t56.5 23.5h480q33 0 56.5 -23.5t23.5 -56.5t-23.5 -56.5t-56.5 -23.5h-480q-33 0 -56.5 23.5t-23.5 56.5z" />
<glyph unicode="&#x2013;" horiz-adv-x="800" d="M-80 560q0 33 23.5 56.5t56.5 23.5h800q33 0 56.5 -23.5t23.5 -56.5t-23.5 -56.5t-56.5 -23.5h-800q-33 0 -56.5 23.5t-23.5 56.5z" />
<glyph unicode="&#x2014;" horiz-adv-x="1920" d="M-80 560q0 33 23.5 56.5t56.5 23.5h1920q33 0 56.5 -23.5t23.5 -56.5t-23.5 -56.5t-56.5 -23.5h-1920q-33 0 -56.5 23.5t-23.5 56.5z" />
<glyph unicode="&#x2015;" horiz-adv-x="1440" d="M-80 560q0 33 23.5 56.5t56.5 23.5h1440q33 0 56.5 -23.5t23.5 -56.5t-23.5 -56.5t-56.5 -23.5h-1440q-33 0 -56.5 23.5t-23.5 56.5z" />
<glyph unicode="&#x2017;" horiz-adv-x="951" d="M-80 -80q0 33 23.5 56.5t56.5 23.5h960q33 0 56.5 -23.5t23.5 -56.5t-23.5 -56.5t-56.5 -23.5h-960q-33 0 -56.5 23.5t-23.5 56.5zM-80 -359q0 33 23.5 56.5t56.5 23.5h960q33 0 56.5 -23.5t23.5 -56.5t-23.5 -56.5t-56.5 -23.5h-960q-33 0 -56.5 23.5t-23.5 56.5z" />
<glyph unicode="&#x2018;" horiz-adv-x="480" d="M120 1225q0 175 152 358q17 17 42 17q24 0 41.5 -17.5t17.5 -41.5q0 -14 -5 -26q-98 -237 -3 -435q8 -18 8 -40q0 -41 -29.5 -70.5t-70.5 -29.5q-62 0 -90 58q-63 112 -63 227z" />
<glyph unicode="&#x2019;" horiz-adv-x="480" d="M120 999q0 14 5 26q98 237 3 435q-8 18 -8 40q0 41 29.5 70.5t70.5 29.5q62 0 90 -58q63 -112 63 -227q0 -175 -152 -358q-17 -17 -42 -17q-24 0 -41.5 17.5t-17.5 41.5z" />
<glyph unicode="&#x201a;" horiz-adv-x="480" d="M120 219q0 41 29.5 70.5t70.5 29.5q62 0 90 -58q63 -112 63 -227q0 -175 -152 -358q-17 -17 -42 -17q-24 0 -41.5 17.5t-17.5 41.5q0 14 5 26q98 237 3 435q-8 18 -8 40z" />
<glyph unicode="&#x201b;" horiz-adv-x="480" d="M120 1315q0 115 63 227q28 58 90 58q41 0 70.5 -29.5t29.5 -70.5q0 -22 -8 -40q-95 -198 3 -435q5 -12 5 -26q0 -24 -17.5 -41.5t-41.5 -17.5q-25 0 -42 17q-152 183 -152 358z" />
<glyph unicode="&#x201c;" horiz-adv-x="760" d="M80 1227q0 175 152 358q17 17 42 17q24 0 41.5 -17.5t17.5 -41.5q0 -14 -5 -26q-98 -237 -3 -435q8 -18 8 -40q0 -41 -29.5 -70.5t-70.5 -29.5q-62 0 -90 58q-63 112 -63 227zM427 1227q0 175 152 358q17 17 42 17q24 0 41.5 -17.5t17.5 -41.5q0 -14 -5 -26 q-98 -237 -3 -435q8 -18 8 -40q0 -41 -29.5 -70.5t-70.5 -29.5q-62 0 -90 58q-63 112 -63 227z" />
<glyph unicode="&#x201d;" horiz-adv-x="760" d="M80 1001q0 14 5 26q98 237 3 435q-8 18 -8 40q0 41 29.5 70.5t70.5 29.5q62 0 90 -58q63 -112 63 -227q0 -175 -152 -358q-17 -17 -42 -17q-24 0 -41.5 17.5t-17.5 41.5zM427 1001q0 14 5 26q98 237 3 435q-8 18 -8 40q0 41 29.5 70.5t70.5 29.5q62 0 90 -58 q63 -112 63 -227q0 -175 -152 -358q-17 -17 -42 -17q-24 0 -41.5 17.5t-17.5 41.5z" />
<glyph unicode="&#x201e;" horiz-adv-x="760" d="M80 220q0 41 29.5 70.5t70.5 29.5q62 0 90 -58q63 -112 63 -227q0 -175 -152 -358q-17 -17 -42 -17q-24 0 -41.5 17.5t-17.5 41.5q0 14 5 26q98 237 3 435q-8 18 -8 40zM427 220q0 41 29.5 70.5t70.5 29.5q62 0 90 -58q63 -112 63 -227q0 -175 -152 -358q-17 -17 -42 -17 q-24 0 -41.5 17.5t-17.5 41.5q0 14 5 26q98 237 3 435q-8 18 -8 40z" />
<glyph unicode="&#x2020;" horiz-adv-x="1120" d="M80 1040q0 33 23.5 56.5t56.5 23.5h320v400q0 33 23.5 56.5t56.5 23.5t56.5 -23.5t23.5 -56.5v-400h320q33 0 56.5 -23.5t23.5 -56.5t-23.5 -56.5t-56.5 -23.5h-320v-1360q0 -32 -23 -55q-24 -24 -57 -24t-56 24q-24 23 -24 55v1360h-320q-33 0 -56.5 23.5t-23.5 56.5z " />
<glyph unicode="&#x2021;" horiz-adv-x="1120" d="M80 80q0 33 23.5 56.5t56.5 23.5h320v800h-320q-33 0 -56.5 23.5t-23.5 56.5t23.5 56.5t56.5 23.5h320v400q0 33 23.5 56.5t56.5 23.5t56.5 -23.5t23.5 -56.5v-400h320q33 0 56.5 -23.5t23.5 -56.5t-23.5 -56.5t-56.5 -23.5h-320v-800h320q33 0 56.5 -23.5t23.5 -56.5 t-23.5 -56.5t-56.5 -23.5h-320v-400q0 -32 -23 -55q-24 -24 -57 -24t-56 24q-24 23 -24 55v400h-320q-33 0 -56.5 23.5t-23.5 56.5z" />
<glyph unicode="&#x2022;" horiz-adv-x="800" d="M160 800q0 99 70.5 169.5t169.5 70.5t169.5 -70.5t70.5 -169.5t-70.5 -169.5t-169.5 -70.5t-169.5 70.5t-70.5 169.5z" />
<glyph unicode="&#x2026;" horiz-adv-x="1440" d="M80 120q0 50 35 85t85 35t85 -35t35 -85t-35 -85t-85 -35t-85 35t-35 85zM560 120q0 50 35 85t85 35t85 -35t35 -85t-35 -85t-85 -35t-85 35t-35 85zM1040 120q0 50 35 85t85 35t85 -35t35 -85t-35 -85t-85 -35t-85 35t-35 85z" />
<glyph unicode="&#x202f;" horiz-adv-x="416" />
<glyph unicode="&#x2030;" horiz-adv-x="2640" d="M80 1200q0 166 117 283t283 117t283 -117t117 -283t-117 -283t-283 -117t-283 117t-117 283zM240 80q0 31 20 54l1115 1433q4 5 9 10q23 23 56 23t56.5 -23.5t23.5 -56.5q0 -27 -16 -48l-1123 -1445q-28 -27 -61 -27t-56.5 23.5t-23.5 56.5zM240 1200q0 -99 70.5 -169.5 t169.5 -70.5t169.5 70.5t70.5 169.5t-70.5 169.5t-169.5 70.5t-169.5 -70.5t-70.5 -169.5zM880 400q0 166 117 283t283 117t283 -117t117 -283t-117 -283t-283 -117t-283 117t-117 283zM1040 400q0 -99 70.5 -169.5t169.5 -70.5t169.5 70.5t70.5 169.5t-70.5 169.5 t-169.5 70.5t-169.5 -70.5t-70.5 -169.5zM1760 400q0 166 117 283t283 117t283 -117t117 -283t-117 -283t-283 -117t-283 117t-117 283zM1920 400q0 -99 70.5 -169.5t169.5 -70.5t169.5 70.5t70.5 169.5t-70.5 169.5t-169.5 70.5t-169.5 -70.5t-70.5 -169.5z" />
<glyph unicode="&#x2032;" horiz-adv-x="400" d="M71 1240q0 11 4 22l90 286q12 31 43 45q16 7 32 7q50 0 73 -48q7 -16 7 -32q0 -15 -6 -30l-127 -272q-17 -37 -56 -38q-40 1 -55 36q-5 11 -5 24z" />
<glyph unicode="&#x2033;" horiz-adv-x="720" d="M71 1240q0 11 4 22l90 286q12 31 43 45q16 7 32 7q50 0 73 -48q7 -16 7 -32q0 -15 -6 -30l-127 -272q-17 -37 -56 -38q-40 1 -55 36q-5 11 -5 24zM391 1240q0 11 4 22l90 286q12 31 43 45q16 7 32 7q50 0 73 -48q7 -16 7 -32q0 -15 -6 -30l-127 -272q-17 -37 -56 -38 q-40 1 -55 36q-5 11 -5 24z" />
<glyph unicode="&#x2039;" horiz-adv-x="560" d="M80 559q0 20 10 39l236 472q6 14 18 26q23 23 56 23t56.5 -23.5t23.5 -56.5q0 -18 -7 -34l-223 -445l223 -446q7 -16 7 -34q0 -33 -23.5 -56.5t-56.5 -23.5t-56 24q-12 11 -18 25l-234 467q-12 22 -12 43z" />
<glyph unicode="&#x203a;" horiz-adv-x="560" d="M80 80q0 18 7 34l223 446l-223 445q-7 16 -7 34q0 33 23.5 56.5t56.5 23.5t56 -23q12 -12 18 -26l236 -472q10 -19 10 -39q0 -21 -12 -43l-234 -467q-6 -14 -18 -25q-23 -24 -56 -24t-56.5 23.5t-23.5 56.5z" />
<glyph unicode="&#x203c;" horiz-adv-x="800" d="M80 120q0 50 35 85t85 35t85 -35t35 -85t-35 -85t-85 -35t-85 35t-35 85zM120 399v1121q0 33 23.5 56.5t56.5 23.5t56.5 -23.5t23.5 -56.5v-1121q0 -32 -23 -55q-24 -24 -57 -24t-56 24q-24 23 -24 55zM480 120q0 50 35 85t85 35t85 -35t35 -85t-35 -85t-85 -35t-85 35 t-35 85zM520 399v1121q0 33 23.5 56.5t56.5 23.5t56.5 -23.5t23.5 -56.5v-1121q0 -32 -23 -55q-24 -24 -57 -24t-56 24q-24 23 -24 55z" />
<glyph unicode="&#x203e;" horiz-adv-x="960" d="M-80 1840q0 33 23.5 56.5t56.5 23.5h960q33 0 56.5 -23.5t23.5 -56.5t-23.5 -56.5t-56.5 -23.5h-960q-33 0 -56.5 23.5t-23.5 56.5z" />
<glyph unicode="&#x2044;" horiz-adv-x="640" d="M-400 80q0 29 18 52l1280 1439q27 29 62 29q33 0 56.5 -23.5t23.5 -56.5q0 -28 -16 -49l-1282 -1442q-26 -29 -62 -29q-33 0 -56.5 23.5t-23.5 56.5z" />
<glyph unicode="&#x205f;" horiz-adv-x="520" />
<glyph unicode="&#x20a3;" horiz-adv-x="1520" d="M80 400q0 33 23.5 56.5t56.5 23.5h160v1040q0 33 23.5 56.5t56.5 23.5h960q33 0 56.5 -23.5t23.5 -56.5t-23.5 -56.5t-56.5 -23.5h-880v-560h640q33 0 56.5 -23.5t23.5 -56.5t-23.5 -56.5t-56.5 -23.5h-640v-240h160q33 0 56.5 -23.5t23.5 -56.5t-23.5 -56.5t-56.5 -23.5 h-160v-240q0 -33 -23.5 -56.5t-56.5 -23.5t-56.5 23.5t-23.5 56.5v240h-160q-33 0 -56.5 23.5t-23.5 56.5z" />
<glyph unicode="&#x20a4;" horiz-adv-x="1040" d="M80 590q0 33 23.5 56.5t56.5 23.5h108q-1 25 -3.5 50.5t-5.5 49.5h-99q-33 0 -56.5 23.5t-23.5 56.5t23.5 56.5t56.5 23.5h70q-17 68 -40 120h1q-31 75 -31 150q0 166 117 283t283 117t283 -117q29 -29 51 -61q16 -22 16 -50q0 -33 -23.5 -56.5t-56.5 -23.5t-56 24 q-27 36 -44 54q-71 70 -170 70t-169.5 -70.5t-70.5 -169.5q0 -45 19 -90q34 -78 56 -180h325q33 0 56.5 -23.5t23.5 -56.5t-23.5 -56.5t-56.5 -23.5h-298q3 -25 5 -50t3 -50h290q33 0 56.5 -23.5t23.5 -56.5t-23.5 -56.5t-56.5 -23.5h-291q-11 -189 -73 -350h394l60 120 q23 40 70 40q33 0 56.5 -23.5t23.5 -56.5q0 -21 -9 -38l-77 -154q-6 -13 -17 -24q-24 -24 -57 -24h-560q-33 0 -56.5 23.5t-23.5 56.5q0 17 6 32q86 185 101 398h-107q-33 0 -56.5 23.5t-23.5 56.5z" />
<glyph unicode="&#x20a7;" horiz-adv-x="2000" d="M80 80v1440q0 33 21 56.5t51 23.5h288q204 0 360 -187v107q0 33 23.5 56.5t56.5 23.5t56.5 -23.5t23.5 -56.5v-400h520q226 -4 386 -164q18 -18 34 -37q15 -21 15 -47q0 -33 -23.5 -56.5t-56.5 -23.5t-53 21t-29 30q-117 117 -283 117t-265 -104q-24 -29 -24 -69 q3 -47 49 -64l492 -163q91 -34 127 -71q71 -70 71 -169t-74 -173q-144 -147 -376 -147h-270q-400 0 -400 400v347q-156 -187 -360 -187h-216v-480q0 -33 -21 -56.5t-51 -23.5t-51 23.5t-21 56.5zM224 720h216q134 0 229 105.5t95 254.5t-95 254.5t-229 105.5h-216v-720z M960 400q0 -240 240 -240h270q166 0 265 104q24 29 24 69q-3 47 -49 64l-492 163q-91 34 -127 71q-71 70 -71 169q0 90 62 160h-122v-560z" />
<glyph unicode="&#x20ac;" horiz-adv-x="1480" d="M80 800q0 331 234.5 565.5t565.5 234.5q286 0 509 -183q23 -24 23 -57t-23.5 -56.5t-56.5 -23.5t-57 24q-169 136 -395 136q-265 0 -452 -187q-97 -97 -143 -213h915q33 0 56.5 -23.5t23.5 -56.5t-23.5 -56.5t-56.5 -23.5h-956q-4 -39 -4 -80t4 -80h956q33 0 56.5 -23.5 t23.5 -56.5t-23.5 -56.5t-56.5 -23.5h-915q46 -116 143 -212q187 -188 452 -188q229 0 400 140q20 14 46 14q33 0 56.5 -23.5t23.5 -56.5t-23 -56q-223 -178 -503 -178q-331 0 -565.5 234.5t-234.5 565.5z" />
<glyph unicode="&#x2122;" horiz-adv-x="1500" d="M56 992q0 13 10.5 22.5t25.5 9.5h468q15 0 25.5 -9.5t10.5 -22.5t-10.5 -22.5t-25.5 -9.5h-198v-544q0 -13 -10.5 -22.5t-25.5 -9.5t-25.5 9.5t-10.5 22.5v544h-198q-15 0 -25.5 9.5t-10.5 22.5zM326 416v576q0 13 10.5 22.5t25.5 9.5q22 0 32 -17l292 -519l292 519 q10 17 32 17q15 0 25.5 -9.5t10.5 -22.5v-576q0 -13 -10.5 -22.5t-25.5 -9.5t-25.5 9.5t-10.5 22.5v440l-257 -456q-9 -16 -31 -16t-33 20l-255 452v-440q0 -13 -10.5 -22.5t-25.5 -9.5t-25.5 9.5t-10.5 22.5z" />
<glyph unicode="&#x2202;" d="M80 560q0 232 164 396t396 164t395 -163q-23 183 -159 319q-164 164 -396 164q-95 0 -180 -27q-14 -6 -30 -6q-33 0 -56.5 23.5t-23.5 56.5t24 57q17 17 41 23q105 33 225 33q298 0 509 -211t211 -509v-320q0 -232 -164 -396t-396 -164t-396 164t-164 396zM240 560 q0 -166 117 -283t283 -117t283 117t117 283t-117 283t-283 117t-283 -117t-117 -283z" />
<glyph unicode="&#x2206;" horiz-adv-x="1440" d="M80 80q0 22 10 45l557 1425q6 15 17 26q23 24 56 24t57 -24q10 -11 16 -26l557 -1425q10 -23 10 -45q0 -33 -23.5 -56.5t-56.5 -23.5h-1120q-33 0 -56.5 23.5t-23.5 56.5zM277 160h886l-443 1139z" />
<glyph unicode="&#x220f;" horiz-adv-x="1440" d="M80 -400v1920q0 33 23.5 56.5t56.5 23.5h1120q33 0 56.5 -23.5t23.5 -56.5v-1920q0 -33 -23.5 -56.5t-56.5 -23.5t-56.5 23.5t-23.5 56.5v1840h-960v-1840q0 -33 -23.5 -56.5t-56.5 -23.5t-56.5 23.5t-23.5 56.5z" />
<glyph unicode="&#x2211;" horiz-adv-x="1440" d="M80 -400q0 28 17 50l759 910l-759 910q-17 22 -17 50q0 33 23.5 56.5t56.5 23.5h1120q33 0 56.5 -23.5t23.5 -56.5t-23.5 -56.5t-56.5 -23.5h-950l692 -829q18 -22 18 -51t-18 -51l-691 -829h949q33 0 56.5 -23.5t23.5 -56.5t-23.5 -56.5t-56.5 -23.5h-1107 q-46 0 -69.5 23.5t-23.5 56.5z" />
<glyph unicode="&#x221a;" horiz-adv-x="1600" d="M80 720q0 33 23.5 56.5t56.5 23.5t57 -23q11 -12 17 -25l246 -492l726 1451q7 14 18 26q23 23 56 23h160q33 0 56.5 -23.5t23.5 -56.5t-23.5 -56.5t-56.5 -23.5h-110l-778 -1555q-6 -12 -15 -21q-24 -24 -57 -24t-56 24q-9 8 -14 17l-320 640q-10 17 -10 39z" />
<glyph unicode="&#x221e;" horiz-adv-x="1600" d="M80 720q0 166 117 283t283 117t283 -117q20 -20 37 -42q17 22 37 42q117 117 283 117t283 -117t117 -283t-117 -283t-283 -117t-283 117q-20 20 -37 42q-17 -22 -37 -42q-117 -117 -283 -117t-283 117t-117 283zM240 720q0 -99 70.5 -169.5t169.5 -70.5t169.5 70.5 t70.5 169.5t-70.5 169.5t-169.5 70.5t-169.5 -70.5t-70.5 -169.5zM880 720q0 -99 70.5 -169.5t169.5 -70.5t169.5 70.5t70.5 169.5t-70.5 169.5t-169.5 70.5t-169.5 -70.5t-70.5 -169.5z" />
<glyph unicode="&#x222b;" horiz-adv-x="1120" d="M82 -9q0 42 23.5 65.5t56.5 23.5t57 -23q19 -20 22 -45q3 -22 17 -40q21 -26 54 -30q32 -4 58.5 17t29.5 53l159 1605q12 99 91 161q66 52 147 52q123 -5 189 -92q43 -54 50 -118q0 -42 -23.5 -65.5t-56.5 -23.5t-56 24q-17 16 -24 50q-3 19 -15 34q-21 26 -54 30 t-59 -17t-30 -53l-159 -1605q-11 -99 -89 -160q-67 -53 -148 -53q-114 0 -189 92q-43 54 -51 118z" />
<glyph unicode="&#x2248;" horiz-adv-x="960" d="M71 630q0 33 23.5 56.5t56.5 23.5q32 0 56 -22q47 -48 113 -48q56 0 100 35q89 80 212 80q133 0 227 -94q22 -24 22 -56q0 -33 -23.5 -56.5t-56.5 -23.5q-32 0 -56 22q-47 48 -113 48q-57 0 -100 -35q-90 -80 -212 -80q-133 0 -227 94q-22 24 -22 56zM71 984 q0 33 23.5 56.5t56.5 23.5q32 0 56 -22q47 -48 113 -48q56 0 100 35q89 80 212 80q133 0 227 -94q22 -24 22 -56q0 -33 -23.5 -56.5t-56.5 -23.5q-32 0 -56 22q-47 48 -113 48q-57 0 -100 -35q-90 -80 -212 -80q-133 0 -227 94q-22 24 -22 56z" />
<glyph unicode="&#x2260;" horiz-adv-x="1040" d="M80 480q0 33 23.5 56.5t56.5 23.5h226l100 320h-326q-33 0 -56.5 23.5t-23.5 56.5t23.5 56.5t56.5 23.5h376l106 339q5 21 22 38q23 23 56 23t56.5 -23.5t23.5 -56.5q0 -15 -5 -29l-91 -291h176q33 0 56.5 -23.5t23.5 -56.5t-23.5 -56.5t-56.5 -23.5h-226l-101 -320h327 q33 0 56.5 -23.5t23.5 -56.5t-23.5 -56.5t-56.5 -24.5h-377l-105 -337q-5 -22 -21 -38q-24 -24 -57 -24t-56.5 23.5t-23.5 56.5q0 17 6 32l90 287h-176q-33 1 -56.5 24.5t-23.5 56.5z" />
<glyph unicode="&#x2264;" horiz-adv-x="1120" d="M80 161q0 33 23.5 56.5t56.5 23.5h800q33 0 56.5 -23.5t23.5 -56.5t-23.5 -56.5t-56.5 -23.5h-800q-33 0 -56.5 23.5t-23.5 56.5zM80 880q0 44 44 72l796 478q18 10 40 10q33 0 56.5 -23.5t23.5 -56.5q0 -43 -41 -70l-684 -410l684 -410q41 -27 41 -70q0 -33 -23.5 -56.5 t-56.5 -23.5q-22 0 -40 10l-796 478q-44 28 -44 72z" />
<glyph unicode="&#x2265;" horiz-adv-x="1120" d="M80 160q0 33 23.5 56.5t56.5 23.5h800q33 0 56.5 -23.5t23.5 -56.5t-23.5 -56.5t-56.5 -23.5h-800q-33 0 -56.5 23.5t-23.5 56.5zM80 399q0 43 41 70l684 410l-684 410q-41 27 -41 70q0 33 23.5 56.5t56.5 23.5q22 0 40 -10l796 -478q44 -28 44 -72t-44 -72l-796 -478 q-18 -10 -40 -10q-33 0 -56.5 23.5t-23.5 56.5z" />
<glyph unicode="&#xe000;" horiz-adv-x="1120" d="M0 0v1120h1120v-1120h-1120z" />
</font>
</defs>
</svg>
