<?xml version="1.0" standalone="no"?>
<!DOCTYPE svg PUBLIC "-//W3C//DTD SVG 1.1//EN" "http://www.w3.org/Graphics/SVG/1.1/DTD/svg11.dtd" >
<svg xmlns="http://www.w3.org/2000/svg">
<metadata></metadata>
<defs>
<font id="lobster_1.4regular" horiz-adv-x="1034" >
<font-face units-per-em="2048" ascent="1638" descent="-410" />
<missing-glyph horiz-adv-x="444" />
<glyph unicode="&#xfb01;" horiz-adv-x="1094" d="M-424 -283q0 172 226 255q63 24 128 44l228 1078q94 440 479 440q286 0 351 -150q16 -37 16 -86q0 -91 -50 -128t-112 -37q-123 0 -123 110q0 35 18.5 67.5t50.5 32.5h10q5 0 7 -2q-4 82 -113 82q-135 0 -192 -145q-17 -42 -25 -86l-35 -168h164l-16 -82h-164l-234 -1106 q-40 -192 -154 -280q-88 -68 -203 -68t-186 62t-71 167zM-311 -248q0 -45 28 -63.5t57 -18.5t64 36.5t53 123.5l25 119q-227 -74 -227 -197zM531 233q0 58 16 134l139 657h295l-147 -696q-8 -37 -8 -73q0 -69 83 -69q60 0 111.5 52t73.5 129h86q-132 -379 -442 -379 q-80 0 -144 58q-63 58 -63 187z" />
<glyph unicode="&#xfb02;" horiz-adv-x="1122" d="M-428 -304q0 83 27.5 131.5t88 92t238.5 96.5l246 1170q72 348 381 348q133 0 231 -32l166 -57q67 -24 137 -52l-225 -1065q-8 -37 -8 -73q0 -69 84 -69q59 0 110 51t74 130h86q-133 -379 -441 -379q-81 0 -145 58q-63 58 -63 187q0 58 16 134l213 1005q-82 33 -167 33 q-105 0 -140 -162l-45 -219h191l-17 -82h-190l-234 -1106q-70 -348 -372 -348q-95 0 -168.5 62.5t-73.5 145.5zM-315 -262q0 -40 49 -62q15 -6 39.5 -6t60 34t53.5 126l25 119q-110 -39 -151 -72q-76 -61 -76 -139z" />
<glyph unicode="&#xfb03;" horiz-adv-x="1565" d="M-428 -304q0 83 27.5 131.5t88 92t238.5 96.5l246 1170q73 348 373 348q169 0 252 -107q113 107 309 107q286 0 351 -150q16 -37 16 -86q0 -91 -50 -128t-112 -37q-123 0 -123 110q0 35 18.5 67.5t50.5 32.5h10q5 0 7 -2q-4 82 -113 82q-175 0 -217 -231l-35 -168h543 l-147 -696q-8 -37 -8 -73q0 -69 83 -69q60 0 111.5 52t73.5 129h86q-132 -379 -441 -379q-81 0 -145 58q-63 58 -63 187q0 58 16 134l121 575h-246l-234 -1106q-40 -192 -154 -280q-88 -68 -206 -68q-160 0 -223 109q-99 -109 -262 -109q-95 0 -168.5 62.5t-73.5 145.5z M-303 -262q0 -40 49 -62q15 -6 40 -6t60 34q34 34 54 126l24 119q-110 -39 -151 -72q-76 -61 -76 -139zM145 -293q13 -65 79 -65q42 0 78.5 45t57.5 143l48 223l-183 -37l-39 -180q-13 -67 -41 -129zM238 74l180 30l176 838h-172zM438 1024h174l15 70q28 148 102 256 q-30 34 -77 34q-148 0 -181 -192z" />
<glyph unicode="&#xfb04;" horiz-adv-x="1597" d="M-428 -304q0 83 27.5 131.5t88 92t238.5 96.5l246 1170q42 199 158 284q89 64 227.5 64t222.5 -86q96 86 238.5 86t240.5 -32l166 -57q68 -24 138 -52l-226 -1065q-8 -37 -8 -73q0 -69 84 -69q60 0 111 51q50 52 73 130h86q-133 -379 -441 -379q-81 0 -145 58 q-63 58 -63 187q0 54 17 134l213 1005q-82 33 -168 33q-105 0 -140 -162l-45 -219h191l-17 -82h-190l-236 -1106q-40 -192 -154 -280q-88 -68 -206 -68q-161 0 -223 111q-101 -111 -262 -111q-95 0 -168.5 62.5t-73.5 145.5zM-303 -262q0 -40 49 -62q15 -6 40 -6t60 34 q34 34 54 126l24 119q-110 -39 -151 -72q-76 -61 -76 -139zM145 -291q6 -67 76 -67q99 0 139 188l48 223l-183 -37l-39 -180q-13 -65 -41 -127zM238 74l180 30l178 838h-174zM438 1024h174l35 162q18 98 66 178q-28 20 -69 20q-74 0 -116.5 -55t-56.5 -137z" />
<glyph horiz-adv-x="2048" />
<glyph horiz-adv-x="2048" />
<glyph unicode="&#xd;" horiz-adv-x="682" />
<glyph unicode=" "  horiz-adv-x="444" />
<glyph unicode="&#x09;" horiz-adv-x="444" />
<glyph unicode="&#xa0;" horiz-adv-x="444" />
<glyph unicode="!" horiz-adv-x="526" d="M70 163.5q0 67.5 48 115t115.5 47.5t114.5 -47.5t47 -114.5t-47 -115.5t-114.5 -48.5t-115.5 48t-48 115.5zM201 473l145 961h295l-266 -961h-174z" />
<glyph unicode="&#x22;" horiz-adv-x="860" d="M127 1149l125 387h215l-186 -387h-154zM449 1149l124 387h215l-186 -387h-153z" />
<glyph unicode="#" horiz-adv-x="1350" d="M92 227l43 209h213l43 232h-209l43 209h203l107 593h180l-133 -593h215l106 593h180l-133 -593h213l-41 -209h-217l-51 -232h219l-41 -209h-225l-62 -282h-116l51 282h-242l-61 -282h-117l51 282h-219zM485 436h232l43 232h-223z" />
<glyph unicode="$" horiz-adv-x="825" d="M49 455q0 79 43.5 127.5t95.5 48.5t74.5 -15.5t22.5 -35.5q-82 -17 -82 -152q0 -45 25.5 -77t60.5 -48l73 402l-76 59q-87 67 -114 119.5t-27 105.5q0 104 98 182t218 82l39 217h118l-51 -223q80 -14 113 -41q65 -50 65 -126q0 -158 -98 -158q-41 0 -80 47q49 29 49 106 q0 23 -15 49.5t-50 40.5l-74 -329l80 -58q152 -105 152 -251.5t-101.5 -225t-267.5 -82.5l-59 -274h-56l49 276q-94 7 -160 60q-65 53 -65 174zM340 1013.5q0 -55.5 57 -114.5l49 277q-60 -14 -83 -60.5t-23 -102zM358 295q73 10 105 63q31 53 31 128.5t-60 148.5z" />
<glyph unicode="%" horiz-adv-x="1319" d="M219 986q0 200 90 326t242 126q90 0 129 -59.5t39 -189t-83 -276.5t-226 -147q-109 0 -150 58t-41 162zM248 0l790 1536h148l-791 -1536h-147zM367 1016q0 -92 10 -133t47 -41q76 0 124 117.5t48 277.5q0 53 -9 91t-42 38q-51 0 -103 -78q-75 -114 -75 -272zM727 218 q0 202 90 328t242 126q91 0 139.5 -59t48.5 -194.5t-73 -263.5q-87 -155 -251 -155q-114 0 -155 57t-41 161zM864 209q0 -51 10 -92t48 -41q74 0 119.5 109t45.5 260t-57 151q-49 0 -96 -76q-70 -110 -70 -311z" />
<glyph unicode="&#x26;" horiz-adv-x="1397" d="M23 394q0 164 97 294t273 166q-203 109 -203 311q0 148 124 259.5t331 111.5q157 0 267 -68.5t110 -205.5q0 -189 -143 -189q-72 0 -117 53q34 11 62 68.5t28 85.5q0 166 -135 166q-109 0 -179.5 -74t-70.5 -170.5t62 -188.5q63 -91 208 -157q-184 -77 -270 -185.5 t-86 -223.5t70.5 -195t169.5 -80q195 0 305 199q41 74 65 186l-75 8q-35 4 -70 4q-134 0 -193 -92l-14 2q31 127 133 208t262 81l156 -10q55 0 111.5 20.5t82.5 67.5h13q0 -89 -94 -177.5t-218 -107.5q-123 -443 -389 -542q-83 -31 -219.5 -31t-215.5 35t-132 93 q-106 114 -106 278z" />
<glyph unicode="'" horiz-adv-x="549" d="M209 1149l125 387h215l-187 -387h-153z" />
<glyph unicode="(" horiz-adv-x="895" d="M283 205q0 196 47 403q97 432 345 713q127 143 275 215l27 -82q-225 -111 -387 -510q-99 -240 -138 -523q-20 -138 -20 -271q0 -376 150 -603l-68 -59q-231 254 -231 717z" />
<glyph unicode=")" horiz-adv-x="846" d="M-59 -430q115 57 213 193q202 270 289 703q42 208 42 408q0 378 -149 603l67 59q120 -132 176 -320t56 -392q0 -423 -181 -799q-87 -182 -211.5 -323t-275.5 -214z" />
<glyph unicode="*" horiz-adv-x="1055" d="M176 1026l223 129l-223 129l62 107l219 -127v276h131v-276l219 127l61 -107l-223 -129l223 -129l-61 -106l-219 127v-277h-131v277l-219 -127z" />
<glyph unicode="+" horiz-adv-x="1055" d="M109 420l49 229h262l55 250h232l-56 -250h260l-47 -229h-262l-55 -252h-232l56 252h-262z" />
<glyph unicode="," horiz-adv-x="442" d="M49 143q0 77 46.5 125.5t115.5 48.5q100 0 130 -93q9 -29 9 -68q0 -91 -72.5 -211.5t-193.5 -202.5q-18 12 -18 37q0 33 53 89t53 87t-34 53q-89 58 -89 135z" />
<glyph unicode="-" horiz-adv-x="594" d="M39 455l37 161h409l-34 -161h-412z" />
<glyph unicode="." horiz-adv-x="539" d="M63 153q0 67 47 116q48 48 115.5 48t115.5 -48t48 -116t-48.5 -114.5t-115 -46.5t-115.5 47q-47 47 -47 114z" />
<glyph unicode="/" horiz-adv-x="637" d="M23 -512l434 2048h147l-434 -2048h-147z" />
<glyph unicode="0" horiz-adv-x="1118" d="M61 486q0 588 293 876q177 174 418 174q365 0 365 -521q0 -360 -169 -676q-190 -357 -496 -357q-236 0 -332 141q-79 118 -79 363zM375 463q0 -309 121 -309q88 0 156 86q135 168 190 539q26 176 26 297q0 204 -18 268q-25 86 -90.5 86t-145.5 -96q-134 -162 -198 -452 q-41 -180 -41 -419z" />
<glyph unicode="1" horiz-adv-x="649" d="M43 0l270 1278h-194l24 94q115 0 194 20q166 43 327 140l-326 -1532h-295z" />
<glyph unicode="2" horiz-adv-x="1008" d="M-23 27v34q0 112 49 204q81 152 284 353.5t291 389.5q50 111 50 247q0 76 -40 122t-88 46q-94 0 -128.5 -40t-34.5 -119t42 -124q15 -16 36 -22q-78 -69 -148.5 -69t-112.5 47t-42 118q0 138 104 229t318 91q389 0 389 -330q0 -281 -300 -534l-164 -136 q-81 -65 -151.5 -129.5t-113.5 -134.5h10q92 0 184.5 -18.5t176 -18.5t119.5 9q64 17 123 72l63 61q2 -25 2 -47v-43q0 -163 -49.5 -235.5t-179.5 -72.5t-229.5 25.5t-157 37t-105.5 11.5q-63 0 -114 -23l-78 -34q-5 16 -5 33z" />
<glyph unicode="3" horiz-adv-x="1053" d="M12 343q0 123 62 206q63 82 194 82t152 -105q-180 -12 -180 -221q0 -152 98 -175q28 -7 75.5 -7t100.5 28.5t90 76.5q76 99 76 241q0 198 -150 320q-51 42 -122 67q162 47 256 164.5t94 234.5q0 168 -174 168q-57 0 -100.5 -43.5t-43.5 -99.5q0 -140 78 -162 q-77 -69 -156 -69q-100 0 -136 99q-11 33 -11 88.5t33 113t90 98.5q120 86 300.5 86t281 -87t100.5 -201t-69.5 -217t-211.5 -175q135 -45 196.5 -136.5t61.5 -201.5q0 -197 -157 -356q-167 -169 -412 -169q-58 0 -122 9q-161 26 -247 150q-47 70 -47 193z" />
<glyph unicode="4" horiz-adv-x="975" d="M16 563q18 56 47 120l129 277q123 271 123 453q0 64 -14 123q152 0 209 -110q18 -37 18 -109.5t-31.5 -155t-78 -157.5t-98 -145.5t-91.5 -143.5h320l166 780l303 41l-176 -821h131l-41 -152h-123l-119 -563h-295l121 563h-500z" />
<glyph unicode="5" horiz-adv-x="1059" d="M31 285q0 147 79 218.5t195.5 71.5t136.5 -104q-80 -11 -132 -57t-52 -133.5t56 -124.5q42 -29 109 -29q122 0 192.5 115t70.5 262.5t-60 222t-154.5 74.5t-155.5 -29q-113 -55 -160 -86l168 817q54 -6 102 -12l93 -11q94 -12 173 -12q164 0 332 66q4 -32 4 -74 q0 -98 -55.5 -164.5t-179.5 -66.5q-80 0 -196 23.5t-146 27.5l-82 -371q132 64 241 64q191 0 283 -121t92 -303q0 -234 -140 -386q-160 -173 -454 -173q-360 0 -360 295z" />
<glyph unicode="6" horiz-adv-x="1018" d="M33 395v37q0 137 32 304t75 286q90 242 248 378t378 136q108 0 171.5 -51t63.5 -110.5t-44 -100.5t-138 -45q33 31 33 72.5t-29 76.5t-73 35q-100 0 -202 -121.5t-172 -401.5q-38 -149 -54.5 -308.5t-16.5 -221.5q0 -126 40 -168t107 -42q118 0 206 134q92 136 92 282 q0 214 -107 214t-182 -155q-41 59 -41 111q0 96 85 154t181 58t148.5 -30.5t85.5 -78.5q65 -92 65 -227q0 -265 -165 -443.5t-388 -178.5q-326 0 -382 250q-17 73 -17 155z" />
<glyph unicode="7" horiz-adv-x="950" d="M68 246q0 136 52 266q98 240 347 542l246 292q-90 12 -174 12q-295 0 -424 -146q-17 74 -17 122q0 101 65 151.5t214 50.5h672l-195 -298l-260 -414q-143 -239 -162 -281q-65 -151 -65 -264q0 -62 22.5 -107t77.5 -92q-30 -80 -179 -80q-113 0 -166.5 55t-53.5 191z" />
<glyph unicode="8" horiz-adv-x="1022" d="M-16 392.5q0 159.5 95.5 284.5t272.5 177q-174 101 -174 279q0 153 130.5 277t320.5 124t291.5 -85t101.5 -200.5t-71 -219.5t-216 -175q130 -40 189 -128t59 -170.5t-19 -147.5t-54 -126q-77 -130 -206.5 -211t-287.5 -81q-202 0 -317 121.5t-115 281zM281 340 q0 -95 37.5 -149t98.5 -54q108 0 176.5 103.5t68.5 240.5q0 190 -130 303q-183 -125 -236 -334q-15 -61 -15 -110zM446 1188q0 -169 109 -264q145 94 193 274q14 50 14 103.5t-25.5 94t-76.5 40.5q-96 0 -155 -80.5t-59 -167.5z" />
<glyph unicode="9" horiz-adv-x="1001" d="M59 184q0 152 177 152q-29 -29 -29 -72t31.5 -77.5t64.5 -34.5t51.5 2t59.5 19t74 47q88 78 157.5 261t93.5 516q4 78 4 107q0 176 -44 236.5t-139 60.5t-176 -141.5t-81 -303.5q0 -84 25.5 -147.5t89.5 -63.5q125 0 172 123q43 -51 43 -102q0 -78 -81 -133t-208 -55 t-200.5 108.5t-73.5 249.5q0 254 153.5 427t376.5 173q395 0 395 -481q0 -310 -83 -549.5t-241.5 -377.5t-369.5 -138q-111 0 -176.5 59.5t-65.5 134.5z" />
<glyph unicode=":" horiz-adv-x="547" d="M84 276q0 67 46.5 115.5t114.5 48.5t116.5 -48t48.5 -116t-49 -114.5t-116 -46.5t-114 47t-47 114zM186 767.5q0 67.5 47 116.5q48 48 115.5 48t115.5 -48t48 -116.5t-48.5 -115t-115 -46.5t-115.5 47q-47 47 -47 114.5z" />
<glyph unicode=";" horiz-adv-x="565" d="M94 176q0 77 46.5 125.5t115.5 48.5q100 0 130 -94q9 -28 9 -68q0 -91 -73 -212t-193 -201q-18 12 -18 37q0 33 53 89t53 86t-27 50q-96 62 -96 139zM193 677q0 67 46.5 116t114.5 49t116 -48.5t48 -116.5t-48.5 -114.5t-115.5 -46.5t-114 47t-47 114z" />
<glyph unicode="&#x3c;" horiz-adv-x="735" d="M41 487l18 84l629 308l-20 -113l-494 -246l397 -196l-24 -117z" />
<glyph unicode="=" horiz-adv-x="1055" d="M66 207l49 229h753l-47 -229h-755zM156 647l49 230h753l-47 -230h-755z" />
<glyph unicode="&#x3e;" horiz-adv-x="705" d="M31 207l28 117l492 196l-397 246l18 113l504 -308l-23 -110z" />
<glyph unicode="?" horiz-adv-x="903" d="M98 163.5q0 67.5 48.5 115t116 47.5t114.5 -47.5t47 -114.5t-47 -115.5t-114.5 -48.5t-116.5 48q-48 48 -48 115.5zM113 1087q0 141 99 234q118 113 331 113q275 0 316 -152q12 -43 12 -80t-1 -40q0 -207 -208 -364l-111 -90q-132 -111 -172 -233h-135q0 120 96 243 q42 52 90 102t90 104q96 127 96 246q0 153 -116 153q-57 0 -108.5 -49t-51.5 -120.5t41 -113.5q15 -16 37 -22q-54 -86 -150 -86q-60 0 -107.5 43t-47.5 112z" />
<glyph unicode="@" horiz-adv-x="1151" d="M-16 336q0 335 206 570q130 149 308 206q90 28 162 28t126 -10q126 -23 187 -141q33 -64 33 -167t-30 -199.5t-79 -173t-111.5 -123.5t-127 -47t-91.5 47q-53 -80 -121 -80q-131 0 -131 136.5t60 279t131 195.5q37 27 83 27l1 1q45 0 74 -37l8 33l112 -13l-92 -393 q-8 -26 -8 -56t29 -30q80 0 142 339q13 74 13 110q0 79 -34 118q-44 54 -132.5 54t-153.5 -27.5t-118 -74.5q-104 -94 -162.5 -247t-58.5 -297t53 -201t180.5 -57t198.5 32.5t125 103.5q47 -19 47 -80q0 -112 -111 -174q-114 -66 -310.5 -66t-302 94.5t-105.5 319.5z M449 434q0 -63 36 -63q26 0 68 28q0 20 6 43l88 340q-14 17 -48 17t-65 -46q-67 -99 -83 -281q-2 -22 -2 -38z" />
<glyph unicode="A" horiz-adv-x="1368" d="M18 684q0 106 119 180q121 74 299 74q41 0 107 -6q166 261 352.5 432.5t359.5 171.5q104 0 162 -29l-321 -1507h-295l157 743q-136 62 -274 74q-184 -407 -246 -747q-20 -109 -20 -186.5t28 -116.5q-121 0 -170 25q-104 52 -104 192q0 212 178 596q56 120 123 237 q-96 -6 -157.5 -29.5t-82.5 -76.5q9 0 18 -20.5t9 -50.5t-33.5 -51.5t-70.5 -21.5q-67 0 -102.5 31.5t-35.5 85.5zM727 905q143 -28 250 -71l119 557q-176 -96 -369 -486z" />
<glyph unicode="B" horiz-adv-x="1313" d="M25 993q0 108 61 204.5t164 172.5q229 166 518 166q214 0 325 -94.5t111 -231.5q0 -92 -52 -180t-153 -145q124 -25 183 -115t59 -215q0 -73 -21 -175q-48 -226 -212 -351q-85 -64 -217.5 -64t-180.5 75q-20 30 -20 78.5t26 117.5q69 -74 132 -74q108 0 163 126 q45 102 45 242q0 261 -194 261q-45 0 -94 -7l-168 -784h-295l278 1303l303 40l-96 -454h12q118 0 206.5 106t88.5 226q0 150 -145 203q-52 18 -118.5 18t-128 -13.5t-117.5 -40.5q-125 -61 -199 -173.5t-74 -270.5q0 -81 25 -125q4 -8 4 -14q-162 0 -204 100q-15 36 -15 88z " />
<glyph unicode="C" horiz-adv-x="1018" d="M39 457q0 257 85 513q99 302 292 452q148 114 338 114q238 0 315 -149q27 -52 27 -125q0 -189 -144 -189q-72 0 -116 53q37 20 65.5 75t28.5 109.5t-28.5 92t-91 37.5t-116 -42t-100.5 -114q-95 -144 -155 -368t-60 -406.5t53.5 -264t183.5 -81.5q256 0 408 205l47 -21 q-98 -248 -373 -344q-108 -38 -212 -38h-6q-227 2 -334 118t-107 373z" />
<glyph unicode="D" horiz-adv-x="1358" d="M12 1004q0 61 27.5 128.5t77.5 127.5q102 123 278 199.5t379 76.5q369 0 494 -298q53 -127 53 -298.5t-47 -345.5q-97 -363 -305 -535q-104 -86 -221.5 -86t-243.5 109l-17 -82h-294l278 1303l303 40l-246 -1148q56 -41 117 -41q92 0 165 82q141 159 200 503 q28 158 28 316q0 387 -299 387q-234 0 -385 -135t-151 -363q0 -83 23 -125q5 -8 5 -14q-162 0 -204 101q-15 37 -15 98z" />
<glyph unicode="E" horiz-adv-x="940" d="M14 332q0 162 105 321t274 201q-125 91 -125 251t130 297.5t319 137.5q127 0 210 -66.5t83 -174t-45 -168t-104 -60.5t-99 55q36 14 63 68t27 113.5t-36 85.5q-37 26 -80 26q-86 0 -146 -88.5t-60 -200.5q0 -154 112 -232q40 -28 95 -42q-156 -34 -261 -187t-105 -302 q0 -86 45 -146.5t148 -60.5t213.5 55t166.5 154l47 -21q-81 -178 -246.5 -281.5t-353 -103.5t-282.5 103.5t-95 265.5z" />
<glyph unicode="F" horiz-adv-x="940" d="M18 1027q0 79 38 175t122 170q185 164 539 164q67 0 154 -12.5t190 -12.5t180 25l-19 -69q-37 -147 -175 -177q-111 0 -287 39l-86 -407h299l-33 -152h-299l-166 -770h-295l295 1368q-130 -4 -198 -98q-68 -93 -68 -326q0 -81 25 -125q4 -8 4 -14q-165 0 -206 105 q-14 38 -14 117z" />
<glyph unicode="G" horiz-adv-x="1184" d="M39 748q0 148 49 290q75 213 251.5 355.5t428 142.5t344.5 -149q33 -52 33 -125q0 -189 -144 -189q-95 0 -141 53q34 13 62 69t28 84q0 161 -141 161q-83 0 -166.5 -65t-147 -166t-102.5 -228t-39 -222q0 -174 59 -270t177 -96t176 76l88 389l264 -2l-168 -770 q-52 -253 -169 -381.5t-355 -128.5q-136 0 -210.5 83t-74.5 197t67.5 198.5t169 84.5t137.5 -17q77 -34 77 -120q0 -37 -12 -82q-63 53 -129 53t-102 -49.5t-36 -104t31.5 -98t82.5 -43.5t81 10q92 29 139 242l82 367q-136 -74 -256 -74q-229 0 -340 156q-94 133 -94 369z " />
<glyph unicode="H" horiz-adv-x="1362" d="M25 1004q0 103 65 198q131 195 396 289q127 45 257 45q42 0 82 -4l-131 -610h301l131 610h295l-325 -1532h-295l164 770h-301l-164 -770h-295l297 1393q-136 -58 -211.5 -171t-75.5 -278q0 -81 25 -125q4 -8 4 -14q-166 0 -205 105q-14 38 -14 94z" />
<glyph unicode="I" horiz-adv-x="768" d="M12 1004q0 103 64.5 198.5t166.5 169.5q233 164 488 164q42 0 82 -4l-326 -1532h-294l296 1391q-286 -120 -286 -447q0 -83 23 -125q5 -8 5 -14q-164 0 -205 105q-14 38 -14 94z" />
<glyph unicode="J" horiz-adv-x="1098" d="M35 -144.5q0 119.5 67 201.5t168.5 82t137.5 -17q77 -34 77 -120q0 -37 -12 -82q-57 46 -82.5 49.5t-40.5 3.5q-71 0 -107 -47t-36 -96q0 -82 42.5 -117t86.5 -35q83 0 126 49.5t79 202.5l321 1463q-135 -56 -212 -169.5t-77 -279.5q0 -81 25 -125q4 -8 4 -14 q-164 0 -204 105q-15 38 -15 94q0 103 64.5 198.5t166.5 169.5q233 164 488 164h82l-307 -1454q-54 -250 -176.5 -378t-362.5 -128q-148 0 -226 80q-77 80 -77 199.5z" />
<glyph unicode="K" horiz-adv-x="1231" d="M12 1004q0 103 64.5 198.5t166.5 169.5q233 164 488 164q42 0 82 -4l-133 -627l450 603l15 18h215l-569 -656l71 2q205 0 242 -132q12 -40 12 -95q0 -83 -50 -265t-50 -237q0 -113 80 -143q-128 -35 -203 -35q-160 0 -160 137q1 72 54.5 262.5t54.5 276.5q0 139 -123 139 q-28 0 -68 -8l-164 -772h-294l296 1393q-136 -58 -211 -171t-75 -278q0 -83 23 -125q5 -8 5 -14q-164 0 -205 105q-14 38 -14 94z" />
<glyph unicode="L" horiz-adv-x="776" d="M12 983q0 200 231 368q234 165 488 165q32 0 82 -5l-315 -1470q84 -19 177 -69l149 -81q207 -114 362 -114q94 0 172 33q-16 -146 -72.5 -234t-140.5 -88q-132 0 -313 140l-234 180q-198 145 -367 145h-23q-11 0 -24 -2l305 1419q-136 -55 -211 -167t-75 -279 q0 -83 23 -125q5 -8 5 -15q-164 0 -205 105q-14 38 -14 94z" />
<glyph unicode="M" horiz-adv-x="1612" d="M137 0l520 1407q-153 -51 -239 -168t-86 -293q0 -88 24 -128q4 -7 4 -13q-219 0 -219 186q0 194 209 371q91 78 208.5 126t214.5 48t175 -29l-47 -1079l451 1079h295l-215 -1507h-295l131 920l-385 -920h-281l41 924l-342 -924h-164z" />
<glyph unicode="N" horiz-adv-x="1368" d="M12 1005.5q0 57.5 18.5 119.5t53.5 121q76 129 208 209.5t300 80.5q48 0 96.5 -3t93.5 -26l162 -1085l223 1110h295l-325 -1532h-248l-174 1071l-228 -1071h-294l294 1391q-136 -57 -210 -169.5t-74 -277.5q0 -83 23 -125q5 -8 5 -14q-164 0 -205 105q-14 38 -14 95.5z " />
<glyph unicode="O" horiz-adv-x="1362" d="M33 983q0 100 68 201q145 212 447 306q150 46 310 46q485 0 485 -524q0 -353 -177 -660q-126 -221 -336 -316q-108 -48 -215.5 -48t-174.5 22q-219 74 -219 389q0 211 79 449q126 384 346 484q61 28 126.5 28t110.5 -17q-89 -53 -176 -227q-126 -249 -169 -552 q-14 -94 -14 -173q0 -237 119 -237h2q99 0 198 144t163.5 363.5t64.5 416t-54 280.5t-208 84q-246 0 -418 -145.5t-172 -381.5q0 -60 10.5 -79.5t10.5 -30.5q-100 0 -153.5 39t-53.5 139z" />
<glyph unicode="P" horiz-adv-x="1174" d="M12 1004q0 103 64.5 198.5t166.5 169.5q233 164 479 164t369 -116t123 -287q0 -98 -40.5 -196t-117.5 -177q-172 -176 -433 -176h-11l-125 -584h-294l278 1303l303 40l-145 -684q150 14 254 172t104 342t-139 247q-48 22 -115 22q-250 0 -390 -131t-140 -367 q0 -83 23 -125q5 -8 5 -14q-164 0 -205 105q-14 38 -14 94z" />
<glyph unicode="Q" horiz-adv-x="1362" d="M33 983q0 100 68 201q145 212 447 306q150 46 310 46q485 0 485 -524q0 -240 -98.5 -502t-292.5 -404q55 -79 94 -109q73 -56 162 -56q21 0 45 4q-41 -107 -93.5 -141.5t-119.5 -34.5q-120 0 -184 79q-38 47 -78 168q-88 -28 -180 -28q-180 0 -278.5 98.5t-98.5 311 t79 450.5q126 384 346 484q61 28 126.5 28t110.5 -17q-89 -53 -176 -227q-126 -249 -169 -552q-14 -94 -14 -173v-46q0 -21 4 -42q72 19 144.5 19t146.5 -56q106 132 179 364.5t73 441.5v11q0 191 -54 275t-208 84q-246 0 -418 -145.5t-172 -381.5q0 -60 10.5 -79.5 t10.5 -30.5q-100 0 -153.5 39t-53.5 139zM545 238q28 -84 98 -84q43 0 78 22q-43 70 -117 70q-27 0 -59 -8z" />
<glyph unicode="R" horiz-adv-x="1231" d="M12 1004q0 103 64.5 198.5t166.5 169.5q233 164 474.5 164t360 -94.5t118.5 -233.5q0 -95 -57.5 -190.5t-163.5 -159.5q141 -40 141 -201q0 -95 -50 -277t-50 -237q0 -113 80 -143q-128 -35 -203 -35q-160 0 -160 137q1 72 54.5 262.5t54.5 276.5q0 139 -123 139 q-26 0 -68 -8l-164 -772h-294l278 1303l303 40l-100 -473h16q122 0 206.5 115.5t84.5 252t-123 186.5q-42 18 -134 18t-194 -34t-174 -98q-153 -136 -153 -366q0 -83 23 -125q5 -8 5 -14q-164 0 -205 105q-14 38 -14 94z" />
<glyph unicode="S" horiz-adv-x="1167" d="M55 304q0 161 92 251t206 90t163 -69q19 -26 21 -66q-157 0 -218 -103q-22 -37 -22 -83q0 -87 51.5 -145t150.5 -58t165.5 71t66.5 180t-31 179.5t-78 131.5t-101 116.5t-101 112.5q-109 132 -109 257q0 158 136.5 262.5t336.5 104.5q247 0 312 -150q18 -40 18 -113.5 t-45 -131.5t-112.5 -58t-104.5 43q92 53 92 190q0 40 -32.5 82t-119 42t-137.5 -46.5t-51 -121.5t20 -120q36 -83 126 -162l84 -76q112 -100 152 -166q79 -133 79 -270q0 -255 -176 -394q-159 -127 -400 -127q-298 0 -399 191q-35 67 -35 156z" />
<glyph unicode="T" horiz-adv-x="985" d="M12 1025q0 79 38 175t122 170q185 164 539 164q145 0 230.5 -15t148.5 -23q64 -9 170.5 -9t212.5 43q-10 -260 -256 -260q-93 0 -318 45l-283 -1315h-294l290 1356h-24q-181 0 -274 -84q-111 -100 -111 -330q0 -83 23 -125q5 -8 5 -14q-164 0 -205 105q-14 38 -14 117z " />
<glyph unicode="U" horiz-adv-x="1466" d="M0 993q0 109 65 207q137 203 420 292q141 44 289 44q45 0 98 -10l-209 -778q-67 -259 -67 -362t31.5 -151.5t120.5 -48.5t129 30q73 55 127 199.5t129 483.5l137 633h289l-136 -639q-78 -381 -160 -561q-98 -215 -263 -292q-118 -54 -258 -54t-215.5 21.5t-122.5 62.5 q-87 79 -87 237t51 368l185 742q-169 -45 -266 -164t-97 -307q0 -87 24 -128q5 -7 5 -13q-162 0 -204 100q-15 36 -15 88z" />
<glyph unicode="V" horiz-adv-x="1260" d="M12 1004q0 103 64.5 198.5t166.5 169.5q233 164 488 164q42 0 82 -4l18 -1260l431 1254h143l-569 -1526h-295l-33 1399q-144 -54 -224.5 -169t-80.5 -286q0 -83 23 -125q5 -8 5 -14q-164 0 -205 105q-14 38 -14 94z" />
<glyph unicode="W" horiz-adv-x="1970" d="M12 1004q0 103 64.5 198.5t166.5 169.5q233 164 488 164q42 0 82 -4l18 -1260l431 1254h260l18 -1254l430 1254h144l-570 -1526h-295l-24 1042l-389 -1042h-295l-33 1399q-144 -54 -224.5 -169t-80.5 -286q0 -83 23 -125q5 -8 5 -14q-164 0 -205 105q-14 38 -14 94z" />
<glyph unicode="X" horiz-adv-x="1270" d="M12 1004q0 103 64.5 198.5t166.5 169.5q233 164 488 164q42 0 82 -4l88 -426l238 420h143l-344 -596l192 -930h-325l-109 512l-297 -512h-125l385 680l-151 719q-144 -54 -224.5 -169t-80.5 -286q0 -83 23 -125q5 -8 5 -14q-164 0 -205 105q-14 38 -14 94z" />
<glyph unicode="Y" horiz-adv-x="1270" d="M12 1004q0 103 64.5 198.5t166.5 169.5q233 164 488 164q42 0 82 -4l178 -733l303 727h136l-398 -895l-135 -631h-328l136 631l-197 768q-144 -54 -224.5 -169t-80.5 -286q0 -83 23 -125q5 -8 5 -14q-164 0 -205 105q-14 38 -14 94z" />
<glyph unicode="Z" horiz-adv-x="1110" d="M23 0l716 1425l-184 5q-188 0 -188 -46q10 0 22 -14t12 -50q0 -61 -37.5 -89.5t-90.5 -28.5t-75 38.5t-22 79.5q0 86 67 151t185 65h702l-706 -1403l197 -4q71 0 131 7.5t82 37.5q-11 0 -24 13.5t-13 48.5q0 61 37 90.5t90 29.5t76.5 -38t23.5 -78q0 -88 -74 -164 t-188 -76h-739z" />
<glyph unicode="[" horiz-adv-x="819" d="M-49 -512l434 2048h395l-26 -127h-248l-381 -1794h248l-27 -127h-395z" />
<glyph unicode="\" horiz-adv-x="741" d="M86 1536h147l435 -2048h-148z" />
<glyph unicode="]" horiz-adv-x="819" d="M-49 -512l26 127h248l381 1794h-248l27 127h395l-434 -2048h-395z" />
<glyph unicode="^" horiz-adv-x="862" d="M102 1149l435 387h43l122 -387h-65l-123 164l-321 -164h-91z" />
<glyph unicode="_" horiz-adv-x="909" d="M74 0l37 162h716l-34 -162h-719z" />
<glyph unicode="`" horiz-adv-x="412" d="M49 1536h215l60 -387h-154z" />
<glyph unicode="a" horiz-adv-x="1077" d="M-27 306.5q0 80.5 14 161t43 160.5q64 176 183 291t287 115q88 0 127 -29.5t39 -74.5v-15l22 109h295l-147 -696q-9 -35 -9 -66q0 -88 84 -88q109 0 166 193h86q-130 -379 -411 -379q-181 0 -201 188q-134 -188 -312.5 -188t-242.5 175q-23 63 -23 143.5zM276 335 q0 -91 38 -127q22 -22 55 -22q61 0 111 48.5t69 132.5l98 462q0 19 -17.5 48.5t-74.5 29.5t-111 -61q-130 -147 -163 -422q-5 -42 -5 -89z" />
<glyph unicode="b" horiz-adv-x="909" d="M-14 250q0 55 14 117l219 1026l303 41l-98 -461q92 57 168 57q242 0 242 -350q0 -236 -118 -436q-92 -156 -251 -222q-84 -34 -209.5 -34t-197.5 69t-72 193zM279 281q0 -95 108 -95q90 0 170 170q70 159 70 311t-61 201q-21 17 -40 17q-39 0 -76 -9.5t-53 -27.5 l-112 -520q-6 -26 -6 -47z" />
<glyph unicode="c" horiz-adv-x="786" d="M-27 313q0 235 119 454q90 165 247 237q81 38 167 38q246 0 246 -186q0 -78 -32 -114.5t-72 -36.5t-77 24q25 66 25 121q0 84 -58.5 84t-123.5 -106q-93 -150 -128 -373q-10 -67 -10 -147q0 -148 141 -148q118 0 198.5 52.5t170.5 154.5h70q-230 -379 -563 -379 q-146 0 -233 75.5t-87 249.5z" />
<glyph unicode="d" horiz-adv-x="1075" d="M-27 306.5q0 80.5 14 161t43 160.5q64 176 183 291t287 115q88 0 127 -29.5t39 -74.5v-8l100 471l303 41l-235 -1106q-9 -35 -9 -72q0 -70 84 -70q115 0 166 181h86q-128 -367 -411 -367q-177 0 -201 176q-124 -188 -306.5 -188t-246.5 175q-23 63 -23 143.5zM276 335 q0 -149 102 -149q43 0 95.5 41.5t73.5 128.5v11l100 469q-19 71 -84 71t-119 -61q-130 -147 -163 -422q-5 -42 -5 -89z" />
<glyph unicode="e" horiz-adv-x="786" d="M-27 313q0 234 119 453q91 167 248 238q81 38 168 38q142 0 193 -53.5t51 -142.5q0 -175 -141 -297.5t-330 -134.5q-5 -58 -5 -82q0 -105 37 -138.5t104 -33.5q118 0 198.5 52.5t170.5 154.5h70q-230 -379 -563 -379q-146 0 -233 75.5t-87 249.5zM297 512 q118 8 207.5 110t89.5 238q0 74 -51 74q-75 -2 -145 -132.5t-101 -289.5z" />
<glyph unicode="f" horiz-adv-x="547" d="M-426 -304q0 83 28 132t76 84q70 49 248 104l248 1170q73 348 373 348q95 0 168 -62t73 -159q0 -47 -6 -84h-96q4 32 4 61t-23.5 46.5t-46.5 17.5q-50 0 -91.5 -38.5t-59.5 -129.5l-35 -162h150l-15 -82h-151l-236 -1106q-70 -348 -366 -348q-95 0 -168.5 62.5 t-73.5 145.5zM-313 -262q0 -40 49 -62q15 -6 40.5 -6t57.5 35t51 125l27 119q-109 -38 -150 -71q-75 -62 -75 -140z" />
<glyph unicode="g" horiz-adv-x="1038" d="M-27 306.5q0 80.5 14 161t43 160.5q64 176 183 291t287 115q88 0 127 -29.5t39 -74.5v-12l22 106h295l-203 -950q93 31 153.5 94.5t104.5 198.5h86q-78 -264 -264 -348q-51 -23 -98 -35l-31 -148q-39 -197 -156 -284q-86 -64 -197 -64t-178 49t-67 157q0 187 334 298 l25 108q-107 -112 -246 -112q-186 0 -250 175q-23 63 -23 143.5zM246 -285q0 -41 39 -61q13 -6 38 -6t58 44.5t53 137.5l12 59q-200 -72 -200 -174zM276 335q0 -91 38 -127q22 -22 54 -22q57 0 106 43.5t69 116.5l104 485q0 46 -43 67q-16 9 -41 9q-65 0 -119 -61 q-130 -147 -163 -422q-5 -42 -5 -89z" />
<glyph unicode="h" d="M-78 0l297 1393l303 41l-110 -516q100 114 239 114q98 0 163 -54t65 -160t-34 -240l-49 -198q-16 -65 -16 -106q0 -88 75 -88q69 0 106 44t73 137h86q-119 -345 -322 -375q-32 -4 -79 -4t-93 20q-128 54 -128 211q0 84 46 268t46 254q0 105 -74 105t-132 -117 q-17 -33 -28 -72l-139 -657h-295z" />
<glyph unicode="i" horiz-adv-x="547" d="M-16 233q0 58 16 134l139 657h295l-147 -696q-8 -37 -8 -73q0 -69 83 -69q60 0 111.5 52t73.5 129h86q-132 -379 -441 -379q-81 0 -145 58q-63 58 -63 187zM180 1296q0 67 46.5 115.5t115 48.5t116.5 -48t48 -116t-48.5 -114.5t-116 -46.5t-114.5 47t-47 114z" />
<glyph unicode="j" horiz-adv-x="492" d="M-414 -313q0 166 218 260q60 26 118 45l219 1032h295l-203 -950q95 32 155 95t104 198h86q-80 -263 -264 -347q-51 -24 -99 -36l-31 -148q-39 -197 -156 -284q-86 -64 -196.5 -64t-178 49.5t-67.5 149.5zM-301 -285q0 -41 39 -61q13 -6 38 -6t58 44.5t53 137.5l13 59 q-201 -70 -201 -174zM164 1298q0 67 46.5 115.5t114.5 48.5t116 -48t48 -116t-48.5 -114.5t-115.5 -46.5t-114 47t-47 114z" />
<glyph unicode="k" horiz-adv-x="1061" d="M-78 0l297 1393l303 41l-153 -721l395 311h203l-410 -285q36 9 68 9q113 0 169 -71t56 -169q0 -36 -8 -78l-23 -102q-10 -42 -10 -66q0 -76 83 -76t136 108q16 33 33 73h86q-128 -379 -377 -379q-128 0 -193 60.5t-65 172.5q0 47 12 107l17 80q8 43 8 75q0 99 -74 99 q-58 0 -151 -76l-107 -506h-295z" />
<glyph unicode="l" horiz-adv-x="547" d="M-16 233q0 58 16 134l219 1026l303 41l-235 -1106q-8 -37 -8 -73q0 -69 83 -69q60 0 111.5 52t73.5 129h86q-132 -379 -441 -379q-81 0 -145 58q-63 58 -63 187z" />
<glyph unicode="m" horiz-adv-x="1540" d="M-78 0l217 1024h295l-22 -106q102 116 250 116q181 0 210 -176q113 174 285 174q97 0 162 -54t65 -158t-34 -240l-48 -200q-16 -65 -16 -106q0 -88 75 -88q69 0 106 44t73 137h86q-76 -226 -192 -317q-80 -62 -168 -62q-262 0 -262 231q0 84 46 268t46 254q0 105 -74 105 t-132 -117q-17 -33 -28 -72l-139 -657h-295l150 707q6 24 6 51q0 90 -60.5 90t-103 -56.5t-64.5 -134.5l-139 -657h-295z" />
<glyph unicode="n" d="M-78 0l217 1024h295l-22 -106q100 114 239 114q98 0 163 -54t65 -160t-34 -240l-49 -198q-16 -65 -16 -106q0 -88 75 -88q69 0 106 44t73 137h86q-119 -345 -322 -375q-32 -4 -79 -4t-93 20q-128 54 -128 211q0 84 46 268t46 254q0 105 -74 105t-132 -117 q-17 -33 -28 -72l-139 -657h-295z" />
<glyph unicode="o" horiz-adv-x="899" d="M-29 301q0 74 12.5 150.5t39.5 157.5q61 183 177 297q138 136 332 136q263 0 263 -327v-2q10 -2 34 -2q55 0 141.5 35t162.5 88l18 -56q-124 -130 -363 -170q-24 -280 -161 -448t-328 -168q-236 0 -304 174q-24 61 -24 135zM276 342q0 -99 18 -125.5t38 -33.5t54 -7 q70 0 139 123t93 303q-55 14 -55 91t64 106q-4 65 -20.5 92t-64.5 27q-94 0 -180 -207.5t-86 -368.5z" />
<glyph unicode="p" horiz-adv-x="958" d="M-186 -512l342 1612h295l-33 -154q102 88 239 88q177 0 231 -170q19 -62 19 -142.5t-9.5 -161t-32.5 -161t-60.5 -154.5t-93.5 -131.5t-132.5 -91.5t-191 -34t-158.5 73l-106 -499zM262 213q18 -47 87.5 -47t124.5 58q107 114 138 326q15 94 15 167q0 170 -103 170 q-35 0 -73.5 -25t-67.5 -76z" />
<glyph unicode="q" horiz-adv-x="995" d="M-27 306.5q0 80.5 14 161t43 160.5q64 176 183 291t287 115q88 0 127 -29.5t39 -74.5v-4l20 98h295l-311 -1462l-310 -74l129 612q-105 -112 -243 -112q-186 0 -250 175q-23 63 -23 143.5zM276 335q0 -149 102 -149q43 0 89.5 37.5t71.5 108.5l108 506q-5 18 -22 43.5 t-72 25.5t-109 -61q-130 -147 -163 -422q-5 -42 -5 -89z" />
<glyph unicode="r" horiz-adv-x="770" d="M-78 0l217 1024h295l-26 -127q51 45 112.5 86t133 41t107.5 -47t36 -90q0 -74 -39.5 -120t-95.5 -46t-74 25.5t-22 52t-10.5 42t-27.5 15.5q-42 0 -74 -19.5t-73 -58.5l-164 -778h-295z" />
<glyph unicode="s" horiz-adv-x="782" d="M-66 233.5q0 88.5 34 137.5t75 69q144 258 252 607l303 40q8 -192 16 -321l25 -325q4 -48 4 -95t-8 -82q90 52 147 103h86q-127 -148 -313 -256q-116 -123 -322 -123q-144 0 -221.5 78.5t-77.5 167zM43 293q0 -143 107 -143q196 0 196 190q0 53 -8 125l-12 117 q-11 112 -19 243q-52 -168 -166 -387q47 -22 47 -65.5t-24.5 -75t-66 -31.5t-54.5 27z" />
<glyph unicode="t" horiz-adv-x="547" d="M-16 233q0 58 16 134l123 575h-68l17 82h67l62 283l303 41l-70 -324h123l-16 -82h-123l-131 -614q-8 -37 -8 -73q0 -69 83 -69q60 0 111.5 52t73.5 129h86q-132 -379 -441 -379q-81 0 -145 58q-63 58 -63 187z" />
<glyph unicode="u" d="M-16 233q0 58 16 134l139 657h295l-147 -696q-6 -32 -6 -58q0 -84 61 -84q108 0 164 181l139 657h295l-147 -696q-9 -35 -9 -72q0 -70 84 -70q115 0 166 181h86q-130 -379 -411 -379q-183 0 -203 194q-120 -194 -303 -194q-92 0 -156 58q-63 58 -63 187z" />
<glyph unicode="v" horiz-adv-x="848" d="M-18 229q0 51 10 99l147 696h295l-147 -696q-11 -49 -11 -74q0 -68 70 -68q95 0 181 128q116 171 161 428q12 72 12 128q-5 -11 -29 -15l-21 -4q-9 -1 -15 -1q-36 0 -55 34.5t-19 75.5t31 73t82 32q81 0 112 -51.5t31 -130t-14 -177t-44 -198.5q-67 -225 -199.5 -372.5 t-326.5 -147.5q-116 0 -183.5 59t-67.5 182z" />
<glyph unicode="w" horiz-adv-x="1354" d="M-16 233q0 58 16 134l139 657h295l-147 -696q-6 -26 -6 -52q0 -90 61 -90q108 0 164 181l139 657h295l-147 -696q-11 -49 -11 -74q0 -68 70 -68q95 0 181 128q116 171 161 428q12 72 12 128q-5 -11 -29 -15l-21 -4q-9 -1 -15 -1q-36 0 -55 34.5t-19 76t30.5 73t82.5 31.5 q81 0 112 -51.5t31 -130t-14 -177t-44 -198.5q-67 -225 -188 -360q-144 -160 -345.5 -160t-237.5 172q-114 -172 -291 -172q-92 0 -156 58q-63 58 -63 187z" />
<glyph unicode="x" horiz-adv-x="1069" d="M0 367q49 214 91 306t71 141q64 103 143 161.5t160 58.5t121.5 -23.5t73 -71t45.5 -148.5l18 -156q171 191 178 295q-17 -4 -35 -4q-96 0 -96 114q0 54 42 77.5t84 23.5q66 0 97 -56t31 -117.5t-18 -107.5q-33 -88 -142 -212l-125 -140l19 -143q12 -98 35 -129.5 t44 -40.5t48 -9q59 0 110 51t74 130h86q-76 -214 -205 -309q-95 -70 -205 -70h-8q-193 0 -250 356l-282 -344h-148l414 467l-33 229q-17 104 -33.5 137t-45.5 33q-65 0 -143.5 -130.5t-129.5 -368.5h-86z" />
<glyph unicode="y" horiz-adv-x="995" d="M-16 233q0 58 16 134l139 657h295l-147 -696q-6 -26 -6 -52q0 -90 58.5 -90t99.5 48q40 49 63 120l143 670h295l-203 -950q93 31 153.5 94.5t104.5 198.5h86q-78 -264 -264 -348q-51 -23 -98 -35l-31 -148q-39 -197 -156 -284q-86 -64 -197 -64t-178 49t-67 157 q0 187 334 298l25 110q-106 -114 -246 -114q-92 0 -156 58q-63 58 -63 187zM203 -285q0 -41 39 -61q13 -6 38 -6t58 44.5t53 137.5l12 59q-200 -72 -200 -174z" />
<glyph unicode="z" horiz-adv-x="877" d="M0 0l522 913h-114q-48 0 -80.5 -5t-32.5 -27q0 -5 3.5 -6t11 -6.5t7.5 -48t-34.5 -68t-64.5 -25.5q-49 0 -77 24t-28 61q0 79 68 145.5t169 66.5h527l-502 -866q13 -1 31 -3l39 -5q46 -5 84 -5q91 0 98 41q-39 4 -39 43q0 30 28 59t86 29q91 0 91 -98q0 -79 -70 -149 t-180 -70h-543z" />
<glyph unicode="{" horiz-adv-x="721" d="M61 -290.5q0 75.5 30 152.5t70 158l80 166q66 140 66 217q0 64 -84 64q-26 0 -65 -6l24 117q35 -7 74 -7q75 0 108 77q19 49 19 151l-14 325q0 142 72 264q87 148 255 148h88l-18 -102q-107 0 -138 -18t-48 -36q-56 -61 -74.5 -129.5t-20.5 -152.5l13 -350 q-7 -165 -82 -228q24 -29 24 -84.5t-28 -123.5l-101 -220q-114 -234 -114 -346q0 -164 174 -164l-19 -92h-18q-103 0 -149 14.5t-85 72t-39 133z" />
<glyph unicode="|" horiz-adv-x="1090" d="M449 -512v2050h190v-2050h-190z" />
<glyph unicode="}" horiz-adv-x="721" d="M61 -510l19 102q104 0 136 18q138 78 144 318l-12 351q7 164 82 227q-24 28 -24 85.5t43 156.5t83.5 183.5t78.5 178t38 170.5q0 164 -174 164l19 92h18q101 0 148 -13.5t85.5 -71t38.5 -122t-14 -115.5q-25 -91 -86 -208l-54 -110q-91 -192 -91 -273q0 -64 84 -64 q24 0 65 6l-24 -116q-38 6 -76 6q-73 0 -106 -77q-19 -49 -19 -151l14 -325q0 -142 -72 -264q-87 -148 -255 -148h-89z" />
<glyph unicode="~" horiz-adv-x="883" d="M100 1192q104 201 342 201q82 0 150.5 -23.5t106 -34t81.5 -10.5q82 0 129 47l13 -2q-19 -76 -118 -140q-100 -65 -190 -65q-91 0 -167 26t-116 38t-83 12q-77 0 -135 -53z" />
<glyph unicode="&#xa1;" horiz-adv-x="449" d="M-125 -508l266 961h174l-145 -961h-295zM121 761q0 67 46.5 116t114.5 49t116 -48.5t48 -116.5t-48.5 -114.5t-115.5 -46.5t-114 47t-47 114z" />
<glyph unicode="&#xa2;" horiz-adv-x="825" d="M63 647q0 218 113.5 380.5t312.5 191.5l46 251h118l-55 -249q126 -7 168 -77q16 -26 16 -61.5t-10 -68.5h-117q11 39 11 57q0 70 -76 70h-10l-156 -703q10 -2 31 -2q82 0 130 32q87 59 140 107q-23 -129 -101.5 -200.5t-230.5 -77.5l-78 -352h-55l64 354 q-114 17 -187.5 107t-73.5 241zM279 672q0 -148 75 -203l113 625q-128 -103 -174 -314q-14 -64 -14 -108z" />
<glyph unicode="&#xa3;" horiz-adv-x="952" d="M51 686q70 138 215 182l148 605l307 63l-164 -678l84 -26q41 -13 106.5 -13t112.5 47l12 -2q-17 -75 -116 -140t-213 -65h-33l-115 -473q36 5 70.5 6t69.5 2q85 4 161.5 29.5t177.5 100.5q-16 -148 -72 -236t-140 -88h-605l176 733l-34 2q-77 0 -136 -53z" />
<glyph unicode="&#xa4;" horiz-adv-x="1024" d="M139 1008l78 73l115 -114q83 61 185.5 61t182.5 -59l115 114l74 -73l-113 -113q62 -85 62 -187.5t-62 -187.5l113 -112l-74 -74l-113 113q-78 -60 -182.5 -60t-189.5 62l-115 -115l-74 74l115 114q-59 79 -59 183.5t59 183.5zM313 709.5q0 -85.5 59 -146.5 q61 -59 146.5 -59t145 59.5t59.5 145.5t-59.5 145t-145 59t-145.5 -59t-60 -144.5z" />
<glyph unicode="&#xa5;" horiz-adv-x="971" d="M39 291l29 102h196l29 133h-203l29 103h196v2l-229 905h336l180 -739l307 739h135l-401 -905v-2h268l-28 -103h-262l-29 -133h268l-29 -102h-262l-61 -291h-328l62 291h-203z" />
<glyph unicode="&#xa6;" horiz-adv-x="1090" d="M449 455h190v-967h-190v967zM449 616v922h190v-922h-190z" />
<glyph unicode="&#xa7;" horiz-adv-x="1110" d="M16 158q0 111 56 182q57 70 129.5 70t109 -33.5t64.5 -69.5q-134 -12 -157 -89q-9 -27 -9 -86.5t38 -99.5t122 -40q172 0 172 198q-3 158 -118 276l-134 124q-117 104 -117 213.5t61.5 184t151.5 108.5q-11 47 -11 110.5t40 133.5q74 129 238 174q87 23 167.5 23 t151.5 -31q104 -44 104 -161t-78 -157q-25 -12 -64 -12t-69 32q35 21 54.5 60.5t19.5 71.5q0 58 -29.5 89t-78.5 31q-89 0 -144 -66t-55 -153q0 -117 127 -221q36 -30 75 -59q93 -69 148 -147t55 -197.5t-63 -217t-174 -120.5v-7q0 -176 -117.5 -279.5t-327.5 -103.5 q-256 0 -321 165q-17 44 -17 104zM389 926q0 -45 25 -82.5t63.5 -74.5t86.5 -77q185 -154 222 -317q39 49 39 133q0 136 -138 248l-147 117q-66 51 -112 122q-39 -24 -39 -69z" />
<glyph unicode="&#xa8;" horiz-adv-x="803" d="M115 1297q0 52 35 89q36 37 88.5 37t89.5 -36.5t37 -89t-37 -88.5q-38 -35 -76 -35q-66 0 -101.5 35.5t-35.5 87.5zM483 1297q0 53 36 89.5t88 36.5t89 -36.5t37 -89t-37 -88.5q-38 -35 -76 -35q-65 0 -101 35t-36 88z" />
<glyph unicode="&#xa9;" horiz-adv-x="1202" d="M104 678q0 220 146 372t350 152t350 -152.5t146 -369.5t-146 -370.5t-350.5 -153.5t-350 152t-145.5 370zM199 678q0 -183 117.5 -309.5t286.5 -126.5t287 126t118 310t-118.5 310t-287 126t-286 -126.5t-117.5 -309.5zM311 689q0 129 88.5 215.5t214.5 86.5 q98 -5 166.5 -59t87.5 -135l-96 -37l-14 40q-31 85 -140 85q-78 0 -136 -46t-58 -140.5t57 -157t137 -62.5q48 0 90 24.5t64 67.5l90 -59q-43 -66 -109.5 -102.5t-135.5 -36.5q-129 0 -217.5 93.5t-88.5 222.5z" />
<glyph unicode="&#xaa;" horiz-adv-x="707" d="M88 1120q0 47 15 121t51 134.5t96 99t126 38.5t103 -28l6 31h170l-86 -377q-2 -11 -4 -19t-2 -18q0 -41 43 -41h14q9 0 17 4q-26 -73 -59 -87.5t-64 -14.5q-94 0 -119 81q-72 -88 -173 -88q-134 0 -134 164zM248 1126q0 -49 24 -63t45 -14q37 0 74 53l76 330 q-23 20 -58 20q-67 0 -114 -103t-47 -223z" />
<glyph unicode="&#xab;" horiz-adv-x="1206" d="M41 487l18 84l629 308l-20 -113l-494 -246l397 -196l-24 -117zM471 487l18 84l629 308l-20 -113l-494 -246l397 -196l-24 -117z" />
<glyph unicode="&#xac;" horiz-adv-x="909" d="M39 455l37 161h741l-104 -512h-232l72 351h-514z" />
<glyph unicode="&#xad;" horiz-adv-x="594" d="M39 455l37 161h409l-34 -161h-412z" />
<glyph unicode="&#xae;" horiz-adv-x="1133" d="M70 684.5q0 217.5 144 370.5t349.5 153t351.5 -152.5t146 -369.5t-146 -370.5t-350.5 -153.5t-349.5 152q-145 153 -145 370.5zM164 684q0 -183 117.5 -309.5t286.5 -126.5t287 126t118 310t-118.5 310t-287 126t-286 -126.5t-117.5 -309.5zM360 393l2 596h193 q109 0 177.5 -44t68.5 -128q0 -57 -33.5 -99t-87.5 -59l133 -256l-96 -14l-127 256h-135v-252h-95zM455 723h106q146 0 146 90q0 71 -99 87q-26 5 -51 5h-102v-182z" />
<glyph unicode="&#xb0;" horiz-adv-x="643" d="M76 984q0 202 90 328t242 126q90 0 128.5 -59.5t38.5 -190t-82.5 -276.5t-226.5 -146q-107 0 -148.5 57t-41.5 161zM223 1016.5q0 -92.5 10 -133.5t48 -41q75 0 123.5 117.5t48.5 277.5q0 55 -9.5 92t-42.5 37q-50 0 -102 -78q-26 -38 -51 -108.5t-25 -163z" />
<glyph unicode="&#xb1;" horiz-adv-x="1092" d="M63 139l37 162h752l-35 -162h-754zM170 633l49 229h262l56 250h231l-55 -250h260l-47 -229h-262l-56 -252h-231l55 252h-262z" />
<glyph unicode="&#xb2;" horiz-adv-x="614" d="M6 760.5q0 38.5 29 89t72.5 98t94 94t94.5 98.5q101 120 101 244q0 62 -45 84q-13 7 -34 7q-49 0 -69 -22t-20 -49q0 -82 45 -93q-45 -39 -86 -39t-65.5 25.5t-24.5 64.5q0 74 60 123t186 49q225 0 225 -176q0 -92 -51 -161t-124 -129l-141 -110q-71 -51 -108 -106h9 q57 0 114.5 -10.5t115 -10.5t78.5 15q45 33 77 63q0 -123 -16 -155q-30 -60 -126 -60q-64 0 -149 20.5t-120 20.5t-48 -4t-25.5 -9t-24 -11t-20.5 -9q-4 20 -4 58.5z" />
<glyph unicode="&#xb3;" horiz-adv-x="647" d="M27 888q0 69 35.5 114t111.5 45t90 -56q-93 -10 -102 -87q-2 -22 -2 -46q0 -88 95 -88q71 0 113 57.5t42 127.5t-36.5 129.5t-117.5 84.5q94 24 148.5 89t54.5 116q0 101 -76 101q-107 0 -107 -89q0 -40 17 -56t29 -19q-47 -39 -87 -39t-65 25.5t-25 64.5q0 73 66 122.5 t180 49.5t166.5 -48t52.5 -108q0 -135 -161 -211q78 -22 112.5 -71t34.5 -104q0 -108 -89.5 -200t-215.5 -92q-172 0 -237 84q-27 35 -27 104z" />
<glyph unicode="&#xb4;" horiz-adv-x="647" d="M246 1149l186 387h215l-248 -387h-153z" />
<glyph unicode="&#xb5;" d="M-150 -340l289 1364h295l-147 -696q-6 -26 -6 -52q0 -90 61 -90q108 0 164 181l139 657h295l-147 -696q-9 -35 -9 -72q0 -70 84 -70q115 0 166 181h86q-128 -367 -411 -367q-181 0 -201 184q-114 -184 -293 -184l-55 -266z" />
<glyph unicode="&#xb6;" horiz-adv-x="1110" d="M147 1006q0 205 136 366q136 162 387 162t338 -182q30 -64 30 -142q0 -77 -16 -161l-260 -1215h-193l166 778q-35 -13 -88 -22l-158 -756h-192l158 756q-149 27 -229 146q-79 118 -79 270zM670 694h12q38 0 72 8l98 465q12 58 12 103q0 84 -47 127z" />
<glyph unicode="&#xb7;" horiz-adv-x="889" d="M246 546q0 82 57 140q57 59 139 59t140 -59q59 -58 59 -139q0 -82 -59 -139q-59 -58 -140.5 -58t-138.5 58q-57 57 -57 138z" />
<glyph unicode="&#xb8;" horiz-adv-x="465" d="M0 -389q38 65 76 65q53 0 91.5 -27.5t65.5 -27.5t44.5 26.5t17.5 57.5t-18.5 53.5t-68 22.5t-99.5 -25l108 303l72 -47l-60 -147q64 16 109 16q127 0 127 -103t-74.5 -163.5t-161.5 -60.5t-123.5 12.5t-59.5 23.5z" />
<glyph unicode="&#xb9;" horiz-adv-x="444" d="M45 707l158 690h-113l14 51q108 0 177.5 28.5t124.5 57.5l-189 -827h-172z" />
<glyph unicode="&#xba;" horiz-adv-x="674" d="M86 1138q0 189 89 288.5t222 99.5q42 0 77.5 -14t35.5 -37t-17.5 -34t-35.5 -18q-17 39 -50 39t-56 -17t-41 -45q-33 -54 -49.5 -126t-16.5 -127q0 -84 84 -84q92 0 121 221q-31 7 -31 41t25 61t51 27t34.5 -8t8.5 -31q28 18 49 45l18 21l12 -23q-32 -89 -79 -117 q-9 -159 -90.5 -252.5t-176 -93.5t-139.5 42t-45 142z" />
<glyph unicode="&#xbb;" horiz-adv-x="1200" d="M31 207l28 117l492 196l-397 246l18 113l504 -308l-23 -110zM485 207l29 117l492 196l-398 246l19 113l503 -308l-22 -110z" />
<glyph unicode="&#xbc;" horiz-adv-x="1411" d="M143 461l158 690h-113l14 51q108 0 177.5 28.5t124.5 57.5l-189 -827h-172zM285 -338l540 1874h148l-541 -1874h-147zM766 307q15 45 44 99q128 241 128 358q0 35 -8 67q52 0 92.5 -25.5t40.5 -78.5q0 -108 -122 -263q-30 -38 -52 -77h184l96 422l177 22l-103 -444h78 l-25 -80h-71l-70 -305h-170l70 305h-289z" />
<glyph unicode="&#xbd;" horiz-adv-x="1382" d="M143 461l158 690h-113l14 51q108 0 177.5 28.5t124.5 57.5l-189 -827h-172zM274 -338l541 1874h148l-541 -1874h-148zM749 64.5q0 38.5 29 89t72.5 98t93.5 94.5q196 180 196 342q0 62 -45 84q-13 7 -35 7q-47 0 -67.5 -22t-20.5 -49q0 -82 45 -93q-45 -39 -86 -39 t-65.5 25.5t-24.5 64.5q0 74 60 123t186 49q225 0 225 -176q0 -92 -51 -161t-124 -129l-141 -110q-71 -51 -108 -106h9q57 0 114.5 -10.5t115 -10.5t79.5 15q44 33 76 63q0 -123 -16 -155q-30 -60 -126 -60q-64 0 -148 20.5t-120.5 20.5t-56 -6t-36.5 -15t-26 -12 q-4 20 -4 58.5z" />
<glyph unicode="&#xbe;" horiz-adv-x="1677" d="M125 642q0 69 35.5 114t111.5 45t90 -56q-93 -10 -102 -87q-2 -22 -2 -46q0 -88 95 -88q71 0 113 57.5t42 127.5t-36.5 129.5t-117.5 84.5q94 24 148.5 89t54.5 116q0 101 -76 101q-107 0 -107 -89q0 -40 17 -56t29 -19q-47 -39 -87 -39t-65 25.5t-25 64.5q0 73 66 122.5 t180 49.5t166.5 -48t52.5 -108q0 -135 -161 -211q78 -22 112.5 -71t34.5 -104q0 -108 -89.5 -200t-215.5 -92q-172 0 -237 84q-27 35 -27 104zM522 -338l541 1874h147l-540 -1874h-148zM1010 307q15 45 44 99l56 114q72 148 72 244q0 35 -8 67q52 0 92.5 -25.5t40.5 -78.5 q0 -108 -122 -263q-30 -38 -52 -77h184l96 422l176 22l-102 -444h78l-25 -80h-72l-69 -305h-170l69 305h-288z" />
<glyph unicode="&#xbf;" horiz-adv-x="899" d="M25 -238.5q0 70.5 27 138.5q48 120 170 221l110 93q135 117 186 239h135q0 -120 -97 -243q-41 -53 -89 -103t-89 -104q-97 -126 -97 -244q0 -154 115 -154q61 0 111 48.5t50 120t-42 114.5q-15 16 -36 22q54 86 150 86q60 0 107.5 -43.5t47.5 -112.5q0 -139 -98 -233 q-119 -113 -332 -113q-262 0 -314 153q-15 44 -15 114.5zM473 762v2q0 66 46.5 115t114.5 49t116.5 -48.5t48.5 -115.5v-2q0 -69 -49 -115.5t-116 -46.5t-114 47t-47 115z" />
<glyph unicode="&#xc0;" horiz-adv-x="1368" d="M18 684q0 106 119 180q121 74 299 74q41 0 107 -6q166 261 352.5 432.5t359.5 171.5q104 0 162 -29l-321 -1507h-295l157 743q-136 62 -274 74q-184 -407 -246 -747q-20 -109 -20 -186.5t28 -116.5q-121 0 -170 25q-104 52 -104 192q0 212 178 596q56 120 123 237 q-96 -6 -157.5 -29.5t-82.5 -76.5q9 0 18 -20.5t9 -50.5t-33.5 -51.5t-70.5 -21.5q-67 0 -102.5 31.5t-35.5 85.5zM727 905q143 -28 250 -71l119 557q-176 -96 -369 -486zM895 2048h215l60 -387h-154z" />
<glyph unicode="&#xc1;" horiz-adv-x="1368" d="M18 684q0 106 119 180q121 74 299 74q41 0 107 -6q166 261 352.5 432.5t359.5 171.5q104 0 162 -29l-321 -1507h-295l157 743q-136 62 -274 74q-184 -407 -246 -747q-20 -109 -20 -186.5t28 -116.5q-121 0 -170 25q-104 52 -104 192q0 212 178 596q56 120 123 237 q-96 -6 -157.5 -29.5t-82.5 -76.5q9 0 18 -20.5t9 -50.5t-33.5 -51.5t-70.5 -21.5q-67 0 -102.5 31.5t-35.5 85.5zM727 905q143 -28 250 -71l119 557q-176 -96 -369 -486zM996 1661l186 387h215l-248 -387h-153z" />
<glyph unicode="&#xc2;" horiz-adv-x="1368" d="M18 684q0 106 119 180q121 74 299 74q41 0 107 -6q166 261 352.5 432.5t359.5 171.5q104 0 162 -29l-321 -1507h-295l157 743q-136 62 -274 74q-184 -407 -246 -747q-20 -109 -20 -186.5t28 -116.5q-121 0 -170 25q-104 52 -104 192q0 212 178 596q56 120 123 237 q-96 -6 -157.5 -29.5t-82.5 -76.5q9 0 18 -20.5t9 -50.5t-33.5 -51.5t-70.5 -21.5q-67 0 -102.5 31.5t-35.5 85.5zM727 905q143 -28 250 -71l119 557q-176 -96 -369 -486zM834 1661l434 387h43l123 -387h-65l-123 164l-322 -164h-90z" />
<glyph unicode="&#xc3;" horiz-adv-x="1368" d="M18 684q0 106 119 180q121 74 299 74q41 0 107 -6q166 261 352.5 432.5t359.5 171.5q104 0 162 -29l-321 -1507h-295l157 743q-136 62 -274 74q-184 -407 -246 -747q-20 -109 -20 -186.5t28 -116.5q-121 0 -170 25q-104 52 -104 192q0 212 178 596q56 120 123 237 q-96 -6 -157.5 -29.5t-82.5 -76.5q9 0 18 -20.5t9 -50.5t-33.5 -51.5t-70.5 -21.5q-67 0 -102.5 31.5t-35.5 85.5zM727 905q143 -28 250 -71l119 557q-176 -96 -369 -486zM838 1704q99 201 342 201q79 0 148.5 -23.5t107.5 -34t100 -10.5t111 47l12 -2 q-17 -74 -117.5 -139.5t-212.5 -65.5q-69 0 -145 26t-116 38t-83 12q-77 0 -135 -53z" />
<glyph unicode="&#xc4;" horiz-adv-x="1368" d="M18 684q0 106 119 180q121 74 299 74q41 0 107 -6q166 261 352.5 432.5t359.5 171.5q104 0 162 -29l-321 -1507h-295l157 743q-136 62 -274 74q-184 -407 -246 -747q-20 -109 -20 -186.5t28 -116.5q-121 0 -170 25q-104 52 -104 192q0 212 178 596q56 120 123 237 q-96 -6 -157.5 -29.5t-82.5 -76.5q9 0 18 -20.5t9 -50.5t-33.5 -51.5t-70.5 -21.5q-67 0 -102.5 31.5t-35.5 85.5zM727 905q143 -28 250 -71l119 557q-176 -96 -369 -486zM881 1809q0 52 35 89q36 37 88.5 37t89.5 -36.5t37 -89t-37 -88.5q-38 -35 -76 -35 q-66 0 -101.5 35.5t-35.5 87.5zM1249 1809q0 53 36 89.5t88 36.5t89 -36.5t37 -89t-37 -88.5q-38 -35 -76 -35q-65 0 -101 35t-36 88z" />
<glyph unicode="&#xc5;" horiz-adv-x="1368" d="M18 684q0 106 119 180q121 74 299 74q41 0 107 -6q166 261 352.5 432.5t359.5 171.5q104 0 162 -29l-321 -1507h-295l157 743q-136 62 -274 74q-184 -407 -246 -747q-20 -109 -20 -186.5t28 -116.5q-121 0 -170 25q-104 52 -104 192q0 212 178 596q56 120 123 237 q-96 -6 -157.5 -29.5t-82.5 -76.5q9 0 18 -20.5t9 -50.5t-33.5 -51.5t-70.5 -21.5q-67 0 -102.5 31.5t-35.5 85.5zM727 905q143 -28 250 -71l119 557q-176 -96 -369 -486zM993 1770q0 129 94 183q33 19 94.5 19t97.5 -46.5t36 -112.5t-40.5 -118.5t-122 -52.5t-120.5 42 t-39 86zM1075 1790q0 -76 70 -76q94 0 94 94q0 67 -30 88q-14 9 -38 9q-52 0 -74 -38t-22 -77z" />
<glyph unicode="&#xc6;" horiz-adv-x="1565" d="M18 685q0 105 121 176t279 71q53 0 121 -6q258 421 530 563q94 49 184 49q42 0 85 -6l88 -14q124 -21 196 -21q123 0 240 39l-23 -74q-46 -151 -197 -151q-78 0 -136 21l-117 44l-111 -518h317l-41 -151h-309l-104 -490h458l-43 -217h-755l157 743q-148 66 -276 74 q-180 -394 -244 -744q-20 -109 -20 -169t4.5 -80.5t9.5 -30.5t9.5 -14t4.5 -10q-139 5 -183 31q-91 53 -91 198q0 204 178 584q56 118 123 235q-92 -6 -154.5 -28.5t-85.5 -77.5q9 0 18 -20.5t9 -48.5t-29.5 -51.5t-85 -23.5t-91.5 30t-36 88zM723 903q131 -24 254 -69 l119 557q-184 -102 -373 -488z" />
<glyph unicode="&#xc7;" horiz-adv-x="1018" d="M39 457q0 257 85 513q99 302 292 452q148 114 338 114q238 0 315 -149q27 -52 27 -125q0 -189 -144 -189q-72 0 -116 53q37 20 65.5 75t28.5 109.5t-28.5 92t-91 37.5t-116 -42t-100.5 -114q-95 -144 -155 -368t-60 -406.5t53.5 -264t183.5 -81.5q256 0 408 205l47 -21 q-98 -248 -373 -344q-74 -26 -151 -34l-42 -105q64 16 109 16q127 0 127 -103t-74.5 -163.5t-161.5 -60.5t-123.5 12.5t-59.5 23.5l-46 21q38 65 76 65q53 0 91.5 -27.5t65.5 -27.5t44.5 26.5t17.5 57.5t-18.5 53.5t-68 22.5t-99.5 -25l75 212q-210 4 -315.5 118t-105.5 371 z" />
<glyph unicode="&#xc8;" horiz-adv-x="940" d="M14 332q0 162 105 321t274 201q-125 91 -125 251t130 297.5t319 137.5q127 0 210 -66.5t83 -174t-45 -168t-104 -60.5t-99 55q36 14 63 68t27 113.5t-36 85.5q-37 26 -80 26q-86 0 -146 -88.5t-60 -200.5q0 -154 112 -232q40 -28 95 -42q-156 -34 -261 -187t-105 -302 q0 -86 45 -146.5t148 -60.5t213.5 55t166.5 154l47 -21q-81 -178 -246.5 -281.5t-353 -103.5t-282.5 103.5t-95 265.5zM516 2048h215l60 -387h-154z" />
<glyph unicode="&#xc9;" horiz-adv-x="940" d="M14 332q0 162 105 321t274 201q-125 91 -125 251t130 297.5t319 137.5q127 0 210 -66.5t83 -174t-45 -168t-104 -60.5t-99 55q36 14 63 68t27 113.5t-36 85.5q-37 26 -80 26q-86 0 -146 -88.5t-60 -200.5q0 -154 112 -232q40 -28 95 -42q-156 -34 -261 -187t-105 -302 q0 -86 45 -146.5t148 -60.5t213.5 55t166.5 154l47 -21q-81 -178 -246.5 -281.5t-353 -103.5t-282.5 103.5t-95 265.5zM676 1661l186 387h215l-248 -387h-153z" />
<glyph unicode="&#xca;" horiz-adv-x="940" d="M14 332q0 162 105 321t274 201q-125 91 -125 251t130 297.5t319 137.5q127 0 210 -66.5t83 -174t-45 -168t-104 -60.5t-99 55q36 14 63 68t27 113.5t-36 85.5q-37 26 -80 26q-86 0 -146 -88.5t-60 -200.5q0 -154 112 -232q40 -28 95 -42q-156 -34 -261 -187t-105 -302 q0 -86 45 -146.5t148 -60.5t213.5 55t166.5 154l47 -21q-81 -178 -246.5 -281.5t-353 -103.5t-282.5 103.5t-95 265.5zM414 1661l434 387h43l123 -387h-65l-123 164l-322 -164h-90z" />
<glyph unicode="&#xcb;" horiz-adv-x="940" d="M14 332q0 162 105 321t274 201q-125 91 -125 251t130 297.5t319 137.5q127 0 210 -66.5t83 -174t-45 -168t-104 -60.5t-99 55q36 14 63 68t27 113.5t-36 85.5q-37 26 -80 26q-86 0 -146 -88.5t-60 -200.5q0 -154 112 -232q40 -28 95 -42q-156 -34 -261 -187t-105 -302 q0 -86 45 -146.5t148 -60.5t213.5 55t166.5 154l47 -21q-81 -178 -246.5 -281.5t-353 -103.5t-282.5 103.5t-95 265.5zM488 1809q0 52 35 89q36 37 88.5 37t89.5 -36.5t37 -89t-37 -88.5q-38 -35 -77 -35q-66 0 -101 35.5t-35 87.5zM856 1809q0 53 36 89.5t88 36.5t89 -36.5 t37 -89t-37 -88.5q-38 -35 -77 -35q-64 0 -100 35t-36 88z" />
<glyph unicode="&#xcc;" horiz-adv-x="768" d="M12 1004q0 103 64.5 198.5t166.5 169.5q233 164 488 164q42 0 82 -4l-326 -1532h-294l296 1391q-286 -120 -286 -447q0 -83 23 -125q5 -8 5 -14q-164 0 -205 105q-14 38 -14 94zM350 2048h215l60 -387h-154z" />
<glyph unicode="&#xcd;" horiz-adv-x="768" d="M12 1004q0 103 64.5 198.5t166.5 169.5q233 164 488 164q42 0 82 -4l-326 -1532h-294l296 1391q-286 -120 -286 -447q0 -83 23 -125q5 -8 5 -14q-164 0 -205 105q-14 38 -14 94zM551 1661l186 387h215l-248 -387h-153z" />
<glyph unicode="&#xce;" horiz-adv-x="768" d="M12 1004q0 103 64.5 198.5t166.5 169.5q233 164 488 164q42 0 82 -4l-326 -1532h-294l296 1391q-286 -120 -286 -447q0 -83 23 -125q5 -8 5 -14q-164 0 -205 105q-14 38 -14 94zM309 1661l434 387h43l123 -387h-65l-123 164l-322 -164h-90z" />
<glyph unicode="&#xcf;" horiz-adv-x="768" d="M12 1004q0 103 64.5 198.5t166.5 169.5q233 164 488 164q42 0 82 -4l-326 -1532h-294l296 1391q-286 -120 -286 -447q0 -83 23 -125q5 -8 5 -14q-164 0 -205 105q-14 38 -14 94zM342 1809q0 52 35 89q36 37 88.5 37t89.5 -36.5t37 -89t-37 -88.5q-38 -35 -77 -35 q-66 0 -101 35.5t-35 87.5zM710 1809q0 53 36 89.5t88 36.5t89 -36.5t37 -89t-37 -88.5q-38 -35 -77 -35q-64 0 -100 35t-36 88z" />
<glyph unicode="&#xd0;" horiz-adv-x="1358" d="M12 1004q0 103 64.5 198.5t166.5 169.5q233 164 488 164q590 0 590 -553q0 -201 -46 -381q-97 -379 -307 -546q-103 -83 -220.5 -83t-243.5 109l-17 -82h-294l151 707h-80l41 151h72l94 445l303 40l-104 -485h161l-40 -151h-154l-109 -512q56 -41 117 -41q92 0 165 82 q140 157 200 500q28 155 28 278t-11 198t-42 126q-63 104 -229 104q-252 0 -402 -134q-151 -134 -151 -364q0 -83 23 -125q5 -8 5 -14q-164 0 -205 105q-14 38 -14 94z" />
<glyph unicode="&#xd1;" horiz-adv-x="1405" d="M12 1005.5q0 57.5 18.5 119.5t53.5 121q76 129 208 209.5t300 80.5q48 0 96.5 -3t93.5 -26l162 -1085l223 1110h295l-325 -1532h-248l-174 1071l-228 -1071h-294l294 1391q-136 -57 -210 -169.5t-74 -277.5q0 -83 23 -125q5 -8 5 -14q-164 0 -205 105q-14 38 -14 95.5z M631 1704q99 201 342 201q79 0 148.5 -23.5t107.5 -34t100 -10.5t111 47l12 -2q-17 -74 -117.5 -139.5t-212.5 -65.5q-69 0 -145 26t-116 38t-83 12q-77 0 -135 -53z" />
<glyph unicode="&#xd2;" horiz-adv-x="1348" d="M33 983q0 100 68 201q145 212 447 306q150 46 310 46q485 0 485 -524q0 -353 -177 -660q-126 -221 -336 -316q-108 -48 -215.5 -48t-174.5 22q-219 74 -219 389q0 211 79 449q126 384 346 484q61 28 126.5 28t110.5 -17q-89 -53 -176 -227q-126 -249 -169 -552 q-14 -94 -14 -173q0 -237 119 -237h2q99 0 198 144t163.5 363.5t64.5 416t-54 280.5t-208 84q-246 0 -418 -145.5t-172 -381.5q0 -60 10.5 -79.5t10.5 -30.5q-100 0 -153.5 39t-53.5 139zM598 2048h215l60 -387h-154z" />
<glyph unicode="&#xd3;" horiz-adv-x="1348" d="M33 983q0 100 68 201q145 212 447 306q150 46 310 46q485 0 485 -524q0 -353 -177 -660q-126 -221 -336 -316q-108 -48 -215.5 -48t-174.5 22q-219 74 -219 389q0 211 79 449q126 384 346 484q61 28 126.5 28t110.5 -17q-89 -53 -176 -227q-126 -249 -169 -552 q-14 -94 -14 -173q0 -237 119 -237h2q99 0 198 144t163.5 363.5t64.5 416t-54 280.5t-208 84q-246 0 -418 -145.5t-172 -381.5q0 -60 10.5 -79.5t10.5 -30.5q-100 0 -153.5 39t-53.5 139zM813 1661l186 387h215l-248 -387h-153z" />
<glyph unicode="&#xd4;" horiz-adv-x="1348" d="M33 983q0 100 68 201q145 212 447 306q150 46 310 46q485 0 485 -524q0 -353 -177 -660q-126 -221 -336 -316q-108 -48 -215.5 -48t-174.5 22q-219 74 -219 389q0 211 79 449q126 384 346 484q61 28 126.5 28t110.5 -17q-89 -53 -176 -227q-126 -249 -169 -552 q-14 -94 -14 -173q0 -237 119 -237h2q99 0 198 144t163.5 363.5t64.5 416t-54 280.5t-208 84q-246 0 -418 -145.5t-172 -381.5q0 -60 10.5 -79.5t10.5 -30.5q-100 0 -153.5 39t-53.5 139zM557 1661l434 387h43l123 -387h-65l-123 164l-322 -164h-90z" />
<glyph unicode="&#xd5;" horiz-adv-x="1348" d="M33 983q0 100 68 201q145 212 447 306q150 46 310 46q485 0 485 -524q0 -353 -177 -660q-126 -221 -336 -316q-108 -48 -215.5 -48t-174.5 22q-219 74 -219 389q0 211 79 449q126 384 346 484q61 28 126.5 28t110.5 -17q-89 -53 -176 -227q-126 -249 -169 -552 q-14 -94 -14 -173q0 -237 119 -237h2q99 0 198 144t163.5 363.5t64.5 416t-54 280.5t-208 84q-246 0 -418 -145.5t-172 -381.5q0 -60 10.5 -79.5t10.5 -30.5q-100 0 -153.5 39t-53.5 139zM561 1704q99 201 342 201q79 0 148.5 -23.5t107.5 -34t100 -10.5t111 47l12 -2 q-17 -74 -117.5 -139.5t-212.5 -65.5q-69 0 -145 26t-116 38t-83 12q-77 0 -135 -53z" />
<glyph unicode="&#xd6;" horiz-adv-x="1348" d="M33 983q0 100 68 201q145 212 447 306q150 46 310 46q485 0 485 -524q0 -353 -177 -660q-126 -221 -336 -316q-108 -48 -215.5 -48t-174.5 22q-219 74 -219 389q0 211 79 449q126 384 346 484q61 28 126.5 28t110.5 -17q-89 -53 -176 -227q-126 -249 -169 -552 q-14 -94 -14 -173q0 -237 119 -237h2q99 0 198 144t163.5 363.5t64.5 416t-54 280.5t-208 84q-246 0 -418 -145.5t-172 -381.5q0 -60 10.5 -79.5t10.5 -30.5q-100 0 -153.5 39t-53.5 139zM590 1809q0 52 35 89q36 37 88.5 37t89.5 -36.5t37 -89t-37 -88.5q-38 -35 -77 -35 q-66 0 -101 35.5t-35 87.5zM958 1809q0 53 36 89.5t88 36.5t89 -36.5t37 -89t-37 -88.5q-38 -35 -77 -35q-64 0 -100 35t-36 88z" />
<glyph unicode="&#xd7;" horiz-adv-x="1055" d="M201 338l194 194l-194 195l133 131l192 -194l197 196l131 -133l-195 -195l195 -194l-131 -133l-197 194l-192 -192z" />
<glyph unicode="&#xd8;" horiz-adv-x="1348" d="M31 913q0 101 65 196q137 196 432 285q146 44 299 44h25q12 0 25 -2l22 100h107l-25 -115q313 -73 313 -475q0 -120 -35 -278q-74 -333 -301 -537q-117 -105 -278 -133l-31 -143h-106l28 133h-4q-254 0 -328 208q-26 74 -26 165t15 188t44 197q67 224 180 364 q131 164 296 164q47 0 92 -14l18 83q-32 7 -112 7t-183 -34.5t-181 -98.5q-171 -140 -171 -361q0 -55 10 -73t10 -29q-97 0 -135 27t-51.5 57.5t-13.5 74.5zM506 374q0 -211 98 -231l234 1106q-66 -44 -110 -121q-138 -239 -195 -518q-27 -135 -27 -236zM719 180 q126 94 219.5 344t93.5 490q0 102 -15.5 172.5t-62.5 111.5z" />
<glyph unicode="&#xd9;" horiz-adv-x="1473" d="M0 993q0 109 65 207q137 203 420 292q141 44 289 44q45 0 98 -10l-209 -778q-67 -259 -67 -362t31.5 -151.5t120.5 -48.5t129 30q73 55 127 199.5t129 483.5l137 633h289l-136 -639q-78 -381 -160 -561q-98 -215 -263 -292q-118 -54 -258 -54t-215.5 21.5t-122.5 62.5 q-87 79 -87 237t51 368l185 742q-169 -45 -266 -164t-97 -307q0 -87 24 -128q5 -7 5 -13q-162 0 -204 100q-15 36 -15 88zM840 2048h215l60 -387h-154z" />
<glyph unicode="&#xda;" horiz-adv-x="1473" d="M0 993q0 109 65 207q137 203 420 292q141 44 289 44q45 0 98 -10l-209 -778q-67 -259 -67 -362t31.5 -151.5t120.5 -48.5t129 30q73 55 127 199.5t129 483.5l137 633h289l-136 -639q-78 -381 -160 -561q-98 -215 -263 -292q-118 -54 -258 -54t-215.5 21.5t-122.5 62.5 q-87 79 -87 237t51 368l185 742q-169 -45 -266 -164t-97 -307q0 -87 24 -128q5 -7 5 -13q-162 0 -204 100q-15 36 -15 88zM924 1661l186 387h215l-248 -387h-153z" />
<glyph unicode="&#xdb;" horiz-adv-x="1473" d="M0 993q0 109 65 207q137 203 420 292q141 44 289 44q45 0 98 -10l-209 -778q-67 -259 -67 -362t31.5 -151.5t120.5 -48.5t129 30q73 55 127 199.5t129 483.5l137 633h289l-136 -639q-78 -381 -160 -561q-98 -215 -263 -292q-118 -54 -258 -54t-215.5 21.5t-122.5 62.5 q-87 79 -87 237t51 368l185 742q-169 -45 -266 -164t-97 -307q0 -87 24 -128q5 -7 5 -13q-162 0 -204 100q-15 36 -15 88zM743 1661l434 387h43l123 -387h-65l-123 164l-322 -164h-90z" />
<glyph unicode="&#xdc;" horiz-adv-x="1473" d="M0 993q0 109 65 207q137 203 420 292q141 44 289 44q45 0 98 -10l-209 -778q-67 -259 -67 -362t31.5 -151.5t120.5 -48.5t129 30q73 55 127 199.5t129 483.5l137 633h289l-136 -639q-78 -381 -160 -561q-98 -215 -263 -292q-118 -54 -258 -54t-215.5 21.5t-122.5 62.5 q-87 79 -87 237t51 368l185 742q-169 -45 -266 -164t-97 -307q0 -87 24 -128q5 -7 5 -13q-162 0 -204 100q-15 36 -15 88zM764 1809q0 52 35 89q36 37 88.5 37t89.5 -36.5t37 -89t-37 -88.5q-38 -35 -77 -35q-66 0 -101 35.5t-35 87.5zM1132 1809q0 53 36 89.5t88 36.5 t89 -36.5t37 -89t-37 -88.5q-38 -35 -77 -35q-64 0 -100 35t-36 88z" />
<glyph unicode="&#xdd;" horiz-adv-x="1270" d="M12 1004q0 103 64.5 198.5t166.5 169.5q233 164 488 164q42 0 82 -4l178 -733l303 727h136l-398 -895l-135 -631h-328l136 631l-197 768q-144 -54 -224.5 -169t-80.5 -286q0 -83 23 -125q5 -8 5 -14q-164 0 -205 105q-14 38 -14 94zM928 1661l186 387h215l-248 -387h-153 z" />
<glyph unicode="&#xde;" horiz-adv-x="1194" d="M12 788q0 65 36 138t98 136q127 132 315 200l51 233l303 41l-49 -225q222 -11 335 -125t113 -279q0 -208 -164 -378.5t-427 -170.5h-60l-76 -358h-294l245 1151q-235 -123 -235 -432q0 -83 23 -125q5 -8 5 -14q-164 0 -205 105q-14 38 -14 103zM580 434h28q102 0 194 81 q129 114 172 308q13 59 13 115q0 119 -59.5 196t-179.5 83z" />
<glyph unicode="&#xdf;" horiz-adv-x="922" d="M-174 -512l340 1597q39 197 158 284q89 65 219.5 65t203 -76t72.5 -174.5t-48.5 -182.5t-139.5 -127q108 -36 153 -117t45 -179.5t-18.5 -182.5t-48.5 -149q-57 -118 -146.5 -181t-175.5 -65q-35 0 -67 4l26 121q137 0 197 260q27 111 27 241q0 68 -32 112t-116 67 l37 119q64 26 117 81t53 130t-18.5 96.5t-47.5 21.5q-54 0 -95.5 -38t-59.5 -130l-326 -1523z" />
<glyph unicode="&#xe0;" horiz-adv-x="1077" d="M-27 306.5q0 80.5 14 161t43 160.5q64 176 183 291t287 115q88 0 127 -29.5t39 -74.5v-15l22 109h295l-147 -696q-9 -35 -9 -66q0 -88 84 -88q109 0 166 193h86q-130 -379 -411 -379q-181 0 -201 188q-134 -188 -312.5 -188t-242.5 175q-23 63 -23 143.5zM276 335 q0 -91 38 -127q22 -22 55 -22q61 0 111 48.5t69 132.5l98 462q0 19 -17.5 48.5t-74.5 29.5t-111 -61q-130 -147 -163 -422q-5 -42 -5 -89zM442 1536h215l60 -387h-154z" />
<glyph unicode="&#xe1;" horiz-adv-x="1077" d="M-27 306.5q0 80.5 14 161t43 160.5q64 176 183 291t287 115q88 0 127 -29.5t39 -74.5v-15l22 109h295l-147 -696q-9 -35 -9 -66q0 -88 84 -88q109 0 166 193h86q-130 -379 -411 -379q-181 0 -201 188q-134 -188 -312.5 -188t-242.5 175q-23 63 -23 143.5zM276 335 q0 -91 38 -127q22 -22 55 -22q61 0 111 48.5t69 132.5l98 462q0 19 -17.5 48.5t-74.5 29.5t-111 -61q-130 -147 -163 -422q-5 -42 -5 -89zM502 1149l186 387h215l-248 -387h-153z" />
<glyph unicode="&#xe2;" horiz-adv-x="1077" d="M-27 306.5q0 80.5 14 161t43 160.5q64 176 183 291t287 115q88 0 127 -29.5t39 -74.5v-15l22 109h295l-147 -696q-9 -35 -9 -66q0 -88 84 -88q109 0 166 193h86q-130 -379 -411 -379q-181 0 -201 188q-134 -188 -312.5 -188t-242.5 175q-23 63 -23 143.5zM276 335 q0 -91 38 -127q22 -22 55 -22q61 0 111 48.5t69 132.5l98 462q0 19 -17.5 48.5t-74.5 29.5t-111 -61q-130 -147 -163 -422q-5 -42 -5 -89zM299 1149l434 387h43l123 -387h-65l-123 164l-322 -164h-90z" />
<glyph unicode="&#xe3;" horiz-adv-x="1077" d="M-27 306.5q0 80.5 14 161t43 160.5q64 176 183 291t287 115q88 0 127 -29.5t39 -74.5v-15l22 109h295l-147 -696q-9 -35 -9 -66q0 -88 84 -88q109 0 166 193h86q-130 -379 -411 -379q-181 0 -201 188q-134 -188 -312.5 -188t-242.5 175q-23 63 -23 143.5zM209 1192 q99 201 342 201q79 0 148.5 -23.5t107.5 -34t100 -10.5t111 47l12 -2q-17 -74 -117.5 -139.5t-212.5 -65.5q-69 0 -145 26t-116 38t-83 12q-77 0 -135 -53zM276 335q0 -91 38 -127q22 -22 55 -22q61 0 111 48.5t69 132.5l98 462q0 19 -17.5 48.5t-74.5 29.5t-111 -61 q-130 -147 -163 -422q-5 -42 -5 -89z" />
<glyph unicode="&#xe4;" horiz-adv-x="1077" d="M-27 306.5q0 80.5 14 161t43 160.5q64 176 183 291t287 115q88 0 127 -29.5t39 -74.5v-15l22 109h295l-147 -696q-9 -35 -9 -66q0 -88 84 -88q109 0 166 193h86q-130 -379 -411 -379q-181 0 -201 188q-134 -188 -312.5 -188t-242.5 175q-23 63 -23 143.5zM276 335 q0 -91 38 -127q22 -22 55 -22q61 0 111 48.5t69 132.5l98 462q0 19 -17.5 48.5t-74.5 29.5t-111 -61q-130 -147 -163 -422q-5 -42 -5 -89zM369 1297q0 52 35 89q36 37 88.5 37t89.5 -36.5t37 -89t-37 -88.5q-38 -35 -76 -35q-66 0 -101.5 35.5t-35.5 87.5zM737 1297 q0 53 36 89.5t88 36.5t89 -36.5t37 -89t-37 -88.5q-38 -35 -76 -35q-65 0 -101 35t-36 88z" />
<glyph unicode="&#xe5;" horiz-adv-x="1077" d="M-27 306.5q0 80.5 14 161t43 160.5q64 176 183 291t287 115q88 0 127 -29.5t39 -74.5v-15l22 109h295l-147 -696q-9 -35 -9 -66q0 -88 84 -88q109 0 166 193h86q-130 -379 -411 -379q-181 0 -201 188q-134 -188 -312.5 -188t-242.5 175q-23 63 -23 143.5zM276 335 q0 -91 38 -127q22 -22 55 -22q61 0 111 48.5t69 132.5l98 462q0 19 -17.5 48.5t-74.5 29.5t-111 -61q-130 -147 -163 -422q-5 -42 -5 -89zM479 1258q0 129 94 183q33 19 94.5 19t97.5 -46.5t36 -112.5t-40.5 -118.5t-122 -52.5t-120.5 42t-39 86zM561 1278q0 -76 70 -76 q94 0 94 94q0 67 -30 88q-14 9 -38 9q-52 0 -74 -38t-22 -77z" />
<glyph unicode="&#xe6;" horiz-adv-x="1331" d="M-16 261q0 172 122.5 252.5t331.5 80.5q69 0 107 -8q43 92 43 186t-68 128q-24 11 -87 11q-111 0 -218 -96l-57 59q144 147 287 157q42 3 85 3q164 0 267 -82q118 90 288.5 90t201.5 -124q9 -37 9 -100.5t-39 -138.5t-104 -132q-138 -121 -328 -133q-4 -34 -4 -66 q0 -115 34 -151.5t99 -36.5q126 0 201 47t176 160h70q-228 -375 -565 -375q-248 0 -301 192q-50 -92 -95 -128q-85 -68 -196 -68q-176 0 -236 134q-24 51 -24 139zM272 300q0 -71 31.5 -92.5t60.5 -21.5q58 0 97 61t69 220q-10 2 -17 2h-17q-102 0 -163 -49t-61 -120z M840 512q117 8 208 108.5t91 207t-49 106.5q-75 0 -144 -126.5t-106 -295.5z" />
<glyph unicode="&#xe7;" horiz-adv-x="786" d="M-27 313q0 235 119 454q90 165 247 237q81 38 167 38q246 0 246 -186q0 -78 -32 -114.5t-72 -36.5t-77 24q25 66 25 121q0 84 -58.5 84t-123.5 -106q-93 -150 -128 -373q-10 -67 -10 -147q0 -148 141 -148q118 0 198.5 52.5t170.5 154.5h70q-159 -262 -378 -347 q-15 -6 -30 -10l-59 -145q64 16 109 16q127 0 127 -103t-74.5 -163.5t-161.5 -60.5t-123.5 12.5t-59.5 23.5l-46 21q38 65 76 65q53 0 91.5 -27.5t65.5 -27.5t44.5 26.5t17.5 57.5t-18.5 53.5t-68 22.5t-99.5 -25l84 235q-29 -3 -60 -3q-146 0 -233 75.5t-87 249.5z" />
<glyph unicode="&#xe8;" horiz-adv-x="786" d="M-27 313q0 234 119 453q91 167 248 238q81 38 168 38q142 0 193 -53.5t51 -142.5q0 -175 -141 -297.5t-330 -134.5q-5 -58 -5 -82q0 -105 37 -138.5t104 -33.5q118 0 198.5 52.5t170.5 154.5h70q-230 -379 -563 -379q-146 0 -233 75.5t-87 249.5zM297 512 q118 8 207.5 110t89.5 238q0 74 -51 74q-75 -2 -145 -132.5t-101 -289.5zM354 1536h215l60 -387h-154z" />
<glyph unicode="&#xe9;" horiz-adv-x="786" d="M-27 313q0 234 119 453q91 167 248 238q81 38 168 38q142 0 193 -53.5t51 -142.5q0 -175 -141 -297.5t-330 -134.5q-5 -58 -5 -82q0 -105 37 -138.5t104 -33.5q118 0 198.5 52.5t170.5 154.5h70q-230 -379 -563 -379q-146 0 -233 75.5t-87 249.5zM297 512 q118 8 207.5 110t89.5 238q0 74 -51 74q-75 -2 -145 -132.5t-101 -289.5zM398 1149l186 387h215l-248 -387h-153z" />
<glyph unicode="&#xea;" horiz-adv-x="786" d="M-27 313q0 234 119 453q91 167 248 238q81 38 168 38q142 0 193 -53.5t51 -142.5q0 -175 -141 -297.5t-330 -134.5q-5 -58 -5 -82q0 -105 37 -138.5t104 -33.5q118 0 198.5 52.5t170.5 154.5h70q-230 -379 -563 -379q-146 0 -233 75.5t-87 249.5zM215 1149l434 387h43 l123 -387h-65l-123 164l-322 -164h-90zM297 512q118 8 207.5 110t89.5 238q0 74 -51 74q-75 -2 -145 -132.5t-101 -289.5z" />
<glyph unicode="&#xeb;" horiz-adv-x="786" d="M-27 313q0 234 119 453q91 167 248 238q81 38 168 38q142 0 193 -53.5t51 -142.5q0 -175 -141 -297.5t-330 -134.5q-5 -58 -5 -82q0 -105 37 -138.5t104 -33.5q118 0 198.5 52.5t170.5 154.5h70q-230 -379 -563 -379q-146 0 -233 75.5t-87 249.5zM244 1297q0 52 35 89 q36 37 88.5 37t89.5 -36.5t37 -89t-37 -88.5q-38 -35 -77 -35q-66 0 -101 35.5t-35 87.5zM297 512q118 8 207.5 110t89.5 238q0 74 -51 74q-75 -2 -145 -132.5t-101 -289.5zM612 1297q0 53 36 89.5t88 36.5t89 -36.5t37 -89t-37 -88.5q-38 -35 -77 -35q-64 0 -100 35t-36 88 z" />
<glyph unicode="&#xec;" horiz-adv-x="547" d="M-16 233q0 58 16 134l139 657h295l-147 -696q-8 -37 -8 -73q0 -69 83 -69q60 0 111.5 52t73.5 129h86q-132 -379 -441 -379q-81 0 -145 58q-63 58 -63 187zM135 1536h215l60 -387h-154z" />
<glyph unicode="&#xed;" horiz-adv-x="547" d="M-16 233q0 58 16 134l139 657h295l-147 -696q-8 -37 -8 -73q0 -69 83 -69q60 0 111.5 52t73.5 129h86q-132 -379 -441 -379q-81 0 -145 58q-63 58 -63 187zM248 1149l186 387h215l-248 -387h-153z" />
<glyph unicode="&#xee;" horiz-adv-x="547" d="M-16 233q0 58 16 134l139 657h295l-147 -696q-8 -37 -8 -73q0 -69 83 -69q60 0 111.5 52t73.5 129h86q-132 -379 -441 -379q-81 0 -145 58q-63 58 -63 187zM12 1149l434 387h43l123 -387h-65l-123 164l-322 -164h-90z" />
<glyph unicode="&#xef;" horiz-adv-x="547" d="M-16 233q0 58 16 134l139 657h295l-147 -696q-8 -37 -8 -73q0 -69 83 -69q60 0 111.5 52t73.5 129h86q-132 -379 -441 -379q-81 0 -145 58q-63 58 -63 187zM36 1297q0 52 35 89q36 37 88.5 37t89.5 -36.5t37 -89t-37 -88.5q-38 -35 -77 -35q-66 0 -101 35.5t-35 87.5z M404 1297q0 53 36 89.5t88 36.5t89 -36.5t37 -89t-37 -88.5q-38 -35 -77 -35q-64 0 -100 35t-36 88z" />
<glyph unicode="&#xf0;" horiz-adv-x="1102" d="M-2 306.5q0 80.5 14.5 161t43.5 160.5q63 177 174 282q127 124 294 124q88 0 127 -29.5t39 -74.5v-12l17 75q17 75 22 156h-158l17 82h141q-12 103 -86 203h92q74 -43 129 -86t90 -117h129l-16 -82h-86q12 -50 12 -117.5t-22 -181.5l-111 -522q-8 -37 -8 -73 q0 -69 84 -69q110 0 166 181h86q-128 -367 -412 -367q-175 0 -201 178q-121 -190 -305.5 -190t-248.5 175q-23 63 -23 143.5zM301 335q0 -90 29.5 -119.5t62.5 -29.5q61 0 111 48t69 133l99 462q0 45 -44 69q-16 9 -40 9q-67 0 -120 -61q-130 -149 -162 -422q-5 -42 -5 -89z " />
<glyph unicode="&#xf1;" d="M-78 0l217 1024h295l-22 -106q100 114 239 114q98 0 163 -54t65 -160t-34 -240l-49 -198q-16 -65 -16 -106q0 -88 75 -88q69 0 106 44t73 137h86q-119 -345 -322 -375q-32 -4 -79 -4t-93 20q-128 54 -128 211q0 84 46 268t46 254q0 105 -74 105t-132 -117 q-17 -33 -28 -72l-139 -657h-295zM180 1192q99 201 342 201q79 0 148.5 -23.5t107.5 -34t100 -10.5t111 47l12 -2q-17 -74 -117.5 -139.5t-212.5 -65.5q-69 0 -145 26t-116 38t-83 12q-77 0 -135 -53z" />
<glyph unicode="&#xf2;" horiz-adv-x="887" d="M-40 301q0 74 12.5 150.5t39.5 157.5q61 183 177 297q138 136 332 136q263 0 263 -327v-2q10 -2 34 -2q55 0 141.5 35t162.5 88l18 -56q-124 -130 -363 -170q-24 -280 -161 -448t-328 -168q-236 0 -304 174q-24 61 -24 135zM265 342q0 -99 18 -125.5t38 -33.5t53 -7 q71 0 140 123t93 303q-55 14 -55 91t64 106q-4 65 -20.5 92t-64.5 27q-94 0 -180 -207.5t-86 -368.5zM366 1536h215l60 -387h-154z" />
<glyph unicode="&#xf3;" horiz-adv-x="887" d="M-40 301q0 74 12.5 150.5t39.5 157.5q61 183 177 297q138 136 332 136q263 0 263 -327v-2q10 -2 34 -2q55 0 141.5 35t162.5 88l18 -56q-124 -130 -363 -170q-24 -280 -161 -448t-328 -168q-236 0 -304 174q-24 61 -24 135zM265 342q0 -99 18 -125.5t38 -33.5t53 -7 q71 0 140 123t93 303q-55 14 -55 91t64 106q-4 65 -20.5 92t-64.5 27q-94 0 -180 -207.5t-86 -368.5zM449 1149l186 387h215l-248 -387h-153z" />
<glyph unicode="&#xf4;" horiz-adv-x="887" d="M-40 301q0 74 12.5 150.5t39.5 157.5q61 183 177 297q138 136 332 136q263 0 263 -327v-2q10 -2 34 -2q55 0 141.5 35t162.5 88l18 -56q-124 -130 -363 -170q-24 -280 -161 -448t-328 -168q-236 0 -304 174q-24 61 -24 135zM195 1149l434 387h43l123 -387h-65l-123 164 l-322 -164h-90zM265 342q0 -99 18 -125.5t38 -33.5t53 -7q71 0 140 123t93 303q-55 14 -55 91t64 106q-4 65 -20.5 92t-64.5 27q-94 0 -180 -207.5t-86 -368.5z" />
<glyph unicode="&#xf5;" horiz-adv-x="887" d="M-40 301q0 74 12.5 150.5t39.5 157.5q61 183 177 297q138 136 332 136q263 0 263 -327v-2q10 -2 34 -2q55 0 141.5 35t162.5 88l18 -56q-124 -130 -363 -170q-24 -280 -161 -448t-328 -168q-236 0 -304 174q-24 61 -24 135zM82 1192q99 201 342 201q79 0 148.5 -23.5 t107.5 -34t100 -10.5t111 47l12 -2q-17 -74 -117.5 -139.5t-212.5 -65.5q-69 0 -145 26t-116 38t-83 12q-77 0 -135 -53zM265 342q0 -99 18 -125.5t38 -33.5t53 -7q71 0 140 123t93 303q-55 14 -55 91t64 106q-4 65 -20.5 92t-64.5 27q-94 0 -180 -207.5t-86 -368.5z" />
<glyph unicode="&#xf6;" horiz-adv-x="887" d="M-40 301q0 74 12.5 150.5t39.5 157.5q61 183 177 297q138 136 332 136q263 0 263 -327v-2q10 -2 34 -2q55 0 141.5 35t162.5 88l18 -56q-124 -130 -363 -170q-24 -280 -161 -448t-328 -168q-236 0 -304 174q-24 61 -24 135zM215 1297q0 52 35 89q36 37 88.5 37 t89.5 -36.5t37 -89t-37 -88.5q-38 -35 -76 -35q-66 0 -101.5 35.5t-35.5 87.5zM265 342q0 -99 18 -125.5t38 -33.5t53 -7q71 0 140 123t93 303q-55 14 -55 91t64 106q-4 65 -20.5 92t-64.5 27q-94 0 -180 -207.5t-86 -368.5zM583 1297q0 53 36 89.5t88 36.5t89 -36.5t37 -89 t-37 -88.5q-38 -35 -76 -35q-65 0 -101 35t-36 88z" />
<glyph unicode="&#xf7;" horiz-adv-x="967" d="M105 422l37 161h717l-35 -161h-719zM301 163q0 67 46.5 116t114.5 49t116.5 -48.5t48.5 -116.5t-49 -114.5t-116 -46.5t-114 47t-47 114zM424 849.5q0 67.5 46.5 116t114.5 48.5t116.5 -48t48.5 -116.5t-49 -115t-116 -46.5t-114 47t-47 114.5z" />
<glyph unicode="&#xf8;" horiz-adv-x="877" d="M-29 301q0 72 11.5 147.5t37.5 154.5q60 182 180.5 306t307.5 131l41 199h106l-43 -209q170 -45 176 -299q143 7 304 123h65q-42 -64 -149.5 -131.5t-223.5 -95.5q-16 -251 -122 -415.5t-269 -207.5l-45 -215h-106l43 203q-226 7 -291 177q-23 60 -23 132zM276 354 q0 -111 22.5 -144.5t71.5 -33.5q86 0 153 123t91 309q-57 16 -57 98.5t64 104.5q-5 60 -23 83.5t-64.5 23.5t-94.5 -62q-94 -122 -142 -339q-21 -99 -21 -163z" />
<glyph unicode="&#xf9;" d="M-16 233q0 58 16 134l139 657h295l-147 -696q-6 -32 -6 -58q0 -84 61 -84q108 0 164 181l139 657h295l-147 -696q-9 -35 -9 -72q0 -70 84 -70q115 0 166 181h86q-130 -379 -411 -379q-183 0 -203 194q-120 -194 -303 -194q-92 0 -156 58q-63 58 -63 187zM379 1536h215 l60 -387h-154z" />
<glyph unicode="&#xfa;" d="M-16 233q0 58 16 134l139 657h295l-147 -696q-6 -32 -6 -58q0 -84 61 -84q108 0 164 181l139 657h295l-147 -696q-9 -35 -9 -72q0 -70 84 -70q115 0 166 181h86q-130 -379 -411 -379q-183 0 -203 194q-120 -194 -303 -194q-92 0 -156 58q-63 58 -63 187zM490 1149 l186 387h215l-248 -387h-153z" />
<glyph unicode="&#xfb;" d="M-16 233q0 58 16 134l139 657h295l-147 -696q-6 -32 -6 -58q0 -84 61 -84q108 0 164 181l139 657h295l-147 -696q-9 -35 -9 -72q0 -70 84 -70q115 0 166 181h86q-130 -379 -411 -379q-183 0 -203 194q-120 -194 -303 -194q-92 0 -156 58q-63 58 -63 187zM258 1149 l434 387h43l123 -387h-65l-123 164l-322 -164h-90z" />
<glyph unicode="&#xfc;" d="M-16 233q0 58 16 134l139 657h295l-147 -696q-6 -32 -6 -58q0 -84 61 -84q108 0 164 181l139 657h295l-147 -696q-9 -35 -9 -72q0 -70 84 -70q115 0 166 181h86q-130 -379 -411 -379q-183 0 -203 194q-120 -194 -303 -194q-92 0 -156 58q-63 58 -63 187zM279 1297 q0 52 35 89q36 37 88.5 37t89.5 -36.5t37 -89t-37 -88.5q-38 -35 -76 -35q-66 0 -101.5 35.5t-35.5 87.5zM647 1297q0 53 36 89.5t88 36.5t89 -36.5t37 -89t-37 -88.5q-38 -35 -76 -35q-65 0 -101 35t-36 88z" />
<glyph unicode="&#xfd;" d="M-16 233q0 58 16 134l139 657h295l-147 -696q-6 -26 -6 -52q0 -90 58.5 -90t99.5 48q40 49 63 120l143 670h295l-203 -950q93 31 153.5 94.5t104.5 198.5h86q-78 -264 -264 -348q-51 -23 -98 -35l-31 -148q-39 -197 -156 -284q-86 -64 -197 -64t-178 49t-67 157 q0 187 334 298l25 110q-106 -114 -246 -114q-92 0 -156 58q-63 58 -63 187zM203 -285q0 -41 39 -61q13 -6 38 -6t58 44.5t53 137.5l12 59q-200 -72 -200 -174zM488 1149l186 387h215l-248 -387h-153z" />
<glyph unicode="&#xfe;" horiz-adv-x="969" d="M-188 -512l319 1505q25 109 25 191q0 134 -88 250h92q127 -75 170 -129q88 -108 88 -265q0 -42 -8 -100q101 94 247 94q177 0 231 -170q19 -62 19 -142.5t-9.5 -161t-32.5 -161t-60.5 -154.5t-93.5 -131.5t-132.5 -91.5t-192.5 -34t-159 75l-106 -501zM260 217 q17 -51 88 -51t126 58q107 114 138 326q15 94 15 167q0 170 -103 170q-35 0 -74.5 -26.5t-68.5 -80.5z" />
<glyph unicode="&#xff;" d="M-16 233q0 58 16 134l139 657h295l-147 -696q-6 -26 -6 -52q0 -90 58.5 -90t99.5 48q40 49 63 120l143 670h295l-203 -950q93 31 153.5 94.5t104.5 198.5h86q-78 -264 -264 -348q-51 -23 -98 -35l-31 -148q-39 -197 -156 -284q-86 -64 -197 -64t-178 49t-67 157 q0 187 334 298l25 110q-106 -114 -246 -114q-92 0 -156 58q-63 58 -63 187zM203 -285q0 -41 39 -61q13 -6 38 -6t58 44.5t53 137.5l12 59q-200 -72 -200 -174zM252 1297q0 52 35 89q36 37 88.5 37t89.5 -36.5t37 -89t-37 -88.5q-38 -35 -77 -35q-66 0 -101 35.5t-35 87.5z M620 1297q0 53 36 89.5t88 36.5t89 -36.5t37 -89t-37 -88.5q-38 -35 -77 -35q-64 0 -100 35t-36 88z" />
<glyph unicode="&#x131;" horiz-adv-x="547" d="M-16 233q0 58 16 134l139 657h295l-147 -696q-8 -37 -8 -73q0 -69 83 -69q60 0 111.5 52t73.5 129h86q-132 -379 -441 -379q-81 0 -145 58q-63 58 -63 187z" />
<glyph unicode="&#x152;" horiz-adv-x="1733" d="M33 983q0 100 68 201q145 212 447 306q150 46 296.5 46t238.5 -38q118 38 225 38t194 -12.5t190 -12.5t180 25l-19 -70q-39 -146 -176 -176q-98 0 -232 34t-192 40q90 -128 90 -352q0 -73 -10 -154h273l-41 -151h-259q-44 -189 -140 -356q-42 -73 -95 -134h498l-43 -217 h-793q-67 -12 -147 -12q-168 0 -266.5 98.5t-98.5 311t79 450.5q126 384 346 484q61 28 126.5 28t110.5 -17q-89 -53 -176 -227q-126 -249 -169 -552q-14 -94 -14 -173q0 -237 119 -237h2q99 0 198 144t163.5 363.5t64.5 416t-54 280.5t-208 84q-246 0 -418 -145.5 t-172 -381.5q0 -60 10.5 -79.5t10.5 -30.5q-100 0 -153.5 39t-53.5 139z" />
<glyph unicode="&#x153;" horiz-adv-x="1358" d="M-14 326q0 353 162 546q146 172 376 172q104 0 156 -49t74 -125q126 172 327 172q262 0 262 -213q0 -175 -159 -294q-140 -106 -303 -123q-7 -44 -7 -92q0 -91 49 -132t103 -41q95 0 202.5 79.5t157.5 191.5h93q-157 -285 -393 -382q-86 -35 -188 -36h-2 q-100 0 -169.5 50t-101.5 128q-135 -190 -326 -190q-164 0 -239 76q-74 77 -74 262zM258 326q0 -77 39.5 -108.5t92.5 -31.5q94 0 152 124q49 101 72 272q-45 0 -65.5 27.5t-20.5 56.5q0 54 25.5 94.5t64.5 56.5q-8 107 -86 107q-71 0 -124 -68q-96 -126 -135 -355 q-15 -98 -15 -175zM897 510q133 0 228.5 97.5t95.5 211.5q0 72 -36 103q-14 12 -46.5 12t-70.5 -39q-110 -111 -171 -385z" />
<glyph unicode="&#x160;" horiz-adv-x="1167" d="M-184 304q0 161 92 251t206 90t164 -69q18 -26 20 -66q-157 0 -218 -103q-22 -37 -22 -83q0 -88 51.5 -145.5t150.5 -57.5t165.5 71t66.5 180t-31 179.5t-78 131.5t-101 116.5t-101 112.5q-109 132 -109 257q0 158 136.5 262.5t336.5 104.5q247 0 313 -150 q17 -40 17 -113.5t-45 -131.5t-112.5 -58t-104.5 43q63 36 85 125q7 26 7 65.5t-32.5 81.5t-119 42t-137.5 -46.5t-51 -121.5t20 -120q35 -81 125 -162l86 -76q111 -100 151 -166q79 -133 79 -270q0 -255 -176 -394q-159 -127 -400 -127q-298 0 -399 191q-35 67 -35 156z M611 2048h65l123 -164l322 164h90l-434 -387h-43z" />
<glyph unicode="&#x161;" horiz-adv-x="756" d="M-66 233.5q0 88.5 34 137.5t75 69q144 258 252 607l303 40q8 -192 16 -321l25 -325q4 -48 4 -95t-8 -82q90 52 147 103h86q-127 -148 -313 -256q-116 -123 -322 -123q-144 0 -221.5 78.5t-77.5 167zM43 293q0 -143 107 -143q196 0 196 190q0 53 -8 125l-12 117 q-11 112 -19 243q-52 -168 -166 -387q47 -22 47 -65.5t-24.5 -75t-66 -31.5t-54.5 27zM283 1536h65l123 -164l322 164h90l-434 -387h-43z" />
<glyph unicode="&#x178;" horiz-adv-x="1270" d="M12 1004q0 103 64.5 198.5t166.5 169.5q233 164 488 164q42 0 82 -4l178 -733l303 727h136l-398 -895l-135 -631h-328l136 631l-197 768q-144 -54 -224.5 -169t-80.5 -286q0 -83 23 -125q5 -8 5 -14q-164 0 -205 105q-14 38 -14 94zM777 1809q0 52 35 89q36 37 88.5 37 t89.5 -36.5t37 -89t-37 -88.5q-38 -35 -76 -35q-66 0 -101.5 35.5t-35.5 87.5zM1145 1809q0 53 36 89.5t88 36.5t89 -36.5t37 -89t-37 -88.5q-38 -35 -76 -35q-65 0 -101 35t-36 88z" />
<glyph unicode="&#x17d;" horiz-adv-x="1110" d="M23 0l716 1425l-184 5q-188 0 -188 -46q10 0 22 -14t12 -50q0 -61 -37.5 -89.5t-90.5 -28.5t-75 38.5t-22 79.5q0 86 67 151t185 65h702l-706 -1403l197 -4q71 0 131 7.5t82 37.5q-11 0 -24 13.5t-13 48.5q0 61 37 90.5t90 29.5t76.5 -38t23.5 -78q0 -88 -74 -164 t-188 -76h-739zM623 2048h65l123 -164l322 164h90l-434 -387h-43z" />
<glyph unicode="&#x17e;" horiz-adv-x="877" d="M0 0l522 913h-114q-48 0 -80.5 -5t-32.5 -27q0 -5 3.5 -6t11 -6.5t7.5 -48t-34.5 -68t-64.5 -25.5q-49 0 -77 24t-28 61q0 79 68 145.5t169 66.5h527l-502 -866q13 -1 31 -3l39 -5q46 -5 84 -5q91 0 98 41q-39 4 -39 43q0 30 28 59t86 29q91 0 91 -98q0 -79 -70 -149 t-180 -70h-543zM383 1536h65l123 -164l322 164h90l-434 -387h-43z" />
<glyph unicode="&#x192;" horiz-adv-x="555" d="M-414 -304q0 83 28 131.5t88.5 92t236.5 96.5l196 926h-123l17 82h123l34 162q73 348 373 348q95 0 168.5 -62.5t73.5 -158.5q0 -47 -6 -84h-97q4 32 4 61t-23.5 46.5t-46.5 17.5q-50 0 -90.5 -38.5t-60.5 -129.5l-35 -162h152l-16 -82h-154l-233 -1106 q-73 -348 -367 -348q-95 0 -168.5 62.5t-73.5 145.5zM-301 -262q0 -40 49 -62q15 -6 32 -6q80 0 118 160l26 119q-110 -39 -151 -72q-74 -61 -74 -139z" />
<glyph unicode="&#x2c6;" horiz-adv-x="600" d="M0 1149l434 387h43l123 -387h-65l-123 164l-322 -164h-90z" />
<glyph unicode="&#x2c7;" horiz-adv-x="602" d="M205 1536h65l123 -164l322 164h90l-434 -387h-43z" />
<glyph unicode="&#x2da;" horiz-adv-x="319" d="M0 1258q0 129 94 183q33 19 94.5 19t97.5 -46.5t36 -112.5t-40.5 -118.5t-122 -52.5t-120.5 42t-39 86zM82 1278q0 -76 70 -76q94 0 94 94q0 67 -30 88q-14 9 -38 9q-52 0 -74 -38t-22 -77z" />
<glyph unicode="&#x2db;" horiz-adv-x="596" d="M92 -236q0 124 158 246h143q-80 -29 -119 -123q-12 -29 -12 -61.5t18.5 -66t59 -33.5t75.5 25l66 44q-4 -36 -4 -63l-40 -40q-88 -87 -174 -87t-129 49q-42 49 -42 110z" />
<glyph unicode="&#x2dc;" horiz-adv-x="825" d="M78 1192q99 201 342 201q79 0 148.5 -23.5t107.5 -34t100 -10.5t111 47l12 -2q-17 -74 -117 -140q-101 -65 -213 -65q-69 0 -145 26t-116 38t-83 12q-77 0 -135 -53z" />
<glyph unicode="&#x401;" horiz-adv-x="940" d="M14 332q0 162 105 321t274 201q-125 91 -125 251t130 297.5t319 137.5q127 0 210 -66.5t83 -174t-45 -168t-104 -60.5t-99 55q36 14 63 68t27 113.5t-36 85.5q-37 26 -80 26q-86 0 -146 -88.5t-60 -200.5q0 -154 112 -232q40 -28 95 -42q-156 -34 -261 -187t-105 -302 q0 -86 45 -146.5t148 -60.5t213.5 55t166.5 154l47 -21q-81 -178 -246.5 -281.5t-353 -103.5t-282.5 103.5t-95 265.5zM487 1822.5q0 39.5 36 76t88.5 36.5t89 -36.5t36.5 -89t-37 -88t-76 -35.5q-96 0 -128 74q-9 23 -9 62.5zM856 1809q0 53 36 89.5t88 36.5t89 -36.5 t37 -89t-37 -88.5q-38 -35 -77 -35q-64 0 -100 35t-36 88z" />
<glyph unicode="&#x402;" horiz-adv-x="1485" d="M25 1025q0 79 38 175t121 170q184 164 539 164q145 0 230.5 -15t149 -23.5t170 -8.5t212.5 43q-4 -136 -68 -198t-172.5 -62t-333.5 45l-100 -463q124 78 287 78t222 -162q21 -55 21 -157t-43 -282q-152 -638 -458 -737q-48 -16 -106 -16q-116 0 -163 78q-23 37 -23 78 t21 86q42 -45 107 -45q107 0 184 125q91 148 158 469q35 167 35 255.5t-33 118t-96.5 29.5t-141.5 -55l-153 -715h-295l291 1356h-25q-181 0 -274 -84q-111 -100 -111 -330q0 -81 25 -125q4 -8 4 -14q-166 0 -205 105q-14 38 -14 117z" />
<glyph unicode="&#x403;" horiz-adv-x="877" d="M25 1010q0 62 15 128t50 125q76 127 234 200t411 73q71 0 162.5 -12.5t200 -12.5t188.5 25q-8 -22 -14 -48.5t-14.5 -53.5t-21.5 -53t-33 -46t-49.5 -32.5t-107.5 -12.5t-278 41l-287 -1331h-295l295 1368q-132 -4 -199 -97t-67 -327q0 -81 25 -125q4 -8 4 -14 q-166 0 -205 105q-14 38 -14 100zM754 1661l186 387h215l-248 -387h-153z" />
<glyph unicode="&#x404;" horiz-adv-x="1018" d="M39 457q0 257 85 513q99 302 292 452q148 114 338 114q238 0 315 -149q27 -52 27 -125q0 -189 -144 -189q-72 0 -116 53q37 20 65.5 75t28.5 109.5t-28.5 92t-90.5 37.5q-112 0 -210.5 -147t-160.5 -371h391l-32 -152h-393q-27 -150 -27 -254t10.5 -162.5t38.5 -100.5 q58 -89 188 -89q256 0 408 205l47 -21q-98 -248 -373 -344q-108 -38 -212 -38h-6q-227 2 -334 118t-107 373z" />
<glyph unicode="&#x405;" horiz-adv-x="1112" d="M0 304q0 160 91.5 250.5t205.5 90.5t163 -69q19 -26 21 -66q-158 0 -217 -103q-22 -37 -22 -83q0 -88 51 -145.5t150.5 -57.5t166 71t66.5 180t-31 179.5t-78 131.5t-101 116.5t-101 112.5q-109 132 -109 257q0 158 136.5 262.5t336.5 104.5q247 0 313 -150 q17 -40 17 -113.5t-45 -131.5t-112.5 -58t-104.5 43q63 36 85 125q7 26 7 65.5t-33 81.5t-119.5 42t-137 -46.5t-50.5 -121.5t20 -120q35 -81 125 -162l86 -76q111 -100 151 -166q79 -133 79 -270q0 -255 -168.5 -388t-407.5 -133q-298 0 -399 191q-35 67 -35 156z" />
<glyph unicode="&#x406;" horiz-adv-x="766" d="M25 1004q0 103 65 198q131 195 396 289q127 45 257 45q42 0 82 -4l-325 -1532h-295l297 1391q-135 -56 -211 -168.5t-76 -278.5q0 -81 25 -125q4 -8 4 -14q-166 0 -205 105q-14 38 -14 94z" />
<glyph unicode="&#x407;" horiz-adv-x="766" d="M25 1004q0 103 65 198q131 195 396 289q127 45 257 45q42 0 82 -4l-325 -1532h-295l297 1391q-135 -56 -211 -168.5t-76 -278.5q0 -81 25 -125q4 -8 4 -14q-166 0 -205 105q-14 38 -14 94zM397 1809q0 53 36 89.5t88 36.5t89 -36.5t37 -89t-37 -88.5q-38 -35 -76 -35 q-65 0 -101 35t-36 88zM766 1809q0 53 36 89.5t88 36.5t89 -36.5t37 -89t-37 -88.5q-38 -35 -77 -35q-64 0 -100 35t-36 88z" />
<glyph unicode="&#x408;" horiz-adv-x="926" d="M-164 -145q0 120 67 202t169 82t138 -17q77 -34 77 -120q0 -39 -13 -82q-61 53 -127.5 53t-102.5 -47t-36 -96q0 -81 43 -116.5t87 -35.5q83 0 126.5 50.5t77.5 201.5l322 1463q-136 -56 -212.5 -169.5t-76.5 -279.5q0 -83 23 -125q5 -8 5 -14q-164 0 -205 105 q-14 38 -14 94q0 103 64.5 198.5t166.5 169.5q233 164 488 164h82l-307 -1454q-54 -250 -176.5 -378t-362.5 -128q-147 0 -225 79.5t-78 199.5z" />
<glyph unicode="&#x409;" horiz-adv-x="1673" d="M-61 -16q0 214 161 562.5t356 595.5q311 394 566 394q104 0 162 -29l-140 -651q106 37 203 37q179 0 267 -104t88 -281.5t-103 -343.5q-52 -84 -135.5 -141.5t-209 -57.5t-176.5 81q-24 38 -24 87t23 103q58 -74 125.5 -74t105.5 34q109 96 109 324q0 252 -195 252 q-54 0 -100 -22l-160 -750h-295l295 1391q-177 -96 -386 -523q-144 -292 -218 -568.5t-74 -384t29 -148.5q-121 0 -170 25q-104 52 -104 192z" />
<glyph unicode="&#x40a;" horiz-adv-x="1907" d="M25 1004q0 103 65 198q131 195 396 289q127 45 257 45q42 0 82 -4l-131 -610h301l131 610h295l-143 -676q123 37 212 37q169 0 257 -103t88 -276q0 -78 -24.5 -172t-78 -178.5t-136.5 -141.5t-176 -57q-158 0 -208 81q-24 40 -24 87.5t22 102.5q58 -74 126 -74t106.5 34 t73 109.5t34.5 214.5q0 252 -194 252q-55 0 -101 -22l-159 -750h-295l164 770h-301l-164 -770h-295l297 1393q-136 -58 -211.5 -171t-75.5 -278q0 -81 25 -125q4 -8 4 -14q-166 0 -205 105q-14 38 -14 94z" />
<glyph unicode="&#x40b;" horiz-adv-x="1526" d="M25 1025q0 79 38 175t121 170q184 164 539 164q145 0 230.5 -15t149 -23.5t170 -8.5t212.5 43q-4 -136 -68 -198t-172.5 -62t-333.5 45l-100 -463q122 78 287 78t223 -162q20 -55 20 -148.5t-40.5 -255.5t-40.5 -220q0 -113 79 -144q-128 -35 -215 -35q-159 0 -159 137 q0 77 59 322q5 23 10 50l9 58q10 62 10 95q0 143 -114 143q-79 0 -157 -55l-153 -715h-295l291 1356h-25q-181 0 -274 -84q-111 -100 -111 -330q0 -81 25 -125q4 -8 4 -14q-166 0 -205 105q-14 38 -14 117z" />
<glyph unicode="&#x40c;" horiz-adv-x="1300" d="M25 1004q0 103 65 198q131 195 396 289q127 45 257 45q42 0 82 -4l-131 -612q64 184 181 351t205.5 216t157.5 49t101 -26q56 -45 56 -98q0 -87 -39.5 -122t-93.5 -35q-88 0 -121 82q-194 -115 -353 -467q25 2 46 2h40q205 0 242 -132q12 -40 12 -95q0 -83 -50 -265 t-50 -237q0 -113 80 -143q-128 -35 -190 -35q-173 0 -173 132q1 81 54.5 269.5t54.5 274.5q0 139 -123 139q-27 0 -67 -8l-164 -772h-295l297 1393q-136 -58 -211.5 -171t-75.5 -278q0 -81 25 -125q4 -8 4 -14q-166 0 -205 105q-14 38 -14 94zM864 1661l186 387h215 l-248 -387h-153z" />
<glyph unicode="&#x40e;" horiz-adv-x="1319" d="M25 1004q0 103 65 198q131 195 396 289q127 45 257 45q42 0 82 -4l179 -768l323 762h135l-512 -1211q-60 -138 -111 -198q-108 -127 -238.5 -127t-167.5 90q-11 27 -11 77.5t37 89t97 38.5q117 0 134 -121q71 28 123 151l-293 1084q-144 -54 -224.5 -169t-80.5 -286 q0 -81 25 -125q4 -8 4 -14q-166 0 -205 105q-14 38 -14 94zM760 1807q0 74 36.5 115.5t100.5 41.5q127 0 127 -117q0 -59 -49 -92q32 -8 76 -8q97 0 175 51q97 61 146 189h86q-96 -279 -301 -333q-63 -16 -131 -16q-128 0 -197 47.5t-69 121.5z" />
<glyph unicode="&#x40f;" horiz-adv-x="1362" d="M25 1004q0 103 65 198q131 195 396 289q127 45 257 45q42 0 82 -4l-295 -1380h301l295 1380h295l-325 -1532h-299l-90 -424h-297l92 424h-297l297 1393q-136 -58 -211.5 -171t-75.5 -278q0 -81 25 -125q4 -8 4 -14q-166 0 -205 105q-14 38 -14 94z" />
<glyph unicode="&#x410;" horiz-adv-x="1319" d="M-20 682q0 107 118 182q120 74 299 74q41 0 107 -6q265 419 530 556q93 48 187 48t157 -29l-321 -1507h-295l158 743q-138 62 -275 74q-184 -407 -246 -747q-20 -109 -20 -187.5t29 -115.5q-122 0 -171 25q-104 52 -104 192q0 212 179 596q55 120 122 237 q-96 -6 -157.5 -29.5t-81.5 -76.5q8 0 17 -20.5t9 -50.5t-33.5 -51.5t-84 -21.5t-87 30t-36.5 85zM688 905q138 -26 250 -71l119 557q-176 -96 -369 -486z" />
<glyph unicode="&#x411;" horiz-adv-x="1319" d="M25 1027q0 79 38 175t121 170q184 164 539 164q31 0 77 -4l100 -8q148 -13 240 -13t169 25l-15 -74q-19 -98 -83 -146q-36 -26 -97 -26q-136 0 -346 41l-102 -475q123 37 210 37q170 0 257.5 -104t87.5 -281.5t-103 -343.5q-52 -84 -135.5 -141.5t-209.5 -57.5t-176 81 q-24 40 -24 87.5t23 102.5q58 -74 125.5 -74t106.5 34q108 96 108 324q0 252 -195 252q-50 0 -98 -20l-162 -752h-295l295 1368q-129 -4 -197.5 -98t-68.5 -326q0 -81 25 -125q4 -8 4 -14q-166 0 -205 105q-14 38 -14 117z" />
<glyph unicode="&#x412;" horiz-adv-x="1313" d="M25 993q0 108 61 204.5t164 172.5q229 166 518 166q214 0 325 -94.5t111 -231.5q0 -92 -52 -180t-153 -145q124 -25 183 -115t59 -215q0 -73 -21 -175q-48 -226 -212 -351q-85 -64 -217.5 -64t-180.5 75q-20 30 -20 78.5t26 117.5q69 -74 132 -74q108 0 163 126 q45 102 45 242q0 261 -194 261q-45 0 -94 -7l-168 -784h-295l278 1303l303 40l-96 -454h12q118 0 206.5 106t88.5 226q0 150 -145 203q-52 18 -118.5 18t-128 -13.5t-117.5 -40.5q-125 -61 -199 -173.5t-74 -270.5q0 -81 25 -125q4 -8 4 -14q-162 0 -204 100q-15 36 -15 88z " />
<glyph unicode="&#x413;" horiz-adv-x="877" d="M25 1010q0 62 15 128t50 125q76 127 234 200t411 73q71 0 162.5 -12.5t200 -12.5t188.5 25q-8 -22 -14 -48.5t-14.5 -53.5t-21.5 -53t-33 -46t-49.5 -32.5t-107.5 -12.5t-278 41l-287 -1331h-295l295 1368q-132 -4 -199 -97t-67 -327q0 -81 25 -125q4 -8 4 -14 q-166 0 -205 105q-14 38 -14 100z" />
<glyph unicode="&#x414;" horiz-adv-x="1370" d="M-51 178q0 108 78.5 181t187.5 73q44 0 76 -16l192 887l303 40l-223 -1050q-14 -63 -26 -96q48 -43 130.5 -43t154.5 82q138 156 201 503q28 158 28 289q0 226 -83 326q-76 88 -204 88q-248 0 -398.5 -135t-150.5 -363q0 -81 25 -125q4 -8 4 -14q-103 0 -161 43t-58 147 v5q0 136 105 260q162 193 456 256q97 20 223 20t230 -48q294 -136 294 -542q0 -178 -47 -352q-97 -365 -304 -535q-104 -86 -216 -86q-155 0 -277 129q-100 -157 -299 -157q-96 0 -168.5 62.5t-72.5 170.5zM61 195q0 -31 24 -49.5t57 -18.5t68.5 34t53.5 126l10 51 q-35 20 -62 20q-57 0 -104 -48.5t-47 -114.5z" />
<glyph unicode="&#x415;" horiz-adv-x="940" d="M14 332q0 162 105 321t274 201q-125 91 -125 251t130 297.5t319 137.5q127 0 210 -66.5t83 -174t-45 -168t-104 -60.5t-99 55q36 14 63 68t27 113.5t-36 85.5q-37 26 -80 26q-86 0 -146 -88.5t-60 -200.5q0 -154 112 -232q40 -28 95 -42q-156 -34 -261 -187t-105 -302 q0 -86 45 -146.5t148 -60.5t213.5 55t166.5 154l47 -21q-81 -178 -246.5 -281.5t-353 -103.5t-282.5 103.5t-95 265.5z" />
<glyph unicode="&#x416;" horiz-adv-x="1591" d="M-94 0q138 73 179 354q21 146 43 211q45 132 120 199q88 88 276 88h6q4 65 4 140t-9 152q-14 125 -91 193q-43 -82 -127 -82t-111 75q-8 23 -8 58q0 70 57.5 109t135 39t127.5 -36.5t81 -95.5q69 -131 69 -362q0 -98 -15 -198q21 0 41 -4l135 628l307 64l-147 -692 q24 4 47 4q47 219 146 403t216 247q80 42 132 42q86 0 130 -35.5t44 -88.5q0 -87 -39.5 -122t-93.5 -35q-88 0 -121 82q-138 -80 -234 -329l-59 -156h29q202 0 242 -132q12 -40 12 -96q0 -75 -50 -256l-35 -125q-16 -60 -16 -108t21.5 -84.5t58.5 -50.5q-128 -35 -203 -35 q-159 0 -159 137q0 67 37 193.5t53.5 193t17.5 119.5q0 140 -123 140q-39 0 -74 -7l-157 -741h-295l158 745q-13 3 -25 3h-37q-77 0 -129 -53t-70 -119q-26 -95 -46 -228l-15 -102q-25 -162 -74.5 -221.5t-154.5 -59.5t-207 35z" />
<glyph unicode="&#x417;" horiz-adv-x="1075" d="M-20 244q0 84 48 134t106.5 50t84 -14.5t41.5 -38.5q-76 -45 -76 -148q0 -139 178 -139q56 0 110 37t91 97q74 122 74 292q0 199 -135 242q-44 14 -101 14h-86l33 152h74q129 2 207 104t78 195q0 178 -160 178q-192 0 -314 -236l-47 21q45 171 169.5 260.5t302 89.5 t267 -88.5t89.5 -235.5q0 -186 -178 -297q-57 -35 -129 -59q264 -78 264 -321.5t-167 -406.5t-442 -163q-172 0 -277 69.5t-105 211.5z" />
<glyph unicode="&#x418;" horiz-adv-x="1444" d="M25 1004q0 103 65 198q131 195 396 289q127 45 257 45q42 0 82 -4l-231 -1090l614 1090h295l-325 -1532h-295l223 1053l-606 -1053h-295l297 1393q-136 -58 -211.5 -171t-75.5 -278q0 -81 25 -125q4 -8 4 -14q-166 0 -205 105q-14 38 -14 94z" />
<glyph unicode="&#x419;" horiz-adv-x="1444" d="M25 1004q0 103 65 198q131 195 396 289q127 45 257 45q42 0 82 -4l-231 -1090l614 1090h295l-325 -1532h-295l223 1053l-606 -1053h-295l297 1393q-136 -58 -211.5 -171t-75.5 -278q0 -81 25 -125q4 -8 4 -14q-166 0 -205 105q-14 38 -14 94zM748 1807q0 74 36.5 115.5 t100.5 41.5q127 0 127 -117q0 -59 -49 -92q32 -8 76 -8q97 0 175 51q97 61 146 189h86q-96 -279 -301 -333q-63 -16 -131 -16q-128 0 -197 47.5t-69 121.5z" />
<glyph unicode="&#x41a;" horiz-adv-x="1300" d="M25 1004q0 103 65 198q131 195 396 289q127 45 257 45q42 0 82 -4l-131 -612q64 184 181 351t205.5 216t157.5 49t101 -26q56 -45 56 -98q0 -87 -39.5 -122t-93.5 -35q-88 0 -121 82q-194 -115 -353 -467q25 2 46 2h40q205 0 242 -132q12 -40 12 -95q0 -83 -50 -265 t-50 -237q0 -113 80 -143q-128 -35 -190 -35q-173 0 -173 132q1 81 54.5 269.5t54.5 274.5q0 139 -123 139q-27 0 -67 -8l-164 -772h-295l297 1393q-136 -58 -211.5 -171t-75.5 -278q0 -81 25 -125q4 -8 4 -14q-166 0 -205 105q-14 38 -14 94z" />
<glyph unicode="&#x41b;" horiz-adv-x="1124" d="M-61 -16q0 214 161 562.5t356 595.5q311 394 566 394q104 0 162 -29l-322 -1507h-295l295 1391q-177 -96 -386 -523q-144 -292 -218 -568.5t-74 -419.5q0 -72 29 -113q-121 0 -170 25q-104 52 -104 192z" />
<glyph unicode="&#x41c;" horiz-adv-x="1667" d="M137 0l520 1407q-153 -51 -239 -168t-86 -293q0 -88 24 -128q4 -7 4 -13q-219 0 -219 186q0 194 209 371q91 78 208.5 126t214.5 48t175 -29l-47 -1079l451 1079h295l-215 -1507h-295l131 920l-385 -920h-281l41 924l-342 -924h-164z" />
<glyph unicode="&#x41d;" horiz-adv-x="1362" d="M25 1004q0 103 65 198q131 195 396 289q127 45 257 45q42 0 82 -4l-131 -610h301l131 610h295l-325 -1532h-295l164 770h-301l-164 -770h-295l297 1393q-136 -58 -211.5 -171t-75.5 -278q0 -81 25 -125q4 -8 4 -14q-166 0 -205 105q-14 38 -14 94z" />
<glyph unicode="&#x41e;" horiz-adv-x="1362" d="M33 983q0 100 68 201q145 212 447 306q150 46 310 46q485 0 485 -524q0 -353 -177 -660q-126 -221 -336 -316q-108 -48 -215.5 -48t-174.5 22q-219 74 -219 389q0 211 79 449q126 384 346 484q61 28 126.5 28t110.5 -17q-89 -53 -176 -227q-126 -249 -169 -552 q-14 -94 -14 -173q0 -237 119 -237h2q99 0 198 144t163.5 363.5t64.5 416t-54 280.5t-208 84q-246 0 -418 -145.5t-172 -381.5q0 -60 10.5 -79.5t10.5 -30.5q-100 0 -153.5 39t-53.5 139z" />
<glyph unicode="&#x41f;" horiz-adv-x="1409" d="M25 1025q0 79 38 175t121 170q184 164 539 164q119 0 253 -17t216 -24.5t199 -7.5t223 43q-6 -255 -246 -260l-272 -1268h-295l278 1292l-293 47l-286 -1339h-295l289 1348q-279 -49 -279 -406q0 -81 25 -125q4 -8 4 -14q-166 0 -205 105q-14 38 -14 117z" />
<glyph unicode="&#x420;" horiz-adv-x="1174" d="M12 1004q0 103 64.5 198.5t166.5 169.5q233 164 479 164t369 -116t123 -287q0 -98 -40.5 -196t-117.5 -177q-172 -176 -433 -176h-11l-125 -584h-294l278 1303l303 40l-145 -684q150 14 254 172t104 342t-139 247q-48 22 -115 22q-250 0 -390 -131t-140 -367 q0 -83 23 -125q5 -8 5 -14q-164 0 -205 105q-14 38 -14 94z" />
<glyph unicode="&#x421;" horiz-adv-x="1018" d="M39 457q0 257 85 513q99 302 292 452q148 114 338 114q238 0 315 -149q27 -52 27 -125q0 -189 -144 -189q-72 0 -116 53q37 20 65.5 75t28.5 109.5t-28.5 92t-91 37.5t-116 -42t-100.5 -114q-95 -144 -155 -368t-60 -406.5t53.5 -264t183.5 -81.5q256 0 408 205l47 -21 q-98 -248 -373 -344q-108 -38 -212 -38h-6q-227 2 -334 118t-107 373z" />
<glyph unicode="&#x422;" horiz-adv-x="985" d="M12 1025q0 79 38 175t122 170q185 164 539 164q145 0 230.5 -15t148.5 -23q64 -9 170.5 -9t212.5 43q-10 -260 -256 -260q-93 0 -318 45l-283 -1315h-294l290 1356h-24q-181 0 -274 -84q-111 -100 -111 -330q0 -83 23 -125q5 -8 5 -14q-164 0 -205 105q-14 38 -14 117z " />
<glyph unicode="&#x423;" horiz-adv-x="1319" d="M25 1004q0 103 65 198q131 195 396 289q127 45 257 45q42 0 82 -4l179 -768l323 762h135l-512 -1211q-60 -138 -111 -198q-108 -127 -239 -127q-130 0 -167 90q-11 27 -11 77.5t37 89t97 38.5q117 0 134 -121q71 28 123 151l-293 1084q-144 -54 -224.5 -169t-80.5 -286 q0 -81 25 -125q4 -8 4 -14q-166 0 -205 105q-14 38 -14 94z" />
<glyph unicode="&#x424;" horiz-adv-x="1610" d="M39 636.5q0 168.5 57 277.5q160 301 660 352l65 307q-297 -21 -362 -119q-23 -34 -23 -79t17 -91q-21 -2 -39 -2q-110 0 -152 68q-15 26 -15 51v28q1 51 48.5 95.5t124.5 73.5q153 59 353.5 59t352.5 -31l-77 -358q244 -25 371.5 -145.5t127.5 -295.5 q0 -255 -186.5 -435.5t-487.5 -180.5h-49l-45 -211h-295l45 211q-248 4 -369.5 130.5t-121.5 295zM322 627q0 -126 62.5 -219t166.5 -101l182 858q-205 -35 -308 -164t-103 -374zM846 307h12q96 0 174 48t132 125q114 160 114 362q0 275 -250 323z" />
<glyph unicode="&#x425;" horiz-adv-x="1270" d="M12 1004q0 103 64.5 198.5t166.5 169.5q233 164 488 164q42 0 82 -4l88 -426l238 420h143l-344 -596l192 -930h-325l-109 512l-297 -512h-125l385 680l-151 719q-144 -54 -224.5 -169t-80.5 -286q0 -83 23 -125q5 -8 5 -14q-164 0 -205 105q-14 38 -14 94z" />
<glyph unicode="&#x426;" horiz-adv-x="1417" d="M25 1004q0 103 65 198q131 195 396 289q127 45 257 45q42 0 82 -4l-293 -1382h19q110 0 266 -64l309 1446h295l-336 -1567q120 -49 214.5 -49t158.5 35q-13 -147 -71 -221t-181.5 -74t-249.5 89q-53 38 -107 83q-206 172 -460 172q-126 0 -186 -12v2q0 2 2 4l297 1397 q-135 -56 -211 -168.5t-76 -278.5q0 -81 25 -125q4 -8 4 -14q-166 0 -205 105q-14 38 -14 94z" />
<glyph unicode="&#x427;" horiz-adv-x="1423" d="M25 1004q0 103 65 198q131 195 396 289q127 45 257 45q42 0 82 -4l-92 -424q-28 -140 -28 -190q0 -86 43 -121t104 -35q107 0 186 65l150 705h295l-326 -1532h-295l146 682q-135 -80 -303 -80q-201 0 -267 160q-22 56 -22 150.5t22 195.5l64 285q-136 -58 -211.5 -171 t-75.5 -278q0 -81 25 -125q4 -8 4 -14q-166 0 -205 105q-14 38 -14 94z" />
<glyph unicode="&#x428;" horiz-adv-x="1855" d="M25 1004q0 103 65 198q131 195 396 289q127 45 257 45q42 0 82 -4l-295 -1380h240l295 1380h295l-295 -1380h260l295 1380h295l-326 -1532h-1384l297 1393q-136 -58 -211.5 -171t-75.5 -278q0 -81 25 -125q4 -8 4 -14q-166 0 -205 105q-14 38 -14 94z" />
<glyph unicode="&#x429;" horiz-adv-x="1913" d="M25 993q0 110 65 207q134 203 396 292q129 44 255 44q44 0 84 -4l-295 -1382l70 2q59 0 166 -21l299 1401h295l-311 -1462l123 -30q63 -15 124 -32l324 1524h295l-338 -1587q141 -29 230 -29t147 35q-15 -147 -72 -221t-178 -74q-122 0 -377 89l-228 83 q-455 172 -710 172q-138 0 -186 -12v4q0 6 2 8l297 1393q-136 -57 -211.5 -169.5t-75.5 -277.5q0 -88 23 -128q5 -7 6 -13q-162 0 -204 100q-15 36 -15 88z" />
<glyph unicode="&#x42a;" horiz-adv-x="1462" d="M25 1001q0 206 187 369.5t531 163.5q138 0 234 -16l-143 -662q106 37 202 37q180 0 267.5 -104t87.5 -281.5t-103 -343.5q-52 -84 -135.5 -141.5t-209.5 -57.5t-176 81q-24 40 -24 87.5t23 102.5q58 -74 125.5 -74t106.5 34q108 96 108 324q0 252 -195 252 q-54 0 -100 -22l-162 -750h-295l291 1354l-53 2q-86 0 -167.5 -14t-124.5 -62q-80 -89 -82 -222v-7q0 -137 77 -252q-35 -7 -85.5 -7t-103.5 35q-81 54 -81 174z" />
<glyph unicode="&#x42b;" horiz-adv-x="1862" d="M25 1004q0 103 65 198q131 195 396 289q127 45 257 45q42 0 82 -4l-143 -676q123 37 212 37q169 0 257 -103t88 -276q0 -78 -24.5 -172t-78 -178.5t-136.5 -141.5t-176 -57q-158 0 -208 81q-24 40 -24 87.5t22 102.5q58 -74 126 -74t106.5 34t73 109.5t34.5 214.5 q0 252 -194 252q-55 0 -101 -22l-159 -750h-295l297 1393q-136 -58 -211.5 -171t-75.5 -278q0 -81 25 -125q4 -8 4 -14q-166 0 -205 105q-14 38 -14 94zM1300 0l326 1532h295l-326 -1532h-295z" />
<glyph unicode="&#x42c;" horiz-adv-x="1311" d="M25 1004q0 103 65 198q131 195 396 289q127 45 257 45q42 0 82 -4l-143 -676q123 37 212 37q169 0 257 -103t88 -276q0 -78 -24.5 -172t-78 -178.5t-136.5 -141.5t-176 -57q-158 0 -208 81q-24 40 -24 87.5t22 102.5q58 -74 126 -74t106.5 34t73 109.5t34.5 214.5 q0 252 -194 252q-55 0 -101 -22l-159 -750h-295l297 1393q-136 -58 -211.5 -171t-75.5 -278q0 -81 25 -125q4 -8 4 -14q-166 0 -205 105q-14 38 -14 94z" />
<glyph unicode="&#x42d;" horiz-adv-x="1114" d="M-23 242q0 188 144 188q73 0 117 -53q-30 -21 -52 -74.5t-22 -109t31 -93t91.5 -37.5t107.5 28t90 77q85 97 151.5 259t97.5 343h-434l33 152h420q4 48 4 111q0 153 -54 240t-202 87t-258 -132q-35 -42 -70 -93l-47 20q77 193 233 293q135 88 269 88t218 -27t140 -87 q111 -119 111 -378q0 -372 -166 -684q-95 -178 -246.5 -285.5t-353.5 -107.5q-248 0 -326 149q-27 52 -27 126z" />
<glyph unicode="&#x42e;" horiz-adv-x="1937" d="M25 1004q0 103 65 198q131 195 396 289q127 45 257 45q42 0 82 -4l-131 -610h207q114 291 299 384q66 33 135 33t115 -16q-89 -53 -174 -221q-118 -234 -162 -540q-14 -92 -14 -171q0 -237 119 -237q77 0 154 84q158 174 236 508q38 163 38 280.5t-15 183.5 q-45 211 -268 211q-103 0 -176.5 -35.5t-110.5 -95.5q-8 23 -8 44q0 69 92 135.5t252 66.5q262 0 384 -131t122 -393q0 -351 -177 -660q-127 -221 -337 -316q-108 -48 -215.5 -48t-174.5 22.5t-115.5 71.5t-75.5 127t-27 221.5t53 339.5h-186l-164 -770h-295l297 1393 q-136 -58 -211.5 -171t-75.5 -278q0 -81 25 -125q4 -8 4 -14q-166 0 -205 105q-14 38 -14 94z" />
<glyph unicode="&#x42f;" horiz-adv-x="1290" d="M-94 0q74 39 107 89t53 138l47 226q30 148 94 216t180 89q-160 88 -160 292.5t181.5 345t498.5 140.5q218 0 364 -91t146 -241.5t-124 -183.5q-40 -10 -91 -10l15 44q12 31 12 102q0 144 -80 211t-220 67q-244 0 -365.5 -109.5t-121.5 -259t70 -221.5t158 -72h2l114 531 l304 40l-287 -1343h-295l145 684q-83 -5 -124 -24.5t-73 -50t-52.5 -84t-35.5 -117t-27 -129t-22 -111.5q-21 -99 -62 -151t-145 -52t-206 35z" />
<glyph unicode="&#x430;" horiz-adv-x="1077" d="M-27 306.5q0 80.5 14 161t43 160.5q64 176 183 291t287 115q88 0 127 -29.5t39 -74.5v-15l22 109h295l-147 -696q-9 -35 -9 -66q0 -88 84 -88q109 0 166 193h86q-130 -379 -411 -379q-181 0 -201 188q-134 -188 -312.5 -188t-242.5 175q-23 63 -23 143.5zM276 335 q0 -91 38 -127q22 -22 55 -22q61 0 111 48.5t69 132.5l98 462q0 19 -17.5 48.5t-74.5 29.5t-111 -61q-130 -147 -163 -422q-5 -42 -5 -89z" />
<glyph unicode="&#x431;" horiz-adv-x="881" d="M-27 338q0 246 144 431q160 200 415 200q11 0 19 -1t16 -1q-41 49 -85 91t-81 82q-84 92 -84 172.5t53.5 117t168.5 36.5h402q71 0 93 38q13 20 23 61h90q-49 -233 -117 -305q-39 -40 -94 -54t-135 -14h-197q-26 0 -26 -25q0 -12 34 -51q183 -214 183 -457t-130 -442 q-63 -97 -155 -161t-189 -64q-178 0 -263 85t-85 261zM272 318.5q0 -80.5 25 -111.5t76.5 -31t88 32.5t64.5 83.5q50 93 74.5 222t24.5 203t-20 100.5t-63.5 26.5t-83 -31t-70.5 -79q-55 -88 -85.5 -211.5t-30.5 -204z" />
<glyph unicode="&#x432;" horiz-adv-x="920" d="M-29 357.5q0 165.5 83 439.5q90 298 225 502q158 239 333 239q96 0 157.5 -64.5t61.5 -223.5t-111 -378l-56 -106q44 -22 77 -61q135 0 297 83q45 23 78 46l19 -56q-120 -126 -347 -166q11 -35 11 -118.5t-33 -177t-96 -165.5q-138 -159 -359 -159q-169 0 -254.5 100 t-85.5 265.5zM276 354q0 -178 125 -178q95 0 153 89t58 181.5t-18 128.5q-32 -12 -77 -12t-74 26.5t-29 66.5q0 68 37.5 96.5t105.5 33.5q94 170 131 358q12 64 12 124.5t-16 85t-50 24.5q-63 0 -132 -130q-114 -216 -195 -642q-31 -163 -31 -252z" />
<glyph unicode="&#x433;" horiz-adv-x="768" d="M-43 219q0 130 113 225q48 41 104 74t104 68q113 80 113 175t-94 95q-132 0 -221 -213h-99q68 192 172.5 295.5t284.5 103.5t244 -125q22 -44 22 -106.5t-18 -111.5t-48 -87q-49 -62 -150 -126l-79 -50q-87 -53 -112 -92.5t-25 -75.5q0 -108 141.5 -108t264.5 109 q45 40 94 98h70q-243 -379 -547 -379q-334 0 -334 231z" />
<glyph unicode="&#x434;" horiz-adv-x="1038" d="M-27 306.5q0 80.5 14 161t43 160.5q64 176 183 291t287 115q88 0 127 -29.5t39 -74.5v-12l22 106h295l-203 -950q93 31 153.5 94.5t104.5 198.5h86q-78 -264 -264 -348q-51 -23 -98 -35l-31 -148q-39 -197 -156 -284q-86 -64 -197 -64t-178 49t-67 157q0 187 334 298 l25 108q-107 -112 -246 -112q-186 0 -250 175q-23 63 -23 143.5zM246 -285q0 -41 39 -61q13 -6 38 -6t58 44.5t53 137.5l12 59q-200 -72 -200 -174zM276 335q0 -91 38 -127q22 -22 54 -22q57 0 106 43.5t69 116.5l104 485q0 46 -43 67q-16 9 -41 9q-65 0 -119 -61 q-130 -147 -163 -422q-5 -42 -5 -89z" />
<glyph unicode="&#x435;" horiz-adv-x="786" d="M-27 313q0 234 119 453q91 167 248 238q81 38 168 38q142 0 193 -53.5t51 -142.5q0 -175 -141 -297.5t-330 -134.5q-5 -58 -5 -82q0 -105 37 -138.5t104 -33.5q118 0 198.5 52.5t170.5 154.5h70q-230 -379 -563 -379q-146 0 -233 75.5t-87 249.5zM297 512 q118 8 207.5 110t89.5 238q0 74 -51 74q-75 -2 -145 -132.5t-101 -289.5z" />
<glyph unicode="&#x436;" horiz-adv-x="1806" d="M-76 205q0 126 75 161q22 11 56.5 11t63.5 -29q-27 -74 -27 -138t24.5 -89t58 -25t63.5 42q93 130 132 345q19 101 19 193q0 215 -125 215q-59 0 -94 -40t-64 -114h-106q87 305 340 305q141 0 220 -88t79 -237q0 -51 -6 -103h123l86 410h274l-86 -410h115q86 294 269 392 q67 36 140 36q125 0 173.5 -54t48.5 -132t-31 -114.5t-71.5 -36.5t-74.5 24q21 67 21 121q0 84 -47 84q-78 0 -152 -199q-69 -198 -69 -381q0 -112 42 -163.5t112 -51.5t158 55t159 173h69q-71 -157 -206 -268t-280 -111t-224.5 88.5t-79.5 236.5q0 102 16 179h-117 l-102 -492h-274l104 492h-115q-67 -338 -274 -460q-75 -44 -158 -44q-142 0 -200 62t-58 155z" />
<glyph unicode="&#x437;" horiz-adv-x="1020" d="M0 367q58 229 96 321q76 183 179 268.5t262 85.5t247 -85t88 -253t-128 -308q-65 -72 -117 -100t-72 -32q49 -17 98 -70t70 -135q116 36 182.5 100.5t114.5 207.5h86q-79 -268 -274 -354q-53 -23 -101 -36q-4 -229 -109 -359t-278 -130q-95 0 -162 49t-67 150 q0 194 321 301q-6 217 -147 217h-64l27 123h59q110 0 181 102t71 250q0 176 -125 176q-110 0 -196 -113t-156 -376h-86zM227 -285q0 -28 17.5 -47.5t45.5 -19.5q51 0 89 70.5t51 170.5q-203 -71 -203 -174z" />
<glyph unicode="&#x438;" d="M-16 233q0 58 16 134l139 657h295l-147 -696q-6 -32 -6 -58q0 -84 61 -84q108 0 164 181l139 657h295l-147 -696q-9 -35 -9 -72q0 -70 84 -70q115 0 166 181h86q-130 -379 -411 -379q-183 0 -203 194q-120 -194 -303 -194q-92 0 -156 58q-63 58 -63 187z" />
<glyph unicode="&#x439;" d="M-16 233q0 58 16 134l139 657h295l-147 -696q-6 -32 -6 -58q0 -84 61 -84q108 0 164 181l139 657h295l-147 -696q-9 -35 -9 -72q0 -70 84 -70q115 0 166 181h86q-130 -379 -411 -379q-183 0 -203 194q-120 -194 -303 -194q-92 0 -156 58q-63 58 -63 187zM266 1292.5 q0 73.5 37 115.5t99 42q128 0 128 -117q0 -60 -49 -92q32 -8 82 -8q223 0 316 240h86q-96 -281 -297 -333q-64 -16 -163 -16t-169 47.5t-70 121z" />
<glyph unicode="&#x43a;" horiz-adv-x="1026" d="M-78 0l219 1024h295l-88 -406l128 132l98 107q97 104 154 145q57 40 130.5 40t108 -38.5t34.5 -98t-33 -95.5t-96 -36t-88 34q-24 34 -24 51v20q-58 -35 -104 -85l-76 -84q-29 -32 -62 -65q46 8 86 8q111 0 153 -49.5t42 -140.5q0 -24 -4 -48l-9 -49q-12 -71 -12 -104 q0 -76 82 -76q62 0 95.5 43t74.5 138h86q-129 -379 -373 -379q-125 0 -186 61.5t-61 165.5q0 51 12 105.5t12 89.5q0 98 -78 98q-36 0 -72 -28l-59 -48l-90 -432h-295z" />
<glyph unicode="&#x43b;" horiz-adv-x="1143" d="M-78 228.5q0 104.5 74 142.5q23 12 62 12t68.5 -29.5t29.5 -79t-25 -73t-57 -19.5q1 -21 16.5 -43t64 -22t79.5 33q55 57 88 215l30 151q88 428 266 488q58 20 127 20h302l-145 -666q-13 -59 -13 -86q0 -86 82 -86q62 0 99 47.5t73 133.5h86q-129 -379 -381 -379 q-117 0 -179.5 62.5t-62.5 146t45 286.5l90 406q-103 0 -156.5 -86t-90.5 -258t-61 -266.5t-59 -158.5q-71 -132 -227 -132q-112 0 -168.5 68t-56.5 172.5z" />
<glyph unicode="&#x43c;" horiz-adv-x="1583" d="M-78 213q0 82 33.5 123t87.5 41t83.5 -29.5t29.5 -79t-25 -73t-57 -19.5q-2 -23 14 -50.5t68.5 -27.5t86 36t55 94.5t36 133.5t31.5 154l108 508h287l43 -786l381 786h303q-119 -554 -138.5 -639.5t-19.5 -112.5q0 -86 82 -86q62 0 99 48q37 47 73 133h86 q-129 -379 -381 -379q-118 0 -180 62q-61 63 -61 151t43 276l32 146l-303 -623h-287l-36 625l-27 -129q-25 -123 -48 -217.5t-57 -158.5q-71 -132 -217 -132q-108 0 -167 72q-58 71 -58 153z" />
<glyph unicode="&#x43d;" horiz-adv-x="1038" d="M-78 0l217 1024h295l-88 -410h229l93 410h274l-108 -508l-36 -158q-14 -59 -14 -86q0 -86 82 -86q62 0 99 48q37 47 73 133h86q-129 -379 -381 -379q-118 0 -179 62q-62 63 -62 155q0 70 47 287h-227l-105 -492h-295z" />
<glyph unicode="&#x43e;" horiz-adv-x="899" d="M-29 301q0 74 12.5 150.5t39.5 157.5q61 183 177 297q138 136 332 136q263 0 263 -327v-2q10 -2 34 -2q55 0 141.5 35t162.5 88l18 -56q-124 -130 -363 -170q-24 -280 -161 -448t-328 -168q-236 0 -304 174q-24 61 -24 135zM276 342q0 -99 18 -125.5t38 -33.5t54 -7 q70 0 139 123t93 303q-55 14 -55 91t64 106q-4 65 -20.5 92t-64.5 27q-94 0 -180 -207.5t-86 -368.5z" />
<glyph unicode="&#x43f;" d="M-78 0l217 1024h295l-22 -106q100 114 239 114q98 0 163 -54t65 -160t-34 -240l-49 -198q-16 -65 -16 -106q0 -88 75 -88q69 0 106 44t73 137h86q-119 -345 -322 -375q-32 -4 -79 -4t-93 20q-128 54 -128 211q0 84 46 268t46 254q0 105 -74 105t-132 -117 q-17 -33 -28 -72l-139 -657h-295z" />
<glyph unicode="&#x440;" horiz-adv-x="989" d="M-186 -512l342 1612h295l-33 -154q102 88 239 88q177 0 231 -170q19 -62 19 -142.5t-9.5 -161t-32.5 -161t-60.5 -154.5t-93.5 -131.5t-132.5 -91.5t-191 -34t-158.5 73l-106 -499zM262 213q18 -47 87.5 -47t124.5 58q107 114 138 326q15 94 15 167q0 170 -103 170 q-35 0 -73.5 -25t-67.5 -76z" />
<glyph unicode="&#x441;" horiz-adv-x="786" d="M-27 313q0 235 119 454q90 165 247 237q81 38 167 38q246 0 246 -186q0 -78 -32 -114.5t-72 -36.5t-77 24q25 66 25 121q0 84 -58.5 84t-123.5 -106q-93 -150 -128 -373q-10 -67 -10 -147q0 -148 141 -148q118 0 198.5 52.5t170.5 154.5h70q-230 -379 -563 -379 q-146 0 -233 75.5t-87 249.5z" />
<glyph unicode="&#x442;" horiz-adv-x="1540" d="M-78 0l217 1024h295l-22 -106q102 116 250 116q181 0 210 -176q113 174 285 174q97 0 162 -54t65 -158t-34 -240l-48 -200q-16 -65 -16 -106q0 -88 75 -88q69 0 106 44t73 137h86q-76 -226 -192 -317q-80 -62 -168 -62q-262 0 -262 231q0 84 46 268t46 254q0 105 -74 105 t-132 -117q-17 -33 -28 -72l-139 -657h-295l150 707q6 24 6 51q0 90 -60.5 90t-103 -56.5t-64.5 -134.5l-139 -657h-295z" />
<glyph unicode="&#x443;" horiz-adv-x="995" d="M-16 233q0 58 16 134l139 657h295l-147 -696q-6 -26 -6 -52q0 -90 58.5 -90t99.5 48q40 49 63 120l143 670h295l-203 -950q93 31 153.5 94.5t104.5 198.5h86q-78 -264 -264 -348q-51 -23 -98 -35l-31 -148q-39 -197 -156 -284q-86 -64 -197 -64t-178 49t-67 157 q0 187 334 298l25 110q-106 -114 -246 -114q-92 0 -156 58q-63 58 -63 187zM203 -285q0 -41 39 -61q13 -6 38 -6t58 44.5t53 137.5l12 59q-200 -72 -200 -174z" />
<glyph unicode="&#x444;" horiz-adv-x="1511" d="M-29 317q0 230 129 461q61 111 164.5 183.5t233.5 72.5q168 0 168 -112l102 471l283 41l-111 -488q100 88 240 88q250 0 250 -314t-120 -510q-135 -222 -392 -222q-123 0 -166 73l-107 -499l-289 -74l136 612q-105 -112 -236.5 -112t-208 79t-76.5 250zM273 342 q0 -105 40 -137q21 -21 49 -21t61 15q79 36 114 133l108 506q-12 69 -88.5 69t-146.5 -102q-69 -103 -98 -215q-39 -149 -39 -248zM784 213q17 -47 70.5 -47t93 23t71.5 63q59 74 94.5 203.5t35.5 261.5q0 170 -102 170q-83 0 -142 -101z" />
<glyph unicode="&#x445;" horiz-adv-x="1069" d="M0 367q49 214 91 306t71 141q64 103 143 161.5t160 58.5t121.5 -23.5t73 -71t45.5 -148.5l18 -156q171 191 178 295q-17 -4 -35 -4q-96 0 -96 114q0 54 42 77.5t84 23.5q66 0 97 -56t31 -117.5t-18 -107.5q-33 -88 -142 -212l-125 -140l19 -143q12 -98 35 -129.5 t44 -40.5t48 -9q59 0 110 51t74 130h86q-76 -214 -205 -309q-95 -70 -205 -70h-8q-193 0 -250 356l-282 -344h-148l414 467l-33 229q-17 104 -33.5 137t-45.5 33q-65 0 -143.5 -130.5t-129.5 -368.5h-86z" />
<glyph unicode="&#x446;" horiz-adv-x="1096" d="M-16 233q0 58 16 134l139 657h295l-147 -696q-6 -32 -6 -58q0 -84 61 -84q108 0 164 181l139 657h295l-147 -696q-9 -35 -9 -72q0 -70 84 -70h105q-36 -360 -166 -486q-58 -57 -117 -71t-108 -14h-233q-71 0 -94 -37q-13 -20 -22 -61h-90q49 231 119 303q38 41 92.5 55 t134.5 14h160q43 0 78 2.5t62 19.5q56 35 81 161q-72 -74 -136 -82q-21 -2 -46 -2q-72 0 -122 48.5t-60 145.5q-120 -194 -303 -194q-92 0 -156 58q-63 58 -63 187z" />
<glyph unicode="&#x447;" d="M51 549q0 53 17 133l71 342h295l-80 -381q-6 -32 -6 -57q0 -84 60.5 -84t104.5 51q43 51 60 129l72 342h295l-147 -696q-9 -35 -9 -72q0 -70 84 -70q115 0 166 181h86q-76 -221 -208 -315q-90 -64 -193 -64t-167 58q-63 58 -63 187q0 54 17 134l10 51 q-104 -115 -246 -115q-92 0 -156 58q-63 58 -63 188z" />
<glyph unicode="&#x448;" horiz-adv-x="1540" d="M-16 233q0 58 16 134l139 657h295l-147 -696q-6 -32 -6 -58q0 -84 61 -84q108 0 164 181l139 657h295l-147 -696q-7 -29 -7 -58q0 -84 62 -84q108 0 164 181l139 657h295l-148 -696q-8 -37 -8 -73q0 -69 84 -69q115 0 166 181h86q-132 -379 -412 -379q-182 0 -202 194 q-120 -194 -303 -194t-203 194q-120 -194 -303 -194q-92 0 -156 58q-63 58 -63 187z" />
<glyph unicode="&#x449;" horiz-adv-x="1602" d="M-16 233q0 58 16 134l139 657h295l-147 -696q-6 -32 -6 -58q0 -84 61 -84q108 0 164 181l139 657h295l-147 -696q-7 -29 -7 -58q0 -84 62 -84q108 0 164 181l139 657h295l-148 -696q-8 -37 -8 -73q0 -69 84 -69h105q-36 -362 -167 -486q-58 -57 -116.5 -71t-108.5 -14 h-232q-71 0 -94 -37q-13 -20 -22 -61h-90q49 230 119 303q38 41 92.5 55t134.5 14h160q43 0 78 2.5t62 19.5q56 35 81 161q-72 -74 -136 -82q-21 -2 -46 -2q-72 0 -122 48.5t-60 145.5q-120 -194 -303 -194t-203 194q-120 -194 -303 -194q-92 0 -156 58q-63 58 -63 187z" />
<glyph unicode="&#x44a;" horiz-adv-x="918" d="M-35 816q0 81 65 144.5t173 63.5h368l-61 -98q-80 -127 -127 -256q101 63 206.5 63t176 -64t70.5 -184q0 -227 -158.5 -362t-378 -135t-287.5 146q-24 50 -24 112.5t16 120.5t43.5 116t64.5 115q65 101 162 216l86 99h-100q-113 0 -113 -29q0 -8 3.5 -9t11.5 -6.5t8 -48 t-34.5 -68t-63.5 -25.5q-51 0 -79 24t-28 65zM279 266q0 -104 81 -104q86 0 146.5 102.5t60.5 210t-100 107.5q-66 0 -121 -35q-55 -149 -61 -202t-6 -79z" />
<glyph unicode="&#x44b;" horiz-adv-x="1341" d="M-12 250q0 55 14 117l135 657h283l-152 -721q-6 -18 -6 -57q0 -84 89 -84t155 100q67 101 67 240q0 51 -30 78q-24 -19 -56.5 -19t-63.5 20q-30 21 -30 68.5t37 70.5t80.5 23t81.5 -12q76 34 140 69l250 147q63 38 136 77h127l-108 -508l-37 -158q-13 -59 -13 -86 q0 -86 82 -86q62 0 99 48q37 47 73 133h86q-129 -379 -378 -379q-118 0 -180 63t-62 147q0 83 48 299l65 291l-230 -133q49 -76 49 -219q0 -142 -109 -282q-128 -166 -349 -166q-141 0 -217 69t-76 193z" />
<glyph unicode="&#x44c;" horiz-adv-x="918" d="M-12 250q0 55 14 117l139 657h295l-69 -332q98 41 181 41q146 0 217 -72t71 -191.5t-71.5 -239.5t-220.5 -192q-103 -50 -247 -50t-226.5 70t-82.5 192zM279 246q0 -84 88 -84q76 0 138 94.5t62 173.5q0 152 -110 152q-65 0 -121 -37l-51 -242q-6 -18 -6 -57z" />
<glyph unicode="&#x44d;" horiz-adv-x="877" d="M-76 217.5q0 113.5 74 148.5q21 11 55 11t66 -29q-27 -74 -27 -139q0 -113 113 -113q84 0 157 117t107 279h-254l27 122h245q5 52 5 78q0 105 -40.5 141.5t-115.5 36.5t-118.5 -33.5t-80.5 -99.5h-104q62 151 158.5 228t257.5 77t253.5 -80.5t92.5 -254.5 q0 -222 -136 -445q-167 -274 -473 -274q-125 0 -193.5 58t-68.5 171.5z" />
<glyph unicode="&#x44e;" horiz-adv-x="1382" d="M-78 0l217 1024h295l-86 -410h160q98 290 322 391q82 37 186 37q262 0 262 -327v-2q10 -2 34 -2q55 0 141.5 35t162.5 88l18 -56q-123 -130 -362 -170q-24 -280 -161 -448t-329 -168q-235 0 -303 174q-24 61 -24 144t18 182h-154l-102 -492h-295zM760 342 q0 -98 17.5 -125t37.5 -34t53 -7t70.5 33t69.5 90q70 122 94 303q-55 13 -55 91t63 106q-4 65 -20.5 92t-63.5 27q-94 0 -180 -204t-86 -372z" />
<glyph unicode="&#x44f;" horiz-adv-x="1079" d="M-78 227q0 106 74 144q23 12 62 12t68.5 -29.5t29.5 -79t-25 -73t-57 -19.5q6 -65 79 -65t107.5 87t67.5 228q-195 45 -195 238q0 248 283 326q103 28 256 28h311q-119 -554 -138.5 -639.5t-19.5 -112.5q0 -86 82 -86q62 0 99 47.5t73 133.5h86q-129 -379 -381 -379 q-118 0 -179.5 62.5t-61.5 143.5t37 240q-56 -12 -115 -12q-57 -238 -100 -307.5t-92 -98t-114 -28.5q-118 0 -177.5 66.5t-59.5 172.5zM391 683.5q0 -97.5 43 -131.5t105 -34h32q15 0 27 4l86 391h-49q-122 0 -183 -66t-61 -163.5z" />
<glyph unicode="&#x451;" horiz-adv-x="786" d="M-27 313q0 234 119 453q91 167 248 238q81 38 168 38q142 0 193 -53.5t51 -142.5q0 -175 -141 -297.5t-330 -134.5q-5 -58 -5 -82q0 -105 37 -138.5t104 -33.5q118 0 198.5 52.5t170.5 154.5h70q-230 -379 -563 -379q-146 0 -233 75.5t-87 249.5zM244 1297q0 52 35 89 q36 37 88.5 37t89.5 -36.5t37 -89t-37 -88.5q-38 -35 -77 -35q-66 0 -101 35.5t-35 87.5zM297 512q118 8 207.5 110t89.5 238q0 74 -51 74q-75 -2 -145 -132.5t-101 -289.5zM612 1297q0 53 36 89.5t88 36.5t89 -36.5t37 -89t-37 -88.5q-38 -35 -77 -35q-64 0 -100 35t-36 88 z" />
<glyph unicode="&#x452;" horiz-adv-x="1006" d="M-78 0l217 1024h-110l22 111h113l55 258l303 41l-63 -299h256l-25 -111h-256l-53 -248q101 115 242 115q98 0 162.5 -54.5t64.5 -177.5q0 -42 -14 -110l-105 -475q96 31 164 95q67 64 111 198h86q-80 -262 -278 -347q-55 -24 -105 -36l-33 -148q-65 -287 -244 -334 q-51 -14 -124 -14t-140.5 49.5t-67.5 160t111 194.5q87 67 225 106l105 484q7 31 11 52l6 31q3 22 3 35q0 105 -74 105q-55 0 -99.5 -55.5t-61.5 -133.5l-109 -516h-295zM213 -274q0 -35 19 -56.5t51 -21.5t65 44.5t46.5 110.5t21.5 93q-145 -56 -186 -121q-17 -27 -17 -49z " />
<glyph unicode="&#x453;" horiz-adv-x="768" d="M-43 219q0 130 113 225q48 41 104 74t104 68q113 80 113 175t-94 95q-132 0 -221 -213h-99q68 192 172.5 295.5t284.5 103.5t244 -125q22 -44 22 -106.5t-18 -111.5t-48 -87q-49 -62 -150 -126l-79 -50q-87 -53 -112 -92.5t-25 -75.5q0 -108 141.5 -108t264.5 109 q45 40 94 98h70q-243 -379 -547 -379q-334 0 -334 231zM400 1149l186 387h215l-248 -387h-153z" />
<glyph unicode="&#x454;" horiz-adv-x="786" d="M-27 313q0 235 119 454q90 165 247 237q81 38 167 38q246 0 246 -186q0 -78 -32 -114.5t-72 -36.5t-77 24q25 66 25 121q0 84 -57 84q-91 0 -173 -199q-24 -58 -42 -121h243l-26 -122h-248q-17 -88 -17 -176.5t37 -122t104 -33.5q118 0 198.5 52.5t170.5 154.5h70 q-230 -379 -563 -379q-146 0 -233 75.5t-87 249.5z" />
<glyph unicode="&#x455;" horiz-adv-x="782" d="M-66 233.5q0 88.5 34 137.5t75 69q144 258 252 607l303 40q8 -192 16 -321l25 -325q4 -48 4 -95t-8 -82q90 52 147 103h86q-127 -148 -313 -256q-116 -123 -322 -123q-144 0 -221.5 78.5t-77.5 167zM43 293q0 -143 107 -143q196 0 196 190q0 53 -8 125l-12 117 q-11 112 -19 243q-52 -168 -166 -387q47 -22 47 -65.5t-24.5 -75t-66 -31.5t-54.5 27z" />
<glyph unicode="&#x456;" horiz-adv-x="547" d="M-16 233q0 58 16 134l139 657h295l-147 -696q-8 -37 -8 -73q0 -69 83 -69q60 0 111.5 52t73.5 129h86q-132 -379 -441 -379q-81 0 -145 58q-63 58 -63 187zM180 1296q0 67 46.5 115.5t115 48.5t116.5 -48t48 -116t-48.5 -114.5t-116 -46.5t-114.5 47t-47 114z" />
<glyph unicode="&#x457;" horiz-adv-x="547" d="M-16 233q0 58 16 134l139 657h295l-147 -696q-8 -37 -8 -73q0 -69 83 -69q60 0 111.5 52t73.5 129h86q-132 -379 -441 -379q-81 0 -145 58q-63 58 -63 187zM33 1297q0 52 35 89q36 37 88.5 37t89.5 -36.5t37 -89t-37 -88.5q-38 -35 -76 -35q-66 0 -101.5 35.5t-35.5 87.5 zM401 1310.5q0 39.5 36 76t88.5 36.5t89 -36.5t36.5 -89t-37 -88t-76 -35.5q-96 0 -128 74q-9 23 -9 62.5z" />
<glyph unicode="&#x458;" horiz-adv-x="492" d="M-414 -313q0 166 218 260q60 26 118 45l219 1032h295l-203 -950q95 32 155 95t104 198h86q-80 -263 -264 -347q-51 -24 -99 -36l-31 -148q-39 -197 -156 -284q-86 -64 -196.5 -64t-178 49.5t-67.5 149.5zM-301 -285q0 -41 39 -61q13 -6 38 -6t58 44.5t53 137.5l13 59 q-201 -70 -201 -174zM164 1298q0 67 46.5 115.5t114.5 48.5t116 -48t48 -116t-48.5 -114.5t-115.5 -46.5t-114 47t-47 114z" />
<glyph unicode="&#x459;" horiz-adv-x="1526" d="M-78 228.5q0 104.5 74 142.5q23 12 62 12t68.5 -29.5t29.5 -79t-25 -73t-57 -19.5q1 -21 16.5 -43t64 -22t79.5 33q55 57 88 215l30 151q88 428 266 488q58 20 127 20h302l-72 -332q98 41 213.5 41t185.5 -71t70 -216.5t-121 -286.5q-154 -171 -410 -171 q-139 0 -220 69.5t-81 192.5q0 57 15 117l114 522q-103 0 -156.5 -86t-90.5 -258t-61 -266.5t-59 -158.5q-71 -132 -227 -132q-112 0 -168.5 68t-56.5 172.5zM887 246q0 -84 88 -84q75 0 138 94t63 174q0 152 -111 152q-65 0 -121 -37l-51 -242q-6 -18 -6 -57z" />
<glyph unicode="&#x45a;" horiz-adv-x="1421" d="M-78 0l217 1024h295l-88 -410h232l90 410h274l-72 -332q98 41 213.5 41t185.5 -71t70 -192q0 -176 -137 -329q-49 -54 -150 -103.5t-241.5 -49.5t-221.5 69.5t-81 192.5q0 55 14 117l27 125h-227l-105 -492h-295zM782 246q0 -84 88 -84q75 0 138 94t63 174 q0 152 -110 152q-65 0 -121 -37l-52 -242q-6 -18 -6 -57z" />
<glyph unicode="&#x45b;" d="M-78 0l217 1024h-110l22 111h113l55 258l303 41l-63 -299h256l-25 -111h-256l-53 -248q101 115 242 115q98 0 162.5 -54.5t64.5 -177.5q0 -63 -35 -200t-35 -181q0 -92 75 -92q69 0 106 44t73 137h86q-119 -345 -322 -375q-32 -4 -79 -4t-93 20q-128 54 -128 211 q0 60 22 157l31 143q10 47 10 81q0 105 -74 105q-55 0 -99.5 -55.5t-61.5 -133.5l-109 -516h-295z" />
<glyph unicode="&#x45c;" horiz-adv-x="1026" d="M-78 0l219 1024h295l-88 -406l128 132l98 107q97 104 154 145q57 40 130.5 40t108 -38.5t34.5 -98t-33 -95.5t-96 -36t-88 34q-24 34 -24 51v20q-58 -35 -104 -85l-76 -84q-29 -32 -62 -65q46 8 86 8q111 0 153 -49.5t42 -140.5q0 -24 -4 -48l-9 -49q-12 -71 -12 -104 q0 -76 82 -76q62 0 95.5 43t74.5 138h86q-129 -379 -373 -379q-125 0 -186 61.5t-61 165.5q0 51 12 105.5t12 89.5q0 98 -78 98q-36 0 -72 -28l-59 -48l-90 -432h-295zM475 1149l186 387h215l-248 -387h-153z" />
<glyph unicode="&#x45e;" horiz-adv-x="995" d="M-16 233q0 58 16 134l139 657h295l-147 -696q-6 -26 -6 -52q0 -90 61 -90q87 0 136 101q15 31 24 67l143 670h295l-203 -950q93 31 153.5 94.5t104.5 198.5h86q-78 -264 -264 -348q-51 -23 -98 -35l-31 -148q-39 -197 -156 -284q-86 -64 -197 -64t-178 49t-67 157 q0 187 334 298l25 110q-106 -114 -246 -114q-92 0 -156 58q-63 58 -63 187zM203 -285q0 -41 39 -61q13 -6 38 -6t58 44.5t53 137.5l12 59q-200 -72 -200 -174zM266 1292.5q0 73.5 37 115.5t99 42q128 0 128 -117q0 -60 -49 -92q32 -8 82 -8q223 0 316 240h86 q-96 -281 -297 -333q-64 -16 -163 -16t-169 47.5t-70 121z" />
<glyph unicode="&#x45f;" d="M-16 233q0 58 16 134l139 657h295l-147 -696q-6 -32 -6 -58q0 -84 61 -84q108 0 164 181l139 657h295l-147 -696q-9 -35 -9 -72q0 -70 84 -70q115 0 166 181h86q-130 -379 -411 -379q-183 0 -203 194q-120 -194 -303 -194q-92 0 -156 58q-63 58 -63 187zM309 -229 q0 120 109 229h104q-26 -26 -26 -56t16 -52l34 -48q50 -68 50 -135q-4 -107 -111 -221h-104q27 27 27 60t-15.5 54.5t-34.5 43.5q-49 59 -49 125z" />
<glyph unicode="&#x490;" horiz-adv-x="883" d="M25 1010q0 62 15 128t50 125q76 127 234 200t411 73q52 0 147.5 -11.5t145.5 -11.5q100 0 150 79q29 49 55 190q43 -37 66.5 -94.5t23.5 -118.5q0 -129 -77 -204t-208 -75q-80 0 -272 41l-285 -1331h-295l295 1368q-132 -4 -199 -97t-67 -327q0 -81 25 -125q4 -8 4 -14 q-166 0 -205 105q-14 38 -14 100z" />
<glyph unicode="&#x491;" horiz-adv-x="700" d="M-78 0l217 1024h377q83 0 90 31q-33 13 -33 51.5t25 66t77.5 27.5t77.5 -29.5t25 -72.5q0 -93 -63 -156t-174 -63h-138l-186 -879h-295z" />
<glyph unicode="&#x2000;" horiz-adv-x="1024" />
<glyph unicode="&#x2001;" horiz-adv-x="2048" />
<glyph unicode="&#x2002;" horiz-adv-x="1024" />
<glyph unicode="&#x2003;" horiz-adv-x="2048" />
<glyph unicode="&#x2004;" horiz-adv-x="682" />
<glyph unicode="&#x2005;" horiz-adv-x="512" />
<glyph unicode="&#x2006;" horiz-adv-x="341" />
<glyph unicode="&#x2007;" horiz-adv-x="341" />
<glyph unicode="&#x2008;" horiz-adv-x="256" />
<glyph unicode="&#x2009;" horiz-adv-x="409" />
<glyph unicode="&#x200a;" horiz-adv-x="113" />
<glyph unicode="&#x2010;" horiz-adv-x="594" d="M39 455l37 161h409l-34 -161h-412z" />
<glyph unicode="&#x2011;" horiz-adv-x="594" d="M39 455l37 161h409l-34 -161h-412z" />
<glyph unicode="&#x2012;" horiz-adv-x="594" d="M39 455l37 161h409l-34 -161h-412z" />
<glyph unicode="&#x2013;" horiz-adv-x="721" d="M39 455l37 161h532l-35 -161h-534z" />
<glyph unicode="&#x2014;" horiz-adv-x="909" d="M39 455l37 161h717l-35 -161h-719z" />
<glyph unicode="&#x2018;" horiz-adv-x="625" d="M172 1387q0 70 34 107.5t97 37.5t106.5 -42t43.5 -93q0 -86 -91 -137q-24 -17 -24 -35l100 -144q0 -18 -18 -28q-118 75 -183 169.5t-65 164.5z" />
<glyph unicode="&#x2019;" horiz-adv-x="625" d="M172 1379.5q0 68.5 43 110.5t106.5 42t97.5 -37.5t34 -108t-65 -164t-183 -169.5q-19 10 -19 28l101 144q0 19 -25 35q-90 51 -90 119.5z" />
<glyph unicode="&#x201a;" horiz-adv-x="580" d="M156 146.5q0 68.5 43 110.5t106.5 42t97 -37.5t33.5 -107.5t-64 -163t-184 -171q-18 10 -18 28l100 144q0 18 -24 35q-90 51 -90 119.5z" />
<glyph unicode="&#x201c;" horiz-adv-x="1042" d="M156 1198q0 70 65 164t182 170q19 -10 19 -28l-100 -144q0 -18 24 -35q90 -51 90 -137q0 -51 -43.5 -93t-105.5 -42q-131 0 -131 145zM606 1198q0 70 65 164.5t183 169.5q18 -10 18 -28l-100 -144q0 -19 25 -35q90 -51 90 -137q0 -51 -43.5 -93t-106.5 -42t-97 37.5 t-34 107.5z" />
<glyph unicode="&#x201d;" horiz-adv-x="1042" d="M156 1379.5q0 68.5 43 110.5t106.5 42t97 -37.5t33.5 -108t-65 -164t-183 -169.5q-18 10 -18 28l100 144q0 18 -24 35q-90 51 -90 119.5zM606 1379.5q0 68.5 43 110.5t106.5 42t97.5 -37.5t34 -108t-65 -164t-183 -169.5q-18 10 -18 28l100 144q0 19 -25 35 q-90 51 -90 119.5z" />
<glyph unicode="&#x201e;" horiz-adv-x="1042" d="M156 146.5q0 68.5 43 110.5t106.5 42t97 -37.5t33.5 -107.5t-64 -163t-184 -171q-18 10 -18 28l100 144q0 18 -24 35q-90 51 -90 119.5zM606 146.5q0 68.5 43 110.5t106.5 42t97.5 -37.5t34 -107.5t-64 -163t-184 -171q-18 10 -18 28l100 144q0 19 -25 35 q-90 51 -90 119.5z" />
<glyph unicode="&#x2020;" horiz-adv-x="1014" d="M139 647l49 230h297l142 659h147l-141 -659h309l-47 -230h-309l-246 -1159h-147l245 1159h-299z" />
<glyph unicode="&#x2021;" horiz-adv-x="1014" d="M49 207l49 229h295l45 211h-299l49 230h297l142 659h147l-141 -659h309l-47 -230h-309l-45 -211h311l-47 -229h-313l-152 -719h-147l151 719h-295z" />
<glyph unicode="&#x2022;" horiz-adv-x="889" d="M246 546q0 82 57 140q57 59 139 59t140 -59q59 -58 59 -139q0 -82 -59 -139q-59 -58 -140.5 -58t-138.5 58q-57 57 -57 138z" />
<glyph unicode="&#x2026;" horiz-adv-x="1438" d="M63 153q0 67 47 116q48 48 115.5 48t115.5 -48t48 -116t-48.5 -114.5t-115 -46.5t-115.5 47q-47 47 -47 114zM545 153q0 67 46.5 115.5t114.5 48.5t116 -48t48 -116t-48.5 -114.5t-115.5 -46.5t-114 47t-47 114zM1047 153q0 67 46.5 115.5t114.5 48.5t116 -48t48 -116 t-48.5 -114.5t-115.5 -46.5t-114 47t-47 114z" />
<glyph unicode="&#x202f;" horiz-adv-x="409" />
<glyph unicode="&#x2030;" horiz-adv-x="1866" d="M184 986q0 200 90 326t242 126q90 0 129 -59.5t39 -191t-84 -276.5t-224 -145q-109 0 -150.5 58t-41.5 162zM213 0l791 1536h147l-791 -1536h-147zM332 1016.5q0 -92.5 10 -133.5t48 -41q76 0 124 120q47 112 47 275q0 53 -9 91t-42 38q-51 0 -102 -78 q-26 -38 -51 -108.5t-25 -163zM692 220q0 200 90 326t242 126q91 0 139.5 -59t48.5 -194.5t-72 -263.5q-88 -155 -252 -155q-113 0 -154.5 58t-41.5 162zM829 212.5q0 -54.5 10 -95.5t48 -41q75 0 120.5 110.5t45.5 260t-58 149.5q-50 0 -100 -82t-61 -217q-5 -30 -5 -84.5z M1282 218q0 202 90 328t242 126q91 0 139.5 -59t48.5 -194.5t-72 -263.5q-88 -155 -252 -155q-115 0 -155.5 57t-40.5 161zM1419 209q0 -51 10 -92t48 -41q75 0 120 109t45 260t-57 151q-50 0 -96 -76q-70 -114 -70 -311z" />
<glyph unicode="&#x2039;" horiz-adv-x="735" d="M41 487l18 84l629 349l-20 -113l-494 -287l397 -237l-24 -117z" />
<glyph unicode="&#x203a;" horiz-adv-x="705" d="M31 166l28 117l492 237l-397 287l18 113l504 -349l-23 -110z" />
<glyph unicode="&#x205f;" horiz-adv-x="512" />
<glyph unicode="&#x20ac;" horiz-adv-x="1174" d="M-6 582l29 102h151q12 102 16 133h-145l29 103h137q101 429 394 566q108 50 253 50q246 0 328 -149q28 -52 28 -125q0 -189 -143 -189q-72 0 -117 53q55 20 83 123q7 26 7 42q0 53 -21 89q-35 60 -110 60q-132 0 -228.5 -148.5t-149.5 -371.5h413l-28 -103h-408 q-6 -35 -9 -67.5t-7 -65.5h401l-29 -102h-379v-27q0 -211 55 -297t222 -86t248 42q31 16 61 40l4 -59q-90 -120 -203.5 -163.5t-278 -43.5t-282.5 104q-147 128 -147 418v72h-174z" />
<glyph unicode="&#x2122;" horiz-adv-x="776" d="M-47 1188q0 109 111 146q40 14 98 14l153 -11q54 0 76 11q-16 -80 -51 -80q-25 0 -55.5 7t-65.5 11l-86 -399h-88l88 407q-123 -2 -123 -125q0 -21 8 -41q-65 0 -65 60zM305 887l139 430l84 12v-346l136 356h96l-78 -452h-88l55 319l-129 -319h-84v268l-82 -268h-49z" />
<glyph unicode="&#xe000;" horiz-adv-x="1140" d="M0 0v1140h1140v-1140h-1140z" />
</font>
</defs>
</svg>
